%TF.GenerationSoftware,KiCad,Pcbnew,5.1.10-88a1d61d58~90~ubuntu20.04.1*%
%TF.CreationDate,2021-10-29T16:11:56-04:00*%
%TF.ProjectId,jrgbwww24,6a726762-7777-4773-9234-2e6b69636164,rev?*%
%TF.SameCoordinates,Original*%
%TF.FileFunction,Soldermask,Top*%
%TF.FilePolarity,Negative*%
%FSLAX46Y46*%
G04 Gerber Fmt 4.6, Leading zero omitted, Abs format (unit mm)*
G04 Created by KiCad (PCBNEW 5.1.10-88a1d61d58~90~ubuntu20.04.1) date 2021-10-29 16:11:56*
%MOMM*%
%LPD*%
G01*
G04 APERTURE LIST*
%ADD10O,2.200000X2.200000*%
%ADD11R,2.200000X2.200000*%
%ADD12O,1.050000X1.500000*%
%ADD13R,1.050000X1.500000*%
%ADD14O,1.730000X2.030000*%
%ADD15R,1.730000X2.030000*%
%ADD16O,1.800000X1.275000*%
%ADD17R,1.800000X1.275000*%
%ADD18O,3.500000X3.500000*%
%ADD19C,3.000000*%
%ADD20R,3.000000X3.000000*%
%ADD21R,5.400000X4.900000*%
%ADD22C,1.600000*%
%ADD23R,1.600000X1.600000*%
%ADD24O,1.905000X2.000000*%
%ADD25R,1.905000X2.000000*%
%ADD26C,6.000000*%
%ADD27C,1.524000*%
%ADD28R,1.524000X1.524000*%
%ADD29O,1.600000X1.600000*%
G04 APERTURE END LIST*
D10*
%TO.C,D4*%
X101620000Y-103000000D03*
D11*
X94000000Y-103000000D03*
%TD*%
D12*
%TO.C,Q5*%
X118270000Y-91000000D03*
X119540000Y-91000000D03*
D13*
X117000000Y-91000000D03*
%TD*%
D12*
%TO.C,Q4*%
X126270000Y-91000000D03*
X127540000Y-91000000D03*
D13*
X125000000Y-91000000D03*
%TD*%
D12*
%TO.C,Q3*%
X134270000Y-91000000D03*
X135540000Y-91000000D03*
D13*
X133000000Y-91000000D03*
%TD*%
D12*
%TO.C,Q2*%
X142000000Y-91000000D03*
X143270000Y-91000000D03*
D13*
X140730000Y-91000000D03*
%TD*%
D12*
%TO.C,Q1*%
X149770000Y-91000000D03*
X151040000Y-91000000D03*
D13*
X148500000Y-91000000D03*
%TD*%
D14*
%TO.C,J3*%
X158420000Y-112000000D03*
X160960000Y-112000000D03*
D15*
X163500000Y-112000000D03*
%TD*%
D16*
%TO.C,U2*%
X94000000Y-96800000D03*
X94000000Y-95100000D03*
X94000000Y-93400000D03*
X94000000Y-91700000D03*
D17*
X94000000Y-90000000D03*
D18*
X110660000Y-93400000D03*
%TD*%
D19*
%TO.C,SW1*%
X100300000Y-111000000D03*
X105000000Y-111000000D03*
D20*
X109700000Y-111000000D03*
%TD*%
D21*
%TO.C,L1*%
X105500000Y-68700000D03*
X105500000Y-80500000D03*
%TD*%
D19*
%TO.C,J1*%
X171000000Y-100920000D03*
D20*
X171000000Y-106000000D03*
%TD*%
D22*
%TO.C,C2*%
X107000000Y-103000000D03*
D23*
X109000000Y-103000000D03*
%TD*%
D22*
%TO.C,C1*%
X145000000Y-112000000D03*
D23*
X143000000Y-112000000D03*
%TD*%
D24*
%TO.C,Q8*%
X162080000Y-88000000D03*
X159540000Y-88000000D03*
D25*
X157000000Y-88000000D03*
%TD*%
D24*
%TO.C,Q7*%
X162080000Y-96500000D03*
X159540000Y-96500000D03*
D25*
X157000000Y-96500000D03*
%TD*%
D24*
%TO.C,Q10*%
X162040000Y-71000000D03*
X159500000Y-71000000D03*
D25*
X156960000Y-71000000D03*
%TD*%
D24*
%TO.C,Q9*%
X162040000Y-79500000D03*
X159500000Y-79500000D03*
D25*
X156960000Y-79500000D03*
%TD*%
D24*
%TO.C,Q6*%
X162080000Y-105000000D03*
X159540000Y-105000000D03*
D25*
X157000000Y-105000000D03*
%TD*%
D26*
%TO.C,REF\u002A\u002A*%
X152000000Y-64000000D03*
%TD*%
%TO.C,REF\u002A\u002A*%
X152000000Y-112000000D03*
%TD*%
%TO.C,REF\u002A\u002A*%
X94000000Y-112000000D03*
%TD*%
%TO.C,REF\u002A\u002A*%
X94000000Y-64000000D03*
%TD*%
D27*
%TO.C,U1*%
X105440000Y-85860000D03*
D28*
X107980000Y-85860000D03*
D27*
X110520000Y-85860000D03*
X113060000Y-85860000D03*
X115600000Y-85860000D03*
X118140000Y-85860000D03*
X120680000Y-85860000D03*
X123220000Y-85860000D03*
D28*
X125760000Y-85860000D03*
D27*
X128300000Y-85860000D03*
X130840000Y-85860000D03*
X133380000Y-85860000D03*
X135920000Y-85860000D03*
X138460000Y-85860000D03*
X141000000Y-85860000D03*
X105440000Y-63000000D03*
D28*
X107980000Y-63000000D03*
D27*
X110520000Y-63000000D03*
X113060000Y-63000000D03*
X115600000Y-63000000D03*
D28*
X118140000Y-63000000D03*
D27*
X120680000Y-63000000D03*
X123220000Y-63000000D03*
X125760000Y-63000000D03*
X128300000Y-63000000D03*
X130840000Y-63000000D03*
X133380000Y-63000000D03*
X135920000Y-63000000D03*
X138460000Y-63000000D03*
X141000000Y-63000000D03*
%TD*%
D29*
%TO.C,R8*%
X126000000Y-98380000D03*
D22*
X126000000Y-106000000D03*
%TD*%
D29*
%TO.C,R7*%
X121000000Y-98380000D03*
D22*
X121000000Y-106000000D03*
%TD*%
D29*
%TO.C,R6*%
X116000000Y-98380000D03*
D22*
X116000000Y-106000000D03*
%TD*%
D29*
%TO.C,R5*%
X131000000Y-98380000D03*
D22*
X131000000Y-106000000D03*
%TD*%
D29*
%TO.C,R4*%
X136000000Y-98380000D03*
D22*
X136000000Y-106000000D03*
%TD*%
D29*
%TO.C,R3*%
X141000000Y-98380000D03*
D22*
X141000000Y-106000000D03*
%TD*%
D29*
%TO.C,R2*%
X146000000Y-98380000D03*
D22*
X146000000Y-106000000D03*
%TD*%
D29*
%TO.C,R1*%
X151000000Y-98380000D03*
D22*
X151000000Y-106000000D03*
%TD*%
D19*
%TO.C,J2*%
X170925300Y-70330600D03*
X170925300Y-75410600D03*
X170925300Y-80490600D03*
D20*
X170925300Y-95730600D03*
D19*
X170925300Y-85570600D03*
X170925300Y-90650600D03*
%TD*%
%TO.C,D3*%
G36*
G01*
X133725000Y-111175000D02*
X133725000Y-112425000D01*
G75*
G02*
X133475000Y-112675000I-250000J0D01*
G01*
X132725000Y-112675000D01*
G75*
G02*
X132475000Y-112425000I0J250000D01*
G01*
X132475000Y-111175000D01*
G75*
G02*
X132725000Y-110925000I250000J0D01*
G01*
X133475000Y-110925000D01*
G75*
G02*
X133725000Y-111175000I0J-250000D01*
G01*
G37*
G36*
G01*
X136525000Y-111175000D02*
X136525000Y-112425000D01*
G75*
G02*
X136275000Y-112675000I-250000J0D01*
G01*
X135525000Y-112675000D01*
G75*
G02*
X135275000Y-112425000I0J250000D01*
G01*
X135275000Y-111175000D01*
G75*
G02*
X135525000Y-110925000I250000J0D01*
G01*
X136275000Y-110925000D01*
G75*
G02*
X136525000Y-111175000I0J-250000D01*
G01*
G37*
%TD*%
%TO.C,D2*%
G36*
G01*
X124725000Y-111175000D02*
X124725000Y-112425000D01*
G75*
G02*
X124475000Y-112675000I-250000J0D01*
G01*
X123725000Y-112675000D01*
G75*
G02*
X123475000Y-112425000I0J250000D01*
G01*
X123475000Y-111175000D01*
G75*
G02*
X123725000Y-110925000I250000J0D01*
G01*
X124475000Y-110925000D01*
G75*
G02*
X124725000Y-111175000I0J-250000D01*
G01*
G37*
G36*
G01*
X127525000Y-111175000D02*
X127525000Y-112425000D01*
G75*
G02*
X127275000Y-112675000I-250000J0D01*
G01*
X126525000Y-112675000D01*
G75*
G02*
X126275000Y-112425000I0J250000D01*
G01*
X126275000Y-111175000D01*
G75*
G02*
X126525000Y-110925000I250000J0D01*
G01*
X127275000Y-110925000D01*
G75*
G02*
X127525000Y-111175000I0J-250000D01*
G01*
G37*
%TD*%
%TO.C,D1*%
G36*
G01*
X115925000Y-111175000D02*
X115925000Y-112425000D01*
G75*
G02*
X115675000Y-112675000I-250000J0D01*
G01*
X114925000Y-112675000D01*
G75*
G02*
X114675000Y-112425000I0J250000D01*
G01*
X114675000Y-111175000D01*
G75*
G02*
X114925000Y-110925000I250000J0D01*
G01*
X115675000Y-110925000D01*
G75*
G02*
X115925000Y-111175000I0J-250000D01*
G01*
G37*
G36*
G01*
X118725000Y-111175000D02*
X118725000Y-112425000D01*
G75*
G02*
X118475000Y-112675000I-250000J0D01*
G01*
X117725000Y-112675000D01*
G75*
G02*
X117475000Y-112425000I0J250000D01*
G01*
X117475000Y-111175000D01*
G75*
G02*
X117725000Y-110925000I250000J0D01*
G01*
X118475000Y-110925000D01*
G75*
G02*
X118725000Y-111175000I0J-250000D01*
G01*
G37*
%TD*%
M02*
