%TF.GenerationSoftware,KiCad,Pcbnew,5.1.10-88a1d61d58~90~ubuntu20.04.1*%
%TF.CreationDate,2021-10-16T18:09:50-04:00*%
%TF.ProjectId,jrgbwww24,6a726762-7777-4773-9234-2e6b69636164,rev?*%
%TF.SameCoordinates,Original*%
%TF.FileFunction,Copper,L1,Top*%
%TF.FilePolarity,Positive*%
%FSLAX46Y46*%
G04 Gerber Fmt 4.6, Leading zero omitted, Abs format (unit mm)*
G04 Created by KiCad (PCBNEW 5.1.10-88a1d61d58~90~ubuntu20.04.1) date 2021-10-16 18:09:50*
%MOMM*%
%LPD*%
G01*
G04 APERTURE LIST*
%TA.AperFunction,ComponentPad*%
%ADD10O,1.050000X1.500000*%
%TD*%
%TA.AperFunction,ComponentPad*%
%ADD11R,1.050000X1.500000*%
%TD*%
%TA.AperFunction,ComponentPad*%
%ADD12O,1.730000X2.030000*%
%TD*%
%TA.AperFunction,ComponentPad*%
%ADD13R,1.730000X2.030000*%
%TD*%
%TA.AperFunction,ComponentPad*%
%ADD14O,1.800000X1.275000*%
%TD*%
%TA.AperFunction,ComponentPad*%
%ADD15R,1.800000X1.275000*%
%TD*%
%TA.AperFunction,ComponentPad*%
%ADD16C,3.000000*%
%TD*%
%TA.AperFunction,ComponentPad*%
%ADD17R,3.000000X3.000000*%
%TD*%
%TA.AperFunction,ComponentPad*%
%ADD18O,1.600000X1.600000*%
%TD*%
%TA.AperFunction,ComponentPad*%
%ADD19C,1.600000*%
%TD*%
%TA.AperFunction,SMDPad,CuDef*%
%ADD20R,5.400000X4.900000*%
%TD*%
%TA.AperFunction,ComponentPad*%
%ADD21O,2.200000X2.200000*%
%TD*%
%TA.AperFunction,ComponentPad*%
%ADD22R,2.200000X2.200000*%
%TD*%
%TA.AperFunction,ComponentPad*%
%ADD23R,1.600000X1.600000*%
%TD*%
%TA.AperFunction,ComponentPad*%
%ADD24O,1.905000X2.000000*%
%TD*%
%TA.AperFunction,ComponentPad*%
%ADD25R,1.905000X2.000000*%
%TD*%
%TA.AperFunction,ComponentPad*%
%ADD26C,6.000000*%
%TD*%
%TA.AperFunction,ComponentPad*%
%ADD27C,1.524000*%
%TD*%
%TA.AperFunction,ComponentPad*%
%ADD28R,1.524000X1.524000*%
%TD*%
%TA.AperFunction,ViaPad*%
%ADD29C,0.800000*%
%TD*%
%TA.AperFunction,Conductor*%
%ADD30C,0.250000*%
%TD*%
%TA.AperFunction,Conductor*%
%ADD31C,0.254000*%
%TD*%
%TA.AperFunction,Conductor*%
%ADD32C,0.100000*%
%TD*%
G04 APERTURE END LIST*
D10*
%TO.P,Q5,2*%
%TO.N,/WW_SIGNAL*%
X118270000Y-91000000D03*
%TO.P,Q5,3*%
%TO.N,Net-(Q10-Pad1)*%
X119540000Y-91000000D03*
D11*
%TO.P,Q5,1*%
%TO.N,Earth*%
X117000000Y-91000000D03*
%TD*%
D10*
%TO.P,Q4,2*%
%TO.N,/CW_SIGNAL*%
X126270000Y-91000000D03*
%TO.P,Q4,3*%
%TO.N,Net-(Q4-Pad3)*%
X127540000Y-91000000D03*
D11*
%TO.P,Q4,1*%
%TO.N,Earth*%
X125000000Y-91000000D03*
%TD*%
D10*
%TO.P,Q3,2*%
%TO.N,/B_SIGNAL*%
X134270000Y-91000000D03*
%TO.P,Q3,3*%
%TO.N,Net-(Q3-Pad3)*%
X135540000Y-91000000D03*
D11*
%TO.P,Q3,1*%
%TO.N,Earth*%
X133000000Y-91000000D03*
%TD*%
D10*
%TO.P,Q2,2*%
%TO.N,/G_SIGNAL*%
X142000000Y-91000000D03*
%TO.P,Q2,3*%
%TO.N,Net-(Q2-Pad3)*%
X143270000Y-91000000D03*
D11*
%TO.P,Q2,1*%
%TO.N,Earth*%
X140730000Y-91000000D03*
%TD*%
D10*
%TO.P,Q1,2*%
%TO.N,/R_SIGNAL*%
X149770000Y-91000000D03*
%TO.P,Q1,3*%
%TO.N,Net-(Q1-Pad3)*%
X151040000Y-91000000D03*
D11*
%TO.P,Q1,1*%
%TO.N,Earth*%
X148500000Y-91000000D03*
%TD*%
D12*
%TO.P,J3,3*%
%TO.N,Net-(J3-Pad3)*%
X158420000Y-112000000D03*
%TO.P,J3,2*%
%TO.N,+5V*%
X160960000Y-112000000D03*
D13*
%TO.P,J3,1*%
%TO.N,Earth*%
X163500000Y-112000000D03*
%TD*%
D14*
%TO.P,U2,5*%
%TO.N,Earth*%
X94000000Y-96800000D03*
%TO.P,U2,4*%
%TO.N,Net-(R10-Pad1)*%
X94000000Y-95100000D03*
%TO.P,U2,3*%
%TO.N,Earth*%
X94000000Y-93400000D03*
%TO.P,U2,2*%
%TO.N,Net-(D4-Pad1)*%
X94000000Y-91700000D03*
D15*
%TO.P,U2,1*%
%TO.N,+24V*%
X94000000Y-90000000D03*
%TD*%
D16*
%TO.P,SW1,3*%
%TO.N,Net-(SW1-Pad3)*%
X100300000Y-111000000D03*
%TO.P,SW1,2*%
%TO.N,VDD*%
X105000000Y-111000000D03*
D17*
%TO.P,SW1,1*%
%TO.N,+24V*%
X109700000Y-111000000D03*
%TD*%
D18*
%TO.P,R10,2*%
%TO.N,Earth*%
X111620000Y-101500000D03*
D19*
%TO.P,R10,1*%
%TO.N,Net-(R10-Pad1)*%
X104000000Y-101500000D03*
%TD*%
D18*
%TO.P,R9,2*%
%TO.N,Net-(R10-Pad1)*%
X94000000Y-85120000D03*
D19*
%TO.P,R9,1*%
%TO.N,+5V*%
X94000000Y-77500000D03*
%TD*%
D20*
%TO.P,L1,2*%
%TO.N,+5V*%
X105500000Y-68700000D03*
%TO.P,L1,1*%
%TO.N,Net-(D4-Pad1)*%
X105500000Y-80500000D03*
%TD*%
D16*
%TO.P,J1,2*%
%TO.N,VDD*%
X171000000Y-100920000D03*
D17*
%TO.P,J1,1*%
%TO.N,Earth*%
X171000000Y-106000000D03*
%TD*%
D21*
%TO.P,D4,2*%
%TO.N,Earth*%
X100620000Y-101500000D03*
D22*
%TO.P,D4,1*%
%TO.N,Net-(D4-Pad1)*%
X93000000Y-101500000D03*
%TD*%
D19*
%TO.P,C2,2*%
%TO.N,Earth*%
X94000000Y-70500000D03*
D23*
%TO.P,C2,1*%
%TO.N,+5V*%
X94000000Y-72500000D03*
%TD*%
D19*
%TO.P,C1,2*%
%TO.N,Earth*%
X145000000Y-112000000D03*
D23*
%TO.P,C1,1*%
%TO.N,+24V*%
X143000000Y-112000000D03*
%TD*%
D24*
%TO.P,Q8,3*%
%TO.N,Earth*%
X162080000Y-88000000D03*
%TO.P,Q8,2*%
%TO.N,/B_GND*%
X159540000Y-88000000D03*
D25*
%TO.P,Q8,1*%
%TO.N,Net-(Q3-Pad3)*%
X157000000Y-88000000D03*
%TD*%
D24*
%TO.P,Q7,3*%
%TO.N,Earth*%
X162080000Y-96500000D03*
%TO.P,Q7,2*%
%TO.N,/G_GND*%
X159540000Y-96500000D03*
D25*
%TO.P,Q7,1*%
%TO.N,Net-(Q2-Pad3)*%
X157000000Y-96500000D03*
%TD*%
D24*
%TO.P,Q10,3*%
%TO.N,Earth*%
X162040000Y-71000000D03*
%TO.P,Q10,2*%
%TO.N,/WW_GND*%
X159500000Y-71000000D03*
D25*
%TO.P,Q10,1*%
%TO.N,Net-(Q10-Pad1)*%
X156960000Y-71000000D03*
%TD*%
D24*
%TO.P,Q9,3*%
%TO.N,Earth*%
X162040000Y-79500000D03*
%TO.P,Q9,2*%
%TO.N,/CW_GND*%
X159500000Y-79500000D03*
D25*
%TO.P,Q9,1*%
%TO.N,Net-(Q4-Pad3)*%
X156960000Y-79500000D03*
%TD*%
D24*
%TO.P,Q6,3*%
%TO.N,Earth*%
X162080000Y-105000000D03*
%TO.P,Q6,2*%
%TO.N,/R_GND*%
X159540000Y-105000000D03*
D25*
%TO.P,Q6,1*%
%TO.N,Net-(Q1-Pad3)*%
X157000000Y-105000000D03*
%TD*%
D26*
%TO.P,REF\u002A\u002A,1*%
%TO.N,N/C*%
X152000000Y-64000000D03*
%TD*%
%TO.P,REF\u002A\u002A,1*%
%TO.N,N/C*%
X152000000Y-112000000D03*
%TD*%
%TO.P,REF\u002A\u002A,1*%
%TO.N,N/C*%
X94000000Y-112000000D03*
%TD*%
%TO.P,REF\u002A\u002A,1*%
%TO.N,N/C*%
X94000000Y-64000000D03*
%TD*%
D27*
%TO.P,U1,30*%
%TO.N,Net-(U1-Pad30)*%
X105440000Y-85860000D03*
D28*
%TO.P,U1,29*%
%TO.N,Earth*%
X107980000Y-85860000D03*
D27*
%TO.P,U1,28*%
%TO.N,N/C*%
X110520000Y-85860000D03*
%TO.P,U1,27*%
%TO.N,Net-(U1-Pad27)*%
X113060000Y-85860000D03*
%TO.P,U1,26*%
%TO.N,/WW_SIGNAL*%
X115600000Y-85860000D03*
%TO.P,U1,25*%
%TO.N,/CW_SIGNAL*%
X118140000Y-85860000D03*
%TO.P,U1,24*%
%TO.N,/B_SIGNAL*%
X120680000Y-85860000D03*
%TO.P,U1,23*%
%TO.N,/G_SIGNAL*%
X123220000Y-85860000D03*
D28*
%TO.P,U1,22*%
%TO.N,Earth*%
X125760000Y-85860000D03*
D27*
%TO.P,U1,21*%
%TO.N,Net-(U1-Pad21)*%
X128300000Y-85860000D03*
%TO.P,U1,20*%
%TO.N,Net-(U1-Pad20)*%
X130840000Y-85860000D03*
%TO.P,U1,19*%
%TO.N,Net-(U1-Pad19)*%
X133380000Y-85860000D03*
%TO.P,U1,18*%
%TO.N,/R_SIGNAL*%
X135920000Y-85860000D03*
%TO.P,U1,17*%
%TO.N,Net-(U1-Pad17)*%
X138460000Y-85860000D03*
%TO.P,U1,16*%
%TO.N,Net-(U1-Pad16)*%
X141000000Y-85860000D03*
%TO.P,U1,15*%
%TO.N,+5V*%
X105440000Y-63000000D03*
D28*
%TO.P,U1,14*%
%TO.N,Earth*%
X107980000Y-63000000D03*
D27*
%TO.P,U1,13*%
%TO.N,Net-(U1-Pad13)*%
X110520000Y-63000000D03*
%TO.P,U1,12*%
%TO.N,Net-(U1-Pad12)*%
X113060000Y-63000000D03*
%TO.P,U1,11*%
%TO.N,Net-(U1-Pad11)*%
X115600000Y-63000000D03*
D28*
%TO.P,U1,10*%
%TO.N,Earth*%
X118140000Y-63000000D03*
D27*
%TO.P,U1,9*%
%TO.N,Net-(U1-Pad9)*%
X120680000Y-63000000D03*
%TO.P,U1,8*%
%TO.N,Net-(U1-Pad8)*%
X123220000Y-63000000D03*
%TO.P,U1,7*%
%TO.N,Net-(U1-Pad7)*%
X125760000Y-63000000D03*
%TO.P,U1,6*%
%TO.N,Net-(U1-Pad6)*%
X128300000Y-63000000D03*
%TO.P,U1,5*%
%TO.N,Net-(U1-Pad5)*%
X130840000Y-63000000D03*
%TO.P,U1,4*%
%TO.N,Net-(U1-Pad4)*%
X133380000Y-63000000D03*
%TO.P,U1,3*%
%TO.N,Net-(U1-Pad3)*%
X135920000Y-63000000D03*
%TO.P,U1,2*%
%TO.N,Net-(U1-Pad2)*%
X138460000Y-63000000D03*
%TO.P,U1,1*%
%TO.N,Net-(U1-Pad1)*%
X141000000Y-63000000D03*
%TD*%
D18*
%TO.P,R8,2*%
%TO.N,+24V*%
X126000000Y-98380000D03*
D19*
%TO.P,R8,1*%
%TO.N,Net-(D3-Pad2)*%
X126000000Y-106000000D03*
%TD*%
D18*
%TO.P,R7,2*%
%TO.N,+5V*%
X121000000Y-98380000D03*
D19*
%TO.P,R7,1*%
%TO.N,Net-(D2-Pad2)*%
X121000000Y-106000000D03*
%TD*%
D18*
%TO.P,R6,2*%
%TO.N,VDD*%
X116000000Y-98380000D03*
D19*
%TO.P,R6,1*%
%TO.N,Net-(D1-Pad2)*%
X116000000Y-106000000D03*
%TD*%
D18*
%TO.P,R5,2*%
%TO.N,Net-(Q10-Pad1)*%
X131000000Y-98380000D03*
D19*
%TO.P,R5,1*%
%TO.N,+24V*%
X131000000Y-106000000D03*
%TD*%
D18*
%TO.P,R4,2*%
%TO.N,Net-(Q4-Pad3)*%
X136000000Y-98380000D03*
D19*
%TO.P,R4,1*%
%TO.N,+24V*%
X136000000Y-106000000D03*
%TD*%
D18*
%TO.P,R3,2*%
%TO.N,Net-(Q3-Pad3)*%
X141000000Y-98380000D03*
D19*
%TO.P,R3,1*%
%TO.N,+24V*%
X141000000Y-106000000D03*
%TD*%
D18*
%TO.P,R2,2*%
%TO.N,Net-(Q2-Pad3)*%
X146000000Y-98380000D03*
D19*
%TO.P,R2,1*%
%TO.N,+24V*%
X146000000Y-106000000D03*
%TD*%
D18*
%TO.P,R1,2*%
%TO.N,Net-(Q1-Pad3)*%
X151000000Y-98380000D03*
D19*
%TO.P,R1,1*%
%TO.N,+24V*%
X151000000Y-106000000D03*
%TD*%
D16*
%TO.P,J2,6*%
%TO.N,/WW_GND*%
X170925300Y-70330600D03*
%TO.P,J2,5*%
%TO.N,/CW_GND*%
X170925300Y-75410600D03*
%TO.P,J2,4*%
%TO.N,/B_GND*%
X170925300Y-80490600D03*
D17*
%TO.P,J2,1*%
%TO.N,+24V*%
X170925300Y-95730600D03*
D16*
%TO.P,J2,3*%
%TO.N,/G_GND*%
X170925300Y-85570600D03*
%TO.P,J2,2*%
%TO.N,/R_GND*%
X170925300Y-90650600D03*
%TD*%
%TO.P,D3,2*%
%TO.N,Net-(D3-Pad2)*%
%TA.AperFunction,SMDPad,CuDef*%
G36*
G01*
X133725000Y-111175000D02*
X133725000Y-112425000D01*
G75*
G02*
X133475000Y-112675000I-250000J0D01*
G01*
X132725000Y-112675000D01*
G75*
G02*
X132475000Y-112425000I0J250000D01*
G01*
X132475000Y-111175000D01*
G75*
G02*
X132725000Y-110925000I250000J0D01*
G01*
X133475000Y-110925000D01*
G75*
G02*
X133725000Y-111175000I0J-250000D01*
G01*
G37*
%TD.AperFunction*%
%TO.P,D3,1*%
%TO.N,Earth*%
%TA.AperFunction,SMDPad,CuDef*%
G36*
G01*
X136525000Y-111175000D02*
X136525000Y-112425000D01*
G75*
G02*
X136275000Y-112675000I-250000J0D01*
G01*
X135525000Y-112675000D01*
G75*
G02*
X135275000Y-112425000I0J250000D01*
G01*
X135275000Y-111175000D01*
G75*
G02*
X135525000Y-110925000I250000J0D01*
G01*
X136275000Y-110925000D01*
G75*
G02*
X136525000Y-111175000I0J-250000D01*
G01*
G37*
%TD.AperFunction*%
%TD*%
%TO.P,D2,2*%
%TO.N,Net-(D2-Pad2)*%
%TA.AperFunction,SMDPad,CuDef*%
G36*
G01*
X124725000Y-111175000D02*
X124725000Y-112425000D01*
G75*
G02*
X124475000Y-112675000I-250000J0D01*
G01*
X123725000Y-112675000D01*
G75*
G02*
X123475000Y-112425000I0J250000D01*
G01*
X123475000Y-111175000D01*
G75*
G02*
X123725000Y-110925000I250000J0D01*
G01*
X124475000Y-110925000D01*
G75*
G02*
X124725000Y-111175000I0J-250000D01*
G01*
G37*
%TD.AperFunction*%
%TO.P,D2,1*%
%TO.N,Earth*%
%TA.AperFunction,SMDPad,CuDef*%
G36*
G01*
X127525000Y-111175000D02*
X127525000Y-112425000D01*
G75*
G02*
X127275000Y-112675000I-250000J0D01*
G01*
X126525000Y-112675000D01*
G75*
G02*
X126275000Y-112425000I0J250000D01*
G01*
X126275000Y-111175000D01*
G75*
G02*
X126525000Y-110925000I250000J0D01*
G01*
X127275000Y-110925000D01*
G75*
G02*
X127525000Y-111175000I0J-250000D01*
G01*
G37*
%TD.AperFunction*%
%TD*%
%TO.P,D1,2*%
%TO.N,Net-(D1-Pad2)*%
%TA.AperFunction,SMDPad,CuDef*%
G36*
G01*
X115925000Y-111175000D02*
X115925000Y-112425000D01*
G75*
G02*
X115675000Y-112675000I-250000J0D01*
G01*
X114925000Y-112675000D01*
G75*
G02*
X114675000Y-112425000I0J250000D01*
G01*
X114675000Y-111175000D01*
G75*
G02*
X114925000Y-110925000I250000J0D01*
G01*
X115675000Y-110925000D01*
G75*
G02*
X115925000Y-111175000I0J-250000D01*
G01*
G37*
%TD.AperFunction*%
%TO.P,D1,1*%
%TO.N,Earth*%
%TA.AperFunction,SMDPad,CuDef*%
G36*
G01*
X118725000Y-111175000D02*
X118725000Y-112425000D01*
G75*
G02*
X118475000Y-112675000I-250000J0D01*
G01*
X117725000Y-112675000D01*
G75*
G02*
X117475000Y-112425000I0J250000D01*
G01*
X117475000Y-111175000D01*
G75*
G02*
X117725000Y-110925000I250000J0D01*
G01*
X118475000Y-110925000D01*
G75*
G02*
X118725000Y-111175000I0J-250000D01*
G01*
G37*
%TD.AperFunction*%
%TD*%
D29*
%TO.N,Earth*%
X121000000Y-112000000D03*
X130000000Y-112000000D03*
X139000000Y-112000000D03*
%TD*%
D30*
%TO.N,Earth*%
X136100000Y-112000000D02*
X135900000Y-111800000D01*
X139000000Y-112000000D02*
X136100000Y-112000000D01*
X127100000Y-112000000D02*
X126900000Y-111800000D01*
X130000000Y-112000000D02*
X127100000Y-112000000D01*
X118300000Y-112000000D02*
X118100000Y-111800000D01*
X121000000Y-112000000D02*
X118300000Y-112000000D01*
%TO.N,+5V*%
X105500000Y-63060000D02*
X105440000Y-63000000D01*
X105500000Y-68700000D02*
X105500000Y-63060000D01*
X103200000Y-71000000D02*
X105500000Y-68700000D01*
X111607001Y-88987001D02*
X121000000Y-98380000D01*
X111607001Y-71857001D02*
X111607001Y-88987001D01*
X108450000Y-68700000D02*
X111607001Y-71857001D01*
X105500000Y-68700000D02*
X108450000Y-68700000D01*
X160960000Y-112000000D02*
X160960000Y-111960000D01*
X94000000Y-77500000D02*
X94000000Y-72500000D01*
X101700000Y-72500000D02*
X105500000Y-68700000D01*
X94000000Y-72500000D02*
X101700000Y-72500000D01*
X121000000Y-98380000D02*
X130620000Y-108000000D01*
X130620000Y-108000000D02*
X153500000Y-108000000D01*
X159619990Y-110659990D02*
X160960000Y-112000000D01*
X156159990Y-110659990D02*
X159619990Y-110659990D01*
X153500000Y-108000000D02*
X156159990Y-110659990D01*
%TO.N,Net-(D1-Pad2)*%
X116000000Y-106000000D02*
X115000000Y-107000000D01*
X115000000Y-111500000D02*
X115300000Y-111800000D01*
X115000000Y-107000000D02*
X115000000Y-111500000D01*
%TO.N,Net-(D2-Pad2)*%
X121000000Y-108700000D02*
X124100000Y-111800000D01*
X121000000Y-106000000D02*
X121000000Y-108700000D01*
%TO.N,Net-(D3-Pad2)*%
X131300000Y-110000000D02*
X133100000Y-111800000D01*
X128000000Y-110000000D02*
X131300000Y-110000000D01*
X126000000Y-108000000D02*
X128000000Y-110000000D01*
X126000000Y-106000000D02*
X126000000Y-108000000D01*
%TO.N,/WW_GND*%
X159500000Y-71000000D02*
X159500000Y-70952500D01*
X169425301Y-68830601D02*
X170925300Y-70330600D01*
X160419399Y-68830601D02*
X169425301Y-68830601D01*
X159500000Y-69750000D02*
X160419399Y-68830601D01*
X159500000Y-71000000D02*
X159500000Y-69750000D01*
%TO.N,/CW_GND*%
X159500000Y-79500000D02*
X159500000Y-78000000D01*
X162089400Y-75410600D02*
X170925300Y-75410600D01*
X159500000Y-78000000D02*
X162089400Y-75410600D01*
%TO.N,/B_GND*%
X159540000Y-88000000D02*
X162540000Y-85000000D01*
X166415900Y-85000000D02*
X170925300Y-80490600D01*
X162540000Y-85000000D02*
X166415900Y-85000000D01*
%TO.N,/G_GND*%
X159995900Y-96500000D02*
X170925300Y-85570600D01*
X159500000Y-96500000D02*
X159995900Y-96500000D01*
%TO.N,/R_GND*%
X159500000Y-102075900D02*
X170925300Y-90650600D01*
X159500000Y-105000000D02*
X159500000Y-102075900D01*
%TO.N,Net-(Q1-Pad3)*%
X156960000Y-105000000D02*
X156500000Y-105000000D01*
%TO.N,Net-(Q10-Pad1)*%
X156960000Y-71000000D02*
X155000000Y-72960000D01*
X151813600Y-88549990D02*
X121950010Y-88549990D01*
X155000000Y-85363590D02*
X151813600Y-88549990D01*
X155000000Y-72960000D02*
X155000000Y-85363590D01*
%TO.N,VDD*%
X105000000Y-111000000D02*
X107000000Y-109000000D01*
X107000000Y-109000000D02*
X112000000Y-109000000D01*
X112000000Y-109000000D02*
X114000000Y-107000000D01*
X114000000Y-100380000D02*
X116000000Y-98380000D01*
X114000000Y-107000000D02*
X114000000Y-100380000D01*
%TO.N,Net-(Q1-Pad3)*%
X151000000Y-91500000D02*
X151000000Y-98380000D01*
X157000000Y-105000000D02*
X155000000Y-105000000D01*
X151000000Y-101000000D02*
X151000000Y-98380000D01*
X155000000Y-105000000D02*
X151000000Y-101000000D01*
%TO.N,Net-(Q2-Pad3)*%
X146000000Y-93730000D02*
X143270000Y-91000000D01*
X146000000Y-98380000D02*
X146000000Y-93730000D01*
X143845010Y-90424990D02*
X143270000Y-91000000D01*
X152174990Y-90424990D02*
X143845010Y-90424990D01*
X157000000Y-95250000D02*
X152174990Y-90424990D01*
X157000000Y-96500000D02*
X157000000Y-95250000D01*
%TO.N,Net-(Q3-Pad3)*%
X157000000Y-88000000D02*
X157000000Y-89250000D01*
X157000000Y-88000000D02*
X154000000Y-88000000D01*
X154000000Y-88000000D02*
X152025020Y-89974980D01*
X152025020Y-89974980D02*
X136525020Y-89974980D01*
X136525020Y-90014980D02*
X135540000Y-91000000D01*
X136525020Y-89974980D02*
X136525020Y-90014980D01*
X141000000Y-98380000D02*
X138380000Y-98380000D01*
X135540000Y-95540000D02*
X135540000Y-91000000D01*
X138380000Y-98380000D02*
X135540000Y-95540000D01*
%TO.N,Net-(Q10-Pad1)*%
X119540000Y-96040000D02*
X119540000Y-91000000D01*
X120500000Y-97000000D02*
X119540000Y-96040000D01*
X129620000Y-97000000D02*
X120500000Y-97000000D01*
X131000000Y-98380000D02*
X129620000Y-97000000D01*
X121950010Y-88589990D02*
X119540000Y-91000000D01*
X121950010Y-88549990D02*
X121950010Y-88589990D01*
%TO.N,Net-(Q4-Pad3)*%
X156960000Y-79500000D02*
X156960000Y-84040000D01*
X152000000Y-89000000D02*
X129500000Y-89000000D01*
X156960000Y-84040000D02*
X152000000Y-89000000D01*
%TO.N,Net-(D4-Pad1)*%
X105500000Y-83200000D02*
X97000000Y-91700000D01*
X97000000Y-91700000D02*
X94000000Y-91700000D01*
X105500000Y-80500000D02*
X105500000Y-83200000D01*
X92774990Y-92925010D02*
X94000000Y-91700000D01*
X92774990Y-101274990D02*
X92774990Y-92925010D01*
X93000000Y-101500000D02*
X92774990Y-101274990D01*
%TO.N,Net-(Q4-Pad3)*%
X136000000Y-98380000D02*
X134120000Y-96500000D01*
X134120000Y-96500000D02*
X129500000Y-96500000D01*
X127540000Y-94540000D02*
X127540000Y-91000000D01*
X129500000Y-96500000D02*
X127540000Y-94540000D01*
X129500000Y-89040000D02*
X127540000Y-91000000D01*
X129500000Y-89000000D02*
X129500000Y-89040000D01*
%TO.N,Net-(R10-Pad1)*%
X97600000Y-95100000D02*
X94000000Y-95100000D01*
X104000000Y-101500000D02*
X97600000Y-95100000D01*
%TD*%
D31*
%TO.N,+24V*%
X150278182Y-60778705D02*
X149682823Y-61176511D01*
X149176511Y-61682823D01*
X148778705Y-62278182D01*
X148504691Y-62939710D01*
X148365000Y-63641984D01*
X148365000Y-64358016D01*
X148504691Y-65060290D01*
X148778705Y-65721818D01*
X149176511Y-66317177D01*
X149682823Y-66823489D01*
X150278182Y-67221295D01*
X150939710Y-67495309D01*
X151641984Y-67635000D01*
X152358016Y-67635000D01*
X153060290Y-67495309D01*
X153721818Y-67221295D01*
X154317177Y-66823489D01*
X154823489Y-66317177D01*
X155221295Y-65721818D01*
X155495309Y-65060290D01*
X155635000Y-64358016D01*
X155635000Y-63641984D01*
X155495309Y-62939710D01*
X155221295Y-62278182D01*
X154823489Y-61682823D01*
X154317177Y-61176511D01*
X153721818Y-60778705D01*
X153435239Y-60660000D01*
X170967722Y-60660000D01*
X171648126Y-60726714D01*
X172271572Y-60914943D01*
X172846579Y-61220681D01*
X173351247Y-61632279D01*
X173766362Y-62134067D01*
X174076105Y-62706924D01*
X174268682Y-63329039D01*
X174340000Y-64007584D01*
X174340001Y-111967711D01*
X174273286Y-112648126D01*
X174085057Y-113271570D01*
X173779323Y-113846573D01*
X173367721Y-114351248D01*
X172865933Y-114766362D01*
X172293077Y-115076104D01*
X171670961Y-115268682D01*
X170992417Y-115340000D01*
X153435239Y-115340000D01*
X153721818Y-115221295D01*
X154317177Y-114823489D01*
X154823489Y-114317177D01*
X155221295Y-113721818D01*
X155495309Y-113060290D01*
X155635000Y-112358016D01*
X155635000Y-111641984D01*
X155527688Y-111102490D01*
X155596190Y-111170992D01*
X155619989Y-111199991D01*
X155648987Y-111223789D01*
X155735713Y-111294964D01*
X155842649Y-111352123D01*
X155867743Y-111365536D01*
X156011004Y-111408993D01*
X156122657Y-111419990D01*
X156122667Y-111419990D01*
X156159990Y-111423666D01*
X156197313Y-111419990D01*
X156982947Y-111419990D01*
X156941705Y-111555949D01*
X156920000Y-111776320D01*
X156920000Y-112223679D01*
X156941705Y-112444050D01*
X157027476Y-112726801D01*
X157166762Y-112987386D01*
X157354208Y-113215792D01*
X157582613Y-113403238D01*
X157843198Y-113542524D01*
X158125949Y-113628295D01*
X158420000Y-113657257D01*
X158714050Y-113628295D01*
X158996801Y-113542524D01*
X159257386Y-113403238D01*
X159485792Y-113215792D01*
X159673238Y-112987387D01*
X159690000Y-112956027D01*
X159706762Y-112987386D01*
X159894208Y-113215792D01*
X160122613Y-113403238D01*
X160383198Y-113542524D01*
X160665949Y-113628295D01*
X160960000Y-113657257D01*
X161254050Y-113628295D01*
X161536801Y-113542524D01*
X161797386Y-113403238D01*
X162025792Y-113215792D01*
X162030570Y-113209970D01*
X162045498Y-113259180D01*
X162104463Y-113369494D01*
X162183815Y-113466185D01*
X162280506Y-113545537D01*
X162390820Y-113604502D01*
X162510518Y-113640812D01*
X162635000Y-113653072D01*
X164365000Y-113653072D01*
X164489482Y-113640812D01*
X164609180Y-113604502D01*
X164719494Y-113545537D01*
X164816185Y-113466185D01*
X164895537Y-113369494D01*
X164954502Y-113259180D01*
X164990812Y-113139482D01*
X165003072Y-113015000D01*
X165003072Y-110985000D01*
X164990812Y-110860518D01*
X164954502Y-110740820D01*
X164895537Y-110630506D01*
X164816185Y-110533815D01*
X164719494Y-110454463D01*
X164609180Y-110395498D01*
X164489482Y-110359188D01*
X164365000Y-110346928D01*
X162635000Y-110346928D01*
X162510518Y-110359188D01*
X162390820Y-110395498D01*
X162280506Y-110454463D01*
X162183815Y-110533815D01*
X162104463Y-110630506D01*
X162045498Y-110740820D01*
X162030570Y-110790030D01*
X162025792Y-110784208D01*
X161797387Y-110596762D01*
X161536802Y-110457476D01*
X161254051Y-110371705D01*
X160960000Y-110342743D01*
X160665950Y-110371705D01*
X160466890Y-110432089D01*
X160183794Y-110148993D01*
X160159991Y-110119989D01*
X160044266Y-110025016D01*
X159912237Y-109954444D01*
X159768976Y-109910987D01*
X159657323Y-109899990D01*
X159657312Y-109899990D01*
X159619990Y-109896314D01*
X159582668Y-109899990D01*
X156474792Y-109899990D01*
X154063804Y-107489003D01*
X154040001Y-107459999D01*
X153924276Y-107365026D01*
X153792247Y-107294454D01*
X153648986Y-107250997D01*
X153537333Y-107240000D01*
X153537322Y-107240000D01*
X153500000Y-107236324D01*
X153462678Y-107240000D01*
X151735286Y-107240000D01*
X151741514Y-107236671D01*
X151813097Y-106992702D01*
X151000000Y-106179605D01*
X150186903Y-106992702D01*
X150258486Y-107236671D01*
X150265522Y-107240000D01*
X146735286Y-107240000D01*
X146741514Y-107236671D01*
X146813097Y-106992702D01*
X146000000Y-106179605D01*
X145186903Y-106992702D01*
X145258486Y-107236671D01*
X145265522Y-107240000D01*
X141735286Y-107240000D01*
X141741514Y-107236671D01*
X141813097Y-106992702D01*
X141000000Y-106179605D01*
X140186903Y-106992702D01*
X140258486Y-107236671D01*
X140265522Y-107240000D01*
X136735286Y-107240000D01*
X136741514Y-107236671D01*
X136813097Y-106992702D01*
X136000000Y-106179605D01*
X135186903Y-106992702D01*
X135258486Y-107236671D01*
X135265522Y-107240000D01*
X131735286Y-107240000D01*
X131741514Y-107236671D01*
X131813097Y-106992702D01*
X131000000Y-106179605D01*
X130985858Y-106193748D01*
X130806253Y-106014143D01*
X130820395Y-106000000D01*
X131179605Y-106000000D01*
X131992702Y-106813097D01*
X132236671Y-106741514D01*
X132357571Y-106486004D01*
X132426300Y-106211816D01*
X132433265Y-106070512D01*
X134559783Y-106070512D01*
X134601213Y-106350130D01*
X134696397Y-106616292D01*
X134763329Y-106741514D01*
X135007298Y-106813097D01*
X135820395Y-106000000D01*
X136179605Y-106000000D01*
X136992702Y-106813097D01*
X137236671Y-106741514D01*
X137357571Y-106486004D01*
X137426300Y-106211816D01*
X137433265Y-106070512D01*
X139559783Y-106070512D01*
X139601213Y-106350130D01*
X139696397Y-106616292D01*
X139763329Y-106741514D01*
X140007298Y-106813097D01*
X140820395Y-106000000D01*
X141179605Y-106000000D01*
X141992702Y-106813097D01*
X142236671Y-106741514D01*
X142357571Y-106486004D01*
X142426300Y-106211816D01*
X142433265Y-106070512D01*
X144559783Y-106070512D01*
X144601213Y-106350130D01*
X144696397Y-106616292D01*
X144763329Y-106741514D01*
X145007298Y-106813097D01*
X145820395Y-106000000D01*
X146179605Y-106000000D01*
X146992702Y-106813097D01*
X147236671Y-106741514D01*
X147357571Y-106486004D01*
X147426300Y-106211816D01*
X147433265Y-106070512D01*
X149559783Y-106070512D01*
X149601213Y-106350130D01*
X149696397Y-106616292D01*
X149763329Y-106741514D01*
X150007298Y-106813097D01*
X150820395Y-106000000D01*
X151179605Y-106000000D01*
X151992702Y-106813097D01*
X152236671Y-106741514D01*
X152357571Y-106486004D01*
X152426300Y-106211816D01*
X152440217Y-105929488D01*
X152398787Y-105649870D01*
X152303603Y-105383708D01*
X152236671Y-105258486D01*
X151992702Y-105186903D01*
X151179605Y-106000000D01*
X150820395Y-106000000D01*
X150007298Y-105186903D01*
X149763329Y-105258486D01*
X149642429Y-105513996D01*
X149573700Y-105788184D01*
X149559783Y-106070512D01*
X147433265Y-106070512D01*
X147440217Y-105929488D01*
X147398787Y-105649870D01*
X147303603Y-105383708D01*
X147236671Y-105258486D01*
X146992702Y-105186903D01*
X146179605Y-106000000D01*
X145820395Y-106000000D01*
X145007298Y-105186903D01*
X144763329Y-105258486D01*
X144642429Y-105513996D01*
X144573700Y-105788184D01*
X144559783Y-106070512D01*
X142433265Y-106070512D01*
X142440217Y-105929488D01*
X142398787Y-105649870D01*
X142303603Y-105383708D01*
X142236671Y-105258486D01*
X141992702Y-105186903D01*
X141179605Y-106000000D01*
X140820395Y-106000000D01*
X140007298Y-105186903D01*
X139763329Y-105258486D01*
X139642429Y-105513996D01*
X139573700Y-105788184D01*
X139559783Y-106070512D01*
X137433265Y-106070512D01*
X137440217Y-105929488D01*
X137398787Y-105649870D01*
X137303603Y-105383708D01*
X137236671Y-105258486D01*
X136992702Y-105186903D01*
X136179605Y-106000000D01*
X135820395Y-106000000D01*
X135007298Y-105186903D01*
X134763329Y-105258486D01*
X134642429Y-105513996D01*
X134573700Y-105788184D01*
X134559783Y-106070512D01*
X132433265Y-106070512D01*
X132440217Y-105929488D01*
X132398787Y-105649870D01*
X132303603Y-105383708D01*
X132236671Y-105258486D01*
X131992702Y-105186903D01*
X131179605Y-106000000D01*
X130820395Y-106000000D01*
X130007298Y-105186903D01*
X129763329Y-105258486D01*
X129642429Y-105513996D01*
X129573700Y-105788184D01*
X129569438Y-105874636D01*
X128702100Y-105007298D01*
X130186903Y-105007298D01*
X131000000Y-105820395D01*
X131813097Y-105007298D01*
X135186903Y-105007298D01*
X136000000Y-105820395D01*
X136813097Y-105007298D01*
X140186903Y-105007298D01*
X141000000Y-105820395D01*
X141813097Y-105007298D01*
X145186903Y-105007298D01*
X146000000Y-105820395D01*
X146813097Y-105007298D01*
X150186903Y-105007298D01*
X151000000Y-105820395D01*
X151813097Y-105007298D01*
X151741514Y-104763329D01*
X151486004Y-104642429D01*
X151211816Y-104573700D01*
X150929488Y-104559783D01*
X150649870Y-104601213D01*
X150383708Y-104696397D01*
X150258486Y-104763329D01*
X150186903Y-105007298D01*
X146813097Y-105007298D01*
X146741514Y-104763329D01*
X146486004Y-104642429D01*
X146211816Y-104573700D01*
X145929488Y-104559783D01*
X145649870Y-104601213D01*
X145383708Y-104696397D01*
X145258486Y-104763329D01*
X145186903Y-105007298D01*
X141813097Y-105007298D01*
X141741514Y-104763329D01*
X141486004Y-104642429D01*
X141211816Y-104573700D01*
X140929488Y-104559783D01*
X140649870Y-104601213D01*
X140383708Y-104696397D01*
X140258486Y-104763329D01*
X140186903Y-105007298D01*
X136813097Y-105007298D01*
X136741514Y-104763329D01*
X136486004Y-104642429D01*
X136211816Y-104573700D01*
X135929488Y-104559783D01*
X135649870Y-104601213D01*
X135383708Y-104696397D01*
X135258486Y-104763329D01*
X135186903Y-105007298D01*
X131813097Y-105007298D01*
X131741514Y-104763329D01*
X131486004Y-104642429D01*
X131211816Y-104573700D01*
X130929488Y-104559783D01*
X130649870Y-104601213D01*
X130383708Y-104696397D01*
X130258486Y-104763329D01*
X130186903Y-105007298D01*
X128702100Y-105007298D01*
X122423842Y-98729040D01*
X124608091Y-98729040D01*
X124702930Y-98993881D01*
X124847615Y-99235131D01*
X125036586Y-99443519D01*
X125262580Y-99611037D01*
X125516913Y-99731246D01*
X125650961Y-99771904D01*
X125873000Y-99649915D01*
X125873000Y-98507000D01*
X126127000Y-98507000D01*
X126127000Y-99649915D01*
X126349039Y-99771904D01*
X126483087Y-99731246D01*
X126737420Y-99611037D01*
X126963414Y-99443519D01*
X127152385Y-99235131D01*
X127297070Y-98993881D01*
X127391909Y-98729040D01*
X127270624Y-98507000D01*
X126127000Y-98507000D01*
X125873000Y-98507000D01*
X124729376Y-98507000D01*
X124608091Y-98729040D01*
X122423842Y-98729040D01*
X122398688Y-98703887D01*
X122435000Y-98521335D01*
X122435000Y-98238665D01*
X122379853Y-97961426D01*
X122296420Y-97760000D01*
X124706600Y-97760000D01*
X124702930Y-97766119D01*
X124608091Y-98030960D01*
X124729376Y-98253000D01*
X125873000Y-98253000D01*
X125873000Y-98233000D01*
X126127000Y-98233000D01*
X126127000Y-98253000D01*
X127270624Y-98253000D01*
X127391909Y-98030960D01*
X127297070Y-97766119D01*
X127293400Y-97760000D01*
X129305199Y-97760000D01*
X129601312Y-98056114D01*
X129565000Y-98238665D01*
X129565000Y-98521335D01*
X129620147Y-98798574D01*
X129728320Y-99059727D01*
X129885363Y-99294759D01*
X130085241Y-99494637D01*
X130320273Y-99651680D01*
X130581426Y-99759853D01*
X130858665Y-99815000D01*
X131141335Y-99815000D01*
X131418574Y-99759853D01*
X131679727Y-99651680D01*
X131914759Y-99494637D01*
X132114637Y-99294759D01*
X132271680Y-99059727D01*
X132379853Y-98798574D01*
X132435000Y-98521335D01*
X132435000Y-98238665D01*
X132379853Y-97961426D01*
X132271680Y-97700273D01*
X132114637Y-97465241D01*
X131914759Y-97265363D01*
X131906733Y-97260000D01*
X133805199Y-97260000D01*
X134601312Y-98056114D01*
X134565000Y-98238665D01*
X134565000Y-98521335D01*
X134620147Y-98798574D01*
X134728320Y-99059727D01*
X134885363Y-99294759D01*
X135085241Y-99494637D01*
X135320273Y-99651680D01*
X135581426Y-99759853D01*
X135858665Y-99815000D01*
X136141335Y-99815000D01*
X136418574Y-99759853D01*
X136679727Y-99651680D01*
X136914759Y-99494637D01*
X137114637Y-99294759D01*
X137271680Y-99059727D01*
X137379853Y-98798574D01*
X137435000Y-98521335D01*
X137435000Y-98509802D01*
X137816200Y-98891002D01*
X137839999Y-98920001D01*
X137868997Y-98943799D01*
X137955724Y-99014974D01*
X138087753Y-99085546D01*
X138231014Y-99129003D01*
X138380000Y-99143677D01*
X138417333Y-99140000D01*
X139781957Y-99140000D01*
X139885363Y-99294759D01*
X140085241Y-99494637D01*
X140320273Y-99651680D01*
X140581426Y-99759853D01*
X140858665Y-99815000D01*
X141141335Y-99815000D01*
X141418574Y-99759853D01*
X141679727Y-99651680D01*
X141914759Y-99494637D01*
X142114637Y-99294759D01*
X142271680Y-99059727D01*
X142379853Y-98798574D01*
X142435000Y-98521335D01*
X142435000Y-98238665D01*
X142379853Y-97961426D01*
X142271680Y-97700273D01*
X142114637Y-97465241D01*
X141914759Y-97265363D01*
X141679727Y-97108320D01*
X141418574Y-97000147D01*
X141141335Y-96945000D01*
X140858665Y-96945000D01*
X140581426Y-97000147D01*
X140320273Y-97108320D01*
X140085241Y-97265363D01*
X139885363Y-97465241D01*
X139781957Y-97620000D01*
X138694802Y-97620000D01*
X136300000Y-95225199D01*
X136300000Y-92101909D01*
X136364212Y-92049212D01*
X136509171Y-91872579D01*
X136616885Y-91671059D01*
X136683215Y-91452399D01*
X136700000Y-91281978D01*
X136700000Y-90914802D01*
X136879822Y-90734980D01*
X139566928Y-90734980D01*
X139566928Y-91750000D01*
X139579188Y-91874482D01*
X139615498Y-91994180D01*
X139674463Y-92104494D01*
X139753815Y-92201185D01*
X139850506Y-92280537D01*
X139960820Y-92339502D01*
X140080518Y-92375812D01*
X140205000Y-92388072D01*
X141255000Y-92388072D01*
X141379482Y-92375812D01*
X141499180Y-92339502D01*
X141563902Y-92304907D01*
X141772601Y-92368215D01*
X142000000Y-92390612D01*
X142227400Y-92368215D01*
X142446060Y-92301885D01*
X142635001Y-92200894D01*
X142823941Y-92301885D01*
X143042601Y-92368215D01*
X143270000Y-92390612D01*
X143497400Y-92368215D01*
X143548049Y-92352851D01*
X145240001Y-94044803D01*
X145240000Y-97161956D01*
X145085241Y-97265363D01*
X144885363Y-97465241D01*
X144728320Y-97700273D01*
X144620147Y-97961426D01*
X144565000Y-98238665D01*
X144565000Y-98521335D01*
X144620147Y-98798574D01*
X144728320Y-99059727D01*
X144885363Y-99294759D01*
X145085241Y-99494637D01*
X145320273Y-99651680D01*
X145581426Y-99759853D01*
X145858665Y-99815000D01*
X146141335Y-99815000D01*
X146418574Y-99759853D01*
X146679727Y-99651680D01*
X146914759Y-99494637D01*
X147114637Y-99294759D01*
X147271680Y-99059727D01*
X147379853Y-98798574D01*
X147435000Y-98521335D01*
X147435000Y-98238665D01*
X147379853Y-97961426D01*
X147271680Y-97700273D01*
X147114637Y-97465241D01*
X146914759Y-97265363D01*
X146760000Y-97161957D01*
X146760000Y-93767322D01*
X146763676Y-93729999D01*
X146760000Y-93692676D01*
X146760000Y-93692667D01*
X146749003Y-93581014D01*
X146705546Y-93437753D01*
X146658259Y-93349286D01*
X146634974Y-93305723D01*
X146563799Y-93218997D01*
X146540001Y-93189999D01*
X146511003Y-93166201D01*
X144529791Y-91184990D01*
X147336928Y-91184990D01*
X147336928Y-91750000D01*
X147349188Y-91874482D01*
X147385498Y-91994180D01*
X147444463Y-92104494D01*
X147523815Y-92201185D01*
X147620506Y-92280537D01*
X147730820Y-92339502D01*
X147850518Y-92375812D01*
X147975000Y-92388072D01*
X149025000Y-92388072D01*
X149149482Y-92375812D01*
X149269180Y-92339502D01*
X149333902Y-92304907D01*
X149542601Y-92368215D01*
X149770000Y-92390612D01*
X149997400Y-92368215D01*
X150216060Y-92301885D01*
X150240000Y-92289089D01*
X150240001Y-97161956D01*
X150085241Y-97265363D01*
X149885363Y-97465241D01*
X149728320Y-97700273D01*
X149620147Y-97961426D01*
X149565000Y-98238665D01*
X149565000Y-98521335D01*
X149620147Y-98798574D01*
X149728320Y-99059727D01*
X149885363Y-99294759D01*
X150085241Y-99494637D01*
X150240001Y-99598044D01*
X150240000Y-100962677D01*
X150236324Y-101000000D01*
X150240000Y-101037322D01*
X150240000Y-101037332D01*
X150250997Y-101148985D01*
X150289220Y-101274990D01*
X150294454Y-101292246D01*
X150365026Y-101424276D01*
X150404871Y-101472826D01*
X150459999Y-101540001D01*
X150489003Y-101563804D01*
X154436201Y-105511003D01*
X154459999Y-105540001D01*
X154575724Y-105634974D01*
X154707753Y-105705546D01*
X154851014Y-105749003D01*
X154962667Y-105760000D01*
X154962676Y-105760000D01*
X154999999Y-105763676D01*
X155037322Y-105760000D01*
X155409428Y-105760000D01*
X155409428Y-106000000D01*
X155421688Y-106124482D01*
X155457998Y-106244180D01*
X155516963Y-106354494D01*
X155596315Y-106451185D01*
X155693006Y-106530537D01*
X155803320Y-106589502D01*
X155923018Y-106625812D01*
X156047500Y-106638072D01*
X157952500Y-106638072D01*
X158076982Y-106625812D01*
X158196680Y-106589502D01*
X158306994Y-106530537D01*
X158403685Y-106451185D01*
X158483037Y-106354494D01*
X158527905Y-106270553D01*
X158653766Y-106373845D01*
X158929552Y-106521255D01*
X159228797Y-106612030D01*
X159540000Y-106642681D01*
X159851204Y-106612030D01*
X160150449Y-106521255D01*
X160426235Y-106373845D01*
X160667963Y-106175463D01*
X160810000Y-106002391D01*
X160952037Y-106175463D01*
X161193766Y-106373845D01*
X161469552Y-106521255D01*
X161768797Y-106612030D01*
X162080000Y-106642681D01*
X162391204Y-106612030D01*
X162690449Y-106521255D01*
X162966235Y-106373845D01*
X163207963Y-106175463D01*
X163406345Y-105933734D01*
X163553755Y-105657948D01*
X163644530Y-105358703D01*
X163667500Y-105125485D01*
X163667500Y-104874514D01*
X163644530Y-104641296D01*
X163601669Y-104500000D01*
X168861928Y-104500000D01*
X168861928Y-107500000D01*
X168874188Y-107624482D01*
X168910498Y-107744180D01*
X168969463Y-107854494D01*
X169048815Y-107951185D01*
X169145506Y-108030537D01*
X169255820Y-108089502D01*
X169375518Y-108125812D01*
X169500000Y-108138072D01*
X172500000Y-108138072D01*
X172624482Y-108125812D01*
X172744180Y-108089502D01*
X172854494Y-108030537D01*
X172951185Y-107951185D01*
X173030537Y-107854494D01*
X173089502Y-107744180D01*
X173125812Y-107624482D01*
X173138072Y-107500000D01*
X173138072Y-104500000D01*
X173125812Y-104375518D01*
X173089502Y-104255820D01*
X173030537Y-104145506D01*
X172951185Y-104048815D01*
X172854494Y-103969463D01*
X172744180Y-103910498D01*
X172624482Y-103874188D01*
X172500000Y-103861928D01*
X169500000Y-103861928D01*
X169375518Y-103874188D01*
X169255820Y-103910498D01*
X169145506Y-103969463D01*
X169048815Y-104048815D01*
X168969463Y-104145506D01*
X168910498Y-104255820D01*
X168874188Y-104375518D01*
X168861928Y-104500000D01*
X163601669Y-104500000D01*
X163553755Y-104342051D01*
X163406345Y-104066265D01*
X163207963Y-103824537D01*
X162966234Y-103626155D01*
X162690448Y-103478745D01*
X162391203Y-103387970D01*
X162080000Y-103357319D01*
X161768796Y-103387970D01*
X161469551Y-103478745D01*
X161193765Y-103626155D01*
X160952037Y-103824537D01*
X160810000Y-103997609D01*
X160667963Y-103824537D01*
X160426234Y-103626155D01*
X160260000Y-103537301D01*
X160260000Y-102390701D01*
X161940980Y-100709721D01*
X168865000Y-100709721D01*
X168865000Y-101130279D01*
X168947047Y-101542756D01*
X169107988Y-101931302D01*
X169341637Y-102280983D01*
X169639017Y-102578363D01*
X169988698Y-102812012D01*
X170377244Y-102972953D01*
X170789721Y-103055000D01*
X171210279Y-103055000D01*
X171622756Y-102972953D01*
X172011302Y-102812012D01*
X172360983Y-102578363D01*
X172658363Y-102280983D01*
X172892012Y-101931302D01*
X173052953Y-101542756D01*
X173135000Y-101130279D01*
X173135000Y-100709721D01*
X173052953Y-100297244D01*
X172892012Y-99908698D01*
X172658363Y-99559017D01*
X172360983Y-99261637D01*
X172011302Y-99027988D01*
X171622756Y-98867047D01*
X171210279Y-98785000D01*
X170789721Y-98785000D01*
X170377244Y-98867047D01*
X169988698Y-99027988D01*
X169639017Y-99261637D01*
X169341637Y-99559017D01*
X169107988Y-99908698D01*
X168947047Y-100297244D01*
X168865000Y-100709721D01*
X161940980Y-100709721D01*
X165420101Y-97230600D01*
X168787228Y-97230600D01*
X168799488Y-97355082D01*
X168835798Y-97474780D01*
X168894763Y-97585094D01*
X168974115Y-97681785D01*
X169070806Y-97761137D01*
X169181120Y-97820102D01*
X169300818Y-97856412D01*
X169425300Y-97868672D01*
X170639550Y-97865600D01*
X170798300Y-97706850D01*
X170798300Y-95857600D01*
X171052300Y-95857600D01*
X171052300Y-97706850D01*
X171211050Y-97865600D01*
X172425300Y-97868672D01*
X172549782Y-97856412D01*
X172669480Y-97820102D01*
X172779794Y-97761137D01*
X172876485Y-97681785D01*
X172955837Y-97585094D01*
X173014802Y-97474780D01*
X173051112Y-97355082D01*
X173063372Y-97230600D01*
X173060300Y-96016350D01*
X172901550Y-95857600D01*
X171052300Y-95857600D01*
X170798300Y-95857600D01*
X168949050Y-95857600D01*
X168790300Y-96016350D01*
X168787228Y-97230600D01*
X165420101Y-97230600D01*
X168420101Y-94230600D01*
X168787228Y-94230600D01*
X168790300Y-95444850D01*
X168949050Y-95603600D01*
X170798300Y-95603600D01*
X170798300Y-93754350D01*
X171052300Y-93754350D01*
X171052300Y-95603600D01*
X172901550Y-95603600D01*
X173060300Y-95444850D01*
X173063372Y-94230600D01*
X173051112Y-94106118D01*
X173014802Y-93986420D01*
X172955837Y-93876106D01*
X172876485Y-93779415D01*
X172779794Y-93700063D01*
X172669480Y-93641098D01*
X172549782Y-93604788D01*
X172425300Y-93592528D01*
X171211050Y-93595600D01*
X171052300Y-93754350D01*
X170798300Y-93754350D01*
X170639550Y-93595600D01*
X169425300Y-93592528D01*
X169300818Y-93604788D01*
X169181120Y-93641098D01*
X169070806Y-93700063D01*
X168974115Y-93779415D01*
X168894763Y-93876106D01*
X168835798Y-93986420D01*
X168799488Y-94106118D01*
X168787228Y-94230600D01*
X168420101Y-94230600D01*
X170051242Y-92599460D01*
X170302544Y-92703553D01*
X170715021Y-92785600D01*
X171135579Y-92785600D01*
X171548056Y-92703553D01*
X171936602Y-92542612D01*
X172286283Y-92308963D01*
X172583663Y-92011583D01*
X172817312Y-91661902D01*
X172978253Y-91273356D01*
X173060300Y-90860879D01*
X173060300Y-90440321D01*
X172978253Y-90027844D01*
X172817312Y-89639298D01*
X172583663Y-89289617D01*
X172286283Y-88992237D01*
X171936602Y-88758588D01*
X171548056Y-88597647D01*
X171135579Y-88515600D01*
X170715021Y-88515600D01*
X170302544Y-88597647D01*
X169913998Y-88758588D01*
X169564317Y-88992237D01*
X169266937Y-89289617D01*
X169033288Y-89639298D01*
X168872347Y-90027844D01*
X168790300Y-90440321D01*
X168790300Y-90860879D01*
X168872347Y-91273356D01*
X168976440Y-91524658D01*
X163644763Y-96856335D01*
X163667500Y-96625485D01*
X163667500Y-96374514D01*
X163644530Y-96141296D01*
X163553755Y-95842051D01*
X163406345Y-95566265D01*
X163207963Y-95324537D01*
X162966234Y-95126155D01*
X162690448Y-94978745D01*
X162614880Y-94955822D01*
X170051242Y-87519460D01*
X170302544Y-87623553D01*
X170715021Y-87705600D01*
X171135579Y-87705600D01*
X171548056Y-87623553D01*
X171936602Y-87462612D01*
X172286283Y-87228963D01*
X172583663Y-86931583D01*
X172817312Y-86581902D01*
X172978253Y-86193356D01*
X173060300Y-85780879D01*
X173060300Y-85360321D01*
X172978253Y-84947844D01*
X172817312Y-84559298D01*
X172583663Y-84209617D01*
X172286283Y-83912237D01*
X171936602Y-83678588D01*
X171548056Y-83517647D01*
X171135579Y-83435600D01*
X170715021Y-83435600D01*
X170302544Y-83517647D01*
X169913998Y-83678588D01*
X169564317Y-83912237D01*
X169266937Y-84209617D01*
X169033288Y-84559298D01*
X168872347Y-84947844D01*
X168790300Y-85360321D01*
X168790300Y-85780879D01*
X168872347Y-86193356D01*
X168976440Y-86444658D01*
X160340676Y-95080423D01*
X160150448Y-94978745D01*
X159851203Y-94887970D01*
X159540000Y-94857319D01*
X159228796Y-94887970D01*
X158929551Y-94978745D01*
X158653765Y-95126155D01*
X158527905Y-95229446D01*
X158483037Y-95145506D01*
X158403685Y-95048815D01*
X158306994Y-94969463D01*
X158196680Y-94910498D01*
X158076982Y-94874188D01*
X157952500Y-94861928D01*
X157654326Y-94861928D01*
X157634974Y-94825724D01*
X157563799Y-94738997D01*
X157540001Y-94709999D01*
X157511003Y-94686201D01*
X152949801Y-90125000D01*
X154314802Y-88760000D01*
X155409428Y-88760000D01*
X155409428Y-89000000D01*
X155421688Y-89124482D01*
X155457998Y-89244180D01*
X155516963Y-89354494D01*
X155596315Y-89451185D01*
X155693006Y-89530537D01*
X155803320Y-89589502D01*
X155923018Y-89625812D01*
X156047500Y-89638072D01*
X156345675Y-89638072D01*
X156365027Y-89674276D01*
X156460000Y-89790001D01*
X156575725Y-89884974D01*
X156707754Y-89955546D01*
X156851015Y-89999003D01*
X157000000Y-90013677D01*
X157148986Y-89999003D01*
X157292247Y-89955546D01*
X157424276Y-89884974D01*
X157540001Y-89790001D01*
X157634974Y-89674276D01*
X157654326Y-89638072D01*
X157952500Y-89638072D01*
X158076982Y-89625812D01*
X158196680Y-89589502D01*
X158306994Y-89530537D01*
X158403685Y-89451185D01*
X158483037Y-89354494D01*
X158527905Y-89270553D01*
X158653766Y-89373845D01*
X158929552Y-89521255D01*
X159228797Y-89612030D01*
X159540000Y-89642681D01*
X159851204Y-89612030D01*
X160150449Y-89521255D01*
X160426235Y-89373845D01*
X160667963Y-89175463D01*
X160810000Y-89002391D01*
X160952037Y-89175463D01*
X161193766Y-89373845D01*
X161469552Y-89521255D01*
X161768797Y-89612030D01*
X162080000Y-89642681D01*
X162391204Y-89612030D01*
X162690449Y-89521255D01*
X162966235Y-89373845D01*
X163207963Y-89175463D01*
X163406345Y-88933734D01*
X163553755Y-88657948D01*
X163644530Y-88358703D01*
X163667500Y-88125485D01*
X163667500Y-87874514D01*
X163644530Y-87641296D01*
X163553755Y-87342051D01*
X163406345Y-87066265D01*
X163207963Y-86824537D01*
X162966234Y-86626155D01*
X162690448Y-86478745D01*
X162391203Y-86387970D01*
X162241569Y-86373232D01*
X162854802Y-85760000D01*
X166378578Y-85760000D01*
X166415900Y-85763676D01*
X166453222Y-85760000D01*
X166453233Y-85760000D01*
X166564886Y-85749003D01*
X166708147Y-85705546D01*
X166840176Y-85634974D01*
X166955901Y-85540001D01*
X166979704Y-85510997D01*
X170051242Y-82439460D01*
X170302544Y-82543553D01*
X170715021Y-82625600D01*
X171135579Y-82625600D01*
X171548056Y-82543553D01*
X171936602Y-82382612D01*
X172286283Y-82148963D01*
X172583663Y-81851583D01*
X172817312Y-81501902D01*
X172978253Y-81113356D01*
X173060300Y-80700879D01*
X173060300Y-80280321D01*
X172978253Y-79867844D01*
X172817312Y-79479298D01*
X172583663Y-79129617D01*
X172286283Y-78832237D01*
X171936602Y-78598588D01*
X171548056Y-78437647D01*
X171135579Y-78355600D01*
X170715021Y-78355600D01*
X170302544Y-78437647D01*
X169913998Y-78598588D01*
X169564317Y-78832237D01*
X169266937Y-79129617D01*
X169033288Y-79479298D01*
X168872347Y-79867844D01*
X168790300Y-80280321D01*
X168790300Y-80700879D01*
X168872347Y-81113356D01*
X168976440Y-81364658D01*
X166101099Y-84240000D01*
X162577325Y-84240000D01*
X162540000Y-84236324D01*
X162502675Y-84240000D01*
X162502667Y-84240000D01*
X162391014Y-84250997D01*
X162247753Y-84294454D01*
X162115724Y-84365026D01*
X161999999Y-84459999D01*
X161976201Y-84488997D01*
X160024622Y-86440576D01*
X159851203Y-86387970D01*
X159540000Y-86357319D01*
X159228796Y-86387970D01*
X158929551Y-86478745D01*
X158653765Y-86626155D01*
X158527905Y-86729446D01*
X158483037Y-86645506D01*
X158403685Y-86548815D01*
X158306994Y-86469463D01*
X158196680Y-86410498D01*
X158076982Y-86374188D01*
X157952500Y-86361928D01*
X156047500Y-86361928D01*
X155923018Y-86374188D01*
X155803320Y-86410498D01*
X155693006Y-86469463D01*
X155596315Y-86548815D01*
X155516963Y-86645506D01*
X155457998Y-86755820D01*
X155421688Y-86875518D01*
X155409428Y-87000000D01*
X155409428Y-87240000D01*
X154834801Y-87240000D01*
X157471003Y-84603799D01*
X157500001Y-84580001D01*
X157594974Y-84464276D01*
X157665546Y-84332247D01*
X157709003Y-84188986D01*
X157720000Y-84077333D01*
X157720000Y-84077324D01*
X157723676Y-84040001D01*
X157720000Y-84002678D01*
X157720000Y-81138072D01*
X157912500Y-81138072D01*
X158036982Y-81125812D01*
X158156680Y-81089502D01*
X158266994Y-81030537D01*
X158363685Y-80951185D01*
X158443037Y-80854494D01*
X158487905Y-80770553D01*
X158613766Y-80873845D01*
X158889552Y-81021255D01*
X159188797Y-81112030D01*
X159500000Y-81142681D01*
X159811204Y-81112030D01*
X160110449Y-81021255D01*
X160386235Y-80873845D01*
X160627963Y-80675463D01*
X160770000Y-80502391D01*
X160912037Y-80675463D01*
X161153766Y-80873845D01*
X161429552Y-81021255D01*
X161728797Y-81112030D01*
X162040000Y-81142681D01*
X162351204Y-81112030D01*
X162650449Y-81021255D01*
X162926235Y-80873845D01*
X163167963Y-80675463D01*
X163366345Y-80433734D01*
X163513755Y-80157948D01*
X163604530Y-79858703D01*
X163627500Y-79625485D01*
X163627500Y-79374514D01*
X163604530Y-79141296D01*
X163513755Y-78842051D01*
X163366345Y-78566265D01*
X163167963Y-78324537D01*
X162926234Y-78126155D01*
X162650448Y-77978745D01*
X162351203Y-77887970D01*
X162040000Y-77857319D01*
X161728796Y-77887970D01*
X161429551Y-77978745D01*
X161153765Y-78126155D01*
X160912037Y-78324537D01*
X160770000Y-78497609D01*
X160627963Y-78324537D01*
X160420514Y-78154288D01*
X162404202Y-76170600D01*
X168929195Y-76170600D01*
X169033288Y-76421902D01*
X169266937Y-76771583D01*
X169564317Y-77068963D01*
X169913998Y-77302612D01*
X170302544Y-77463553D01*
X170715021Y-77545600D01*
X171135579Y-77545600D01*
X171548056Y-77463553D01*
X171936602Y-77302612D01*
X172286283Y-77068963D01*
X172583663Y-76771583D01*
X172817312Y-76421902D01*
X172978253Y-76033356D01*
X173060300Y-75620879D01*
X173060300Y-75200321D01*
X172978253Y-74787844D01*
X172817312Y-74399298D01*
X172583663Y-74049617D01*
X172286283Y-73752237D01*
X171936602Y-73518588D01*
X171548056Y-73357647D01*
X171135579Y-73275600D01*
X170715021Y-73275600D01*
X170302544Y-73357647D01*
X169913998Y-73518588D01*
X169564317Y-73752237D01*
X169266937Y-74049617D01*
X169033288Y-74399298D01*
X168929195Y-74650600D01*
X162126733Y-74650600D01*
X162089400Y-74646923D01*
X162052067Y-74650600D01*
X161940414Y-74661597D01*
X161797153Y-74705054D01*
X161665124Y-74775626D01*
X161549399Y-74870599D01*
X161525601Y-74899597D01*
X158988998Y-77436201D01*
X158960000Y-77459999D01*
X158936202Y-77488997D01*
X158936201Y-77488998D01*
X158865026Y-77575724D01*
X158794454Y-77707754D01*
X158750998Y-77851015D01*
X158736324Y-78000000D01*
X158740001Y-78037332D01*
X158740001Y-78058681D01*
X158613765Y-78126155D01*
X158487905Y-78229446D01*
X158443037Y-78145506D01*
X158363685Y-78048815D01*
X158266994Y-77969463D01*
X158156680Y-77910498D01*
X158036982Y-77874188D01*
X157912500Y-77861928D01*
X156007500Y-77861928D01*
X155883018Y-77874188D01*
X155763320Y-77910498D01*
X155760000Y-77912273D01*
X155760000Y-73274801D01*
X156396729Y-72638072D01*
X157912500Y-72638072D01*
X158036982Y-72625812D01*
X158156680Y-72589502D01*
X158266994Y-72530537D01*
X158363685Y-72451185D01*
X158443037Y-72354494D01*
X158487905Y-72270553D01*
X158613766Y-72373845D01*
X158889552Y-72521255D01*
X159188797Y-72612030D01*
X159500000Y-72642681D01*
X159811204Y-72612030D01*
X160110449Y-72521255D01*
X160386235Y-72373845D01*
X160627963Y-72175463D01*
X160770000Y-72002391D01*
X160912037Y-72175463D01*
X161153766Y-72373845D01*
X161429552Y-72521255D01*
X161728797Y-72612030D01*
X162040000Y-72642681D01*
X162351204Y-72612030D01*
X162650449Y-72521255D01*
X162926235Y-72373845D01*
X163167963Y-72175463D01*
X163366345Y-71933734D01*
X163513755Y-71657948D01*
X163604530Y-71358703D01*
X163627500Y-71125485D01*
X163627500Y-70874514D01*
X163604530Y-70641296D01*
X163513755Y-70342051D01*
X163366345Y-70066265D01*
X163167963Y-69824537D01*
X162926234Y-69626155D01*
X162859717Y-69590601D01*
X168920911Y-69590601D01*
X168872347Y-69707844D01*
X168790300Y-70120321D01*
X168790300Y-70540879D01*
X168872347Y-70953356D01*
X169033288Y-71341902D01*
X169266937Y-71691583D01*
X169564317Y-71988963D01*
X169913998Y-72222612D01*
X170302544Y-72383553D01*
X170715021Y-72465600D01*
X171135579Y-72465600D01*
X171548056Y-72383553D01*
X171936602Y-72222612D01*
X172286283Y-71988963D01*
X172583663Y-71691583D01*
X172817312Y-71341902D01*
X172978253Y-70953356D01*
X173060300Y-70540879D01*
X173060300Y-70120321D01*
X172978253Y-69707844D01*
X172817312Y-69319298D01*
X172583663Y-68969617D01*
X172286283Y-68672237D01*
X171936602Y-68438588D01*
X171548056Y-68277647D01*
X171135579Y-68195600D01*
X170715021Y-68195600D01*
X170302544Y-68277647D01*
X170051241Y-68381740D01*
X169989105Y-68319604D01*
X169965302Y-68290600D01*
X169849577Y-68195627D01*
X169717548Y-68125055D01*
X169574287Y-68081598D01*
X169462634Y-68070601D01*
X169462623Y-68070601D01*
X169425301Y-68066925D01*
X169387979Y-68070601D01*
X160456732Y-68070601D01*
X160419399Y-68066924D01*
X160382066Y-68070601D01*
X160270413Y-68081598D01*
X160127152Y-68125055D01*
X159995123Y-68195627D01*
X159879398Y-68290600D01*
X159855600Y-68319598D01*
X158988998Y-69186201D01*
X158960000Y-69209999D01*
X158936202Y-69238997D01*
X158936201Y-69238998D01*
X158865026Y-69325724D01*
X158794454Y-69457754D01*
X158768452Y-69543473D01*
X158613765Y-69626155D01*
X158487905Y-69729446D01*
X158443037Y-69645506D01*
X158363685Y-69548815D01*
X158266994Y-69469463D01*
X158156680Y-69410498D01*
X158036982Y-69374188D01*
X157912500Y-69361928D01*
X156007500Y-69361928D01*
X155883018Y-69374188D01*
X155763320Y-69410498D01*
X155653006Y-69469463D01*
X155556315Y-69548815D01*
X155476963Y-69645506D01*
X155417998Y-69755820D01*
X155381688Y-69875518D01*
X155369428Y-70000000D01*
X155369428Y-71515771D01*
X154489003Y-72396196D01*
X154459999Y-72419999D01*
X154434406Y-72451185D01*
X154365026Y-72535724D01*
X154307856Y-72642681D01*
X154294454Y-72667754D01*
X154250997Y-72811015D01*
X154240000Y-72922668D01*
X154240000Y-72922678D01*
X154236324Y-72960000D01*
X154240000Y-72997322D01*
X154240001Y-85048787D01*
X151498799Y-87789990D01*
X121987343Y-87789990D01*
X121950010Y-87786313D01*
X121912677Y-87789990D01*
X121801024Y-87800987D01*
X121657763Y-87844444D01*
X121525734Y-87915016D01*
X121410009Y-88009989D01*
X121315036Y-88125714D01*
X121286962Y-88178236D01*
X119818049Y-89647150D01*
X119767399Y-89631785D01*
X119540000Y-89609388D01*
X119312600Y-89631785D01*
X119093940Y-89698115D01*
X118904999Y-89799106D01*
X118716059Y-89698115D01*
X118497399Y-89631785D01*
X118270000Y-89609388D01*
X118042600Y-89631785D01*
X117833902Y-89695093D01*
X117769180Y-89660498D01*
X117649482Y-89624188D01*
X117525000Y-89611928D01*
X116475000Y-89611928D01*
X116350518Y-89624188D01*
X116230820Y-89660498D01*
X116120506Y-89719463D01*
X116023815Y-89798815D01*
X115944463Y-89895506D01*
X115885498Y-90005820D01*
X115849188Y-90125518D01*
X115836928Y-90250000D01*
X115836928Y-91750000D01*
X115849188Y-91874482D01*
X115885498Y-91994180D01*
X115944463Y-92104494D01*
X116023815Y-92201185D01*
X116120506Y-92280537D01*
X116230820Y-92339502D01*
X116350518Y-92375812D01*
X116475000Y-92388072D01*
X117525000Y-92388072D01*
X117649482Y-92375812D01*
X117769180Y-92339502D01*
X117833902Y-92304907D01*
X118042601Y-92368215D01*
X118270000Y-92390612D01*
X118497400Y-92368215D01*
X118716060Y-92301885D01*
X118780001Y-92267708D01*
X118780000Y-95085198D01*
X112367001Y-88672200D01*
X112367001Y-87077110D01*
X112398273Y-87098005D01*
X112652510Y-87203314D01*
X112922408Y-87257000D01*
X113197592Y-87257000D01*
X113467490Y-87203314D01*
X113721727Y-87098005D01*
X113950535Y-86945120D01*
X114145120Y-86750535D01*
X114298005Y-86521727D01*
X114330000Y-86444485D01*
X114361995Y-86521727D01*
X114514880Y-86750535D01*
X114709465Y-86945120D01*
X114938273Y-87098005D01*
X115192510Y-87203314D01*
X115462408Y-87257000D01*
X115737592Y-87257000D01*
X116007490Y-87203314D01*
X116261727Y-87098005D01*
X116490535Y-86945120D01*
X116685120Y-86750535D01*
X116838005Y-86521727D01*
X116870000Y-86444485D01*
X116901995Y-86521727D01*
X117054880Y-86750535D01*
X117249465Y-86945120D01*
X117478273Y-87098005D01*
X117732510Y-87203314D01*
X118002408Y-87257000D01*
X118277592Y-87257000D01*
X118547490Y-87203314D01*
X118801727Y-87098005D01*
X119030535Y-86945120D01*
X119225120Y-86750535D01*
X119378005Y-86521727D01*
X119410000Y-86444485D01*
X119441995Y-86521727D01*
X119594880Y-86750535D01*
X119789465Y-86945120D01*
X120018273Y-87098005D01*
X120272510Y-87203314D01*
X120542408Y-87257000D01*
X120817592Y-87257000D01*
X121087490Y-87203314D01*
X121341727Y-87098005D01*
X121570535Y-86945120D01*
X121765120Y-86750535D01*
X121918005Y-86521727D01*
X121950000Y-86444485D01*
X121981995Y-86521727D01*
X122134880Y-86750535D01*
X122329465Y-86945120D01*
X122558273Y-87098005D01*
X122812510Y-87203314D01*
X123082408Y-87257000D01*
X123357592Y-87257000D01*
X123627490Y-87203314D01*
X123881727Y-87098005D01*
X124110535Y-86945120D01*
X124305120Y-86750535D01*
X124363920Y-86662535D01*
X124372188Y-86746482D01*
X124408498Y-86866180D01*
X124467463Y-86976494D01*
X124546815Y-87073185D01*
X124643506Y-87152537D01*
X124753820Y-87211502D01*
X124873518Y-87247812D01*
X124998000Y-87260072D01*
X126522000Y-87260072D01*
X126646482Y-87247812D01*
X126766180Y-87211502D01*
X126876494Y-87152537D01*
X126973185Y-87073185D01*
X127052537Y-86976494D01*
X127111502Y-86866180D01*
X127147812Y-86746482D01*
X127156080Y-86662535D01*
X127214880Y-86750535D01*
X127409465Y-86945120D01*
X127638273Y-87098005D01*
X127892510Y-87203314D01*
X128162408Y-87257000D01*
X128437592Y-87257000D01*
X128707490Y-87203314D01*
X128961727Y-87098005D01*
X129190535Y-86945120D01*
X129385120Y-86750535D01*
X129538005Y-86521727D01*
X129570000Y-86444485D01*
X129601995Y-86521727D01*
X129754880Y-86750535D01*
X129949465Y-86945120D01*
X130178273Y-87098005D01*
X130432510Y-87203314D01*
X130702408Y-87257000D01*
X130977592Y-87257000D01*
X131247490Y-87203314D01*
X131501727Y-87098005D01*
X131730535Y-86945120D01*
X131925120Y-86750535D01*
X132078005Y-86521727D01*
X132110000Y-86444485D01*
X132141995Y-86521727D01*
X132294880Y-86750535D01*
X132489465Y-86945120D01*
X132718273Y-87098005D01*
X132972510Y-87203314D01*
X133242408Y-87257000D01*
X133517592Y-87257000D01*
X133787490Y-87203314D01*
X134041727Y-87098005D01*
X134270535Y-86945120D01*
X134465120Y-86750535D01*
X134618005Y-86521727D01*
X134650000Y-86444485D01*
X134681995Y-86521727D01*
X134834880Y-86750535D01*
X135029465Y-86945120D01*
X135258273Y-87098005D01*
X135512510Y-87203314D01*
X135782408Y-87257000D01*
X136057592Y-87257000D01*
X136327490Y-87203314D01*
X136581727Y-87098005D01*
X136810535Y-86945120D01*
X137005120Y-86750535D01*
X137158005Y-86521727D01*
X137190000Y-86444485D01*
X137221995Y-86521727D01*
X137374880Y-86750535D01*
X137569465Y-86945120D01*
X137798273Y-87098005D01*
X138052510Y-87203314D01*
X138322408Y-87257000D01*
X138597592Y-87257000D01*
X138867490Y-87203314D01*
X139121727Y-87098005D01*
X139350535Y-86945120D01*
X139545120Y-86750535D01*
X139698005Y-86521727D01*
X139730000Y-86444485D01*
X139761995Y-86521727D01*
X139914880Y-86750535D01*
X140109465Y-86945120D01*
X140338273Y-87098005D01*
X140592510Y-87203314D01*
X140862408Y-87257000D01*
X141137592Y-87257000D01*
X141407490Y-87203314D01*
X141661727Y-87098005D01*
X141890535Y-86945120D01*
X142085120Y-86750535D01*
X142238005Y-86521727D01*
X142343314Y-86267490D01*
X142397000Y-85997592D01*
X142397000Y-85722408D01*
X142343314Y-85452510D01*
X142238005Y-85198273D01*
X142085120Y-84969465D01*
X141890535Y-84774880D01*
X141661727Y-84621995D01*
X141407490Y-84516686D01*
X141137592Y-84463000D01*
X140862408Y-84463000D01*
X140592510Y-84516686D01*
X140338273Y-84621995D01*
X140109465Y-84774880D01*
X139914880Y-84969465D01*
X139761995Y-85198273D01*
X139730000Y-85275515D01*
X139698005Y-85198273D01*
X139545120Y-84969465D01*
X139350535Y-84774880D01*
X139121727Y-84621995D01*
X138867490Y-84516686D01*
X138597592Y-84463000D01*
X138322408Y-84463000D01*
X138052510Y-84516686D01*
X137798273Y-84621995D01*
X137569465Y-84774880D01*
X137374880Y-84969465D01*
X137221995Y-85198273D01*
X137190000Y-85275515D01*
X137158005Y-85198273D01*
X137005120Y-84969465D01*
X136810535Y-84774880D01*
X136581727Y-84621995D01*
X136327490Y-84516686D01*
X136057592Y-84463000D01*
X135782408Y-84463000D01*
X135512510Y-84516686D01*
X135258273Y-84621995D01*
X135029465Y-84774880D01*
X134834880Y-84969465D01*
X134681995Y-85198273D01*
X134650000Y-85275515D01*
X134618005Y-85198273D01*
X134465120Y-84969465D01*
X134270535Y-84774880D01*
X134041727Y-84621995D01*
X133787490Y-84516686D01*
X133517592Y-84463000D01*
X133242408Y-84463000D01*
X132972510Y-84516686D01*
X132718273Y-84621995D01*
X132489465Y-84774880D01*
X132294880Y-84969465D01*
X132141995Y-85198273D01*
X132110000Y-85275515D01*
X132078005Y-85198273D01*
X131925120Y-84969465D01*
X131730535Y-84774880D01*
X131501727Y-84621995D01*
X131247490Y-84516686D01*
X130977592Y-84463000D01*
X130702408Y-84463000D01*
X130432510Y-84516686D01*
X130178273Y-84621995D01*
X129949465Y-84774880D01*
X129754880Y-84969465D01*
X129601995Y-85198273D01*
X129570000Y-85275515D01*
X129538005Y-85198273D01*
X129385120Y-84969465D01*
X129190535Y-84774880D01*
X128961727Y-84621995D01*
X128707490Y-84516686D01*
X128437592Y-84463000D01*
X128162408Y-84463000D01*
X127892510Y-84516686D01*
X127638273Y-84621995D01*
X127409465Y-84774880D01*
X127214880Y-84969465D01*
X127156080Y-85057465D01*
X127147812Y-84973518D01*
X127111502Y-84853820D01*
X127052537Y-84743506D01*
X126973185Y-84646815D01*
X126876494Y-84567463D01*
X126766180Y-84508498D01*
X126646482Y-84472188D01*
X126522000Y-84459928D01*
X124998000Y-84459928D01*
X124873518Y-84472188D01*
X124753820Y-84508498D01*
X124643506Y-84567463D01*
X124546815Y-84646815D01*
X124467463Y-84743506D01*
X124408498Y-84853820D01*
X124372188Y-84973518D01*
X124363920Y-85057465D01*
X124305120Y-84969465D01*
X124110535Y-84774880D01*
X123881727Y-84621995D01*
X123627490Y-84516686D01*
X123357592Y-84463000D01*
X123082408Y-84463000D01*
X122812510Y-84516686D01*
X122558273Y-84621995D01*
X122329465Y-84774880D01*
X122134880Y-84969465D01*
X121981995Y-85198273D01*
X121950000Y-85275515D01*
X121918005Y-85198273D01*
X121765120Y-84969465D01*
X121570535Y-84774880D01*
X121341727Y-84621995D01*
X121087490Y-84516686D01*
X120817592Y-84463000D01*
X120542408Y-84463000D01*
X120272510Y-84516686D01*
X120018273Y-84621995D01*
X119789465Y-84774880D01*
X119594880Y-84969465D01*
X119441995Y-85198273D01*
X119410000Y-85275515D01*
X119378005Y-85198273D01*
X119225120Y-84969465D01*
X119030535Y-84774880D01*
X118801727Y-84621995D01*
X118547490Y-84516686D01*
X118277592Y-84463000D01*
X118002408Y-84463000D01*
X117732510Y-84516686D01*
X117478273Y-84621995D01*
X117249465Y-84774880D01*
X117054880Y-84969465D01*
X116901995Y-85198273D01*
X116870000Y-85275515D01*
X116838005Y-85198273D01*
X116685120Y-84969465D01*
X116490535Y-84774880D01*
X116261727Y-84621995D01*
X116007490Y-84516686D01*
X115737592Y-84463000D01*
X115462408Y-84463000D01*
X115192510Y-84516686D01*
X114938273Y-84621995D01*
X114709465Y-84774880D01*
X114514880Y-84969465D01*
X114361995Y-85198273D01*
X114330000Y-85275515D01*
X114298005Y-85198273D01*
X114145120Y-84969465D01*
X113950535Y-84774880D01*
X113721727Y-84621995D01*
X113467490Y-84516686D01*
X113197592Y-84463000D01*
X112922408Y-84463000D01*
X112652510Y-84516686D01*
X112398273Y-84621995D01*
X112367001Y-84642890D01*
X112367001Y-71894326D01*
X112370677Y-71857001D01*
X112367001Y-71819676D01*
X112367001Y-71819668D01*
X112356004Y-71708015D01*
X112312547Y-71564754D01*
X112241975Y-71432725D01*
X112147002Y-71317000D01*
X112118005Y-71293203D01*
X109013804Y-68189003D01*
X108990001Y-68159999D01*
X108874276Y-68065026D01*
X108838072Y-68045674D01*
X108838072Y-66250000D01*
X108825812Y-66125518D01*
X108789502Y-66005820D01*
X108730537Y-65895506D01*
X108651185Y-65798815D01*
X108554494Y-65719463D01*
X108444180Y-65660498D01*
X108324482Y-65624188D01*
X108200000Y-65611928D01*
X106260000Y-65611928D01*
X106260000Y-64132250D01*
X106330535Y-64085120D01*
X106525120Y-63890535D01*
X106583920Y-63802535D01*
X106592188Y-63886482D01*
X106628498Y-64006180D01*
X106687463Y-64116494D01*
X106766815Y-64213185D01*
X106863506Y-64292537D01*
X106973820Y-64351502D01*
X107093518Y-64387812D01*
X107218000Y-64400072D01*
X108742000Y-64400072D01*
X108866482Y-64387812D01*
X108986180Y-64351502D01*
X109096494Y-64292537D01*
X109193185Y-64213185D01*
X109272537Y-64116494D01*
X109331502Y-64006180D01*
X109367812Y-63886482D01*
X109376080Y-63802535D01*
X109434880Y-63890535D01*
X109629465Y-64085120D01*
X109858273Y-64238005D01*
X110112510Y-64343314D01*
X110382408Y-64397000D01*
X110657592Y-64397000D01*
X110927490Y-64343314D01*
X111181727Y-64238005D01*
X111410535Y-64085120D01*
X111605120Y-63890535D01*
X111758005Y-63661727D01*
X111790000Y-63584485D01*
X111821995Y-63661727D01*
X111974880Y-63890535D01*
X112169465Y-64085120D01*
X112398273Y-64238005D01*
X112652510Y-64343314D01*
X112922408Y-64397000D01*
X113197592Y-64397000D01*
X113467490Y-64343314D01*
X113721727Y-64238005D01*
X113950535Y-64085120D01*
X114145120Y-63890535D01*
X114298005Y-63661727D01*
X114330000Y-63584485D01*
X114361995Y-63661727D01*
X114514880Y-63890535D01*
X114709465Y-64085120D01*
X114938273Y-64238005D01*
X115192510Y-64343314D01*
X115462408Y-64397000D01*
X115737592Y-64397000D01*
X116007490Y-64343314D01*
X116261727Y-64238005D01*
X116490535Y-64085120D01*
X116685120Y-63890535D01*
X116743920Y-63802535D01*
X116752188Y-63886482D01*
X116788498Y-64006180D01*
X116847463Y-64116494D01*
X116926815Y-64213185D01*
X117023506Y-64292537D01*
X117133820Y-64351502D01*
X117253518Y-64387812D01*
X117378000Y-64400072D01*
X118902000Y-64400072D01*
X119026482Y-64387812D01*
X119146180Y-64351502D01*
X119256494Y-64292537D01*
X119353185Y-64213185D01*
X119432537Y-64116494D01*
X119491502Y-64006180D01*
X119527812Y-63886482D01*
X119536080Y-63802535D01*
X119594880Y-63890535D01*
X119789465Y-64085120D01*
X120018273Y-64238005D01*
X120272510Y-64343314D01*
X120542408Y-64397000D01*
X120817592Y-64397000D01*
X121087490Y-64343314D01*
X121341727Y-64238005D01*
X121570535Y-64085120D01*
X121765120Y-63890535D01*
X121918005Y-63661727D01*
X121950000Y-63584485D01*
X121981995Y-63661727D01*
X122134880Y-63890535D01*
X122329465Y-64085120D01*
X122558273Y-64238005D01*
X122812510Y-64343314D01*
X123082408Y-64397000D01*
X123357592Y-64397000D01*
X123627490Y-64343314D01*
X123881727Y-64238005D01*
X124110535Y-64085120D01*
X124305120Y-63890535D01*
X124458005Y-63661727D01*
X124490000Y-63584485D01*
X124521995Y-63661727D01*
X124674880Y-63890535D01*
X124869465Y-64085120D01*
X125098273Y-64238005D01*
X125352510Y-64343314D01*
X125622408Y-64397000D01*
X125897592Y-64397000D01*
X126167490Y-64343314D01*
X126421727Y-64238005D01*
X126650535Y-64085120D01*
X126845120Y-63890535D01*
X126998005Y-63661727D01*
X127030000Y-63584485D01*
X127061995Y-63661727D01*
X127214880Y-63890535D01*
X127409465Y-64085120D01*
X127638273Y-64238005D01*
X127892510Y-64343314D01*
X128162408Y-64397000D01*
X128437592Y-64397000D01*
X128707490Y-64343314D01*
X128961727Y-64238005D01*
X129190535Y-64085120D01*
X129385120Y-63890535D01*
X129538005Y-63661727D01*
X129570000Y-63584485D01*
X129601995Y-63661727D01*
X129754880Y-63890535D01*
X129949465Y-64085120D01*
X130178273Y-64238005D01*
X130432510Y-64343314D01*
X130702408Y-64397000D01*
X130977592Y-64397000D01*
X131247490Y-64343314D01*
X131501727Y-64238005D01*
X131730535Y-64085120D01*
X131925120Y-63890535D01*
X132078005Y-63661727D01*
X132110000Y-63584485D01*
X132141995Y-63661727D01*
X132294880Y-63890535D01*
X132489465Y-64085120D01*
X132718273Y-64238005D01*
X132972510Y-64343314D01*
X133242408Y-64397000D01*
X133517592Y-64397000D01*
X133787490Y-64343314D01*
X134041727Y-64238005D01*
X134270535Y-64085120D01*
X134465120Y-63890535D01*
X134618005Y-63661727D01*
X134650000Y-63584485D01*
X134681995Y-63661727D01*
X134834880Y-63890535D01*
X135029465Y-64085120D01*
X135258273Y-64238005D01*
X135512510Y-64343314D01*
X135782408Y-64397000D01*
X136057592Y-64397000D01*
X136327490Y-64343314D01*
X136581727Y-64238005D01*
X136810535Y-64085120D01*
X137005120Y-63890535D01*
X137158005Y-63661727D01*
X137190000Y-63584485D01*
X137221995Y-63661727D01*
X137374880Y-63890535D01*
X137569465Y-64085120D01*
X137798273Y-64238005D01*
X138052510Y-64343314D01*
X138322408Y-64397000D01*
X138597592Y-64397000D01*
X138867490Y-64343314D01*
X139121727Y-64238005D01*
X139350535Y-64085120D01*
X139545120Y-63890535D01*
X139698005Y-63661727D01*
X139730000Y-63584485D01*
X139761995Y-63661727D01*
X139914880Y-63890535D01*
X140109465Y-64085120D01*
X140338273Y-64238005D01*
X140592510Y-64343314D01*
X140862408Y-64397000D01*
X141137592Y-64397000D01*
X141407490Y-64343314D01*
X141661727Y-64238005D01*
X141890535Y-64085120D01*
X142085120Y-63890535D01*
X142238005Y-63661727D01*
X142343314Y-63407490D01*
X142397000Y-63137592D01*
X142397000Y-62862408D01*
X142343314Y-62592510D01*
X142238005Y-62338273D01*
X142085120Y-62109465D01*
X141890535Y-61914880D01*
X141661727Y-61761995D01*
X141407490Y-61656686D01*
X141137592Y-61603000D01*
X140862408Y-61603000D01*
X140592510Y-61656686D01*
X140338273Y-61761995D01*
X140109465Y-61914880D01*
X139914880Y-62109465D01*
X139761995Y-62338273D01*
X139730000Y-62415515D01*
X139698005Y-62338273D01*
X139545120Y-62109465D01*
X139350535Y-61914880D01*
X139121727Y-61761995D01*
X138867490Y-61656686D01*
X138597592Y-61603000D01*
X138322408Y-61603000D01*
X138052510Y-61656686D01*
X137798273Y-61761995D01*
X137569465Y-61914880D01*
X137374880Y-62109465D01*
X137221995Y-62338273D01*
X137190000Y-62415515D01*
X137158005Y-62338273D01*
X137005120Y-62109465D01*
X136810535Y-61914880D01*
X136581727Y-61761995D01*
X136327490Y-61656686D01*
X136057592Y-61603000D01*
X135782408Y-61603000D01*
X135512510Y-61656686D01*
X135258273Y-61761995D01*
X135029465Y-61914880D01*
X134834880Y-62109465D01*
X134681995Y-62338273D01*
X134650000Y-62415515D01*
X134618005Y-62338273D01*
X134465120Y-62109465D01*
X134270535Y-61914880D01*
X134041727Y-61761995D01*
X133787490Y-61656686D01*
X133517592Y-61603000D01*
X133242408Y-61603000D01*
X132972510Y-61656686D01*
X132718273Y-61761995D01*
X132489465Y-61914880D01*
X132294880Y-62109465D01*
X132141995Y-62338273D01*
X132110000Y-62415515D01*
X132078005Y-62338273D01*
X131925120Y-62109465D01*
X131730535Y-61914880D01*
X131501727Y-61761995D01*
X131247490Y-61656686D01*
X130977592Y-61603000D01*
X130702408Y-61603000D01*
X130432510Y-61656686D01*
X130178273Y-61761995D01*
X129949465Y-61914880D01*
X129754880Y-62109465D01*
X129601995Y-62338273D01*
X129570000Y-62415515D01*
X129538005Y-62338273D01*
X129385120Y-62109465D01*
X129190535Y-61914880D01*
X128961727Y-61761995D01*
X128707490Y-61656686D01*
X128437592Y-61603000D01*
X128162408Y-61603000D01*
X127892510Y-61656686D01*
X127638273Y-61761995D01*
X127409465Y-61914880D01*
X127214880Y-62109465D01*
X127061995Y-62338273D01*
X127030000Y-62415515D01*
X126998005Y-62338273D01*
X126845120Y-62109465D01*
X126650535Y-61914880D01*
X126421727Y-61761995D01*
X126167490Y-61656686D01*
X125897592Y-61603000D01*
X125622408Y-61603000D01*
X125352510Y-61656686D01*
X125098273Y-61761995D01*
X124869465Y-61914880D01*
X124674880Y-62109465D01*
X124521995Y-62338273D01*
X124490000Y-62415515D01*
X124458005Y-62338273D01*
X124305120Y-62109465D01*
X124110535Y-61914880D01*
X123881727Y-61761995D01*
X123627490Y-61656686D01*
X123357592Y-61603000D01*
X123082408Y-61603000D01*
X122812510Y-61656686D01*
X122558273Y-61761995D01*
X122329465Y-61914880D01*
X122134880Y-62109465D01*
X121981995Y-62338273D01*
X121950000Y-62415515D01*
X121918005Y-62338273D01*
X121765120Y-62109465D01*
X121570535Y-61914880D01*
X121341727Y-61761995D01*
X121087490Y-61656686D01*
X120817592Y-61603000D01*
X120542408Y-61603000D01*
X120272510Y-61656686D01*
X120018273Y-61761995D01*
X119789465Y-61914880D01*
X119594880Y-62109465D01*
X119536080Y-62197465D01*
X119527812Y-62113518D01*
X119491502Y-61993820D01*
X119432537Y-61883506D01*
X119353185Y-61786815D01*
X119256494Y-61707463D01*
X119146180Y-61648498D01*
X119026482Y-61612188D01*
X118902000Y-61599928D01*
X117378000Y-61599928D01*
X117253518Y-61612188D01*
X117133820Y-61648498D01*
X117023506Y-61707463D01*
X116926815Y-61786815D01*
X116847463Y-61883506D01*
X116788498Y-61993820D01*
X116752188Y-62113518D01*
X116743920Y-62197465D01*
X116685120Y-62109465D01*
X116490535Y-61914880D01*
X116261727Y-61761995D01*
X116007490Y-61656686D01*
X115737592Y-61603000D01*
X115462408Y-61603000D01*
X115192510Y-61656686D01*
X114938273Y-61761995D01*
X114709465Y-61914880D01*
X114514880Y-62109465D01*
X114361995Y-62338273D01*
X114330000Y-62415515D01*
X114298005Y-62338273D01*
X114145120Y-62109465D01*
X113950535Y-61914880D01*
X113721727Y-61761995D01*
X113467490Y-61656686D01*
X113197592Y-61603000D01*
X112922408Y-61603000D01*
X112652510Y-61656686D01*
X112398273Y-61761995D01*
X112169465Y-61914880D01*
X111974880Y-62109465D01*
X111821995Y-62338273D01*
X111790000Y-62415515D01*
X111758005Y-62338273D01*
X111605120Y-62109465D01*
X111410535Y-61914880D01*
X111181727Y-61761995D01*
X110927490Y-61656686D01*
X110657592Y-61603000D01*
X110382408Y-61603000D01*
X110112510Y-61656686D01*
X109858273Y-61761995D01*
X109629465Y-61914880D01*
X109434880Y-62109465D01*
X109376080Y-62197465D01*
X109367812Y-62113518D01*
X109331502Y-61993820D01*
X109272537Y-61883506D01*
X109193185Y-61786815D01*
X109096494Y-61707463D01*
X108986180Y-61648498D01*
X108866482Y-61612188D01*
X108742000Y-61599928D01*
X107218000Y-61599928D01*
X107093518Y-61612188D01*
X106973820Y-61648498D01*
X106863506Y-61707463D01*
X106766815Y-61786815D01*
X106687463Y-61883506D01*
X106628498Y-61993820D01*
X106592188Y-62113518D01*
X106583920Y-62197465D01*
X106525120Y-62109465D01*
X106330535Y-61914880D01*
X106101727Y-61761995D01*
X105847490Y-61656686D01*
X105577592Y-61603000D01*
X105302408Y-61603000D01*
X105032510Y-61656686D01*
X104778273Y-61761995D01*
X104549465Y-61914880D01*
X104354880Y-62109465D01*
X104201995Y-62338273D01*
X104096686Y-62592510D01*
X104043000Y-62862408D01*
X104043000Y-63137592D01*
X104096686Y-63407490D01*
X104201995Y-63661727D01*
X104354880Y-63890535D01*
X104549465Y-64085120D01*
X104740001Y-64212432D01*
X104740001Y-65611928D01*
X102800000Y-65611928D01*
X102675518Y-65624188D01*
X102555820Y-65660498D01*
X102445506Y-65719463D01*
X102348815Y-65798815D01*
X102269463Y-65895506D01*
X102210498Y-66005820D01*
X102174188Y-66125518D01*
X102161928Y-66250000D01*
X102161928Y-70963271D01*
X101385199Y-71740000D01*
X95438072Y-71740000D01*
X95438072Y-71700000D01*
X95425812Y-71575518D01*
X95389502Y-71455820D01*
X95330537Y-71345506D01*
X95251185Y-71248815D01*
X95234607Y-71235210D01*
X95271680Y-71179727D01*
X95379853Y-70918574D01*
X95435000Y-70641335D01*
X95435000Y-70358665D01*
X95379853Y-70081426D01*
X95271680Y-69820273D01*
X95114637Y-69585241D01*
X94914759Y-69385363D01*
X94679727Y-69228320D01*
X94418574Y-69120147D01*
X94141335Y-69065000D01*
X93858665Y-69065000D01*
X93581426Y-69120147D01*
X93320273Y-69228320D01*
X93085241Y-69385363D01*
X92885363Y-69585241D01*
X92728320Y-69820273D01*
X92620147Y-70081426D01*
X92565000Y-70358665D01*
X92565000Y-70641335D01*
X92620147Y-70918574D01*
X92728320Y-71179727D01*
X92765393Y-71235210D01*
X92748815Y-71248815D01*
X92669463Y-71345506D01*
X92610498Y-71455820D01*
X92574188Y-71575518D01*
X92561928Y-71700000D01*
X92561928Y-73300000D01*
X92574188Y-73424482D01*
X92610498Y-73544180D01*
X92669463Y-73654494D01*
X92748815Y-73751185D01*
X92845506Y-73830537D01*
X92955820Y-73889502D01*
X93075518Y-73925812D01*
X93200000Y-73938072D01*
X93240001Y-73938072D01*
X93240000Y-76281956D01*
X93085241Y-76385363D01*
X92885363Y-76585241D01*
X92728320Y-76820273D01*
X92620147Y-77081426D01*
X92565000Y-77358665D01*
X92565000Y-77641335D01*
X92620147Y-77918574D01*
X92728320Y-78179727D01*
X92885363Y-78414759D01*
X93085241Y-78614637D01*
X93320273Y-78771680D01*
X93581426Y-78879853D01*
X93858665Y-78935000D01*
X94141335Y-78935000D01*
X94418574Y-78879853D01*
X94679727Y-78771680D01*
X94914759Y-78614637D01*
X95114637Y-78414759D01*
X95271680Y-78179727D01*
X95379853Y-77918574D01*
X95435000Y-77641335D01*
X95435000Y-77358665D01*
X95379853Y-77081426D01*
X95271680Y-76820273D01*
X95114637Y-76585241D01*
X94914759Y-76385363D01*
X94760000Y-76281957D01*
X94760000Y-73938072D01*
X94800000Y-73938072D01*
X94924482Y-73925812D01*
X95044180Y-73889502D01*
X95154494Y-73830537D01*
X95251185Y-73751185D01*
X95330537Y-73654494D01*
X95389502Y-73544180D01*
X95425812Y-73424482D01*
X95438072Y-73300000D01*
X95438072Y-73260000D01*
X101662678Y-73260000D01*
X101700000Y-73263676D01*
X101737322Y-73260000D01*
X101737333Y-73260000D01*
X101848986Y-73249003D01*
X101992247Y-73205546D01*
X102124276Y-73134974D01*
X102240001Y-73040001D01*
X102263804Y-73010997D01*
X103486729Y-71788072D01*
X108200000Y-71788072D01*
X108324482Y-71775812D01*
X108444180Y-71739502D01*
X108554494Y-71680537D01*
X108651185Y-71601185D01*
X108730537Y-71504494D01*
X108789502Y-71394180D01*
X108825812Y-71274482D01*
X108838072Y-71150000D01*
X108838072Y-70162873D01*
X110847001Y-72171803D01*
X110847002Y-84500676D01*
X110657592Y-84463000D01*
X110382408Y-84463000D01*
X110112510Y-84516686D01*
X109858273Y-84621995D01*
X109629465Y-84774880D01*
X109434880Y-84969465D01*
X109376080Y-85057465D01*
X109367812Y-84973518D01*
X109331502Y-84853820D01*
X109272537Y-84743506D01*
X109193185Y-84646815D01*
X109096494Y-84567463D01*
X108986180Y-84508498D01*
X108866482Y-84472188D01*
X108742000Y-84459928D01*
X107218000Y-84459928D01*
X107093518Y-84472188D01*
X106973820Y-84508498D01*
X106863506Y-84567463D01*
X106766815Y-84646815D01*
X106687463Y-84743506D01*
X106628498Y-84853820D01*
X106592188Y-84973518D01*
X106583920Y-85057465D01*
X106525120Y-84969465D01*
X106330535Y-84774880D01*
X106101727Y-84621995D01*
X105847490Y-84516686D01*
X105577592Y-84463000D01*
X105311802Y-84463000D01*
X106011003Y-83763799D01*
X106040001Y-83740001D01*
X106134974Y-83624276D01*
X106154326Y-83588072D01*
X108200000Y-83588072D01*
X108324482Y-83575812D01*
X108444180Y-83539502D01*
X108554494Y-83480537D01*
X108651185Y-83401185D01*
X108730537Y-83304494D01*
X108789502Y-83194180D01*
X108825812Y-83074482D01*
X108838072Y-82950000D01*
X108838072Y-78050000D01*
X108825812Y-77925518D01*
X108789502Y-77805820D01*
X108730537Y-77695506D01*
X108651185Y-77598815D01*
X108554494Y-77519463D01*
X108444180Y-77460498D01*
X108324482Y-77424188D01*
X108200000Y-77411928D01*
X102800000Y-77411928D01*
X102675518Y-77424188D01*
X102555820Y-77460498D01*
X102445506Y-77519463D01*
X102348815Y-77598815D01*
X102269463Y-77695506D01*
X102210498Y-77805820D01*
X102174188Y-77925518D01*
X102161928Y-78050000D01*
X102161928Y-82950000D01*
X102174188Y-83074482D01*
X102210498Y-83194180D01*
X102269463Y-83304494D01*
X102348815Y-83401185D01*
X102445506Y-83480537D01*
X102555820Y-83539502D01*
X102675518Y-83575812D01*
X102800000Y-83588072D01*
X104037126Y-83588072D01*
X96685199Y-90940000D01*
X95458329Y-90940000D01*
X95489502Y-90881680D01*
X95525812Y-90761982D01*
X95538072Y-90637500D01*
X95535000Y-90285750D01*
X95376250Y-90127000D01*
X94127000Y-90127000D01*
X94127000Y-90147000D01*
X93873000Y-90147000D01*
X93873000Y-90127000D01*
X92623750Y-90127000D01*
X92465000Y-90285750D01*
X92461928Y-90637500D01*
X92474188Y-90761982D01*
X92510498Y-90881680D01*
X92569463Y-90991994D01*
X92632202Y-91068442D01*
X92556175Y-91210679D01*
X92483412Y-91450546D01*
X92458843Y-91700000D01*
X92483412Y-91949454D01*
X92528176Y-92097022D01*
X92263988Y-92361211D01*
X92234990Y-92385009D01*
X92211192Y-92414007D01*
X92211191Y-92414008D01*
X92140016Y-92500734D01*
X92069444Y-92632764D01*
X92025988Y-92776025D01*
X92011314Y-92925010D01*
X92014991Y-92962342D01*
X92014990Y-99761928D01*
X91900000Y-99761928D01*
X91775518Y-99774188D01*
X91655820Y-99810498D01*
X91545506Y-99869463D01*
X91448815Y-99948815D01*
X91369463Y-100045506D01*
X91310498Y-100155820D01*
X91274188Y-100275518D01*
X91261928Y-100400000D01*
X91261928Y-102600000D01*
X91274188Y-102724482D01*
X91310498Y-102844180D01*
X91369463Y-102954494D01*
X91448815Y-103051185D01*
X91545506Y-103130537D01*
X91655820Y-103189502D01*
X91775518Y-103225812D01*
X91900000Y-103238072D01*
X94100000Y-103238072D01*
X94224482Y-103225812D01*
X94344180Y-103189502D01*
X94454494Y-103130537D01*
X94551185Y-103051185D01*
X94630537Y-102954494D01*
X94689502Y-102844180D01*
X94725812Y-102724482D01*
X94738072Y-102600000D01*
X94738072Y-100400000D01*
X94725812Y-100275518D01*
X94689502Y-100155820D01*
X94630537Y-100045506D01*
X94551185Y-99948815D01*
X94454494Y-99869463D01*
X94344180Y-99810498D01*
X94224482Y-99774188D01*
X94100000Y-99761928D01*
X93534990Y-99761928D01*
X93534990Y-98058712D01*
X93674987Y-98072500D01*
X94325013Y-98072500D01*
X94511954Y-98054088D01*
X94751821Y-97981325D01*
X94972884Y-97863164D01*
X95166647Y-97704147D01*
X95325664Y-97510384D01*
X95443825Y-97289321D01*
X95516588Y-97049454D01*
X95541157Y-96800000D01*
X95516588Y-96550546D01*
X95443825Y-96310679D01*
X95325664Y-96089616D01*
X95211084Y-95950000D01*
X95284945Y-95860000D01*
X97285199Y-95860000D01*
X101349358Y-99924159D01*
X101126081Y-99831675D01*
X100790883Y-99765000D01*
X100449117Y-99765000D01*
X100113919Y-99831675D01*
X99798169Y-99962463D01*
X99514002Y-100152337D01*
X99272337Y-100394002D01*
X99082463Y-100678169D01*
X98951675Y-100993919D01*
X98885000Y-101329117D01*
X98885000Y-101670883D01*
X98951675Y-102006081D01*
X99082463Y-102321831D01*
X99272337Y-102605998D01*
X99514002Y-102847663D01*
X99798169Y-103037537D01*
X100113919Y-103168325D01*
X100449117Y-103235000D01*
X100790883Y-103235000D01*
X101126081Y-103168325D01*
X101441831Y-103037537D01*
X101725998Y-102847663D01*
X101967663Y-102605998D01*
X102157537Y-102321831D01*
X102288325Y-102006081D01*
X102355000Y-101670883D01*
X102355000Y-101329117D01*
X102288325Y-100993919D01*
X102195841Y-100770643D01*
X102601312Y-101176114D01*
X102565000Y-101358665D01*
X102565000Y-101641335D01*
X102620147Y-101918574D01*
X102728320Y-102179727D01*
X102885363Y-102414759D01*
X103085241Y-102614637D01*
X103320273Y-102771680D01*
X103581426Y-102879853D01*
X103858665Y-102935000D01*
X104141335Y-102935000D01*
X104418574Y-102879853D01*
X104679727Y-102771680D01*
X104914759Y-102614637D01*
X105114637Y-102414759D01*
X105271680Y-102179727D01*
X105379853Y-101918574D01*
X105435000Y-101641335D01*
X105435000Y-101358665D01*
X110185000Y-101358665D01*
X110185000Y-101641335D01*
X110240147Y-101918574D01*
X110348320Y-102179727D01*
X110505363Y-102414759D01*
X110705241Y-102614637D01*
X110940273Y-102771680D01*
X111201426Y-102879853D01*
X111478665Y-102935000D01*
X111761335Y-102935000D01*
X112038574Y-102879853D01*
X112299727Y-102771680D01*
X112534759Y-102614637D01*
X112734637Y-102414759D01*
X112891680Y-102179727D01*
X112999853Y-101918574D01*
X113055000Y-101641335D01*
X113055000Y-101358665D01*
X112999853Y-101081426D01*
X112891680Y-100820273D01*
X112734637Y-100585241D01*
X112534759Y-100385363D01*
X112299727Y-100228320D01*
X112038574Y-100120147D01*
X111761335Y-100065000D01*
X111478665Y-100065000D01*
X111201426Y-100120147D01*
X110940273Y-100228320D01*
X110705241Y-100385363D01*
X110505363Y-100585241D01*
X110348320Y-100820273D01*
X110240147Y-101081426D01*
X110185000Y-101358665D01*
X105435000Y-101358665D01*
X105379853Y-101081426D01*
X105271680Y-100820273D01*
X105114637Y-100585241D01*
X104914759Y-100385363D01*
X104679727Y-100228320D01*
X104418574Y-100120147D01*
X104141335Y-100065000D01*
X103858665Y-100065000D01*
X103676114Y-100101312D01*
X98163804Y-94589003D01*
X98140001Y-94559999D01*
X98024276Y-94465026D01*
X97892247Y-94394454D01*
X97748986Y-94350997D01*
X97637333Y-94340000D01*
X97637322Y-94340000D01*
X97600000Y-94336324D01*
X97562678Y-94340000D01*
X95284945Y-94340000D01*
X95211084Y-94250000D01*
X95325664Y-94110384D01*
X95443825Y-93889321D01*
X95516588Y-93649454D01*
X95541157Y-93400000D01*
X95518022Y-93165098D01*
X108275000Y-93165098D01*
X108275000Y-93634902D01*
X108366654Y-94095679D01*
X108546440Y-94529721D01*
X108807450Y-94920349D01*
X109139651Y-95252550D01*
X109530279Y-95513560D01*
X109964321Y-95693346D01*
X110425098Y-95785000D01*
X110894902Y-95785000D01*
X111355679Y-95693346D01*
X111789721Y-95513560D01*
X112180349Y-95252550D01*
X112512550Y-94920349D01*
X112773560Y-94529721D01*
X112953346Y-94095679D01*
X113045000Y-93634902D01*
X113045000Y-93165098D01*
X112953346Y-92704321D01*
X112773560Y-92270279D01*
X112512550Y-91879651D01*
X112180349Y-91547450D01*
X111789721Y-91286440D01*
X111355679Y-91106654D01*
X110894902Y-91015000D01*
X110425098Y-91015000D01*
X109964321Y-91106654D01*
X109530279Y-91286440D01*
X109139651Y-91547450D01*
X108807450Y-91879651D01*
X108546440Y-92270279D01*
X108366654Y-92704321D01*
X108275000Y-93165098D01*
X95518022Y-93165098D01*
X95516588Y-93150546D01*
X95443825Y-92910679D01*
X95325664Y-92689616D01*
X95211084Y-92550000D01*
X95284945Y-92460000D01*
X96962678Y-92460000D01*
X97000000Y-92463676D01*
X97037322Y-92460000D01*
X97037333Y-92460000D01*
X97148986Y-92449003D01*
X97292247Y-92405546D01*
X97424276Y-92334974D01*
X97540001Y-92240001D01*
X97563804Y-92210997D01*
X104043000Y-85731802D01*
X104043000Y-85997592D01*
X104096686Y-86267490D01*
X104201995Y-86521727D01*
X104354880Y-86750535D01*
X104549465Y-86945120D01*
X104778273Y-87098005D01*
X105032510Y-87203314D01*
X105302408Y-87257000D01*
X105577592Y-87257000D01*
X105847490Y-87203314D01*
X106101727Y-87098005D01*
X106330535Y-86945120D01*
X106525120Y-86750535D01*
X106583920Y-86662535D01*
X106592188Y-86746482D01*
X106628498Y-86866180D01*
X106687463Y-86976494D01*
X106766815Y-87073185D01*
X106863506Y-87152537D01*
X106973820Y-87211502D01*
X107093518Y-87247812D01*
X107218000Y-87260072D01*
X108742000Y-87260072D01*
X108866482Y-87247812D01*
X108986180Y-87211502D01*
X109096494Y-87152537D01*
X109193185Y-87073185D01*
X109272537Y-86976494D01*
X109331502Y-86866180D01*
X109367812Y-86746482D01*
X109376080Y-86662535D01*
X109434880Y-86750535D01*
X109629465Y-86945120D01*
X109858273Y-87098005D01*
X110112510Y-87203314D01*
X110382408Y-87257000D01*
X110657592Y-87257000D01*
X110847002Y-87219324D01*
X110847002Y-88949668D01*
X110843325Y-88987001D01*
X110847002Y-89024334D01*
X110857409Y-89129991D01*
X110857999Y-89135986D01*
X110901455Y-89279247D01*
X110972027Y-89411277D01*
X111043202Y-89498003D01*
X111067001Y-89527002D01*
X111095999Y-89550800D01*
X119601312Y-98056114D01*
X119565000Y-98238665D01*
X119565000Y-98521335D01*
X119620147Y-98798574D01*
X119728320Y-99059727D01*
X119885363Y-99294759D01*
X120085241Y-99494637D01*
X120320273Y-99651680D01*
X120581426Y-99759853D01*
X120858665Y-99815000D01*
X121141335Y-99815000D01*
X121323887Y-99778688D01*
X126110198Y-104565000D01*
X125858665Y-104565000D01*
X125581426Y-104620147D01*
X125320273Y-104728320D01*
X125085241Y-104885363D01*
X124885363Y-105085241D01*
X124728320Y-105320273D01*
X124620147Y-105581426D01*
X124565000Y-105858665D01*
X124565000Y-106141335D01*
X124620147Y-106418574D01*
X124728320Y-106679727D01*
X124885363Y-106914759D01*
X125085241Y-107114637D01*
X125240001Y-107218044D01*
X125240001Y-107962668D01*
X125236324Y-108000000D01*
X125250998Y-108148985D01*
X125294454Y-108292246D01*
X125365026Y-108424276D01*
X125418143Y-108488998D01*
X125460000Y-108540001D01*
X125488998Y-108563799D01*
X127212126Y-110286928D01*
X126525000Y-110286928D01*
X126351746Y-110303992D01*
X126185150Y-110354528D01*
X126031614Y-110436595D01*
X125897038Y-110547038D01*
X125786595Y-110681614D01*
X125704528Y-110835150D01*
X125653992Y-111001746D01*
X125636928Y-111175000D01*
X125636928Y-112425000D01*
X125653992Y-112598254D01*
X125704528Y-112764850D01*
X125786595Y-112918386D01*
X125897038Y-113052962D01*
X126031614Y-113163405D01*
X126185150Y-113245472D01*
X126351746Y-113296008D01*
X126525000Y-113313072D01*
X127275000Y-113313072D01*
X127448254Y-113296008D01*
X127614850Y-113245472D01*
X127768386Y-113163405D01*
X127902962Y-113052962D01*
X128013405Y-112918386D01*
X128095472Y-112764850D01*
X128096943Y-112760000D01*
X129296289Y-112760000D01*
X129340226Y-112803937D01*
X129509744Y-112917205D01*
X129698102Y-112995226D01*
X129898061Y-113035000D01*
X130101939Y-113035000D01*
X130301898Y-112995226D01*
X130490256Y-112917205D01*
X130659774Y-112803937D01*
X130803937Y-112659774D01*
X130917205Y-112490256D01*
X130995226Y-112301898D01*
X131035000Y-112101939D01*
X131035000Y-111898061D01*
X130995226Y-111698102D01*
X130917205Y-111509744D01*
X130803937Y-111340226D01*
X130659774Y-111196063D01*
X130490256Y-111082795D01*
X130301898Y-111004774D01*
X130101939Y-110965000D01*
X129898061Y-110965000D01*
X129698102Y-111004774D01*
X129509744Y-111082795D01*
X129340226Y-111196063D01*
X129296289Y-111240000D01*
X128163072Y-111240000D01*
X128163072Y-111175000D01*
X128146008Y-111001746D01*
X128095472Y-110835150D01*
X128055303Y-110760000D01*
X130985199Y-110760000D01*
X131836928Y-111611730D01*
X131836928Y-112425000D01*
X131853992Y-112598254D01*
X131904528Y-112764850D01*
X131986595Y-112918386D01*
X132097038Y-113052962D01*
X132231614Y-113163405D01*
X132385150Y-113245472D01*
X132551746Y-113296008D01*
X132725000Y-113313072D01*
X133475000Y-113313072D01*
X133648254Y-113296008D01*
X133814850Y-113245472D01*
X133968386Y-113163405D01*
X134102962Y-113052962D01*
X134213405Y-112918386D01*
X134295472Y-112764850D01*
X134346008Y-112598254D01*
X134363072Y-112425000D01*
X134363072Y-111175000D01*
X134636928Y-111175000D01*
X134636928Y-112425000D01*
X134653992Y-112598254D01*
X134704528Y-112764850D01*
X134786595Y-112918386D01*
X134897038Y-113052962D01*
X135031614Y-113163405D01*
X135185150Y-113245472D01*
X135351746Y-113296008D01*
X135525000Y-113313072D01*
X136275000Y-113313072D01*
X136448254Y-113296008D01*
X136614850Y-113245472D01*
X136768386Y-113163405D01*
X136902962Y-113052962D01*
X137013405Y-112918386D01*
X137095472Y-112764850D01*
X137096943Y-112760000D01*
X138296289Y-112760000D01*
X138340226Y-112803937D01*
X138509744Y-112917205D01*
X138698102Y-112995226D01*
X138898061Y-113035000D01*
X139101939Y-113035000D01*
X139301898Y-112995226D01*
X139490256Y-112917205D01*
X139659774Y-112803937D01*
X139663711Y-112800000D01*
X141561928Y-112800000D01*
X141574188Y-112924482D01*
X141610498Y-113044180D01*
X141669463Y-113154494D01*
X141748815Y-113251185D01*
X141845506Y-113330537D01*
X141955820Y-113389502D01*
X142075518Y-113425812D01*
X142200000Y-113438072D01*
X142714250Y-113435000D01*
X142873000Y-113276250D01*
X142873000Y-112127000D01*
X141723750Y-112127000D01*
X141565000Y-112285750D01*
X141561928Y-112800000D01*
X139663711Y-112800000D01*
X139803937Y-112659774D01*
X139917205Y-112490256D01*
X139995226Y-112301898D01*
X140035000Y-112101939D01*
X140035000Y-111898061D01*
X139995226Y-111698102D01*
X139917205Y-111509744D01*
X139803937Y-111340226D01*
X139663711Y-111200000D01*
X141561928Y-111200000D01*
X141565000Y-111714250D01*
X141723750Y-111873000D01*
X142873000Y-111873000D01*
X142873000Y-110723750D01*
X143127000Y-110723750D01*
X143127000Y-111873000D01*
X143147000Y-111873000D01*
X143147000Y-112127000D01*
X143127000Y-112127000D01*
X143127000Y-113276250D01*
X143285750Y-113435000D01*
X143800000Y-113438072D01*
X143924482Y-113425812D01*
X144044180Y-113389502D01*
X144154494Y-113330537D01*
X144251185Y-113251185D01*
X144264790Y-113234607D01*
X144320273Y-113271680D01*
X144581426Y-113379853D01*
X144858665Y-113435000D01*
X145141335Y-113435000D01*
X145418574Y-113379853D01*
X145679727Y-113271680D01*
X145914759Y-113114637D01*
X146114637Y-112914759D01*
X146271680Y-112679727D01*
X146379853Y-112418574D01*
X146435000Y-112141335D01*
X146435000Y-111858665D01*
X146379853Y-111581426D01*
X146271680Y-111320273D01*
X146114637Y-111085241D01*
X145914759Y-110885363D01*
X145679727Y-110728320D01*
X145418574Y-110620147D01*
X145141335Y-110565000D01*
X144858665Y-110565000D01*
X144581426Y-110620147D01*
X144320273Y-110728320D01*
X144264790Y-110765393D01*
X144251185Y-110748815D01*
X144154494Y-110669463D01*
X144044180Y-110610498D01*
X143924482Y-110574188D01*
X143800000Y-110561928D01*
X143285750Y-110565000D01*
X143127000Y-110723750D01*
X142873000Y-110723750D01*
X142714250Y-110565000D01*
X142200000Y-110561928D01*
X142075518Y-110574188D01*
X141955820Y-110610498D01*
X141845506Y-110669463D01*
X141748815Y-110748815D01*
X141669463Y-110845506D01*
X141610498Y-110955820D01*
X141574188Y-111075518D01*
X141561928Y-111200000D01*
X139663711Y-111200000D01*
X139659774Y-111196063D01*
X139490256Y-111082795D01*
X139301898Y-111004774D01*
X139101939Y-110965000D01*
X138898061Y-110965000D01*
X138698102Y-111004774D01*
X138509744Y-111082795D01*
X138340226Y-111196063D01*
X138296289Y-111240000D01*
X137163072Y-111240000D01*
X137163072Y-111175000D01*
X137146008Y-111001746D01*
X137095472Y-110835150D01*
X137013405Y-110681614D01*
X136902962Y-110547038D01*
X136768386Y-110436595D01*
X136614850Y-110354528D01*
X136448254Y-110303992D01*
X136275000Y-110286928D01*
X135525000Y-110286928D01*
X135351746Y-110303992D01*
X135185150Y-110354528D01*
X135031614Y-110436595D01*
X134897038Y-110547038D01*
X134786595Y-110681614D01*
X134704528Y-110835150D01*
X134653992Y-111001746D01*
X134636928Y-111175000D01*
X134363072Y-111175000D01*
X134346008Y-111001746D01*
X134295472Y-110835150D01*
X134213405Y-110681614D01*
X134102962Y-110547038D01*
X133968386Y-110436595D01*
X133814850Y-110354528D01*
X133648254Y-110303992D01*
X133475000Y-110286928D01*
X132725000Y-110286928D01*
X132667403Y-110292601D01*
X131863803Y-109489002D01*
X131840001Y-109459999D01*
X131724276Y-109365026D01*
X131592247Y-109294454D01*
X131448986Y-109250997D01*
X131337333Y-109240000D01*
X131337322Y-109240000D01*
X131300000Y-109236324D01*
X131262678Y-109240000D01*
X128314802Y-109240000D01*
X126760000Y-107685199D01*
X126760000Y-107218043D01*
X126914759Y-107114637D01*
X127114637Y-106914759D01*
X127271680Y-106679727D01*
X127379853Y-106418574D01*
X127435000Y-106141335D01*
X127435000Y-105889802D01*
X130056205Y-108511008D01*
X130079999Y-108540001D01*
X130108992Y-108563795D01*
X130108996Y-108563799D01*
X130179685Y-108621811D01*
X130195724Y-108634974D01*
X130327753Y-108705546D01*
X130471014Y-108749003D01*
X130582667Y-108760000D01*
X130582676Y-108760000D01*
X130619999Y-108763676D01*
X130657322Y-108760000D01*
X150323340Y-108760000D01*
X150278182Y-108778705D01*
X149682823Y-109176511D01*
X149176511Y-109682823D01*
X148778705Y-110278182D01*
X148504691Y-110939710D01*
X148365000Y-111641984D01*
X148365000Y-112358016D01*
X148504691Y-113060290D01*
X148778705Y-113721818D01*
X149176511Y-114317177D01*
X149682823Y-114823489D01*
X150278182Y-115221295D01*
X150564761Y-115340000D01*
X95435239Y-115340000D01*
X95721818Y-115221295D01*
X96317177Y-114823489D01*
X96823489Y-114317177D01*
X97221295Y-113721818D01*
X97495309Y-113060290D01*
X97635000Y-112358016D01*
X97635000Y-111641984D01*
X97495309Y-110939710D01*
X97433182Y-110789721D01*
X98165000Y-110789721D01*
X98165000Y-111210279D01*
X98247047Y-111622756D01*
X98407988Y-112011302D01*
X98641637Y-112360983D01*
X98939017Y-112658363D01*
X99288698Y-112892012D01*
X99677244Y-113052953D01*
X100089721Y-113135000D01*
X100510279Y-113135000D01*
X100922756Y-113052953D01*
X101311302Y-112892012D01*
X101660983Y-112658363D01*
X101958363Y-112360983D01*
X102192012Y-112011302D01*
X102352953Y-111622756D01*
X102435000Y-111210279D01*
X102435000Y-110789721D01*
X102865000Y-110789721D01*
X102865000Y-111210279D01*
X102947047Y-111622756D01*
X103107988Y-112011302D01*
X103341637Y-112360983D01*
X103639017Y-112658363D01*
X103988698Y-112892012D01*
X104377244Y-113052953D01*
X104789721Y-113135000D01*
X105210279Y-113135000D01*
X105622756Y-113052953D01*
X106011302Y-112892012D01*
X106360983Y-112658363D01*
X106519346Y-112500000D01*
X107561928Y-112500000D01*
X107574188Y-112624482D01*
X107610498Y-112744180D01*
X107669463Y-112854494D01*
X107748815Y-112951185D01*
X107845506Y-113030537D01*
X107955820Y-113089502D01*
X108075518Y-113125812D01*
X108200000Y-113138072D01*
X109414250Y-113135000D01*
X109573000Y-112976250D01*
X109573000Y-111127000D01*
X109827000Y-111127000D01*
X109827000Y-112976250D01*
X109985750Y-113135000D01*
X111200000Y-113138072D01*
X111324482Y-113125812D01*
X111444180Y-113089502D01*
X111554494Y-113030537D01*
X111651185Y-112951185D01*
X111730537Y-112854494D01*
X111789502Y-112744180D01*
X111825812Y-112624482D01*
X111838072Y-112500000D01*
X111835000Y-111285750D01*
X111676250Y-111127000D01*
X109827000Y-111127000D01*
X109573000Y-111127000D01*
X107723750Y-111127000D01*
X107565000Y-111285750D01*
X107561928Y-112500000D01*
X106519346Y-112500000D01*
X106658363Y-112360983D01*
X106892012Y-112011302D01*
X107052953Y-111622756D01*
X107135000Y-111210279D01*
X107135000Y-110789721D01*
X107052953Y-110377244D01*
X106948860Y-110125942D01*
X107314802Y-109760000D01*
X107562586Y-109760000D01*
X107565000Y-110714250D01*
X107723750Y-110873000D01*
X109573000Y-110873000D01*
X109573000Y-110853000D01*
X109827000Y-110853000D01*
X109827000Y-110873000D01*
X111676250Y-110873000D01*
X111835000Y-110714250D01*
X111837414Y-109760000D01*
X111962678Y-109760000D01*
X112000000Y-109763676D01*
X112037322Y-109760000D01*
X112037333Y-109760000D01*
X112148986Y-109749003D01*
X112292247Y-109705546D01*
X112424276Y-109634974D01*
X112540001Y-109540001D01*
X112563804Y-109510997D01*
X114240000Y-107834802D01*
X114240001Y-110616538D01*
X114186595Y-110681614D01*
X114104528Y-110835150D01*
X114053992Y-111001746D01*
X114036928Y-111175000D01*
X114036928Y-112425000D01*
X114053992Y-112598254D01*
X114104528Y-112764850D01*
X114186595Y-112918386D01*
X114297038Y-113052962D01*
X114431614Y-113163405D01*
X114585150Y-113245472D01*
X114751746Y-113296008D01*
X114925000Y-113313072D01*
X115675000Y-113313072D01*
X115848254Y-113296008D01*
X116014850Y-113245472D01*
X116168386Y-113163405D01*
X116302962Y-113052962D01*
X116413405Y-112918386D01*
X116495472Y-112764850D01*
X116546008Y-112598254D01*
X116563072Y-112425000D01*
X116563072Y-111175000D01*
X116836928Y-111175000D01*
X116836928Y-112425000D01*
X116853992Y-112598254D01*
X116904528Y-112764850D01*
X116986595Y-112918386D01*
X117097038Y-113052962D01*
X117231614Y-113163405D01*
X117385150Y-113245472D01*
X117551746Y-113296008D01*
X117725000Y-113313072D01*
X118475000Y-113313072D01*
X118648254Y-113296008D01*
X118814850Y-113245472D01*
X118968386Y-113163405D01*
X119102962Y-113052962D01*
X119213405Y-112918386D01*
X119295472Y-112764850D01*
X119296943Y-112760000D01*
X120296289Y-112760000D01*
X120340226Y-112803937D01*
X120509744Y-112917205D01*
X120698102Y-112995226D01*
X120898061Y-113035000D01*
X121101939Y-113035000D01*
X121301898Y-112995226D01*
X121490256Y-112917205D01*
X121659774Y-112803937D01*
X121803937Y-112659774D01*
X121917205Y-112490256D01*
X121995226Y-112301898D01*
X122035000Y-112101939D01*
X122035000Y-111898061D01*
X121995226Y-111698102D01*
X121917205Y-111509744D01*
X121803937Y-111340226D01*
X121659774Y-111196063D01*
X121490256Y-111082795D01*
X121301898Y-111004774D01*
X121101939Y-110965000D01*
X120898061Y-110965000D01*
X120698102Y-111004774D01*
X120509744Y-111082795D01*
X120340226Y-111196063D01*
X120296289Y-111240000D01*
X119363072Y-111240000D01*
X119363072Y-111175000D01*
X119346008Y-111001746D01*
X119295472Y-110835150D01*
X119213405Y-110681614D01*
X119102962Y-110547038D01*
X118968386Y-110436595D01*
X118814850Y-110354528D01*
X118648254Y-110303992D01*
X118475000Y-110286928D01*
X117725000Y-110286928D01*
X117551746Y-110303992D01*
X117385150Y-110354528D01*
X117231614Y-110436595D01*
X117097038Y-110547038D01*
X116986595Y-110681614D01*
X116904528Y-110835150D01*
X116853992Y-111001746D01*
X116836928Y-111175000D01*
X116563072Y-111175000D01*
X116546008Y-111001746D01*
X116495472Y-110835150D01*
X116413405Y-110681614D01*
X116302962Y-110547038D01*
X116168386Y-110436595D01*
X116014850Y-110354528D01*
X115848254Y-110303992D01*
X115760000Y-110295300D01*
X115760000Y-107415374D01*
X115858665Y-107435000D01*
X116141335Y-107435000D01*
X116418574Y-107379853D01*
X116679727Y-107271680D01*
X116914759Y-107114637D01*
X117114637Y-106914759D01*
X117271680Y-106679727D01*
X117379853Y-106418574D01*
X117435000Y-106141335D01*
X117435000Y-105858665D01*
X119565000Y-105858665D01*
X119565000Y-106141335D01*
X119620147Y-106418574D01*
X119728320Y-106679727D01*
X119885363Y-106914759D01*
X120085241Y-107114637D01*
X120240000Y-107218044D01*
X120240001Y-108662668D01*
X120236324Y-108700000D01*
X120240001Y-108737333D01*
X120250998Y-108848986D01*
X120254924Y-108861928D01*
X120294454Y-108992246D01*
X120365026Y-109124276D01*
X120407895Y-109176511D01*
X120460000Y-109240001D01*
X120488998Y-109263799D01*
X122836928Y-111611730D01*
X122836928Y-112425000D01*
X122853992Y-112598254D01*
X122904528Y-112764850D01*
X122986595Y-112918386D01*
X123097038Y-113052962D01*
X123231614Y-113163405D01*
X123385150Y-113245472D01*
X123551746Y-113296008D01*
X123725000Y-113313072D01*
X124475000Y-113313072D01*
X124648254Y-113296008D01*
X124814850Y-113245472D01*
X124968386Y-113163405D01*
X125102962Y-113052962D01*
X125213405Y-112918386D01*
X125295472Y-112764850D01*
X125346008Y-112598254D01*
X125363072Y-112425000D01*
X125363072Y-111175000D01*
X125346008Y-111001746D01*
X125295472Y-110835150D01*
X125213405Y-110681614D01*
X125102962Y-110547038D01*
X124968386Y-110436595D01*
X124814850Y-110354528D01*
X124648254Y-110303992D01*
X124475000Y-110286928D01*
X123725000Y-110286928D01*
X123667403Y-110292601D01*
X121760000Y-108385199D01*
X121760000Y-107218043D01*
X121914759Y-107114637D01*
X122114637Y-106914759D01*
X122271680Y-106679727D01*
X122379853Y-106418574D01*
X122435000Y-106141335D01*
X122435000Y-105858665D01*
X122379853Y-105581426D01*
X122271680Y-105320273D01*
X122114637Y-105085241D01*
X121914759Y-104885363D01*
X121679727Y-104728320D01*
X121418574Y-104620147D01*
X121141335Y-104565000D01*
X120858665Y-104565000D01*
X120581426Y-104620147D01*
X120320273Y-104728320D01*
X120085241Y-104885363D01*
X119885363Y-105085241D01*
X119728320Y-105320273D01*
X119620147Y-105581426D01*
X119565000Y-105858665D01*
X117435000Y-105858665D01*
X117379853Y-105581426D01*
X117271680Y-105320273D01*
X117114637Y-105085241D01*
X116914759Y-104885363D01*
X116679727Y-104728320D01*
X116418574Y-104620147D01*
X116141335Y-104565000D01*
X115858665Y-104565000D01*
X115581426Y-104620147D01*
X115320273Y-104728320D01*
X115085241Y-104885363D01*
X114885363Y-105085241D01*
X114760000Y-105272860D01*
X114760000Y-100694801D01*
X115676114Y-99778688D01*
X115858665Y-99815000D01*
X116141335Y-99815000D01*
X116418574Y-99759853D01*
X116679727Y-99651680D01*
X116914759Y-99494637D01*
X117114637Y-99294759D01*
X117271680Y-99059727D01*
X117379853Y-98798574D01*
X117435000Y-98521335D01*
X117435000Y-98238665D01*
X117379853Y-97961426D01*
X117271680Y-97700273D01*
X117114637Y-97465241D01*
X116914759Y-97265363D01*
X116679727Y-97108320D01*
X116418574Y-97000147D01*
X116141335Y-96945000D01*
X115858665Y-96945000D01*
X115581426Y-97000147D01*
X115320273Y-97108320D01*
X115085241Y-97265363D01*
X114885363Y-97465241D01*
X114728320Y-97700273D01*
X114620147Y-97961426D01*
X114565000Y-98238665D01*
X114565000Y-98521335D01*
X114601312Y-98703886D01*
X113488998Y-99816201D01*
X113460000Y-99839999D01*
X113436202Y-99868997D01*
X113436201Y-99868998D01*
X113365026Y-99955724D01*
X113294454Y-100087754D01*
X113250998Y-100231015D01*
X113236324Y-100380000D01*
X113240001Y-100417332D01*
X113240000Y-106685198D01*
X111685199Y-108240000D01*
X107037322Y-108240000D01*
X106999999Y-108236324D01*
X106962676Y-108240000D01*
X106962667Y-108240000D01*
X106851014Y-108250997D01*
X106715032Y-108292246D01*
X106707753Y-108294454D01*
X106575723Y-108365026D01*
X106492083Y-108433668D01*
X106459999Y-108459999D01*
X106436201Y-108488997D01*
X105874058Y-109051140D01*
X105622756Y-108947047D01*
X105210279Y-108865000D01*
X104789721Y-108865000D01*
X104377244Y-108947047D01*
X103988698Y-109107988D01*
X103639017Y-109341637D01*
X103341637Y-109639017D01*
X103107988Y-109988698D01*
X102947047Y-110377244D01*
X102865000Y-110789721D01*
X102435000Y-110789721D01*
X102352953Y-110377244D01*
X102192012Y-109988698D01*
X101958363Y-109639017D01*
X101660983Y-109341637D01*
X101311302Y-109107988D01*
X100922756Y-108947047D01*
X100510279Y-108865000D01*
X100089721Y-108865000D01*
X99677244Y-108947047D01*
X99288698Y-109107988D01*
X98939017Y-109341637D01*
X98641637Y-109639017D01*
X98407988Y-109988698D01*
X98247047Y-110377244D01*
X98165000Y-110789721D01*
X97433182Y-110789721D01*
X97221295Y-110278182D01*
X96823489Y-109682823D01*
X96317177Y-109176511D01*
X95721818Y-108778705D01*
X95060290Y-108504691D01*
X94358016Y-108365000D01*
X93641984Y-108365000D01*
X92939710Y-108504691D01*
X92278182Y-108778705D01*
X91682823Y-109176511D01*
X91176511Y-109682823D01*
X90778705Y-110278182D01*
X90660000Y-110564761D01*
X90660000Y-89362500D01*
X92461928Y-89362500D01*
X92465000Y-89714250D01*
X92623750Y-89873000D01*
X93873000Y-89873000D01*
X93873000Y-88886250D01*
X94127000Y-88886250D01*
X94127000Y-89873000D01*
X95376250Y-89873000D01*
X95535000Y-89714250D01*
X95538072Y-89362500D01*
X95525812Y-89238018D01*
X95489502Y-89118320D01*
X95430537Y-89008006D01*
X95351185Y-88911315D01*
X95254494Y-88831963D01*
X95144180Y-88772998D01*
X95024482Y-88736688D01*
X94900000Y-88724428D01*
X94285750Y-88727500D01*
X94127000Y-88886250D01*
X93873000Y-88886250D01*
X93714250Y-88727500D01*
X93100000Y-88724428D01*
X92975518Y-88736688D01*
X92855820Y-88772998D01*
X92745506Y-88831963D01*
X92648815Y-88911315D01*
X92569463Y-89008006D01*
X92510498Y-89118320D01*
X92474188Y-89238018D01*
X92461928Y-89362500D01*
X90660000Y-89362500D01*
X90660000Y-84978665D01*
X92565000Y-84978665D01*
X92565000Y-85261335D01*
X92620147Y-85538574D01*
X92728320Y-85799727D01*
X92885363Y-86034759D01*
X93085241Y-86234637D01*
X93320273Y-86391680D01*
X93581426Y-86499853D01*
X93858665Y-86555000D01*
X94141335Y-86555000D01*
X94418574Y-86499853D01*
X94679727Y-86391680D01*
X94914759Y-86234637D01*
X95114637Y-86034759D01*
X95271680Y-85799727D01*
X95379853Y-85538574D01*
X95435000Y-85261335D01*
X95435000Y-84978665D01*
X95379853Y-84701426D01*
X95271680Y-84440273D01*
X95114637Y-84205241D01*
X94914759Y-84005363D01*
X94679727Y-83848320D01*
X94418574Y-83740147D01*
X94141335Y-83685000D01*
X93858665Y-83685000D01*
X93581426Y-83740147D01*
X93320273Y-83848320D01*
X93085241Y-84005363D01*
X92885363Y-84205241D01*
X92728320Y-84440273D01*
X92620147Y-84701426D01*
X92565000Y-84978665D01*
X90660000Y-84978665D01*
X90660000Y-65435239D01*
X90778705Y-65721818D01*
X91176511Y-66317177D01*
X91682823Y-66823489D01*
X92278182Y-67221295D01*
X92939710Y-67495309D01*
X93641984Y-67635000D01*
X94358016Y-67635000D01*
X95060290Y-67495309D01*
X95721818Y-67221295D01*
X96317177Y-66823489D01*
X96823489Y-66317177D01*
X97221295Y-65721818D01*
X97495309Y-65060290D01*
X97635000Y-64358016D01*
X97635000Y-63641984D01*
X97495309Y-62939710D01*
X97221295Y-62278182D01*
X96823489Y-61682823D01*
X96317177Y-61176511D01*
X95721818Y-60778705D01*
X95435239Y-60660000D01*
X150564761Y-60660000D01*
X150278182Y-60778705D01*
%TA.AperFunction,Conductor*%
D32*
G36*
X150278182Y-60778705D02*
G01*
X149682823Y-61176511D01*
X149176511Y-61682823D01*
X148778705Y-62278182D01*
X148504691Y-62939710D01*
X148365000Y-63641984D01*
X148365000Y-64358016D01*
X148504691Y-65060290D01*
X148778705Y-65721818D01*
X149176511Y-66317177D01*
X149682823Y-66823489D01*
X150278182Y-67221295D01*
X150939710Y-67495309D01*
X151641984Y-67635000D01*
X152358016Y-67635000D01*
X153060290Y-67495309D01*
X153721818Y-67221295D01*
X154317177Y-66823489D01*
X154823489Y-66317177D01*
X155221295Y-65721818D01*
X155495309Y-65060290D01*
X155635000Y-64358016D01*
X155635000Y-63641984D01*
X155495309Y-62939710D01*
X155221295Y-62278182D01*
X154823489Y-61682823D01*
X154317177Y-61176511D01*
X153721818Y-60778705D01*
X153435239Y-60660000D01*
X170967722Y-60660000D01*
X171648126Y-60726714D01*
X172271572Y-60914943D01*
X172846579Y-61220681D01*
X173351247Y-61632279D01*
X173766362Y-62134067D01*
X174076105Y-62706924D01*
X174268682Y-63329039D01*
X174340000Y-64007584D01*
X174340001Y-111967711D01*
X174273286Y-112648126D01*
X174085057Y-113271570D01*
X173779323Y-113846573D01*
X173367721Y-114351248D01*
X172865933Y-114766362D01*
X172293077Y-115076104D01*
X171670961Y-115268682D01*
X170992417Y-115340000D01*
X153435239Y-115340000D01*
X153721818Y-115221295D01*
X154317177Y-114823489D01*
X154823489Y-114317177D01*
X155221295Y-113721818D01*
X155495309Y-113060290D01*
X155635000Y-112358016D01*
X155635000Y-111641984D01*
X155527688Y-111102490D01*
X155596190Y-111170992D01*
X155619989Y-111199991D01*
X155648987Y-111223789D01*
X155735713Y-111294964D01*
X155842649Y-111352123D01*
X155867743Y-111365536D01*
X156011004Y-111408993D01*
X156122657Y-111419990D01*
X156122667Y-111419990D01*
X156159990Y-111423666D01*
X156197313Y-111419990D01*
X156982947Y-111419990D01*
X156941705Y-111555949D01*
X156920000Y-111776320D01*
X156920000Y-112223679D01*
X156941705Y-112444050D01*
X157027476Y-112726801D01*
X157166762Y-112987386D01*
X157354208Y-113215792D01*
X157582613Y-113403238D01*
X157843198Y-113542524D01*
X158125949Y-113628295D01*
X158420000Y-113657257D01*
X158714050Y-113628295D01*
X158996801Y-113542524D01*
X159257386Y-113403238D01*
X159485792Y-113215792D01*
X159673238Y-112987387D01*
X159690000Y-112956027D01*
X159706762Y-112987386D01*
X159894208Y-113215792D01*
X160122613Y-113403238D01*
X160383198Y-113542524D01*
X160665949Y-113628295D01*
X160960000Y-113657257D01*
X161254050Y-113628295D01*
X161536801Y-113542524D01*
X161797386Y-113403238D01*
X162025792Y-113215792D01*
X162030570Y-113209970D01*
X162045498Y-113259180D01*
X162104463Y-113369494D01*
X162183815Y-113466185D01*
X162280506Y-113545537D01*
X162390820Y-113604502D01*
X162510518Y-113640812D01*
X162635000Y-113653072D01*
X164365000Y-113653072D01*
X164489482Y-113640812D01*
X164609180Y-113604502D01*
X164719494Y-113545537D01*
X164816185Y-113466185D01*
X164895537Y-113369494D01*
X164954502Y-113259180D01*
X164990812Y-113139482D01*
X165003072Y-113015000D01*
X165003072Y-110985000D01*
X164990812Y-110860518D01*
X164954502Y-110740820D01*
X164895537Y-110630506D01*
X164816185Y-110533815D01*
X164719494Y-110454463D01*
X164609180Y-110395498D01*
X164489482Y-110359188D01*
X164365000Y-110346928D01*
X162635000Y-110346928D01*
X162510518Y-110359188D01*
X162390820Y-110395498D01*
X162280506Y-110454463D01*
X162183815Y-110533815D01*
X162104463Y-110630506D01*
X162045498Y-110740820D01*
X162030570Y-110790030D01*
X162025792Y-110784208D01*
X161797387Y-110596762D01*
X161536802Y-110457476D01*
X161254051Y-110371705D01*
X160960000Y-110342743D01*
X160665950Y-110371705D01*
X160466890Y-110432089D01*
X160183794Y-110148993D01*
X160159991Y-110119989D01*
X160044266Y-110025016D01*
X159912237Y-109954444D01*
X159768976Y-109910987D01*
X159657323Y-109899990D01*
X159657312Y-109899990D01*
X159619990Y-109896314D01*
X159582668Y-109899990D01*
X156474792Y-109899990D01*
X154063804Y-107489003D01*
X154040001Y-107459999D01*
X153924276Y-107365026D01*
X153792247Y-107294454D01*
X153648986Y-107250997D01*
X153537333Y-107240000D01*
X153537322Y-107240000D01*
X153500000Y-107236324D01*
X153462678Y-107240000D01*
X151735286Y-107240000D01*
X151741514Y-107236671D01*
X151813097Y-106992702D01*
X151000000Y-106179605D01*
X150186903Y-106992702D01*
X150258486Y-107236671D01*
X150265522Y-107240000D01*
X146735286Y-107240000D01*
X146741514Y-107236671D01*
X146813097Y-106992702D01*
X146000000Y-106179605D01*
X145186903Y-106992702D01*
X145258486Y-107236671D01*
X145265522Y-107240000D01*
X141735286Y-107240000D01*
X141741514Y-107236671D01*
X141813097Y-106992702D01*
X141000000Y-106179605D01*
X140186903Y-106992702D01*
X140258486Y-107236671D01*
X140265522Y-107240000D01*
X136735286Y-107240000D01*
X136741514Y-107236671D01*
X136813097Y-106992702D01*
X136000000Y-106179605D01*
X135186903Y-106992702D01*
X135258486Y-107236671D01*
X135265522Y-107240000D01*
X131735286Y-107240000D01*
X131741514Y-107236671D01*
X131813097Y-106992702D01*
X131000000Y-106179605D01*
X130985858Y-106193748D01*
X130806253Y-106014143D01*
X130820395Y-106000000D01*
X131179605Y-106000000D01*
X131992702Y-106813097D01*
X132236671Y-106741514D01*
X132357571Y-106486004D01*
X132426300Y-106211816D01*
X132433265Y-106070512D01*
X134559783Y-106070512D01*
X134601213Y-106350130D01*
X134696397Y-106616292D01*
X134763329Y-106741514D01*
X135007298Y-106813097D01*
X135820395Y-106000000D01*
X136179605Y-106000000D01*
X136992702Y-106813097D01*
X137236671Y-106741514D01*
X137357571Y-106486004D01*
X137426300Y-106211816D01*
X137433265Y-106070512D01*
X139559783Y-106070512D01*
X139601213Y-106350130D01*
X139696397Y-106616292D01*
X139763329Y-106741514D01*
X140007298Y-106813097D01*
X140820395Y-106000000D01*
X141179605Y-106000000D01*
X141992702Y-106813097D01*
X142236671Y-106741514D01*
X142357571Y-106486004D01*
X142426300Y-106211816D01*
X142433265Y-106070512D01*
X144559783Y-106070512D01*
X144601213Y-106350130D01*
X144696397Y-106616292D01*
X144763329Y-106741514D01*
X145007298Y-106813097D01*
X145820395Y-106000000D01*
X146179605Y-106000000D01*
X146992702Y-106813097D01*
X147236671Y-106741514D01*
X147357571Y-106486004D01*
X147426300Y-106211816D01*
X147433265Y-106070512D01*
X149559783Y-106070512D01*
X149601213Y-106350130D01*
X149696397Y-106616292D01*
X149763329Y-106741514D01*
X150007298Y-106813097D01*
X150820395Y-106000000D01*
X151179605Y-106000000D01*
X151992702Y-106813097D01*
X152236671Y-106741514D01*
X152357571Y-106486004D01*
X152426300Y-106211816D01*
X152440217Y-105929488D01*
X152398787Y-105649870D01*
X152303603Y-105383708D01*
X152236671Y-105258486D01*
X151992702Y-105186903D01*
X151179605Y-106000000D01*
X150820395Y-106000000D01*
X150007298Y-105186903D01*
X149763329Y-105258486D01*
X149642429Y-105513996D01*
X149573700Y-105788184D01*
X149559783Y-106070512D01*
X147433265Y-106070512D01*
X147440217Y-105929488D01*
X147398787Y-105649870D01*
X147303603Y-105383708D01*
X147236671Y-105258486D01*
X146992702Y-105186903D01*
X146179605Y-106000000D01*
X145820395Y-106000000D01*
X145007298Y-105186903D01*
X144763329Y-105258486D01*
X144642429Y-105513996D01*
X144573700Y-105788184D01*
X144559783Y-106070512D01*
X142433265Y-106070512D01*
X142440217Y-105929488D01*
X142398787Y-105649870D01*
X142303603Y-105383708D01*
X142236671Y-105258486D01*
X141992702Y-105186903D01*
X141179605Y-106000000D01*
X140820395Y-106000000D01*
X140007298Y-105186903D01*
X139763329Y-105258486D01*
X139642429Y-105513996D01*
X139573700Y-105788184D01*
X139559783Y-106070512D01*
X137433265Y-106070512D01*
X137440217Y-105929488D01*
X137398787Y-105649870D01*
X137303603Y-105383708D01*
X137236671Y-105258486D01*
X136992702Y-105186903D01*
X136179605Y-106000000D01*
X135820395Y-106000000D01*
X135007298Y-105186903D01*
X134763329Y-105258486D01*
X134642429Y-105513996D01*
X134573700Y-105788184D01*
X134559783Y-106070512D01*
X132433265Y-106070512D01*
X132440217Y-105929488D01*
X132398787Y-105649870D01*
X132303603Y-105383708D01*
X132236671Y-105258486D01*
X131992702Y-105186903D01*
X131179605Y-106000000D01*
X130820395Y-106000000D01*
X130007298Y-105186903D01*
X129763329Y-105258486D01*
X129642429Y-105513996D01*
X129573700Y-105788184D01*
X129569438Y-105874636D01*
X128702100Y-105007298D01*
X130186903Y-105007298D01*
X131000000Y-105820395D01*
X131813097Y-105007298D01*
X135186903Y-105007298D01*
X136000000Y-105820395D01*
X136813097Y-105007298D01*
X140186903Y-105007298D01*
X141000000Y-105820395D01*
X141813097Y-105007298D01*
X145186903Y-105007298D01*
X146000000Y-105820395D01*
X146813097Y-105007298D01*
X150186903Y-105007298D01*
X151000000Y-105820395D01*
X151813097Y-105007298D01*
X151741514Y-104763329D01*
X151486004Y-104642429D01*
X151211816Y-104573700D01*
X150929488Y-104559783D01*
X150649870Y-104601213D01*
X150383708Y-104696397D01*
X150258486Y-104763329D01*
X150186903Y-105007298D01*
X146813097Y-105007298D01*
X146741514Y-104763329D01*
X146486004Y-104642429D01*
X146211816Y-104573700D01*
X145929488Y-104559783D01*
X145649870Y-104601213D01*
X145383708Y-104696397D01*
X145258486Y-104763329D01*
X145186903Y-105007298D01*
X141813097Y-105007298D01*
X141741514Y-104763329D01*
X141486004Y-104642429D01*
X141211816Y-104573700D01*
X140929488Y-104559783D01*
X140649870Y-104601213D01*
X140383708Y-104696397D01*
X140258486Y-104763329D01*
X140186903Y-105007298D01*
X136813097Y-105007298D01*
X136741514Y-104763329D01*
X136486004Y-104642429D01*
X136211816Y-104573700D01*
X135929488Y-104559783D01*
X135649870Y-104601213D01*
X135383708Y-104696397D01*
X135258486Y-104763329D01*
X135186903Y-105007298D01*
X131813097Y-105007298D01*
X131741514Y-104763329D01*
X131486004Y-104642429D01*
X131211816Y-104573700D01*
X130929488Y-104559783D01*
X130649870Y-104601213D01*
X130383708Y-104696397D01*
X130258486Y-104763329D01*
X130186903Y-105007298D01*
X128702100Y-105007298D01*
X122423842Y-98729040D01*
X124608091Y-98729040D01*
X124702930Y-98993881D01*
X124847615Y-99235131D01*
X125036586Y-99443519D01*
X125262580Y-99611037D01*
X125516913Y-99731246D01*
X125650961Y-99771904D01*
X125873000Y-99649915D01*
X125873000Y-98507000D01*
X126127000Y-98507000D01*
X126127000Y-99649915D01*
X126349039Y-99771904D01*
X126483087Y-99731246D01*
X126737420Y-99611037D01*
X126963414Y-99443519D01*
X127152385Y-99235131D01*
X127297070Y-98993881D01*
X127391909Y-98729040D01*
X127270624Y-98507000D01*
X126127000Y-98507000D01*
X125873000Y-98507000D01*
X124729376Y-98507000D01*
X124608091Y-98729040D01*
X122423842Y-98729040D01*
X122398688Y-98703887D01*
X122435000Y-98521335D01*
X122435000Y-98238665D01*
X122379853Y-97961426D01*
X122296420Y-97760000D01*
X124706600Y-97760000D01*
X124702930Y-97766119D01*
X124608091Y-98030960D01*
X124729376Y-98253000D01*
X125873000Y-98253000D01*
X125873000Y-98233000D01*
X126127000Y-98233000D01*
X126127000Y-98253000D01*
X127270624Y-98253000D01*
X127391909Y-98030960D01*
X127297070Y-97766119D01*
X127293400Y-97760000D01*
X129305199Y-97760000D01*
X129601312Y-98056114D01*
X129565000Y-98238665D01*
X129565000Y-98521335D01*
X129620147Y-98798574D01*
X129728320Y-99059727D01*
X129885363Y-99294759D01*
X130085241Y-99494637D01*
X130320273Y-99651680D01*
X130581426Y-99759853D01*
X130858665Y-99815000D01*
X131141335Y-99815000D01*
X131418574Y-99759853D01*
X131679727Y-99651680D01*
X131914759Y-99494637D01*
X132114637Y-99294759D01*
X132271680Y-99059727D01*
X132379853Y-98798574D01*
X132435000Y-98521335D01*
X132435000Y-98238665D01*
X132379853Y-97961426D01*
X132271680Y-97700273D01*
X132114637Y-97465241D01*
X131914759Y-97265363D01*
X131906733Y-97260000D01*
X133805199Y-97260000D01*
X134601312Y-98056114D01*
X134565000Y-98238665D01*
X134565000Y-98521335D01*
X134620147Y-98798574D01*
X134728320Y-99059727D01*
X134885363Y-99294759D01*
X135085241Y-99494637D01*
X135320273Y-99651680D01*
X135581426Y-99759853D01*
X135858665Y-99815000D01*
X136141335Y-99815000D01*
X136418574Y-99759853D01*
X136679727Y-99651680D01*
X136914759Y-99494637D01*
X137114637Y-99294759D01*
X137271680Y-99059727D01*
X137379853Y-98798574D01*
X137435000Y-98521335D01*
X137435000Y-98509802D01*
X137816200Y-98891002D01*
X137839999Y-98920001D01*
X137868997Y-98943799D01*
X137955724Y-99014974D01*
X138087753Y-99085546D01*
X138231014Y-99129003D01*
X138380000Y-99143677D01*
X138417333Y-99140000D01*
X139781957Y-99140000D01*
X139885363Y-99294759D01*
X140085241Y-99494637D01*
X140320273Y-99651680D01*
X140581426Y-99759853D01*
X140858665Y-99815000D01*
X141141335Y-99815000D01*
X141418574Y-99759853D01*
X141679727Y-99651680D01*
X141914759Y-99494637D01*
X142114637Y-99294759D01*
X142271680Y-99059727D01*
X142379853Y-98798574D01*
X142435000Y-98521335D01*
X142435000Y-98238665D01*
X142379853Y-97961426D01*
X142271680Y-97700273D01*
X142114637Y-97465241D01*
X141914759Y-97265363D01*
X141679727Y-97108320D01*
X141418574Y-97000147D01*
X141141335Y-96945000D01*
X140858665Y-96945000D01*
X140581426Y-97000147D01*
X140320273Y-97108320D01*
X140085241Y-97265363D01*
X139885363Y-97465241D01*
X139781957Y-97620000D01*
X138694802Y-97620000D01*
X136300000Y-95225199D01*
X136300000Y-92101909D01*
X136364212Y-92049212D01*
X136509171Y-91872579D01*
X136616885Y-91671059D01*
X136683215Y-91452399D01*
X136700000Y-91281978D01*
X136700000Y-90914802D01*
X136879822Y-90734980D01*
X139566928Y-90734980D01*
X139566928Y-91750000D01*
X139579188Y-91874482D01*
X139615498Y-91994180D01*
X139674463Y-92104494D01*
X139753815Y-92201185D01*
X139850506Y-92280537D01*
X139960820Y-92339502D01*
X140080518Y-92375812D01*
X140205000Y-92388072D01*
X141255000Y-92388072D01*
X141379482Y-92375812D01*
X141499180Y-92339502D01*
X141563902Y-92304907D01*
X141772601Y-92368215D01*
X142000000Y-92390612D01*
X142227400Y-92368215D01*
X142446060Y-92301885D01*
X142635001Y-92200894D01*
X142823941Y-92301885D01*
X143042601Y-92368215D01*
X143270000Y-92390612D01*
X143497400Y-92368215D01*
X143548049Y-92352851D01*
X145240001Y-94044803D01*
X145240000Y-97161956D01*
X145085241Y-97265363D01*
X144885363Y-97465241D01*
X144728320Y-97700273D01*
X144620147Y-97961426D01*
X144565000Y-98238665D01*
X144565000Y-98521335D01*
X144620147Y-98798574D01*
X144728320Y-99059727D01*
X144885363Y-99294759D01*
X145085241Y-99494637D01*
X145320273Y-99651680D01*
X145581426Y-99759853D01*
X145858665Y-99815000D01*
X146141335Y-99815000D01*
X146418574Y-99759853D01*
X146679727Y-99651680D01*
X146914759Y-99494637D01*
X147114637Y-99294759D01*
X147271680Y-99059727D01*
X147379853Y-98798574D01*
X147435000Y-98521335D01*
X147435000Y-98238665D01*
X147379853Y-97961426D01*
X147271680Y-97700273D01*
X147114637Y-97465241D01*
X146914759Y-97265363D01*
X146760000Y-97161957D01*
X146760000Y-93767322D01*
X146763676Y-93729999D01*
X146760000Y-93692676D01*
X146760000Y-93692667D01*
X146749003Y-93581014D01*
X146705546Y-93437753D01*
X146658259Y-93349286D01*
X146634974Y-93305723D01*
X146563799Y-93218997D01*
X146540001Y-93189999D01*
X146511003Y-93166201D01*
X144529791Y-91184990D01*
X147336928Y-91184990D01*
X147336928Y-91750000D01*
X147349188Y-91874482D01*
X147385498Y-91994180D01*
X147444463Y-92104494D01*
X147523815Y-92201185D01*
X147620506Y-92280537D01*
X147730820Y-92339502D01*
X147850518Y-92375812D01*
X147975000Y-92388072D01*
X149025000Y-92388072D01*
X149149482Y-92375812D01*
X149269180Y-92339502D01*
X149333902Y-92304907D01*
X149542601Y-92368215D01*
X149770000Y-92390612D01*
X149997400Y-92368215D01*
X150216060Y-92301885D01*
X150240000Y-92289089D01*
X150240001Y-97161956D01*
X150085241Y-97265363D01*
X149885363Y-97465241D01*
X149728320Y-97700273D01*
X149620147Y-97961426D01*
X149565000Y-98238665D01*
X149565000Y-98521335D01*
X149620147Y-98798574D01*
X149728320Y-99059727D01*
X149885363Y-99294759D01*
X150085241Y-99494637D01*
X150240001Y-99598044D01*
X150240000Y-100962677D01*
X150236324Y-101000000D01*
X150240000Y-101037322D01*
X150240000Y-101037332D01*
X150250997Y-101148985D01*
X150289220Y-101274990D01*
X150294454Y-101292246D01*
X150365026Y-101424276D01*
X150404871Y-101472826D01*
X150459999Y-101540001D01*
X150489003Y-101563804D01*
X154436201Y-105511003D01*
X154459999Y-105540001D01*
X154575724Y-105634974D01*
X154707753Y-105705546D01*
X154851014Y-105749003D01*
X154962667Y-105760000D01*
X154962676Y-105760000D01*
X154999999Y-105763676D01*
X155037322Y-105760000D01*
X155409428Y-105760000D01*
X155409428Y-106000000D01*
X155421688Y-106124482D01*
X155457998Y-106244180D01*
X155516963Y-106354494D01*
X155596315Y-106451185D01*
X155693006Y-106530537D01*
X155803320Y-106589502D01*
X155923018Y-106625812D01*
X156047500Y-106638072D01*
X157952500Y-106638072D01*
X158076982Y-106625812D01*
X158196680Y-106589502D01*
X158306994Y-106530537D01*
X158403685Y-106451185D01*
X158483037Y-106354494D01*
X158527905Y-106270553D01*
X158653766Y-106373845D01*
X158929552Y-106521255D01*
X159228797Y-106612030D01*
X159540000Y-106642681D01*
X159851204Y-106612030D01*
X160150449Y-106521255D01*
X160426235Y-106373845D01*
X160667963Y-106175463D01*
X160810000Y-106002391D01*
X160952037Y-106175463D01*
X161193766Y-106373845D01*
X161469552Y-106521255D01*
X161768797Y-106612030D01*
X162080000Y-106642681D01*
X162391204Y-106612030D01*
X162690449Y-106521255D01*
X162966235Y-106373845D01*
X163207963Y-106175463D01*
X163406345Y-105933734D01*
X163553755Y-105657948D01*
X163644530Y-105358703D01*
X163667500Y-105125485D01*
X163667500Y-104874514D01*
X163644530Y-104641296D01*
X163601669Y-104500000D01*
X168861928Y-104500000D01*
X168861928Y-107500000D01*
X168874188Y-107624482D01*
X168910498Y-107744180D01*
X168969463Y-107854494D01*
X169048815Y-107951185D01*
X169145506Y-108030537D01*
X169255820Y-108089502D01*
X169375518Y-108125812D01*
X169500000Y-108138072D01*
X172500000Y-108138072D01*
X172624482Y-108125812D01*
X172744180Y-108089502D01*
X172854494Y-108030537D01*
X172951185Y-107951185D01*
X173030537Y-107854494D01*
X173089502Y-107744180D01*
X173125812Y-107624482D01*
X173138072Y-107500000D01*
X173138072Y-104500000D01*
X173125812Y-104375518D01*
X173089502Y-104255820D01*
X173030537Y-104145506D01*
X172951185Y-104048815D01*
X172854494Y-103969463D01*
X172744180Y-103910498D01*
X172624482Y-103874188D01*
X172500000Y-103861928D01*
X169500000Y-103861928D01*
X169375518Y-103874188D01*
X169255820Y-103910498D01*
X169145506Y-103969463D01*
X169048815Y-104048815D01*
X168969463Y-104145506D01*
X168910498Y-104255820D01*
X168874188Y-104375518D01*
X168861928Y-104500000D01*
X163601669Y-104500000D01*
X163553755Y-104342051D01*
X163406345Y-104066265D01*
X163207963Y-103824537D01*
X162966234Y-103626155D01*
X162690448Y-103478745D01*
X162391203Y-103387970D01*
X162080000Y-103357319D01*
X161768796Y-103387970D01*
X161469551Y-103478745D01*
X161193765Y-103626155D01*
X160952037Y-103824537D01*
X160810000Y-103997609D01*
X160667963Y-103824537D01*
X160426234Y-103626155D01*
X160260000Y-103537301D01*
X160260000Y-102390701D01*
X161940980Y-100709721D01*
X168865000Y-100709721D01*
X168865000Y-101130279D01*
X168947047Y-101542756D01*
X169107988Y-101931302D01*
X169341637Y-102280983D01*
X169639017Y-102578363D01*
X169988698Y-102812012D01*
X170377244Y-102972953D01*
X170789721Y-103055000D01*
X171210279Y-103055000D01*
X171622756Y-102972953D01*
X172011302Y-102812012D01*
X172360983Y-102578363D01*
X172658363Y-102280983D01*
X172892012Y-101931302D01*
X173052953Y-101542756D01*
X173135000Y-101130279D01*
X173135000Y-100709721D01*
X173052953Y-100297244D01*
X172892012Y-99908698D01*
X172658363Y-99559017D01*
X172360983Y-99261637D01*
X172011302Y-99027988D01*
X171622756Y-98867047D01*
X171210279Y-98785000D01*
X170789721Y-98785000D01*
X170377244Y-98867047D01*
X169988698Y-99027988D01*
X169639017Y-99261637D01*
X169341637Y-99559017D01*
X169107988Y-99908698D01*
X168947047Y-100297244D01*
X168865000Y-100709721D01*
X161940980Y-100709721D01*
X165420101Y-97230600D01*
X168787228Y-97230600D01*
X168799488Y-97355082D01*
X168835798Y-97474780D01*
X168894763Y-97585094D01*
X168974115Y-97681785D01*
X169070806Y-97761137D01*
X169181120Y-97820102D01*
X169300818Y-97856412D01*
X169425300Y-97868672D01*
X170639550Y-97865600D01*
X170798300Y-97706850D01*
X170798300Y-95857600D01*
X171052300Y-95857600D01*
X171052300Y-97706850D01*
X171211050Y-97865600D01*
X172425300Y-97868672D01*
X172549782Y-97856412D01*
X172669480Y-97820102D01*
X172779794Y-97761137D01*
X172876485Y-97681785D01*
X172955837Y-97585094D01*
X173014802Y-97474780D01*
X173051112Y-97355082D01*
X173063372Y-97230600D01*
X173060300Y-96016350D01*
X172901550Y-95857600D01*
X171052300Y-95857600D01*
X170798300Y-95857600D01*
X168949050Y-95857600D01*
X168790300Y-96016350D01*
X168787228Y-97230600D01*
X165420101Y-97230600D01*
X168420101Y-94230600D01*
X168787228Y-94230600D01*
X168790300Y-95444850D01*
X168949050Y-95603600D01*
X170798300Y-95603600D01*
X170798300Y-93754350D01*
X171052300Y-93754350D01*
X171052300Y-95603600D01*
X172901550Y-95603600D01*
X173060300Y-95444850D01*
X173063372Y-94230600D01*
X173051112Y-94106118D01*
X173014802Y-93986420D01*
X172955837Y-93876106D01*
X172876485Y-93779415D01*
X172779794Y-93700063D01*
X172669480Y-93641098D01*
X172549782Y-93604788D01*
X172425300Y-93592528D01*
X171211050Y-93595600D01*
X171052300Y-93754350D01*
X170798300Y-93754350D01*
X170639550Y-93595600D01*
X169425300Y-93592528D01*
X169300818Y-93604788D01*
X169181120Y-93641098D01*
X169070806Y-93700063D01*
X168974115Y-93779415D01*
X168894763Y-93876106D01*
X168835798Y-93986420D01*
X168799488Y-94106118D01*
X168787228Y-94230600D01*
X168420101Y-94230600D01*
X170051242Y-92599460D01*
X170302544Y-92703553D01*
X170715021Y-92785600D01*
X171135579Y-92785600D01*
X171548056Y-92703553D01*
X171936602Y-92542612D01*
X172286283Y-92308963D01*
X172583663Y-92011583D01*
X172817312Y-91661902D01*
X172978253Y-91273356D01*
X173060300Y-90860879D01*
X173060300Y-90440321D01*
X172978253Y-90027844D01*
X172817312Y-89639298D01*
X172583663Y-89289617D01*
X172286283Y-88992237D01*
X171936602Y-88758588D01*
X171548056Y-88597647D01*
X171135579Y-88515600D01*
X170715021Y-88515600D01*
X170302544Y-88597647D01*
X169913998Y-88758588D01*
X169564317Y-88992237D01*
X169266937Y-89289617D01*
X169033288Y-89639298D01*
X168872347Y-90027844D01*
X168790300Y-90440321D01*
X168790300Y-90860879D01*
X168872347Y-91273356D01*
X168976440Y-91524658D01*
X163644763Y-96856335D01*
X163667500Y-96625485D01*
X163667500Y-96374514D01*
X163644530Y-96141296D01*
X163553755Y-95842051D01*
X163406345Y-95566265D01*
X163207963Y-95324537D01*
X162966234Y-95126155D01*
X162690448Y-94978745D01*
X162614880Y-94955822D01*
X170051242Y-87519460D01*
X170302544Y-87623553D01*
X170715021Y-87705600D01*
X171135579Y-87705600D01*
X171548056Y-87623553D01*
X171936602Y-87462612D01*
X172286283Y-87228963D01*
X172583663Y-86931583D01*
X172817312Y-86581902D01*
X172978253Y-86193356D01*
X173060300Y-85780879D01*
X173060300Y-85360321D01*
X172978253Y-84947844D01*
X172817312Y-84559298D01*
X172583663Y-84209617D01*
X172286283Y-83912237D01*
X171936602Y-83678588D01*
X171548056Y-83517647D01*
X171135579Y-83435600D01*
X170715021Y-83435600D01*
X170302544Y-83517647D01*
X169913998Y-83678588D01*
X169564317Y-83912237D01*
X169266937Y-84209617D01*
X169033288Y-84559298D01*
X168872347Y-84947844D01*
X168790300Y-85360321D01*
X168790300Y-85780879D01*
X168872347Y-86193356D01*
X168976440Y-86444658D01*
X160340676Y-95080423D01*
X160150448Y-94978745D01*
X159851203Y-94887970D01*
X159540000Y-94857319D01*
X159228796Y-94887970D01*
X158929551Y-94978745D01*
X158653765Y-95126155D01*
X158527905Y-95229446D01*
X158483037Y-95145506D01*
X158403685Y-95048815D01*
X158306994Y-94969463D01*
X158196680Y-94910498D01*
X158076982Y-94874188D01*
X157952500Y-94861928D01*
X157654326Y-94861928D01*
X157634974Y-94825724D01*
X157563799Y-94738997D01*
X157540001Y-94709999D01*
X157511003Y-94686201D01*
X152949801Y-90125000D01*
X154314802Y-88760000D01*
X155409428Y-88760000D01*
X155409428Y-89000000D01*
X155421688Y-89124482D01*
X155457998Y-89244180D01*
X155516963Y-89354494D01*
X155596315Y-89451185D01*
X155693006Y-89530537D01*
X155803320Y-89589502D01*
X155923018Y-89625812D01*
X156047500Y-89638072D01*
X156345675Y-89638072D01*
X156365027Y-89674276D01*
X156460000Y-89790001D01*
X156575725Y-89884974D01*
X156707754Y-89955546D01*
X156851015Y-89999003D01*
X157000000Y-90013677D01*
X157148986Y-89999003D01*
X157292247Y-89955546D01*
X157424276Y-89884974D01*
X157540001Y-89790001D01*
X157634974Y-89674276D01*
X157654326Y-89638072D01*
X157952500Y-89638072D01*
X158076982Y-89625812D01*
X158196680Y-89589502D01*
X158306994Y-89530537D01*
X158403685Y-89451185D01*
X158483037Y-89354494D01*
X158527905Y-89270553D01*
X158653766Y-89373845D01*
X158929552Y-89521255D01*
X159228797Y-89612030D01*
X159540000Y-89642681D01*
X159851204Y-89612030D01*
X160150449Y-89521255D01*
X160426235Y-89373845D01*
X160667963Y-89175463D01*
X160810000Y-89002391D01*
X160952037Y-89175463D01*
X161193766Y-89373845D01*
X161469552Y-89521255D01*
X161768797Y-89612030D01*
X162080000Y-89642681D01*
X162391204Y-89612030D01*
X162690449Y-89521255D01*
X162966235Y-89373845D01*
X163207963Y-89175463D01*
X163406345Y-88933734D01*
X163553755Y-88657948D01*
X163644530Y-88358703D01*
X163667500Y-88125485D01*
X163667500Y-87874514D01*
X163644530Y-87641296D01*
X163553755Y-87342051D01*
X163406345Y-87066265D01*
X163207963Y-86824537D01*
X162966234Y-86626155D01*
X162690448Y-86478745D01*
X162391203Y-86387970D01*
X162241569Y-86373232D01*
X162854802Y-85760000D01*
X166378578Y-85760000D01*
X166415900Y-85763676D01*
X166453222Y-85760000D01*
X166453233Y-85760000D01*
X166564886Y-85749003D01*
X166708147Y-85705546D01*
X166840176Y-85634974D01*
X166955901Y-85540001D01*
X166979704Y-85510997D01*
X170051242Y-82439460D01*
X170302544Y-82543553D01*
X170715021Y-82625600D01*
X171135579Y-82625600D01*
X171548056Y-82543553D01*
X171936602Y-82382612D01*
X172286283Y-82148963D01*
X172583663Y-81851583D01*
X172817312Y-81501902D01*
X172978253Y-81113356D01*
X173060300Y-80700879D01*
X173060300Y-80280321D01*
X172978253Y-79867844D01*
X172817312Y-79479298D01*
X172583663Y-79129617D01*
X172286283Y-78832237D01*
X171936602Y-78598588D01*
X171548056Y-78437647D01*
X171135579Y-78355600D01*
X170715021Y-78355600D01*
X170302544Y-78437647D01*
X169913998Y-78598588D01*
X169564317Y-78832237D01*
X169266937Y-79129617D01*
X169033288Y-79479298D01*
X168872347Y-79867844D01*
X168790300Y-80280321D01*
X168790300Y-80700879D01*
X168872347Y-81113356D01*
X168976440Y-81364658D01*
X166101099Y-84240000D01*
X162577325Y-84240000D01*
X162540000Y-84236324D01*
X162502675Y-84240000D01*
X162502667Y-84240000D01*
X162391014Y-84250997D01*
X162247753Y-84294454D01*
X162115724Y-84365026D01*
X161999999Y-84459999D01*
X161976201Y-84488997D01*
X160024622Y-86440576D01*
X159851203Y-86387970D01*
X159540000Y-86357319D01*
X159228796Y-86387970D01*
X158929551Y-86478745D01*
X158653765Y-86626155D01*
X158527905Y-86729446D01*
X158483037Y-86645506D01*
X158403685Y-86548815D01*
X158306994Y-86469463D01*
X158196680Y-86410498D01*
X158076982Y-86374188D01*
X157952500Y-86361928D01*
X156047500Y-86361928D01*
X155923018Y-86374188D01*
X155803320Y-86410498D01*
X155693006Y-86469463D01*
X155596315Y-86548815D01*
X155516963Y-86645506D01*
X155457998Y-86755820D01*
X155421688Y-86875518D01*
X155409428Y-87000000D01*
X155409428Y-87240000D01*
X154834801Y-87240000D01*
X157471003Y-84603799D01*
X157500001Y-84580001D01*
X157594974Y-84464276D01*
X157665546Y-84332247D01*
X157709003Y-84188986D01*
X157720000Y-84077333D01*
X157720000Y-84077324D01*
X157723676Y-84040001D01*
X157720000Y-84002678D01*
X157720000Y-81138072D01*
X157912500Y-81138072D01*
X158036982Y-81125812D01*
X158156680Y-81089502D01*
X158266994Y-81030537D01*
X158363685Y-80951185D01*
X158443037Y-80854494D01*
X158487905Y-80770553D01*
X158613766Y-80873845D01*
X158889552Y-81021255D01*
X159188797Y-81112030D01*
X159500000Y-81142681D01*
X159811204Y-81112030D01*
X160110449Y-81021255D01*
X160386235Y-80873845D01*
X160627963Y-80675463D01*
X160770000Y-80502391D01*
X160912037Y-80675463D01*
X161153766Y-80873845D01*
X161429552Y-81021255D01*
X161728797Y-81112030D01*
X162040000Y-81142681D01*
X162351204Y-81112030D01*
X162650449Y-81021255D01*
X162926235Y-80873845D01*
X163167963Y-80675463D01*
X163366345Y-80433734D01*
X163513755Y-80157948D01*
X163604530Y-79858703D01*
X163627500Y-79625485D01*
X163627500Y-79374514D01*
X163604530Y-79141296D01*
X163513755Y-78842051D01*
X163366345Y-78566265D01*
X163167963Y-78324537D01*
X162926234Y-78126155D01*
X162650448Y-77978745D01*
X162351203Y-77887970D01*
X162040000Y-77857319D01*
X161728796Y-77887970D01*
X161429551Y-77978745D01*
X161153765Y-78126155D01*
X160912037Y-78324537D01*
X160770000Y-78497609D01*
X160627963Y-78324537D01*
X160420514Y-78154288D01*
X162404202Y-76170600D01*
X168929195Y-76170600D01*
X169033288Y-76421902D01*
X169266937Y-76771583D01*
X169564317Y-77068963D01*
X169913998Y-77302612D01*
X170302544Y-77463553D01*
X170715021Y-77545600D01*
X171135579Y-77545600D01*
X171548056Y-77463553D01*
X171936602Y-77302612D01*
X172286283Y-77068963D01*
X172583663Y-76771583D01*
X172817312Y-76421902D01*
X172978253Y-76033356D01*
X173060300Y-75620879D01*
X173060300Y-75200321D01*
X172978253Y-74787844D01*
X172817312Y-74399298D01*
X172583663Y-74049617D01*
X172286283Y-73752237D01*
X171936602Y-73518588D01*
X171548056Y-73357647D01*
X171135579Y-73275600D01*
X170715021Y-73275600D01*
X170302544Y-73357647D01*
X169913998Y-73518588D01*
X169564317Y-73752237D01*
X169266937Y-74049617D01*
X169033288Y-74399298D01*
X168929195Y-74650600D01*
X162126733Y-74650600D01*
X162089400Y-74646923D01*
X162052067Y-74650600D01*
X161940414Y-74661597D01*
X161797153Y-74705054D01*
X161665124Y-74775626D01*
X161549399Y-74870599D01*
X161525601Y-74899597D01*
X158988998Y-77436201D01*
X158960000Y-77459999D01*
X158936202Y-77488997D01*
X158936201Y-77488998D01*
X158865026Y-77575724D01*
X158794454Y-77707754D01*
X158750998Y-77851015D01*
X158736324Y-78000000D01*
X158740001Y-78037332D01*
X158740001Y-78058681D01*
X158613765Y-78126155D01*
X158487905Y-78229446D01*
X158443037Y-78145506D01*
X158363685Y-78048815D01*
X158266994Y-77969463D01*
X158156680Y-77910498D01*
X158036982Y-77874188D01*
X157912500Y-77861928D01*
X156007500Y-77861928D01*
X155883018Y-77874188D01*
X155763320Y-77910498D01*
X155760000Y-77912273D01*
X155760000Y-73274801D01*
X156396729Y-72638072D01*
X157912500Y-72638072D01*
X158036982Y-72625812D01*
X158156680Y-72589502D01*
X158266994Y-72530537D01*
X158363685Y-72451185D01*
X158443037Y-72354494D01*
X158487905Y-72270553D01*
X158613766Y-72373845D01*
X158889552Y-72521255D01*
X159188797Y-72612030D01*
X159500000Y-72642681D01*
X159811204Y-72612030D01*
X160110449Y-72521255D01*
X160386235Y-72373845D01*
X160627963Y-72175463D01*
X160770000Y-72002391D01*
X160912037Y-72175463D01*
X161153766Y-72373845D01*
X161429552Y-72521255D01*
X161728797Y-72612030D01*
X162040000Y-72642681D01*
X162351204Y-72612030D01*
X162650449Y-72521255D01*
X162926235Y-72373845D01*
X163167963Y-72175463D01*
X163366345Y-71933734D01*
X163513755Y-71657948D01*
X163604530Y-71358703D01*
X163627500Y-71125485D01*
X163627500Y-70874514D01*
X163604530Y-70641296D01*
X163513755Y-70342051D01*
X163366345Y-70066265D01*
X163167963Y-69824537D01*
X162926234Y-69626155D01*
X162859717Y-69590601D01*
X168920911Y-69590601D01*
X168872347Y-69707844D01*
X168790300Y-70120321D01*
X168790300Y-70540879D01*
X168872347Y-70953356D01*
X169033288Y-71341902D01*
X169266937Y-71691583D01*
X169564317Y-71988963D01*
X169913998Y-72222612D01*
X170302544Y-72383553D01*
X170715021Y-72465600D01*
X171135579Y-72465600D01*
X171548056Y-72383553D01*
X171936602Y-72222612D01*
X172286283Y-71988963D01*
X172583663Y-71691583D01*
X172817312Y-71341902D01*
X172978253Y-70953356D01*
X173060300Y-70540879D01*
X173060300Y-70120321D01*
X172978253Y-69707844D01*
X172817312Y-69319298D01*
X172583663Y-68969617D01*
X172286283Y-68672237D01*
X171936602Y-68438588D01*
X171548056Y-68277647D01*
X171135579Y-68195600D01*
X170715021Y-68195600D01*
X170302544Y-68277647D01*
X170051241Y-68381740D01*
X169989105Y-68319604D01*
X169965302Y-68290600D01*
X169849577Y-68195627D01*
X169717548Y-68125055D01*
X169574287Y-68081598D01*
X169462634Y-68070601D01*
X169462623Y-68070601D01*
X169425301Y-68066925D01*
X169387979Y-68070601D01*
X160456732Y-68070601D01*
X160419399Y-68066924D01*
X160382066Y-68070601D01*
X160270413Y-68081598D01*
X160127152Y-68125055D01*
X159995123Y-68195627D01*
X159879398Y-68290600D01*
X159855600Y-68319598D01*
X158988998Y-69186201D01*
X158960000Y-69209999D01*
X158936202Y-69238997D01*
X158936201Y-69238998D01*
X158865026Y-69325724D01*
X158794454Y-69457754D01*
X158768452Y-69543473D01*
X158613765Y-69626155D01*
X158487905Y-69729446D01*
X158443037Y-69645506D01*
X158363685Y-69548815D01*
X158266994Y-69469463D01*
X158156680Y-69410498D01*
X158036982Y-69374188D01*
X157912500Y-69361928D01*
X156007500Y-69361928D01*
X155883018Y-69374188D01*
X155763320Y-69410498D01*
X155653006Y-69469463D01*
X155556315Y-69548815D01*
X155476963Y-69645506D01*
X155417998Y-69755820D01*
X155381688Y-69875518D01*
X155369428Y-70000000D01*
X155369428Y-71515771D01*
X154489003Y-72396196D01*
X154459999Y-72419999D01*
X154434406Y-72451185D01*
X154365026Y-72535724D01*
X154307856Y-72642681D01*
X154294454Y-72667754D01*
X154250997Y-72811015D01*
X154240000Y-72922668D01*
X154240000Y-72922678D01*
X154236324Y-72960000D01*
X154240000Y-72997322D01*
X154240001Y-85048787D01*
X151498799Y-87789990D01*
X121987343Y-87789990D01*
X121950010Y-87786313D01*
X121912677Y-87789990D01*
X121801024Y-87800987D01*
X121657763Y-87844444D01*
X121525734Y-87915016D01*
X121410009Y-88009989D01*
X121315036Y-88125714D01*
X121286962Y-88178236D01*
X119818049Y-89647150D01*
X119767399Y-89631785D01*
X119540000Y-89609388D01*
X119312600Y-89631785D01*
X119093940Y-89698115D01*
X118904999Y-89799106D01*
X118716059Y-89698115D01*
X118497399Y-89631785D01*
X118270000Y-89609388D01*
X118042600Y-89631785D01*
X117833902Y-89695093D01*
X117769180Y-89660498D01*
X117649482Y-89624188D01*
X117525000Y-89611928D01*
X116475000Y-89611928D01*
X116350518Y-89624188D01*
X116230820Y-89660498D01*
X116120506Y-89719463D01*
X116023815Y-89798815D01*
X115944463Y-89895506D01*
X115885498Y-90005820D01*
X115849188Y-90125518D01*
X115836928Y-90250000D01*
X115836928Y-91750000D01*
X115849188Y-91874482D01*
X115885498Y-91994180D01*
X115944463Y-92104494D01*
X116023815Y-92201185D01*
X116120506Y-92280537D01*
X116230820Y-92339502D01*
X116350518Y-92375812D01*
X116475000Y-92388072D01*
X117525000Y-92388072D01*
X117649482Y-92375812D01*
X117769180Y-92339502D01*
X117833902Y-92304907D01*
X118042601Y-92368215D01*
X118270000Y-92390612D01*
X118497400Y-92368215D01*
X118716060Y-92301885D01*
X118780001Y-92267708D01*
X118780000Y-95085198D01*
X112367001Y-88672200D01*
X112367001Y-87077110D01*
X112398273Y-87098005D01*
X112652510Y-87203314D01*
X112922408Y-87257000D01*
X113197592Y-87257000D01*
X113467490Y-87203314D01*
X113721727Y-87098005D01*
X113950535Y-86945120D01*
X114145120Y-86750535D01*
X114298005Y-86521727D01*
X114330000Y-86444485D01*
X114361995Y-86521727D01*
X114514880Y-86750535D01*
X114709465Y-86945120D01*
X114938273Y-87098005D01*
X115192510Y-87203314D01*
X115462408Y-87257000D01*
X115737592Y-87257000D01*
X116007490Y-87203314D01*
X116261727Y-87098005D01*
X116490535Y-86945120D01*
X116685120Y-86750535D01*
X116838005Y-86521727D01*
X116870000Y-86444485D01*
X116901995Y-86521727D01*
X117054880Y-86750535D01*
X117249465Y-86945120D01*
X117478273Y-87098005D01*
X117732510Y-87203314D01*
X118002408Y-87257000D01*
X118277592Y-87257000D01*
X118547490Y-87203314D01*
X118801727Y-87098005D01*
X119030535Y-86945120D01*
X119225120Y-86750535D01*
X119378005Y-86521727D01*
X119410000Y-86444485D01*
X119441995Y-86521727D01*
X119594880Y-86750535D01*
X119789465Y-86945120D01*
X120018273Y-87098005D01*
X120272510Y-87203314D01*
X120542408Y-87257000D01*
X120817592Y-87257000D01*
X121087490Y-87203314D01*
X121341727Y-87098005D01*
X121570535Y-86945120D01*
X121765120Y-86750535D01*
X121918005Y-86521727D01*
X121950000Y-86444485D01*
X121981995Y-86521727D01*
X122134880Y-86750535D01*
X122329465Y-86945120D01*
X122558273Y-87098005D01*
X122812510Y-87203314D01*
X123082408Y-87257000D01*
X123357592Y-87257000D01*
X123627490Y-87203314D01*
X123881727Y-87098005D01*
X124110535Y-86945120D01*
X124305120Y-86750535D01*
X124363920Y-86662535D01*
X124372188Y-86746482D01*
X124408498Y-86866180D01*
X124467463Y-86976494D01*
X124546815Y-87073185D01*
X124643506Y-87152537D01*
X124753820Y-87211502D01*
X124873518Y-87247812D01*
X124998000Y-87260072D01*
X126522000Y-87260072D01*
X126646482Y-87247812D01*
X126766180Y-87211502D01*
X126876494Y-87152537D01*
X126973185Y-87073185D01*
X127052537Y-86976494D01*
X127111502Y-86866180D01*
X127147812Y-86746482D01*
X127156080Y-86662535D01*
X127214880Y-86750535D01*
X127409465Y-86945120D01*
X127638273Y-87098005D01*
X127892510Y-87203314D01*
X128162408Y-87257000D01*
X128437592Y-87257000D01*
X128707490Y-87203314D01*
X128961727Y-87098005D01*
X129190535Y-86945120D01*
X129385120Y-86750535D01*
X129538005Y-86521727D01*
X129570000Y-86444485D01*
X129601995Y-86521727D01*
X129754880Y-86750535D01*
X129949465Y-86945120D01*
X130178273Y-87098005D01*
X130432510Y-87203314D01*
X130702408Y-87257000D01*
X130977592Y-87257000D01*
X131247490Y-87203314D01*
X131501727Y-87098005D01*
X131730535Y-86945120D01*
X131925120Y-86750535D01*
X132078005Y-86521727D01*
X132110000Y-86444485D01*
X132141995Y-86521727D01*
X132294880Y-86750535D01*
X132489465Y-86945120D01*
X132718273Y-87098005D01*
X132972510Y-87203314D01*
X133242408Y-87257000D01*
X133517592Y-87257000D01*
X133787490Y-87203314D01*
X134041727Y-87098005D01*
X134270535Y-86945120D01*
X134465120Y-86750535D01*
X134618005Y-86521727D01*
X134650000Y-86444485D01*
X134681995Y-86521727D01*
X134834880Y-86750535D01*
X135029465Y-86945120D01*
X135258273Y-87098005D01*
X135512510Y-87203314D01*
X135782408Y-87257000D01*
X136057592Y-87257000D01*
X136327490Y-87203314D01*
X136581727Y-87098005D01*
X136810535Y-86945120D01*
X137005120Y-86750535D01*
X137158005Y-86521727D01*
X137190000Y-86444485D01*
X137221995Y-86521727D01*
X137374880Y-86750535D01*
X137569465Y-86945120D01*
X137798273Y-87098005D01*
X138052510Y-87203314D01*
X138322408Y-87257000D01*
X138597592Y-87257000D01*
X138867490Y-87203314D01*
X139121727Y-87098005D01*
X139350535Y-86945120D01*
X139545120Y-86750535D01*
X139698005Y-86521727D01*
X139730000Y-86444485D01*
X139761995Y-86521727D01*
X139914880Y-86750535D01*
X140109465Y-86945120D01*
X140338273Y-87098005D01*
X140592510Y-87203314D01*
X140862408Y-87257000D01*
X141137592Y-87257000D01*
X141407490Y-87203314D01*
X141661727Y-87098005D01*
X141890535Y-86945120D01*
X142085120Y-86750535D01*
X142238005Y-86521727D01*
X142343314Y-86267490D01*
X142397000Y-85997592D01*
X142397000Y-85722408D01*
X142343314Y-85452510D01*
X142238005Y-85198273D01*
X142085120Y-84969465D01*
X141890535Y-84774880D01*
X141661727Y-84621995D01*
X141407490Y-84516686D01*
X141137592Y-84463000D01*
X140862408Y-84463000D01*
X140592510Y-84516686D01*
X140338273Y-84621995D01*
X140109465Y-84774880D01*
X139914880Y-84969465D01*
X139761995Y-85198273D01*
X139730000Y-85275515D01*
X139698005Y-85198273D01*
X139545120Y-84969465D01*
X139350535Y-84774880D01*
X139121727Y-84621995D01*
X138867490Y-84516686D01*
X138597592Y-84463000D01*
X138322408Y-84463000D01*
X138052510Y-84516686D01*
X137798273Y-84621995D01*
X137569465Y-84774880D01*
X137374880Y-84969465D01*
X137221995Y-85198273D01*
X137190000Y-85275515D01*
X137158005Y-85198273D01*
X137005120Y-84969465D01*
X136810535Y-84774880D01*
X136581727Y-84621995D01*
X136327490Y-84516686D01*
X136057592Y-84463000D01*
X135782408Y-84463000D01*
X135512510Y-84516686D01*
X135258273Y-84621995D01*
X135029465Y-84774880D01*
X134834880Y-84969465D01*
X134681995Y-85198273D01*
X134650000Y-85275515D01*
X134618005Y-85198273D01*
X134465120Y-84969465D01*
X134270535Y-84774880D01*
X134041727Y-84621995D01*
X133787490Y-84516686D01*
X133517592Y-84463000D01*
X133242408Y-84463000D01*
X132972510Y-84516686D01*
X132718273Y-84621995D01*
X132489465Y-84774880D01*
X132294880Y-84969465D01*
X132141995Y-85198273D01*
X132110000Y-85275515D01*
X132078005Y-85198273D01*
X131925120Y-84969465D01*
X131730535Y-84774880D01*
X131501727Y-84621995D01*
X131247490Y-84516686D01*
X130977592Y-84463000D01*
X130702408Y-84463000D01*
X130432510Y-84516686D01*
X130178273Y-84621995D01*
X129949465Y-84774880D01*
X129754880Y-84969465D01*
X129601995Y-85198273D01*
X129570000Y-85275515D01*
X129538005Y-85198273D01*
X129385120Y-84969465D01*
X129190535Y-84774880D01*
X128961727Y-84621995D01*
X128707490Y-84516686D01*
X128437592Y-84463000D01*
X128162408Y-84463000D01*
X127892510Y-84516686D01*
X127638273Y-84621995D01*
X127409465Y-84774880D01*
X127214880Y-84969465D01*
X127156080Y-85057465D01*
X127147812Y-84973518D01*
X127111502Y-84853820D01*
X127052537Y-84743506D01*
X126973185Y-84646815D01*
X126876494Y-84567463D01*
X126766180Y-84508498D01*
X126646482Y-84472188D01*
X126522000Y-84459928D01*
X124998000Y-84459928D01*
X124873518Y-84472188D01*
X124753820Y-84508498D01*
X124643506Y-84567463D01*
X124546815Y-84646815D01*
X124467463Y-84743506D01*
X124408498Y-84853820D01*
X124372188Y-84973518D01*
X124363920Y-85057465D01*
X124305120Y-84969465D01*
X124110535Y-84774880D01*
X123881727Y-84621995D01*
X123627490Y-84516686D01*
X123357592Y-84463000D01*
X123082408Y-84463000D01*
X122812510Y-84516686D01*
X122558273Y-84621995D01*
X122329465Y-84774880D01*
X122134880Y-84969465D01*
X121981995Y-85198273D01*
X121950000Y-85275515D01*
X121918005Y-85198273D01*
X121765120Y-84969465D01*
X121570535Y-84774880D01*
X121341727Y-84621995D01*
X121087490Y-84516686D01*
X120817592Y-84463000D01*
X120542408Y-84463000D01*
X120272510Y-84516686D01*
X120018273Y-84621995D01*
X119789465Y-84774880D01*
X119594880Y-84969465D01*
X119441995Y-85198273D01*
X119410000Y-85275515D01*
X119378005Y-85198273D01*
X119225120Y-84969465D01*
X119030535Y-84774880D01*
X118801727Y-84621995D01*
X118547490Y-84516686D01*
X118277592Y-84463000D01*
X118002408Y-84463000D01*
X117732510Y-84516686D01*
X117478273Y-84621995D01*
X117249465Y-84774880D01*
X117054880Y-84969465D01*
X116901995Y-85198273D01*
X116870000Y-85275515D01*
X116838005Y-85198273D01*
X116685120Y-84969465D01*
X116490535Y-84774880D01*
X116261727Y-84621995D01*
X116007490Y-84516686D01*
X115737592Y-84463000D01*
X115462408Y-84463000D01*
X115192510Y-84516686D01*
X114938273Y-84621995D01*
X114709465Y-84774880D01*
X114514880Y-84969465D01*
X114361995Y-85198273D01*
X114330000Y-85275515D01*
X114298005Y-85198273D01*
X114145120Y-84969465D01*
X113950535Y-84774880D01*
X113721727Y-84621995D01*
X113467490Y-84516686D01*
X113197592Y-84463000D01*
X112922408Y-84463000D01*
X112652510Y-84516686D01*
X112398273Y-84621995D01*
X112367001Y-84642890D01*
X112367001Y-71894326D01*
X112370677Y-71857001D01*
X112367001Y-71819676D01*
X112367001Y-71819668D01*
X112356004Y-71708015D01*
X112312547Y-71564754D01*
X112241975Y-71432725D01*
X112147002Y-71317000D01*
X112118005Y-71293203D01*
X109013804Y-68189003D01*
X108990001Y-68159999D01*
X108874276Y-68065026D01*
X108838072Y-68045674D01*
X108838072Y-66250000D01*
X108825812Y-66125518D01*
X108789502Y-66005820D01*
X108730537Y-65895506D01*
X108651185Y-65798815D01*
X108554494Y-65719463D01*
X108444180Y-65660498D01*
X108324482Y-65624188D01*
X108200000Y-65611928D01*
X106260000Y-65611928D01*
X106260000Y-64132250D01*
X106330535Y-64085120D01*
X106525120Y-63890535D01*
X106583920Y-63802535D01*
X106592188Y-63886482D01*
X106628498Y-64006180D01*
X106687463Y-64116494D01*
X106766815Y-64213185D01*
X106863506Y-64292537D01*
X106973820Y-64351502D01*
X107093518Y-64387812D01*
X107218000Y-64400072D01*
X108742000Y-64400072D01*
X108866482Y-64387812D01*
X108986180Y-64351502D01*
X109096494Y-64292537D01*
X109193185Y-64213185D01*
X109272537Y-64116494D01*
X109331502Y-64006180D01*
X109367812Y-63886482D01*
X109376080Y-63802535D01*
X109434880Y-63890535D01*
X109629465Y-64085120D01*
X109858273Y-64238005D01*
X110112510Y-64343314D01*
X110382408Y-64397000D01*
X110657592Y-64397000D01*
X110927490Y-64343314D01*
X111181727Y-64238005D01*
X111410535Y-64085120D01*
X111605120Y-63890535D01*
X111758005Y-63661727D01*
X111790000Y-63584485D01*
X111821995Y-63661727D01*
X111974880Y-63890535D01*
X112169465Y-64085120D01*
X112398273Y-64238005D01*
X112652510Y-64343314D01*
X112922408Y-64397000D01*
X113197592Y-64397000D01*
X113467490Y-64343314D01*
X113721727Y-64238005D01*
X113950535Y-64085120D01*
X114145120Y-63890535D01*
X114298005Y-63661727D01*
X114330000Y-63584485D01*
X114361995Y-63661727D01*
X114514880Y-63890535D01*
X114709465Y-64085120D01*
X114938273Y-64238005D01*
X115192510Y-64343314D01*
X115462408Y-64397000D01*
X115737592Y-64397000D01*
X116007490Y-64343314D01*
X116261727Y-64238005D01*
X116490535Y-64085120D01*
X116685120Y-63890535D01*
X116743920Y-63802535D01*
X116752188Y-63886482D01*
X116788498Y-64006180D01*
X116847463Y-64116494D01*
X116926815Y-64213185D01*
X117023506Y-64292537D01*
X117133820Y-64351502D01*
X117253518Y-64387812D01*
X117378000Y-64400072D01*
X118902000Y-64400072D01*
X119026482Y-64387812D01*
X119146180Y-64351502D01*
X119256494Y-64292537D01*
X119353185Y-64213185D01*
X119432537Y-64116494D01*
X119491502Y-64006180D01*
X119527812Y-63886482D01*
X119536080Y-63802535D01*
X119594880Y-63890535D01*
X119789465Y-64085120D01*
X120018273Y-64238005D01*
X120272510Y-64343314D01*
X120542408Y-64397000D01*
X120817592Y-64397000D01*
X121087490Y-64343314D01*
X121341727Y-64238005D01*
X121570535Y-64085120D01*
X121765120Y-63890535D01*
X121918005Y-63661727D01*
X121950000Y-63584485D01*
X121981995Y-63661727D01*
X122134880Y-63890535D01*
X122329465Y-64085120D01*
X122558273Y-64238005D01*
X122812510Y-64343314D01*
X123082408Y-64397000D01*
X123357592Y-64397000D01*
X123627490Y-64343314D01*
X123881727Y-64238005D01*
X124110535Y-64085120D01*
X124305120Y-63890535D01*
X124458005Y-63661727D01*
X124490000Y-63584485D01*
X124521995Y-63661727D01*
X124674880Y-63890535D01*
X124869465Y-64085120D01*
X125098273Y-64238005D01*
X125352510Y-64343314D01*
X125622408Y-64397000D01*
X125897592Y-64397000D01*
X126167490Y-64343314D01*
X126421727Y-64238005D01*
X126650535Y-64085120D01*
X126845120Y-63890535D01*
X126998005Y-63661727D01*
X127030000Y-63584485D01*
X127061995Y-63661727D01*
X127214880Y-63890535D01*
X127409465Y-64085120D01*
X127638273Y-64238005D01*
X127892510Y-64343314D01*
X128162408Y-64397000D01*
X128437592Y-64397000D01*
X128707490Y-64343314D01*
X128961727Y-64238005D01*
X129190535Y-64085120D01*
X129385120Y-63890535D01*
X129538005Y-63661727D01*
X129570000Y-63584485D01*
X129601995Y-63661727D01*
X129754880Y-63890535D01*
X129949465Y-64085120D01*
X130178273Y-64238005D01*
X130432510Y-64343314D01*
X130702408Y-64397000D01*
X130977592Y-64397000D01*
X131247490Y-64343314D01*
X131501727Y-64238005D01*
X131730535Y-64085120D01*
X131925120Y-63890535D01*
X132078005Y-63661727D01*
X132110000Y-63584485D01*
X132141995Y-63661727D01*
X132294880Y-63890535D01*
X132489465Y-64085120D01*
X132718273Y-64238005D01*
X132972510Y-64343314D01*
X133242408Y-64397000D01*
X133517592Y-64397000D01*
X133787490Y-64343314D01*
X134041727Y-64238005D01*
X134270535Y-64085120D01*
X134465120Y-63890535D01*
X134618005Y-63661727D01*
X134650000Y-63584485D01*
X134681995Y-63661727D01*
X134834880Y-63890535D01*
X135029465Y-64085120D01*
X135258273Y-64238005D01*
X135512510Y-64343314D01*
X135782408Y-64397000D01*
X136057592Y-64397000D01*
X136327490Y-64343314D01*
X136581727Y-64238005D01*
X136810535Y-64085120D01*
X137005120Y-63890535D01*
X137158005Y-63661727D01*
X137190000Y-63584485D01*
X137221995Y-63661727D01*
X137374880Y-63890535D01*
X137569465Y-64085120D01*
X137798273Y-64238005D01*
X138052510Y-64343314D01*
X138322408Y-64397000D01*
X138597592Y-64397000D01*
X138867490Y-64343314D01*
X139121727Y-64238005D01*
X139350535Y-64085120D01*
X139545120Y-63890535D01*
X139698005Y-63661727D01*
X139730000Y-63584485D01*
X139761995Y-63661727D01*
X139914880Y-63890535D01*
X140109465Y-64085120D01*
X140338273Y-64238005D01*
X140592510Y-64343314D01*
X140862408Y-64397000D01*
X141137592Y-64397000D01*
X141407490Y-64343314D01*
X141661727Y-64238005D01*
X141890535Y-64085120D01*
X142085120Y-63890535D01*
X142238005Y-63661727D01*
X142343314Y-63407490D01*
X142397000Y-63137592D01*
X142397000Y-62862408D01*
X142343314Y-62592510D01*
X142238005Y-62338273D01*
X142085120Y-62109465D01*
X141890535Y-61914880D01*
X141661727Y-61761995D01*
X141407490Y-61656686D01*
X141137592Y-61603000D01*
X140862408Y-61603000D01*
X140592510Y-61656686D01*
X140338273Y-61761995D01*
X140109465Y-61914880D01*
X139914880Y-62109465D01*
X139761995Y-62338273D01*
X139730000Y-62415515D01*
X139698005Y-62338273D01*
X139545120Y-62109465D01*
X139350535Y-61914880D01*
X139121727Y-61761995D01*
X138867490Y-61656686D01*
X138597592Y-61603000D01*
X138322408Y-61603000D01*
X138052510Y-61656686D01*
X137798273Y-61761995D01*
X137569465Y-61914880D01*
X137374880Y-62109465D01*
X137221995Y-62338273D01*
X137190000Y-62415515D01*
X137158005Y-62338273D01*
X137005120Y-62109465D01*
X136810535Y-61914880D01*
X136581727Y-61761995D01*
X136327490Y-61656686D01*
X136057592Y-61603000D01*
X135782408Y-61603000D01*
X135512510Y-61656686D01*
X135258273Y-61761995D01*
X135029465Y-61914880D01*
X134834880Y-62109465D01*
X134681995Y-62338273D01*
X134650000Y-62415515D01*
X134618005Y-62338273D01*
X134465120Y-62109465D01*
X134270535Y-61914880D01*
X134041727Y-61761995D01*
X133787490Y-61656686D01*
X133517592Y-61603000D01*
X133242408Y-61603000D01*
X132972510Y-61656686D01*
X132718273Y-61761995D01*
X132489465Y-61914880D01*
X132294880Y-62109465D01*
X132141995Y-62338273D01*
X132110000Y-62415515D01*
X132078005Y-62338273D01*
X131925120Y-62109465D01*
X131730535Y-61914880D01*
X131501727Y-61761995D01*
X131247490Y-61656686D01*
X130977592Y-61603000D01*
X130702408Y-61603000D01*
X130432510Y-61656686D01*
X130178273Y-61761995D01*
X129949465Y-61914880D01*
X129754880Y-62109465D01*
X129601995Y-62338273D01*
X129570000Y-62415515D01*
X129538005Y-62338273D01*
X129385120Y-62109465D01*
X129190535Y-61914880D01*
X128961727Y-61761995D01*
X128707490Y-61656686D01*
X128437592Y-61603000D01*
X128162408Y-61603000D01*
X127892510Y-61656686D01*
X127638273Y-61761995D01*
X127409465Y-61914880D01*
X127214880Y-62109465D01*
X127061995Y-62338273D01*
X127030000Y-62415515D01*
X126998005Y-62338273D01*
X126845120Y-62109465D01*
X126650535Y-61914880D01*
X126421727Y-61761995D01*
X126167490Y-61656686D01*
X125897592Y-61603000D01*
X125622408Y-61603000D01*
X125352510Y-61656686D01*
X125098273Y-61761995D01*
X124869465Y-61914880D01*
X124674880Y-62109465D01*
X124521995Y-62338273D01*
X124490000Y-62415515D01*
X124458005Y-62338273D01*
X124305120Y-62109465D01*
X124110535Y-61914880D01*
X123881727Y-61761995D01*
X123627490Y-61656686D01*
X123357592Y-61603000D01*
X123082408Y-61603000D01*
X122812510Y-61656686D01*
X122558273Y-61761995D01*
X122329465Y-61914880D01*
X122134880Y-62109465D01*
X121981995Y-62338273D01*
X121950000Y-62415515D01*
X121918005Y-62338273D01*
X121765120Y-62109465D01*
X121570535Y-61914880D01*
X121341727Y-61761995D01*
X121087490Y-61656686D01*
X120817592Y-61603000D01*
X120542408Y-61603000D01*
X120272510Y-61656686D01*
X120018273Y-61761995D01*
X119789465Y-61914880D01*
X119594880Y-62109465D01*
X119536080Y-62197465D01*
X119527812Y-62113518D01*
X119491502Y-61993820D01*
X119432537Y-61883506D01*
X119353185Y-61786815D01*
X119256494Y-61707463D01*
X119146180Y-61648498D01*
X119026482Y-61612188D01*
X118902000Y-61599928D01*
X117378000Y-61599928D01*
X117253518Y-61612188D01*
X117133820Y-61648498D01*
X117023506Y-61707463D01*
X116926815Y-61786815D01*
X116847463Y-61883506D01*
X116788498Y-61993820D01*
X116752188Y-62113518D01*
X116743920Y-62197465D01*
X116685120Y-62109465D01*
X116490535Y-61914880D01*
X116261727Y-61761995D01*
X116007490Y-61656686D01*
X115737592Y-61603000D01*
X115462408Y-61603000D01*
X115192510Y-61656686D01*
X114938273Y-61761995D01*
X114709465Y-61914880D01*
X114514880Y-62109465D01*
X114361995Y-62338273D01*
X114330000Y-62415515D01*
X114298005Y-62338273D01*
X114145120Y-62109465D01*
X113950535Y-61914880D01*
X113721727Y-61761995D01*
X113467490Y-61656686D01*
X113197592Y-61603000D01*
X112922408Y-61603000D01*
X112652510Y-61656686D01*
X112398273Y-61761995D01*
X112169465Y-61914880D01*
X111974880Y-62109465D01*
X111821995Y-62338273D01*
X111790000Y-62415515D01*
X111758005Y-62338273D01*
X111605120Y-62109465D01*
X111410535Y-61914880D01*
X111181727Y-61761995D01*
X110927490Y-61656686D01*
X110657592Y-61603000D01*
X110382408Y-61603000D01*
X110112510Y-61656686D01*
X109858273Y-61761995D01*
X109629465Y-61914880D01*
X109434880Y-62109465D01*
X109376080Y-62197465D01*
X109367812Y-62113518D01*
X109331502Y-61993820D01*
X109272537Y-61883506D01*
X109193185Y-61786815D01*
X109096494Y-61707463D01*
X108986180Y-61648498D01*
X108866482Y-61612188D01*
X108742000Y-61599928D01*
X107218000Y-61599928D01*
X107093518Y-61612188D01*
X106973820Y-61648498D01*
X106863506Y-61707463D01*
X106766815Y-61786815D01*
X106687463Y-61883506D01*
X106628498Y-61993820D01*
X106592188Y-62113518D01*
X106583920Y-62197465D01*
X106525120Y-62109465D01*
X106330535Y-61914880D01*
X106101727Y-61761995D01*
X105847490Y-61656686D01*
X105577592Y-61603000D01*
X105302408Y-61603000D01*
X105032510Y-61656686D01*
X104778273Y-61761995D01*
X104549465Y-61914880D01*
X104354880Y-62109465D01*
X104201995Y-62338273D01*
X104096686Y-62592510D01*
X104043000Y-62862408D01*
X104043000Y-63137592D01*
X104096686Y-63407490D01*
X104201995Y-63661727D01*
X104354880Y-63890535D01*
X104549465Y-64085120D01*
X104740001Y-64212432D01*
X104740001Y-65611928D01*
X102800000Y-65611928D01*
X102675518Y-65624188D01*
X102555820Y-65660498D01*
X102445506Y-65719463D01*
X102348815Y-65798815D01*
X102269463Y-65895506D01*
X102210498Y-66005820D01*
X102174188Y-66125518D01*
X102161928Y-66250000D01*
X102161928Y-70963271D01*
X101385199Y-71740000D01*
X95438072Y-71740000D01*
X95438072Y-71700000D01*
X95425812Y-71575518D01*
X95389502Y-71455820D01*
X95330537Y-71345506D01*
X95251185Y-71248815D01*
X95234607Y-71235210D01*
X95271680Y-71179727D01*
X95379853Y-70918574D01*
X95435000Y-70641335D01*
X95435000Y-70358665D01*
X95379853Y-70081426D01*
X95271680Y-69820273D01*
X95114637Y-69585241D01*
X94914759Y-69385363D01*
X94679727Y-69228320D01*
X94418574Y-69120147D01*
X94141335Y-69065000D01*
X93858665Y-69065000D01*
X93581426Y-69120147D01*
X93320273Y-69228320D01*
X93085241Y-69385363D01*
X92885363Y-69585241D01*
X92728320Y-69820273D01*
X92620147Y-70081426D01*
X92565000Y-70358665D01*
X92565000Y-70641335D01*
X92620147Y-70918574D01*
X92728320Y-71179727D01*
X92765393Y-71235210D01*
X92748815Y-71248815D01*
X92669463Y-71345506D01*
X92610498Y-71455820D01*
X92574188Y-71575518D01*
X92561928Y-71700000D01*
X92561928Y-73300000D01*
X92574188Y-73424482D01*
X92610498Y-73544180D01*
X92669463Y-73654494D01*
X92748815Y-73751185D01*
X92845506Y-73830537D01*
X92955820Y-73889502D01*
X93075518Y-73925812D01*
X93200000Y-73938072D01*
X93240001Y-73938072D01*
X93240000Y-76281956D01*
X93085241Y-76385363D01*
X92885363Y-76585241D01*
X92728320Y-76820273D01*
X92620147Y-77081426D01*
X92565000Y-77358665D01*
X92565000Y-77641335D01*
X92620147Y-77918574D01*
X92728320Y-78179727D01*
X92885363Y-78414759D01*
X93085241Y-78614637D01*
X93320273Y-78771680D01*
X93581426Y-78879853D01*
X93858665Y-78935000D01*
X94141335Y-78935000D01*
X94418574Y-78879853D01*
X94679727Y-78771680D01*
X94914759Y-78614637D01*
X95114637Y-78414759D01*
X95271680Y-78179727D01*
X95379853Y-77918574D01*
X95435000Y-77641335D01*
X95435000Y-77358665D01*
X95379853Y-77081426D01*
X95271680Y-76820273D01*
X95114637Y-76585241D01*
X94914759Y-76385363D01*
X94760000Y-76281957D01*
X94760000Y-73938072D01*
X94800000Y-73938072D01*
X94924482Y-73925812D01*
X95044180Y-73889502D01*
X95154494Y-73830537D01*
X95251185Y-73751185D01*
X95330537Y-73654494D01*
X95389502Y-73544180D01*
X95425812Y-73424482D01*
X95438072Y-73300000D01*
X95438072Y-73260000D01*
X101662678Y-73260000D01*
X101700000Y-73263676D01*
X101737322Y-73260000D01*
X101737333Y-73260000D01*
X101848986Y-73249003D01*
X101992247Y-73205546D01*
X102124276Y-73134974D01*
X102240001Y-73040001D01*
X102263804Y-73010997D01*
X103486729Y-71788072D01*
X108200000Y-71788072D01*
X108324482Y-71775812D01*
X108444180Y-71739502D01*
X108554494Y-71680537D01*
X108651185Y-71601185D01*
X108730537Y-71504494D01*
X108789502Y-71394180D01*
X108825812Y-71274482D01*
X108838072Y-71150000D01*
X108838072Y-70162873D01*
X110847001Y-72171803D01*
X110847002Y-84500676D01*
X110657592Y-84463000D01*
X110382408Y-84463000D01*
X110112510Y-84516686D01*
X109858273Y-84621995D01*
X109629465Y-84774880D01*
X109434880Y-84969465D01*
X109376080Y-85057465D01*
X109367812Y-84973518D01*
X109331502Y-84853820D01*
X109272537Y-84743506D01*
X109193185Y-84646815D01*
X109096494Y-84567463D01*
X108986180Y-84508498D01*
X108866482Y-84472188D01*
X108742000Y-84459928D01*
X107218000Y-84459928D01*
X107093518Y-84472188D01*
X106973820Y-84508498D01*
X106863506Y-84567463D01*
X106766815Y-84646815D01*
X106687463Y-84743506D01*
X106628498Y-84853820D01*
X106592188Y-84973518D01*
X106583920Y-85057465D01*
X106525120Y-84969465D01*
X106330535Y-84774880D01*
X106101727Y-84621995D01*
X105847490Y-84516686D01*
X105577592Y-84463000D01*
X105311802Y-84463000D01*
X106011003Y-83763799D01*
X106040001Y-83740001D01*
X106134974Y-83624276D01*
X106154326Y-83588072D01*
X108200000Y-83588072D01*
X108324482Y-83575812D01*
X108444180Y-83539502D01*
X108554494Y-83480537D01*
X108651185Y-83401185D01*
X108730537Y-83304494D01*
X108789502Y-83194180D01*
X108825812Y-83074482D01*
X108838072Y-82950000D01*
X108838072Y-78050000D01*
X108825812Y-77925518D01*
X108789502Y-77805820D01*
X108730537Y-77695506D01*
X108651185Y-77598815D01*
X108554494Y-77519463D01*
X108444180Y-77460498D01*
X108324482Y-77424188D01*
X108200000Y-77411928D01*
X102800000Y-77411928D01*
X102675518Y-77424188D01*
X102555820Y-77460498D01*
X102445506Y-77519463D01*
X102348815Y-77598815D01*
X102269463Y-77695506D01*
X102210498Y-77805820D01*
X102174188Y-77925518D01*
X102161928Y-78050000D01*
X102161928Y-82950000D01*
X102174188Y-83074482D01*
X102210498Y-83194180D01*
X102269463Y-83304494D01*
X102348815Y-83401185D01*
X102445506Y-83480537D01*
X102555820Y-83539502D01*
X102675518Y-83575812D01*
X102800000Y-83588072D01*
X104037126Y-83588072D01*
X96685199Y-90940000D01*
X95458329Y-90940000D01*
X95489502Y-90881680D01*
X95525812Y-90761982D01*
X95538072Y-90637500D01*
X95535000Y-90285750D01*
X95376250Y-90127000D01*
X94127000Y-90127000D01*
X94127000Y-90147000D01*
X93873000Y-90147000D01*
X93873000Y-90127000D01*
X92623750Y-90127000D01*
X92465000Y-90285750D01*
X92461928Y-90637500D01*
X92474188Y-90761982D01*
X92510498Y-90881680D01*
X92569463Y-90991994D01*
X92632202Y-91068442D01*
X92556175Y-91210679D01*
X92483412Y-91450546D01*
X92458843Y-91700000D01*
X92483412Y-91949454D01*
X92528176Y-92097022D01*
X92263988Y-92361211D01*
X92234990Y-92385009D01*
X92211192Y-92414007D01*
X92211191Y-92414008D01*
X92140016Y-92500734D01*
X92069444Y-92632764D01*
X92025988Y-92776025D01*
X92011314Y-92925010D01*
X92014991Y-92962342D01*
X92014990Y-99761928D01*
X91900000Y-99761928D01*
X91775518Y-99774188D01*
X91655820Y-99810498D01*
X91545506Y-99869463D01*
X91448815Y-99948815D01*
X91369463Y-100045506D01*
X91310498Y-100155820D01*
X91274188Y-100275518D01*
X91261928Y-100400000D01*
X91261928Y-102600000D01*
X91274188Y-102724482D01*
X91310498Y-102844180D01*
X91369463Y-102954494D01*
X91448815Y-103051185D01*
X91545506Y-103130537D01*
X91655820Y-103189502D01*
X91775518Y-103225812D01*
X91900000Y-103238072D01*
X94100000Y-103238072D01*
X94224482Y-103225812D01*
X94344180Y-103189502D01*
X94454494Y-103130537D01*
X94551185Y-103051185D01*
X94630537Y-102954494D01*
X94689502Y-102844180D01*
X94725812Y-102724482D01*
X94738072Y-102600000D01*
X94738072Y-100400000D01*
X94725812Y-100275518D01*
X94689502Y-100155820D01*
X94630537Y-100045506D01*
X94551185Y-99948815D01*
X94454494Y-99869463D01*
X94344180Y-99810498D01*
X94224482Y-99774188D01*
X94100000Y-99761928D01*
X93534990Y-99761928D01*
X93534990Y-98058712D01*
X93674987Y-98072500D01*
X94325013Y-98072500D01*
X94511954Y-98054088D01*
X94751821Y-97981325D01*
X94972884Y-97863164D01*
X95166647Y-97704147D01*
X95325664Y-97510384D01*
X95443825Y-97289321D01*
X95516588Y-97049454D01*
X95541157Y-96800000D01*
X95516588Y-96550546D01*
X95443825Y-96310679D01*
X95325664Y-96089616D01*
X95211084Y-95950000D01*
X95284945Y-95860000D01*
X97285199Y-95860000D01*
X101349358Y-99924159D01*
X101126081Y-99831675D01*
X100790883Y-99765000D01*
X100449117Y-99765000D01*
X100113919Y-99831675D01*
X99798169Y-99962463D01*
X99514002Y-100152337D01*
X99272337Y-100394002D01*
X99082463Y-100678169D01*
X98951675Y-100993919D01*
X98885000Y-101329117D01*
X98885000Y-101670883D01*
X98951675Y-102006081D01*
X99082463Y-102321831D01*
X99272337Y-102605998D01*
X99514002Y-102847663D01*
X99798169Y-103037537D01*
X100113919Y-103168325D01*
X100449117Y-103235000D01*
X100790883Y-103235000D01*
X101126081Y-103168325D01*
X101441831Y-103037537D01*
X101725998Y-102847663D01*
X101967663Y-102605998D01*
X102157537Y-102321831D01*
X102288325Y-102006081D01*
X102355000Y-101670883D01*
X102355000Y-101329117D01*
X102288325Y-100993919D01*
X102195841Y-100770643D01*
X102601312Y-101176114D01*
X102565000Y-101358665D01*
X102565000Y-101641335D01*
X102620147Y-101918574D01*
X102728320Y-102179727D01*
X102885363Y-102414759D01*
X103085241Y-102614637D01*
X103320273Y-102771680D01*
X103581426Y-102879853D01*
X103858665Y-102935000D01*
X104141335Y-102935000D01*
X104418574Y-102879853D01*
X104679727Y-102771680D01*
X104914759Y-102614637D01*
X105114637Y-102414759D01*
X105271680Y-102179727D01*
X105379853Y-101918574D01*
X105435000Y-101641335D01*
X105435000Y-101358665D01*
X110185000Y-101358665D01*
X110185000Y-101641335D01*
X110240147Y-101918574D01*
X110348320Y-102179727D01*
X110505363Y-102414759D01*
X110705241Y-102614637D01*
X110940273Y-102771680D01*
X111201426Y-102879853D01*
X111478665Y-102935000D01*
X111761335Y-102935000D01*
X112038574Y-102879853D01*
X112299727Y-102771680D01*
X112534759Y-102614637D01*
X112734637Y-102414759D01*
X112891680Y-102179727D01*
X112999853Y-101918574D01*
X113055000Y-101641335D01*
X113055000Y-101358665D01*
X112999853Y-101081426D01*
X112891680Y-100820273D01*
X112734637Y-100585241D01*
X112534759Y-100385363D01*
X112299727Y-100228320D01*
X112038574Y-100120147D01*
X111761335Y-100065000D01*
X111478665Y-100065000D01*
X111201426Y-100120147D01*
X110940273Y-100228320D01*
X110705241Y-100385363D01*
X110505363Y-100585241D01*
X110348320Y-100820273D01*
X110240147Y-101081426D01*
X110185000Y-101358665D01*
X105435000Y-101358665D01*
X105379853Y-101081426D01*
X105271680Y-100820273D01*
X105114637Y-100585241D01*
X104914759Y-100385363D01*
X104679727Y-100228320D01*
X104418574Y-100120147D01*
X104141335Y-100065000D01*
X103858665Y-100065000D01*
X103676114Y-100101312D01*
X98163804Y-94589003D01*
X98140001Y-94559999D01*
X98024276Y-94465026D01*
X97892247Y-94394454D01*
X97748986Y-94350997D01*
X97637333Y-94340000D01*
X97637322Y-94340000D01*
X97600000Y-94336324D01*
X97562678Y-94340000D01*
X95284945Y-94340000D01*
X95211084Y-94250000D01*
X95325664Y-94110384D01*
X95443825Y-93889321D01*
X95516588Y-93649454D01*
X95541157Y-93400000D01*
X95518022Y-93165098D01*
X108275000Y-93165098D01*
X108275000Y-93634902D01*
X108366654Y-94095679D01*
X108546440Y-94529721D01*
X108807450Y-94920349D01*
X109139651Y-95252550D01*
X109530279Y-95513560D01*
X109964321Y-95693346D01*
X110425098Y-95785000D01*
X110894902Y-95785000D01*
X111355679Y-95693346D01*
X111789721Y-95513560D01*
X112180349Y-95252550D01*
X112512550Y-94920349D01*
X112773560Y-94529721D01*
X112953346Y-94095679D01*
X113045000Y-93634902D01*
X113045000Y-93165098D01*
X112953346Y-92704321D01*
X112773560Y-92270279D01*
X112512550Y-91879651D01*
X112180349Y-91547450D01*
X111789721Y-91286440D01*
X111355679Y-91106654D01*
X110894902Y-91015000D01*
X110425098Y-91015000D01*
X109964321Y-91106654D01*
X109530279Y-91286440D01*
X109139651Y-91547450D01*
X108807450Y-91879651D01*
X108546440Y-92270279D01*
X108366654Y-92704321D01*
X108275000Y-93165098D01*
X95518022Y-93165098D01*
X95516588Y-93150546D01*
X95443825Y-92910679D01*
X95325664Y-92689616D01*
X95211084Y-92550000D01*
X95284945Y-92460000D01*
X96962678Y-92460000D01*
X97000000Y-92463676D01*
X97037322Y-92460000D01*
X97037333Y-92460000D01*
X97148986Y-92449003D01*
X97292247Y-92405546D01*
X97424276Y-92334974D01*
X97540001Y-92240001D01*
X97563804Y-92210997D01*
X104043000Y-85731802D01*
X104043000Y-85997592D01*
X104096686Y-86267490D01*
X104201995Y-86521727D01*
X104354880Y-86750535D01*
X104549465Y-86945120D01*
X104778273Y-87098005D01*
X105032510Y-87203314D01*
X105302408Y-87257000D01*
X105577592Y-87257000D01*
X105847490Y-87203314D01*
X106101727Y-87098005D01*
X106330535Y-86945120D01*
X106525120Y-86750535D01*
X106583920Y-86662535D01*
X106592188Y-86746482D01*
X106628498Y-86866180D01*
X106687463Y-86976494D01*
X106766815Y-87073185D01*
X106863506Y-87152537D01*
X106973820Y-87211502D01*
X107093518Y-87247812D01*
X107218000Y-87260072D01*
X108742000Y-87260072D01*
X108866482Y-87247812D01*
X108986180Y-87211502D01*
X109096494Y-87152537D01*
X109193185Y-87073185D01*
X109272537Y-86976494D01*
X109331502Y-86866180D01*
X109367812Y-86746482D01*
X109376080Y-86662535D01*
X109434880Y-86750535D01*
X109629465Y-86945120D01*
X109858273Y-87098005D01*
X110112510Y-87203314D01*
X110382408Y-87257000D01*
X110657592Y-87257000D01*
X110847002Y-87219324D01*
X110847002Y-88949668D01*
X110843325Y-88987001D01*
X110847002Y-89024334D01*
X110857409Y-89129991D01*
X110857999Y-89135986D01*
X110901455Y-89279247D01*
X110972027Y-89411277D01*
X111043202Y-89498003D01*
X111067001Y-89527002D01*
X111095999Y-89550800D01*
X119601312Y-98056114D01*
X119565000Y-98238665D01*
X119565000Y-98521335D01*
X119620147Y-98798574D01*
X119728320Y-99059727D01*
X119885363Y-99294759D01*
X120085241Y-99494637D01*
X120320273Y-99651680D01*
X120581426Y-99759853D01*
X120858665Y-99815000D01*
X121141335Y-99815000D01*
X121323887Y-99778688D01*
X126110198Y-104565000D01*
X125858665Y-104565000D01*
X125581426Y-104620147D01*
X125320273Y-104728320D01*
X125085241Y-104885363D01*
X124885363Y-105085241D01*
X124728320Y-105320273D01*
X124620147Y-105581426D01*
X124565000Y-105858665D01*
X124565000Y-106141335D01*
X124620147Y-106418574D01*
X124728320Y-106679727D01*
X124885363Y-106914759D01*
X125085241Y-107114637D01*
X125240001Y-107218044D01*
X125240001Y-107962668D01*
X125236324Y-108000000D01*
X125250998Y-108148985D01*
X125294454Y-108292246D01*
X125365026Y-108424276D01*
X125418143Y-108488998D01*
X125460000Y-108540001D01*
X125488998Y-108563799D01*
X127212126Y-110286928D01*
X126525000Y-110286928D01*
X126351746Y-110303992D01*
X126185150Y-110354528D01*
X126031614Y-110436595D01*
X125897038Y-110547038D01*
X125786595Y-110681614D01*
X125704528Y-110835150D01*
X125653992Y-111001746D01*
X125636928Y-111175000D01*
X125636928Y-112425000D01*
X125653992Y-112598254D01*
X125704528Y-112764850D01*
X125786595Y-112918386D01*
X125897038Y-113052962D01*
X126031614Y-113163405D01*
X126185150Y-113245472D01*
X126351746Y-113296008D01*
X126525000Y-113313072D01*
X127275000Y-113313072D01*
X127448254Y-113296008D01*
X127614850Y-113245472D01*
X127768386Y-113163405D01*
X127902962Y-113052962D01*
X128013405Y-112918386D01*
X128095472Y-112764850D01*
X128096943Y-112760000D01*
X129296289Y-112760000D01*
X129340226Y-112803937D01*
X129509744Y-112917205D01*
X129698102Y-112995226D01*
X129898061Y-113035000D01*
X130101939Y-113035000D01*
X130301898Y-112995226D01*
X130490256Y-112917205D01*
X130659774Y-112803937D01*
X130803937Y-112659774D01*
X130917205Y-112490256D01*
X130995226Y-112301898D01*
X131035000Y-112101939D01*
X131035000Y-111898061D01*
X130995226Y-111698102D01*
X130917205Y-111509744D01*
X130803937Y-111340226D01*
X130659774Y-111196063D01*
X130490256Y-111082795D01*
X130301898Y-111004774D01*
X130101939Y-110965000D01*
X129898061Y-110965000D01*
X129698102Y-111004774D01*
X129509744Y-111082795D01*
X129340226Y-111196063D01*
X129296289Y-111240000D01*
X128163072Y-111240000D01*
X128163072Y-111175000D01*
X128146008Y-111001746D01*
X128095472Y-110835150D01*
X128055303Y-110760000D01*
X130985199Y-110760000D01*
X131836928Y-111611730D01*
X131836928Y-112425000D01*
X131853992Y-112598254D01*
X131904528Y-112764850D01*
X131986595Y-112918386D01*
X132097038Y-113052962D01*
X132231614Y-113163405D01*
X132385150Y-113245472D01*
X132551746Y-113296008D01*
X132725000Y-113313072D01*
X133475000Y-113313072D01*
X133648254Y-113296008D01*
X133814850Y-113245472D01*
X133968386Y-113163405D01*
X134102962Y-113052962D01*
X134213405Y-112918386D01*
X134295472Y-112764850D01*
X134346008Y-112598254D01*
X134363072Y-112425000D01*
X134363072Y-111175000D01*
X134636928Y-111175000D01*
X134636928Y-112425000D01*
X134653992Y-112598254D01*
X134704528Y-112764850D01*
X134786595Y-112918386D01*
X134897038Y-113052962D01*
X135031614Y-113163405D01*
X135185150Y-113245472D01*
X135351746Y-113296008D01*
X135525000Y-113313072D01*
X136275000Y-113313072D01*
X136448254Y-113296008D01*
X136614850Y-113245472D01*
X136768386Y-113163405D01*
X136902962Y-113052962D01*
X137013405Y-112918386D01*
X137095472Y-112764850D01*
X137096943Y-112760000D01*
X138296289Y-112760000D01*
X138340226Y-112803937D01*
X138509744Y-112917205D01*
X138698102Y-112995226D01*
X138898061Y-113035000D01*
X139101939Y-113035000D01*
X139301898Y-112995226D01*
X139490256Y-112917205D01*
X139659774Y-112803937D01*
X139663711Y-112800000D01*
X141561928Y-112800000D01*
X141574188Y-112924482D01*
X141610498Y-113044180D01*
X141669463Y-113154494D01*
X141748815Y-113251185D01*
X141845506Y-113330537D01*
X141955820Y-113389502D01*
X142075518Y-113425812D01*
X142200000Y-113438072D01*
X142714250Y-113435000D01*
X142873000Y-113276250D01*
X142873000Y-112127000D01*
X141723750Y-112127000D01*
X141565000Y-112285750D01*
X141561928Y-112800000D01*
X139663711Y-112800000D01*
X139803937Y-112659774D01*
X139917205Y-112490256D01*
X139995226Y-112301898D01*
X140035000Y-112101939D01*
X140035000Y-111898061D01*
X139995226Y-111698102D01*
X139917205Y-111509744D01*
X139803937Y-111340226D01*
X139663711Y-111200000D01*
X141561928Y-111200000D01*
X141565000Y-111714250D01*
X141723750Y-111873000D01*
X142873000Y-111873000D01*
X142873000Y-110723750D01*
X143127000Y-110723750D01*
X143127000Y-111873000D01*
X143147000Y-111873000D01*
X143147000Y-112127000D01*
X143127000Y-112127000D01*
X143127000Y-113276250D01*
X143285750Y-113435000D01*
X143800000Y-113438072D01*
X143924482Y-113425812D01*
X144044180Y-113389502D01*
X144154494Y-113330537D01*
X144251185Y-113251185D01*
X144264790Y-113234607D01*
X144320273Y-113271680D01*
X144581426Y-113379853D01*
X144858665Y-113435000D01*
X145141335Y-113435000D01*
X145418574Y-113379853D01*
X145679727Y-113271680D01*
X145914759Y-113114637D01*
X146114637Y-112914759D01*
X146271680Y-112679727D01*
X146379853Y-112418574D01*
X146435000Y-112141335D01*
X146435000Y-111858665D01*
X146379853Y-111581426D01*
X146271680Y-111320273D01*
X146114637Y-111085241D01*
X145914759Y-110885363D01*
X145679727Y-110728320D01*
X145418574Y-110620147D01*
X145141335Y-110565000D01*
X144858665Y-110565000D01*
X144581426Y-110620147D01*
X144320273Y-110728320D01*
X144264790Y-110765393D01*
X144251185Y-110748815D01*
X144154494Y-110669463D01*
X144044180Y-110610498D01*
X143924482Y-110574188D01*
X143800000Y-110561928D01*
X143285750Y-110565000D01*
X143127000Y-110723750D01*
X142873000Y-110723750D01*
X142714250Y-110565000D01*
X142200000Y-110561928D01*
X142075518Y-110574188D01*
X141955820Y-110610498D01*
X141845506Y-110669463D01*
X141748815Y-110748815D01*
X141669463Y-110845506D01*
X141610498Y-110955820D01*
X141574188Y-111075518D01*
X141561928Y-111200000D01*
X139663711Y-111200000D01*
X139659774Y-111196063D01*
X139490256Y-111082795D01*
X139301898Y-111004774D01*
X139101939Y-110965000D01*
X138898061Y-110965000D01*
X138698102Y-111004774D01*
X138509744Y-111082795D01*
X138340226Y-111196063D01*
X138296289Y-111240000D01*
X137163072Y-111240000D01*
X137163072Y-111175000D01*
X137146008Y-111001746D01*
X137095472Y-110835150D01*
X137013405Y-110681614D01*
X136902962Y-110547038D01*
X136768386Y-110436595D01*
X136614850Y-110354528D01*
X136448254Y-110303992D01*
X136275000Y-110286928D01*
X135525000Y-110286928D01*
X135351746Y-110303992D01*
X135185150Y-110354528D01*
X135031614Y-110436595D01*
X134897038Y-110547038D01*
X134786595Y-110681614D01*
X134704528Y-110835150D01*
X134653992Y-111001746D01*
X134636928Y-111175000D01*
X134363072Y-111175000D01*
X134346008Y-111001746D01*
X134295472Y-110835150D01*
X134213405Y-110681614D01*
X134102962Y-110547038D01*
X133968386Y-110436595D01*
X133814850Y-110354528D01*
X133648254Y-110303992D01*
X133475000Y-110286928D01*
X132725000Y-110286928D01*
X132667403Y-110292601D01*
X131863803Y-109489002D01*
X131840001Y-109459999D01*
X131724276Y-109365026D01*
X131592247Y-109294454D01*
X131448986Y-109250997D01*
X131337333Y-109240000D01*
X131337322Y-109240000D01*
X131300000Y-109236324D01*
X131262678Y-109240000D01*
X128314802Y-109240000D01*
X126760000Y-107685199D01*
X126760000Y-107218043D01*
X126914759Y-107114637D01*
X127114637Y-106914759D01*
X127271680Y-106679727D01*
X127379853Y-106418574D01*
X127435000Y-106141335D01*
X127435000Y-105889802D01*
X130056205Y-108511008D01*
X130079999Y-108540001D01*
X130108992Y-108563795D01*
X130108996Y-108563799D01*
X130179685Y-108621811D01*
X130195724Y-108634974D01*
X130327753Y-108705546D01*
X130471014Y-108749003D01*
X130582667Y-108760000D01*
X130582676Y-108760000D01*
X130619999Y-108763676D01*
X130657322Y-108760000D01*
X150323340Y-108760000D01*
X150278182Y-108778705D01*
X149682823Y-109176511D01*
X149176511Y-109682823D01*
X148778705Y-110278182D01*
X148504691Y-110939710D01*
X148365000Y-111641984D01*
X148365000Y-112358016D01*
X148504691Y-113060290D01*
X148778705Y-113721818D01*
X149176511Y-114317177D01*
X149682823Y-114823489D01*
X150278182Y-115221295D01*
X150564761Y-115340000D01*
X95435239Y-115340000D01*
X95721818Y-115221295D01*
X96317177Y-114823489D01*
X96823489Y-114317177D01*
X97221295Y-113721818D01*
X97495309Y-113060290D01*
X97635000Y-112358016D01*
X97635000Y-111641984D01*
X97495309Y-110939710D01*
X97433182Y-110789721D01*
X98165000Y-110789721D01*
X98165000Y-111210279D01*
X98247047Y-111622756D01*
X98407988Y-112011302D01*
X98641637Y-112360983D01*
X98939017Y-112658363D01*
X99288698Y-112892012D01*
X99677244Y-113052953D01*
X100089721Y-113135000D01*
X100510279Y-113135000D01*
X100922756Y-113052953D01*
X101311302Y-112892012D01*
X101660983Y-112658363D01*
X101958363Y-112360983D01*
X102192012Y-112011302D01*
X102352953Y-111622756D01*
X102435000Y-111210279D01*
X102435000Y-110789721D01*
X102865000Y-110789721D01*
X102865000Y-111210279D01*
X102947047Y-111622756D01*
X103107988Y-112011302D01*
X103341637Y-112360983D01*
X103639017Y-112658363D01*
X103988698Y-112892012D01*
X104377244Y-113052953D01*
X104789721Y-113135000D01*
X105210279Y-113135000D01*
X105622756Y-113052953D01*
X106011302Y-112892012D01*
X106360983Y-112658363D01*
X106519346Y-112500000D01*
X107561928Y-112500000D01*
X107574188Y-112624482D01*
X107610498Y-112744180D01*
X107669463Y-112854494D01*
X107748815Y-112951185D01*
X107845506Y-113030537D01*
X107955820Y-113089502D01*
X108075518Y-113125812D01*
X108200000Y-113138072D01*
X109414250Y-113135000D01*
X109573000Y-112976250D01*
X109573000Y-111127000D01*
X109827000Y-111127000D01*
X109827000Y-112976250D01*
X109985750Y-113135000D01*
X111200000Y-113138072D01*
X111324482Y-113125812D01*
X111444180Y-113089502D01*
X111554494Y-113030537D01*
X111651185Y-112951185D01*
X111730537Y-112854494D01*
X111789502Y-112744180D01*
X111825812Y-112624482D01*
X111838072Y-112500000D01*
X111835000Y-111285750D01*
X111676250Y-111127000D01*
X109827000Y-111127000D01*
X109573000Y-111127000D01*
X107723750Y-111127000D01*
X107565000Y-111285750D01*
X107561928Y-112500000D01*
X106519346Y-112500000D01*
X106658363Y-112360983D01*
X106892012Y-112011302D01*
X107052953Y-111622756D01*
X107135000Y-111210279D01*
X107135000Y-110789721D01*
X107052953Y-110377244D01*
X106948860Y-110125942D01*
X107314802Y-109760000D01*
X107562586Y-109760000D01*
X107565000Y-110714250D01*
X107723750Y-110873000D01*
X109573000Y-110873000D01*
X109573000Y-110853000D01*
X109827000Y-110853000D01*
X109827000Y-110873000D01*
X111676250Y-110873000D01*
X111835000Y-110714250D01*
X111837414Y-109760000D01*
X111962678Y-109760000D01*
X112000000Y-109763676D01*
X112037322Y-109760000D01*
X112037333Y-109760000D01*
X112148986Y-109749003D01*
X112292247Y-109705546D01*
X112424276Y-109634974D01*
X112540001Y-109540001D01*
X112563804Y-109510997D01*
X114240000Y-107834802D01*
X114240001Y-110616538D01*
X114186595Y-110681614D01*
X114104528Y-110835150D01*
X114053992Y-111001746D01*
X114036928Y-111175000D01*
X114036928Y-112425000D01*
X114053992Y-112598254D01*
X114104528Y-112764850D01*
X114186595Y-112918386D01*
X114297038Y-113052962D01*
X114431614Y-113163405D01*
X114585150Y-113245472D01*
X114751746Y-113296008D01*
X114925000Y-113313072D01*
X115675000Y-113313072D01*
X115848254Y-113296008D01*
X116014850Y-113245472D01*
X116168386Y-113163405D01*
X116302962Y-113052962D01*
X116413405Y-112918386D01*
X116495472Y-112764850D01*
X116546008Y-112598254D01*
X116563072Y-112425000D01*
X116563072Y-111175000D01*
X116836928Y-111175000D01*
X116836928Y-112425000D01*
X116853992Y-112598254D01*
X116904528Y-112764850D01*
X116986595Y-112918386D01*
X117097038Y-113052962D01*
X117231614Y-113163405D01*
X117385150Y-113245472D01*
X117551746Y-113296008D01*
X117725000Y-113313072D01*
X118475000Y-113313072D01*
X118648254Y-113296008D01*
X118814850Y-113245472D01*
X118968386Y-113163405D01*
X119102962Y-113052962D01*
X119213405Y-112918386D01*
X119295472Y-112764850D01*
X119296943Y-112760000D01*
X120296289Y-112760000D01*
X120340226Y-112803937D01*
X120509744Y-112917205D01*
X120698102Y-112995226D01*
X120898061Y-113035000D01*
X121101939Y-113035000D01*
X121301898Y-112995226D01*
X121490256Y-112917205D01*
X121659774Y-112803937D01*
X121803937Y-112659774D01*
X121917205Y-112490256D01*
X121995226Y-112301898D01*
X122035000Y-112101939D01*
X122035000Y-111898061D01*
X121995226Y-111698102D01*
X121917205Y-111509744D01*
X121803937Y-111340226D01*
X121659774Y-111196063D01*
X121490256Y-111082795D01*
X121301898Y-111004774D01*
X121101939Y-110965000D01*
X120898061Y-110965000D01*
X120698102Y-111004774D01*
X120509744Y-111082795D01*
X120340226Y-111196063D01*
X120296289Y-111240000D01*
X119363072Y-111240000D01*
X119363072Y-111175000D01*
X119346008Y-111001746D01*
X119295472Y-110835150D01*
X119213405Y-110681614D01*
X119102962Y-110547038D01*
X118968386Y-110436595D01*
X118814850Y-110354528D01*
X118648254Y-110303992D01*
X118475000Y-110286928D01*
X117725000Y-110286928D01*
X117551746Y-110303992D01*
X117385150Y-110354528D01*
X117231614Y-110436595D01*
X117097038Y-110547038D01*
X116986595Y-110681614D01*
X116904528Y-110835150D01*
X116853992Y-111001746D01*
X116836928Y-111175000D01*
X116563072Y-111175000D01*
X116546008Y-111001746D01*
X116495472Y-110835150D01*
X116413405Y-110681614D01*
X116302962Y-110547038D01*
X116168386Y-110436595D01*
X116014850Y-110354528D01*
X115848254Y-110303992D01*
X115760000Y-110295300D01*
X115760000Y-107415374D01*
X115858665Y-107435000D01*
X116141335Y-107435000D01*
X116418574Y-107379853D01*
X116679727Y-107271680D01*
X116914759Y-107114637D01*
X117114637Y-106914759D01*
X117271680Y-106679727D01*
X117379853Y-106418574D01*
X117435000Y-106141335D01*
X117435000Y-105858665D01*
X119565000Y-105858665D01*
X119565000Y-106141335D01*
X119620147Y-106418574D01*
X119728320Y-106679727D01*
X119885363Y-106914759D01*
X120085241Y-107114637D01*
X120240000Y-107218044D01*
X120240001Y-108662668D01*
X120236324Y-108700000D01*
X120240001Y-108737333D01*
X120250998Y-108848986D01*
X120254924Y-108861928D01*
X120294454Y-108992246D01*
X120365026Y-109124276D01*
X120407895Y-109176511D01*
X120460000Y-109240001D01*
X120488998Y-109263799D01*
X122836928Y-111611730D01*
X122836928Y-112425000D01*
X122853992Y-112598254D01*
X122904528Y-112764850D01*
X122986595Y-112918386D01*
X123097038Y-113052962D01*
X123231614Y-113163405D01*
X123385150Y-113245472D01*
X123551746Y-113296008D01*
X123725000Y-113313072D01*
X124475000Y-113313072D01*
X124648254Y-113296008D01*
X124814850Y-113245472D01*
X124968386Y-113163405D01*
X125102962Y-113052962D01*
X125213405Y-112918386D01*
X125295472Y-112764850D01*
X125346008Y-112598254D01*
X125363072Y-112425000D01*
X125363072Y-111175000D01*
X125346008Y-111001746D01*
X125295472Y-110835150D01*
X125213405Y-110681614D01*
X125102962Y-110547038D01*
X124968386Y-110436595D01*
X124814850Y-110354528D01*
X124648254Y-110303992D01*
X124475000Y-110286928D01*
X123725000Y-110286928D01*
X123667403Y-110292601D01*
X121760000Y-108385199D01*
X121760000Y-107218043D01*
X121914759Y-107114637D01*
X122114637Y-106914759D01*
X122271680Y-106679727D01*
X122379853Y-106418574D01*
X122435000Y-106141335D01*
X122435000Y-105858665D01*
X122379853Y-105581426D01*
X122271680Y-105320273D01*
X122114637Y-105085241D01*
X121914759Y-104885363D01*
X121679727Y-104728320D01*
X121418574Y-104620147D01*
X121141335Y-104565000D01*
X120858665Y-104565000D01*
X120581426Y-104620147D01*
X120320273Y-104728320D01*
X120085241Y-104885363D01*
X119885363Y-105085241D01*
X119728320Y-105320273D01*
X119620147Y-105581426D01*
X119565000Y-105858665D01*
X117435000Y-105858665D01*
X117379853Y-105581426D01*
X117271680Y-105320273D01*
X117114637Y-105085241D01*
X116914759Y-104885363D01*
X116679727Y-104728320D01*
X116418574Y-104620147D01*
X116141335Y-104565000D01*
X115858665Y-104565000D01*
X115581426Y-104620147D01*
X115320273Y-104728320D01*
X115085241Y-104885363D01*
X114885363Y-105085241D01*
X114760000Y-105272860D01*
X114760000Y-100694801D01*
X115676114Y-99778688D01*
X115858665Y-99815000D01*
X116141335Y-99815000D01*
X116418574Y-99759853D01*
X116679727Y-99651680D01*
X116914759Y-99494637D01*
X117114637Y-99294759D01*
X117271680Y-99059727D01*
X117379853Y-98798574D01*
X117435000Y-98521335D01*
X117435000Y-98238665D01*
X117379853Y-97961426D01*
X117271680Y-97700273D01*
X117114637Y-97465241D01*
X116914759Y-97265363D01*
X116679727Y-97108320D01*
X116418574Y-97000147D01*
X116141335Y-96945000D01*
X115858665Y-96945000D01*
X115581426Y-97000147D01*
X115320273Y-97108320D01*
X115085241Y-97265363D01*
X114885363Y-97465241D01*
X114728320Y-97700273D01*
X114620147Y-97961426D01*
X114565000Y-98238665D01*
X114565000Y-98521335D01*
X114601312Y-98703886D01*
X113488998Y-99816201D01*
X113460000Y-99839999D01*
X113436202Y-99868997D01*
X113436201Y-99868998D01*
X113365026Y-99955724D01*
X113294454Y-100087754D01*
X113250998Y-100231015D01*
X113236324Y-100380000D01*
X113240001Y-100417332D01*
X113240000Y-106685198D01*
X111685199Y-108240000D01*
X107037322Y-108240000D01*
X106999999Y-108236324D01*
X106962676Y-108240000D01*
X106962667Y-108240000D01*
X106851014Y-108250997D01*
X106715032Y-108292246D01*
X106707753Y-108294454D01*
X106575723Y-108365026D01*
X106492083Y-108433668D01*
X106459999Y-108459999D01*
X106436201Y-108488997D01*
X105874058Y-109051140D01*
X105622756Y-108947047D01*
X105210279Y-108865000D01*
X104789721Y-108865000D01*
X104377244Y-108947047D01*
X103988698Y-109107988D01*
X103639017Y-109341637D01*
X103341637Y-109639017D01*
X103107988Y-109988698D01*
X102947047Y-110377244D01*
X102865000Y-110789721D01*
X102435000Y-110789721D01*
X102352953Y-110377244D01*
X102192012Y-109988698D01*
X101958363Y-109639017D01*
X101660983Y-109341637D01*
X101311302Y-109107988D01*
X100922756Y-108947047D01*
X100510279Y-108865000D01*
X100089721Y-108865000D01*
X99677244Y-108947047D01*
X99288698Y-109107988D01*
X98939017Y-109341637D01*
X98641637Y-109639017D01*
X98407988Y-109988698D01*
X98247047Y-110377244D01*
X98165000Y-110789721D01*
X97433182Y-110789721D01*
X97221295Y-110278182D01*
X96823489Y-109682823D01*
X96317177Y-109176511D01*
X95721818Y-108778705D01*
X95060290Y-108504691D01*
X94358016Y-108365000D01*
X93641984Y-108365000D01*
X92939710Y-108504691D01*
X92278182Y-108778705D01*
X91682823Y-109176511D01*
X91176511Y-109682823D01*
X90778705Y-110278182D01*
X90660000Y-110564761D01*
X90660000Y-89362500D01*
X92461928Y-89362500D01*
X92465000Y-89714250D01*
X92623750Y-89873000D01*
X93873000Y-89873000D01*
X93873000Y-88886250D01*
X94127000Y-88886250D01*
X94127000Y-89873000D01*
X95376250Y-89873000D01*
X95535000Y-89714250D01*
X95538072Y-89362500D01*
X95525812Y-89238018D01*
X95489502Y-89118320D01*
X95430537Y-89008006D01*
X95351185Y-88911315D01*
X95254494Y-88831963D01*
X95144180Y-88772998D01*
X95024482Y-88736688D01*
X94900000Y-88724428D01*
X94285750Y-88727500D01*
X94127000Y-88886250D01*
X93873000Y-88886250D01*
X93714250Y-88727500D01*
X93100000Y-88724428D01*
X92975518Y-88736688D01*
X92855820Y-88772998D01*
X92745506Y-88831963D01*
X92648815Y-88911315D01*
X92569463Y-89008006D01*
X92510498Y-89118320D01*
X92474188Y-89238018D01*
X92461928Y-89362500D01*
X90660000Y-89362500D01*
X90660000Y-84978665D01*
X92565000Y-84978665D01*
X92565000Y-85261335D01*
X92620147Y-85538574D01*
X92728320Y-85799727D01*
X92885363Y-86034759D01*
X93085241Y-86234637D01*
X93320273Y-86391680D01*
X93581426Y-86499853D01*
X93858665Y-86555000D01*
X94141335Y-86555000D01*
X94418574Y-86499853D01*
X94679727Y-86391680D01*
X94914759Y-86234637D01*
X95114637Y-86034759D01*
X95271680Y-85799727D01*
X95379853Y-85538574D01*
X95435000Y-85261335D01*
X95435000Y-84978665D01*
X95379853Y-84701426D01*
X95271680Y-84440273D01*
X95114637Y-84205241D01*
X94914759Y-84005363D01*
X94679727Y-83848320D01*
X94418574Y-83740147D01*
X94141335Y-83685000D01*
X93858665Y-83685000D01*
X93581426Y-83740147D01*
X93320273Y-83848320D01*
X93085241Y-84005363D01*
X92885363Y-84205241D01*
X92728320Y-84440273D01*
X92620147Y-84701426D01*
X92565000Y-84978665D01*
X90660000Y-84978665D01*
X90660000Y-65435239D01*
X90778705Y-65721818D01*
X91176511Y-66317177D01*
X91682823Y-66823489D01*
X92278182Y-67221295D01*
X92939710Y-67495309D01*
X93641984Y-67635000D01*
X94358016Y-67635000D01*
X95060290Y-67495309D01*
X95721818Y-67221295D01*
X96317177Y-66823489D01*
X96823489Y-66317177D01*
X97221295Y-65721818D01*
X97495309Y-65060290D01*
X97635000Y-64358016D01*
X97635000Y-63641984D01*
X97495309Y-62939710D01*
X97221295Y-62278182D01*
X96823489Y-61682823D01*
X96317177Y-61176511D01*
X95721818Y-60778705D01*
X95435239Y-60660000D01*
X150564761Y-60660000D01*
X150278182Y-60778705D01*
G37*
%TD.AperFunction*%
%TD*%
M02*
