M48
; DRILL file {KiCad 5.1.10-88a1d61d58~90~ubuntu20.04.1} date Sat Oct 16 18:09:55 2021
; FORMAT={-:-/ absolute / inch / decimal}
; #@! TF.CreationDate,2021-10-16T18:09:55-04:00
; #@! TF.GenerationSoftware,Kicad,Pcbnew,5.1.10-88a1d61d58~90~ubuntu20.04.1
; #@! TF.FileFunction,Plated,1,2,PTH
FMAT,2
INCH
T1C0.0157
T2C0.0295
T3C0.0300
T4C0.0315
T5C0.0402
T6C0.0433
T7C0.0472
T8C0.0583
T9C0.0598
T10C0.1181
%
G90
G05
T1
X4.7638Y-4.4094
X5.1181Y-4.4094
X5.4724Y-4.4094
T2
X4.6063Y-3.5827
X4.6563Y-3.5827
X4.7063Y-3.5827
X4.9213Y-3.5827
X4.9713Y-3.5827
X5.0213Y-3.5827
X5.2362Y-3.5827
X5.2862Y-3.5827
X5.3362Y-3.5827
X5.5406Y-3.5827
X5.5906Y-3.5827
X5.6406Y-3.5827
X5.8465Y-3.5827
X5.8965Y-3.5827
X5.9465Y-3.5827
T3
X4.1512Y-2.4803
X4.1512Y-3.3803
X4.2512Y-2.4803
X4.2512Y-3.3803
X4.3512Y-2.4803
X4.3512Y-3.3803
X4.4512Y-2.4803
X4.4512Y-3.3803
X4.5512Y-2.4803
X4.5512Y-3.3803
X4.6512Y-2.4803
X4.6512Y-3.3803
X4.7512Y-2.4803
X4.7512Y-3.3803
X4.8512Y-2.4803
X4.8512Y-3.3803
X4.9512Y-2.4803
X4.9512Y-3.3803
X5.0512Y-2.4803
X5.0512Y-3.3803
X5.1512Y-2.4803
X5.1512Y-3.3803
X5.2512Y-2.4803
X5.2512Y-3.3803
X5.3512Y-2.4803
X5.3512Y-3.3803
X5.4512Y-2.4803
X5.4512Y-3.3803
X5.5512Y-2.4803
X5.5512Y-3.3803
T4
X3.7008Y-2.7756
X3.7008Y-2.8543
X3.7008Y-3.0512
X3.7008Y-3.3512
X4.0945Y-3.9961
X4.3945Y-3.9961
X4.5669Y-3.8732
X4.5669Y-4.1732
X4.7638Y-3.8732
X4.7638Y-4.1732
X4.9606Y-3.8732
X4.9606Y-4.1732
X5.1575Y-3.8732
X5.1575Y-4.1732
X5.3543Y-3.8732
X5.3543Y-4.1732
X5.5512Y-3.8732
X5.5512Y-4.1732
X5.6299Y-4.4094
X5.7087Y-4.4094
X5.748Y-3.8732
X5.748Y-4.1732
X5.9449Y-3.8732
X5.9449Y-4.1732
T5
X6.237Y-4.4094
X6.337Y-4.4094
X6.437Y-4.4094
T6
X3.6614Y-3.9961
X3.7008Y-3.5433
X3.7008Y-3.6102
X3.7008Y-3.6772
X3.7008Y-3.7441
X3.7008Y-3.811
X3.9614Y-3.9961
T7
X6.1795Y-2.7953
X6.1795Y-3.1299
X6.1811Y-3.4646
X6.1811Y-3.7992
X6.1811Y-4.1339
X6.2795Y-2.7953
X6.2795Y-3.1299
X6.2811Y-3.4646
X6.2811Y-3.7992
X6.2811Y-4.1339
X6.3795Y-2.7953
X6.3795Y-3.1299
X6.3811Y-3.4646
X6.3811Y-3.7992
X6.3811Y-4.1339
T8
X3.9488Y-4.3701
X4.1339Y-4.3701
X4.3189Y-4.3701
T9
X6.7293Y-2.7689
X6.7293Y-2.9689
X6.7293Y-3.1689
X6.7293Y-3.3689
X6.7293Y-3.5689
X6.7293Y-3.7689
X6.7323Y-3.9732
X6.7323Y-4.1732
T10
X3.7008Y-2.5197
X3.7008Y-4.4094
X5.9843Y-2.5197
X5.9843Y-4.4094
T0
M30
