%TF.GenerationSoftware,KiCad,Pcbnew,5.1.10-88a1d61d58~90~ubuntu20.04.1*%
%TF.CreationDate,2021-10-16T18:09:50-04:00*%
%TF.ProjectId,jrgbwww24,6a726762-7777-4773-9234-2e6b69636164,rev?*%
%TF.SameCoordinates,Original*%
%TF.FileFunction,Paste,Top*%
%TF.FilePolarity,Positive*%
%FSLAX46Y46*%
G04 Gerber Fmt 4.6, Leading zero omitted, Abs format (unit mm)*
G04 Created by KiCad (PCBNEW 5.1.10-88a1d61d58~90~ubuntu20.04.1) date 2021-10-16 18:09:50*
%MOMM*%
%LPD*%
G01*
G04 APERTURE LIST*
%ADD10R,5.400000X4.900000*%
G04 APERTURE END LIST*
D10*
%TO.C,L1*%
X105500000Y-68700000D03*
X105500000Y-80500000D03*
%TD*%
%TO.C,D3*%
G36*
G01*
X133725000Y-111175000D02*
X133725000Y-112425000D01*
G75*
G02*
X133475000Y-112675000I-250000J0D01*
G01*
X132725000Y-112675000D01*
G75*
G02*
X132475000Y-112425000I0J250000D01*
G01*
X132475000Y-111175000D01*
G75*
G02*
X132725000Y-110925000I250000J0D01*
G01*
X133475000Y-110925000D01*
G75*
G02*
X133725000Y-111175000I0J-250000D01*
G01*
G37*
G36*
G01*
X136525000Y-111175000D02*
X136525000Y-112425000D01*
G75*
G02*
X136275000Y-112675000I-250000J0D01*
G01*
X135525000Y-112675000D01*
G75*
G02*
X135275000Y-112425000I0J250000D01*
G01*
X135275000Y-111175000D01*
G75*
G02*
X135525000Y-110925000I250000J0D01*
G01*
X136275000Y-110925000D01*
G75*
G02*
X136525000Y-111175000I0J-250000D01*
G01*
G37*
%TD*%
%TO.C,D2*%
G36*
G01*
X124725000Y-111175000D02*
X124725000Y-112425000D01*
G75*
G02*
X124475000Y-112675000I-250000J0D01*
G01*
X123725000Y-112675000D01*
G75*
G02*
X123475000Y-112425000I0J250000D01*
G01*
X123475000Y-111175000D01*
G75*
G02*
X123725000Y-110925000I250000J0D01*
G01*
X124475000Y-110925000D01*
G75*
G02*
X124725000Y-111175000I0J-250000D01*
G01*
G37*
G36*
G01*
X127525000Y-111175000D02*
X127525000Y-112425000D01*
G75*
G02*
X127275000Y-112675000I-250000J0D01*
G01*
X126525000Y-112675000D01*
G75*
G02*
X126275000Y-112425000I0J250000D01*
G01*
X126275000Y-111175000D01*
G75*
G02*
X126525000Y-110925000I250000J0D01*
G01*
X127275000Y-110925000D01*
G75*
G02*
X127525000Y-111175000I0J-250000D01*
G01*
G37*
%TD*%
%TO.C,D1*%
G36*
G01*
X115925000Y-111175000D02*
X115925000Y-112425000D01*
G75*
G02*
X115675000Y-112675000I-250000J0D01*
G01*
X114925000Y-112675000D01*
G75*
G02*
X114675000Y-112425000I0J250000D01*
G01*
X114675000Y-111175000D01*
G75*
G02*
X114925000Y-110925000I250000J0D01*
G01*
X115675000Y-110925000D01*
G75*
G02*
X115925000Y-111175000I0J-250000D01*
G01*
G37*
G36*
G01*
X118725000Y-111175000D02*
X118725000Y-112425000D01*
G75*
G02*
X118475000Y-112675000I-250000J0D01*
G01*
X117725000Y-112675000D01*
G75*
G02*
X117475000Y-112425000I0J250000D01*
G01*
X117475000Y-111175000D01*
G75*
G02*
X117725000Y-110925000I250000J0D01*
G01*
X118475000Y-110925000D01*
G75*
G02*
X118725000Y-111175000I0J-250000D01*
G01*
G37*
%TD*%
M02*
