%TF.GenerationSoftware,KiCad,Pcbnew,5.1.10-88a1d61d58~90~ubuntu20.04.1*%
%TF.CreationDate,2021-10-16T18:09:50-04:00*%
%TF.ProjectId,jrgbwww24,6a726762-7777-4773-9234-2e6b69636164,rev?*%
%TF.SameCoordinates,Original*%
%TF.FileFunction,Copper,L2,Bot*%
%TF.FilePolarity,Positive*%
%FSLAX46Y46*%
G04 Gerber Fmt 4.6, Leading zero omitted, Abs format (unit mm)*
G04 Created by KiCad (PCBNEW 5.1.10-88a1d61d58~90~ubuntu20.04.1) date 2021-10-16 18:09:50*
%MOMM*%
%LPD*%
G01*
G04 APERTURE LIST*
%TA.AperFunction,ComponentPad*%
%ADD10O,1.050000X1.500000*%
%TD*%
%TA.AperFunction,ComponentPad*%
%ADD11R,1.050000X1.500000*%
%TD*%
%TA.AperFunction,ComponentPad*%
%ADD12O,1.730000X2.030000*%
%TD*%
%TA.AperFunction,ComponentPad*%
%ADD13R,1.730000X2.030000*%
%TD*%
%TA.AperFunction,ComponentPad*%
%ADD14O,1.800000X1.275000*%
%TD*%
%TA.AperFunction,ComponentPad*%
%ADD15R,1.800000X1.275000*%
%TD*%
%TA.AperFunction,ComponentPad*%
%ADD16C,3.000000*%
%TD*%
%TA.AperFunction,ComponentPad*%
%ADD17R,3.000000X3.000000*%
%TD*%
%TA.AperFunction,ComponentPad*%
%ADD18O,1.600000X1.600000*%
%TD*%
%TA.AperFunction,ComponentPad*%
%ADD19C,1.600000*%
%TD*%
%TA.AperFunction,ComponentPad*%
%ADD20O,2.200000X2.200000*%
%TD*%
%TA.AperFunction,ComponentPad*%
%ADD21R,2.200000X2.200000*%
%TD*%
%TA.AperFunction,ComponentPad*%
%ADD22R,1.600000X1.600000*%
%TD*%
%TA.AperFunction,ComponentPad*%
%ADD23O,1.905000X2.000000*%
%TD*%
%TA.AperFunction,ComponentPad*%
%ADD24R,1.905000X2.000000*%
%TD*%
%TA.AperFunction,ComponentPad*%
%ADD25C,6.000000*%
%TD*%
%TA.AperFunction,ComponentPad*%
%ADD26C,1.524000*%
%TD*%
%TA.AperFunction,ComponentPad*%
%ADD27R,1.524000X1.524000*%
%TD*%
%TA.AperFunction,ViaPad*%
%ADD28C,0.800000*%
%TD*%
%TA.AperFunction,Conductor*%
%ADD29C,0.250000*%
%TD*%
%TA.AperFunction,Conductor*%
%ADD30C,1.500000*%
%TD*%
%TA.AperFunction,Conductor*%
%ADD31C,0.254000*%
%TD*%
%TA.AperFunction,Conductor*%
%ADD32C,0.100000*%
%TD*%
G04 APERTURE END LIST*
D10*
%TO.P,Q5,2*%
%TO.N,/WW_SIGNAL*%
X118270000Y-91000000D03*
%TO.P,Q5,3*%
%TO.N,Net-(Q10-Pad1)*%
X119540000Y-91000000D03*
D11*
%TO.P,Q5,1*%
%TO.N,Earth*%
X117000000Y-91000000D03*
%TD*%
D10*
%TO.P,Q4,2*%
%TO.N,/CW_SIGNAL*%
X126270000Y-91000000D03*
%TO.P,Q4,3*%
%TO.N,Net-(Q4-Pad3)*%
X127540000Y-91000000D03*
D11*
%TO.P,Q4,1*%
%TO.N,Earth*%
X125000000Y-91000000D03*
%TD*%
D10*
%TO.P,Q3,2*%
%TO.N,/B_SIGNAL*%
X134270000Y-91000000D03*
%TO.P,Q3,3*%
%TO.N,Net-(Q3-Pad3)*%
X135540000Y-91000000D03*
D11*
%TO.P,Q3,1*%
%TO.N,Earth*%
X133000000Y-91000000D03*
%TD*%
D10*
%TO.P,Q2,2*%
%TO.N,/G_SIGNAL*%
X142000000Y-91000000D03*
%TO.P,Q2,3*%
%TO.N,Net-(Q2-Pad3)*%
X143270000Y-91000000D03*
D11*
%TO.P,Q2,1*%
%TO.N,Earth*%
X140730000Y-91000000D03*
%TD*%
D10*
%TO.P,Q1,2*%
%TO.N,/R_SIGNAL*%
X149770000Y-91000000D03*
%TO.P,Q1,3*%
%TO.N,Net-(Q1-Pad3)*%
X151040000Y-91000000D03*
D11*
%TO.P,Q1,1*%
%TO.N,Earth*%
X148500000Y-91000000D03*
%TD*%
D12*
%TO.P,J3,3*%
%TO.N,Net-(J3-Pad3)*%
X158420000Y-112000000D03*
%TO.P,J3,2*%
%TO.N,+5V*%
X160960000Y-112000000D03*
D13*
%TO.P,J3,1*%
%TO.N,Earth*%
X163500000Y-112000000D03*
%TD*%
D14*
%TO.P,U2,5*%
%TO.N,Earth*%
X94000000Y-96800000D03*
%TO.P,U2,4*%
%TO.N,Net-(R10-Pad1)*%
X94000000Y-95100000D03*
%TO.P,U2,3*%
%TO.N,Earth*%
X94000000Y-93400000D03*
%TO.P,U2,2*%
%TO.N,Net-(D4-Pad1)*%
X94000000Y-91700000D03*
D15*
%TO.P,U2,1*%
%TO.N,+24V*%
X94000000Y-90000000D03*
%TD*%
D16*
%TO.P,SW1,3*%
%TO.N,Net-(SW1-Pad3)*%
X100300000Y-111000000D03*
%TO.P,SW1,2*%
%TO.N,VDD*%
X105000000Y-111000000D03*
D17*
%TO.P,SW1,1*%
%TO.N,+24V*%
X109700000Y-111000000D03*
%TD*%
D18*
%TO.P,R10,2*%
%TO.N,Earth*%
X111620000Y-101500000D03*
D19*
%TO.P,R10,1*%
%TO.N,Net-(R10-Pad1)*%
X104000000Y-101500000D03*
%TD*%
D18*
%TO.P,R9,2*%
%TO.N,Net-(R10-Pad1)*%
X94000000Y-85120000D03*
D19*
%TO.P,R9,1*%
%TO.N,+5V*%
X94000000Y-77500000D03*
%TD*%
D16*
%TO.P,J1,2*%
%TO.N,VDD*%
X171000000Y-100920000D03*
D17*
%TO.P,J1,1*%
%TO.N,Earth*%
X171000000Y-106000000D03*
%TD*%
D20*
%TO.P,D4,2*%
%TO.N,Earth*%
X100620000Y-101500000D03*
D21*
%TO.P,D4,1*%
%TO.N,Net-(D4-Pad1)*%
X93000000Y-101500000D03*
%TD*%
D19*
%TO.P,C2,2*%
%TO.N,Earth*%
X94000000Y-70500000D03*
D22*
%TO.P,C2,1*%
%TO.N,+5V*%
X94000000Y-72500000D03*
%TD*%
D19*
%TO.P,C1,2*%
%TO.N,Earth*%
X145000000Y-112000000D03*
D22*
%TO.P,C1,1*%
%TO.N,+24V*%
X143000000Y-112000000D03*
%TD*%
D23*
%TO.P,Q8,3*%
%TO.N,Earth*%
X162080000Y-88000000D03*
%TO.P,Q8,2*%
%TO.N,/B_GND*%
X159540000Y-88000000D03*
D24*
%TO.P,Q8,1*%
%TO.N,Net-(Q3-Pad3)*%
X157000000Y-88000000D03*
%TD*%
D23*
%TO.P,Q7,3*%
%TO.N,Earth*%
X162080000Y-96500000D03*
%TO.P,Q7,2*%
%TO.N,/G_GND*%
X159540000Y-96500000D03*
D24*
%TO.P,Q7,1*%
%TO.N,Net-(Q2-Pad3)*%
X157000000Y-96500000D03*
%TD*%
D23*
%TO.P,Q10,3*%
%TO.N,Earth*%
X162040000Y-71000000D03*
%TO.P,Q10,2*%
%TO.N,/WW_GND*%
X159500000Y-71000000D03*
D24*
%TO.P,Q10,1*%
%TO.N,Net-(Q10-Pad1)*%
X156960000Y-71000000D03*
%TD*%
D23*
%TO.P,Q9,3*%
%TO.N,Earth*%
X162040000Y-79500000D03*
%TO.P,Q9,2*%
%TO.N,/CW_GND*%
X159500000Y-79500000D03*
D24*
%TO.P,Q9,1*%
%TO.N,Net-(Q4-Pad3)*%
X156960000Y-79500000D03*
%TD*%
D23*
%TO.P,Q6,3*%
%TO.N,Earth*%
X162080000Y-105000000D03*
%TO.P,Q6,2*%
%TO.N,/R_GND*%
X159540000Y-105000000D03*
D24*
%TO.P,Q6,1*%
%TO.N,Net-(Q1-Pad3)*%
X157000000Y-105000000D03*
%TD*%
D25*
%TO.P,REF\u002A\u002A,1*%
%TO.N,N/C*%
X152000000Y-64000000D03*
%TD*%
%TO.P,REF\u002A\u002A,1*%
%TO.N,N/C*%
X152000000Y-112000000D03*
%TD*%
%TO.P,REF\u002A\u002A,1*%
%TO.N,N/C*%
X94000000Y-112000000D03*
%TD*%
%TO.P,REF\u002A\u002A,1*%
%TO.N,N/C*%
X94000000Y-64000000D03*
%TD*%
D26*
%TO.P,U1,30*%
%TO.N,Net-(U1-Pad30)*%
X105440000Y-85860000D03*
D27*
%TO.P,U1,29*%
%TO.N,Earth*%
X107980000Y-85860000D03*
D26*
%TO.P,U1,28*%
%TO.N,N/C*%
X110520000Y-85860000D03*
%TO.P,U1,27*%
%TO.N,Net-(U1-Pad27)*%
X113060000Y-85860000D03*
%TO.P,U1,26*%
%TO.N,/WW_SIGNAL*%
X115600000Y-85860000D03*
%TO.P,U1,25*%
%TO.N,/CW_SIGNAL*%
X118140000Y-85860000D03*
%TO.P,U1,24*%
%TO.N,/B_SIGNAL*%
X120680000Y-85860000D03*
%TO.P,U1,23*%
%TO.N,/G_SIGNAL*%
X123220000Y-85860000D03*
D27*
%TO.P,U1,22*%
%TO.N,Earth*%
X125760000Y-85860000D03*
D26*
%TO.P,U1,21*%
%TO.N,Net-(U1-Pad21)*%
X128300000Y-85860000D03*
%TO.P,U1,20*%
%TO.N,Net-(U1-Pad20)*%
X130840000Y-85860000D03*
%TO.P,U1,19*%
%TO.N,Net-(U1-Pad19)*%
X133380000Y-85860000D03*
%TO.P,U1,18*%
%TO.N,/R_SIGNAL*%
X135920000Y-85860000D03*
%TO.P,U1,17*%
%TO.N,Net-(U1-Pad17)*%
X138460000Y-85860000D03*
%TO.P,U1,16*%
%TO.N,Net-(U1-Pad16)*%
X141000000Y-85860000D03*
%TO.P,U1,15*%
%TO.N,+5V*%
X105440000Y-63000000D03*
D27*
%TO.P,U1,14*%
%TO.N,Earth*%
X107980000Y-63000000D03*
D26*
%TO.P,U1,13*%
%TO.N,Net-(U1-Pad13)*%
X110520000Y-63000000D03*
%TO.P,U1,12*%
%TO.N,Net-(U1-Pad12)*%
X113060000Y-63000000D03*
%TO.P,U1,11*%
%TO.N,Net-(U1-Pad11)*%
X115600000Y-63000000D03*
D27*
%TO.P,U1,10*%
%TO.N,Earth*%
X118140000Y-63000000D03*
D26*
%TO.P,U1,9*%
%TO.N,Net-(U1-Pad9)*%
X120680000Y-63000000D03*
%TO.P,U1,8*%
%TO.N,Net-(U1-Pad8)*%
X123220000Y-63000000D03*
%TO.P,U1,7*%
%TO.N,Net-(U1-Pad7)*%
X125760000Y-63000000D03*
%TO.P,U1,6*%
%TO.N,Net-(U1-Pad6)*%
X128300000Y-63000000D03*
%TO.P,U1,5*%
%TO.N,Net-(U1-Pad5)*%
X130840000Y-63000000D03*
%TO.P,U1,4*%
%TO.N,Net-(U1-Pad4)*%
X133380000Y-63000000D03*
%TO.P,U1,3*%
%TO.N,Net-(U1-Pad3)*%
X135920000Y-63000000D03*
%TO.P,U1,2*%
%TO.N,Net-(U1-Pad2)*%
X138460000Y-63000000D03*
%TO.P,U1,1*%
%TO.N,Net-(U1-Pad1)*%
X141000000Y-63000000D03*
%TD*%
D18*
%TO.P,R8,2*%
%TO.N,+24V*%
X126000000Y-98380000D03*
D19*
%TO.P,R8,1*%
%TO.N,Net-(D3-Pad2)*%
X126000000Y-106000000D03*
%TD*%
D18*
%TO.P,R7,2*%
%TO.N,+5V*%
X121000000Y-98380000D03*
D19*
%TO.P,R7,1*%
%TO.N,Net-(D2-Pad2)*%
X121000000Y-106000000D03*
%TD*%
D18*
%TO.P,R6,2*%
%TO.N,VDD*%
X116000000Y-98380000D03*
D19*
%TO.P,R6,1*%
%TO.N,Net-(D1-Pad2)*%
X116000000Y-106000000D03*
%TD*%
D18*
%TO.P,R5,2*%
%TO.N,Net-(Q10-Pad1)*%
X131000000Y-98380000D03*
D19*
%TO.P,R5,1*%
%TO.N,+24V*%
X131000000Y-106000000D03*
%TD*%
D18*
%TO.P,R4,2*%
%TO.N,Net-(Q4-Pad3)*%
X136000000Y-98380000D03*
D19*
%TO.P,R4,1*%
%TO.N,+24V*%
X136000000Y-106000000D03*
%TD*%
D18*
%TO.P,R3,2*%
%TO.N,Net-(Q3-Pad3)*%
X141000000Y-98380000D03*
D19*
%TO.P,R3,1*%
%TO.N,+24V*%
X141000000Y-106000000D03*
%TD*%
D18*
%TO.P,R2,2*%
%TO.N,Net-(Q2-Pad3)*%
X146000000Y-98380000D03*
D19*
%TO.P,R2,1*%
%TO.N,+24V*%
X146000000Y-106000000D03*
%TD*%
D18*
%TO.P,R1,2*%
%TO.N,Net-(Q1-Pad3)*%
X151000000Y-98380000D03*
D19*
%TO.P,R1,1*%
%TO.N,+24V*%
X151000000Y-106000000D03*
%TD*%
D16*
%TO.P,J2,6*%
%TO.N,/WW_GND*%
X170925300Y-70330600D03*
%TO.P,J2,5*%
%TO.N,/CW_GND*%
X170925300Y-75410600D03*
%TO.P,J2,4*%
%TO.N,/B_GND*%
X170925300Y-80490600D03*
D17*
%TO.P,J2,1*%
%TO.N,+24V*%
X170925300Y-95730600D03*
D16*
%TO.P,J2,3*%
%TO.N,/G_GND*%
X170925300Y-85570600D03*
%TO.P,J2,2*%
%TO.N,/R_GND*%
X170925300Y-90650600D03*
%TD*%
D28*
%TO.N,Earth*%
X121000000Y-112000000D03*
X130000000Y-112000000D03*
X139000000Y-112000000D03*
%TD*%
D29*
%TO.N,/R_SIGNAL*%
X149770000Y-90909998D02*
X149770000Y-91500000D01*
X149730000Y-90500000D02*
X146230000Y-87000000D01*
X149730000Y-91500000D02*
X149730000Y-90500000D01*
X137060000Y-87000000D02*
X135920000Y-85860000D01*
X146230000Y-87000000D02*
X137060000Y-87000000D01*
D30*
%TO.N,VDD*%
X107950001Y-108049999D02*
X105000000Y-111000000D01*
X163685901Y-108049999D02*
X107950001Y-108049999D01*
X170925300Y-100810600D02*
X163685901Y-108049999D01*
D29*
%TO.N,/G_SIGNAL*%
X142000000Y-89000000D02*
X142000000Y-91000000D01*
X140450009Y-87450009D02*
X142000000Y-89000000D01*
X124810009Y-87450009D02*
X140450009Y-87450009D01*
X123220000Y-85860000D02*
X124810009Y-87450009D01*
%TO.N,/B_SIGNAL*%
X132170020Y-87900020D02*
X134270000Y-90000000D01*
X134270000Y-90000000D02*
X134270000Y-91000000D01*
X122720020Y-87900020D02*
X132170020Y-87900020D01*
X120680000Y-85860000D02*
X122720020Y-87900020D01*
%TO.N,/CW_SIGNAL*%
X126270000Y-90409998D02*
X126270000Y-91000000D01*
X124210032Y-88350030D02*
X126270000Y-90409998D01*
X120630030Y-88350030D02*
X124210032Y-88350030D01*
X118140000Y-85860000D02*
X120630030Y-88350030D01*
%TO.N,/WW_SIGNAL*%
X118270000Y-88530000D02*
X118270000Y-91000000D01*
X115600000Y-85860000D02*
X118270000Y-88530000D01*
%TO.N,Net-(R10-Pad1)*%
X95225010Y-86345010D02*
X94000000Y-85120000D01*
X95225010Y-93874990D02*
X95225010Y-86345010D01*
X94000000Y-95100000D02*
X95225010Y-93874990D01*
%TD*%
D31*
%TO.N,Earth*%
X150278182Y-60778705D02*
X149682823Y-61176511D01*
X149176511Y-61682823D01*
X148778705Y-62278182D01*
X148504691Y-62939710D01*
X148365000Y-63641984D01*
X148365000Y-64358016D01*
X148504691Y-65060290D01*
X148778705Y-65721818D01*
X149176511Y-66317177D01*
X149682823Y-66823489D01*
X150278182Y-67221295D01*
X150939710Y-67495309D01*
X151641984Y-67635000D01*
X152358016Y-67635000D01*
X153060290Y-67495309D01*
X153721818Y-67221295D01*
X154317177Y-66823489D01*
X154823489Y-66317177D01*
X155221295Y-65721818D01*
X155495309Y-65060290D01*
X155635000Y-64358016D01*
X155635000Y-63641984D01*
X155495309Y-62939710D01*
X155221295Y-62278182D01*
X154823489Y-61682823D01*
X154317177Y-61176511D01*
X153721818Y-60778705D01*
X153435239Y-60660000D01*
X170967722Y-60660000D01*
X171648126Y-60726714D01*
X172271572Y-60914943D01*
X172846579Y-61220681D01*
X173351247Y-61632279D01*
X173766362Y-62134067D01*
X174076105Y-62706924D01*
X174268682Y-63329039D01*
X174340000Y-64007584D01*
X174340001Y-111967711D01*
X174273286Y-112648126D01*
X174085057Y-113271570D01*
X173779323Y-113846573D01*
X173367721Y-114351248D01*
X172865933Y-114766362D01*
X172293077Y-115076104D01*
X171670961Y-115268682D01*
X170992417Y-115340000D01*
X153435239Y-115340000D01*
X153721818Y-115221295D01*
X154317177Y-114823489D01*
X154823489Y-114317177D01*
X155221295Y-113721818D01*
X155495309Y-113060290D01*
X155635000Y-112358016D01*
X155635000Y-111776320D01*
X156920000Y-111776320D01*
X156920000Y-112223679D01*
X156941705Y-112444050D01*
X157027476Y-112726801D01*
X157166762Y-112987386D01*
X157354208Y-113215792D01*
X157582613Y-113403238D01*
X157843198Y-113542524D01*
X158125949Y-113628295D01*
X158420000Y-113657257D01*
X158714050Y-113628295D01*
X158996801Y-113542524D01*
X159257386Y-113403238D01*
X159485792Y-113215792D01*
X159673238Y-112987387D01*
X159690000Y-112956027D01*
X159706762Y-112987386D01*
X159894208Y-113215792D01*
X160122613Y-113403238D01*
X160383198Y-113542524D01*
X160665949Y-113628295D01*
X160960000Y-113657257D01*
X161254050Y-113628295D01*
X161536801Y-113542524D01*
X161797386Y-113403238D01*
X162025792Y-113215792D01*
X162030570Y-113209970D01*
X162045498Y-113259180D01*
X162104463Y-113369494D01*
X162183815Y-113466185D01*
X162280506Y-113545537D01*
X162390820Y-113604502D01*
X162510518Y-113640812D01*
X162635000Y-113653072D01*
X163214250Y-113650000D01*
X163373000Y-113491250D01*
X163373000Y-112127000D01*
X163627000Y-112127000D01*
X163627000Y-113491250D01*
X163785750Y-113650000D01*
X164365000Y-113653072D01*
X164489482Y-113640812D01*
X164609180Y-113604502D01*
X164719494Y-113545537D01*
X164816185Y-113466185D01*
X164895537Y-113369494D01*
X164954502Y-113259180D01*
X164990812Y-113139482D01*
X165003072Y-113015000D01*
X165000000Y-112285750D01*
X164841250Y-112127000D01*
X163627000Y-112127000D01*
X163373000Y-112127000D01*
X163353000Y-112127000D01*
X163353000Y-111873000D01*
X163373000Y-111873000D01*
X163373000Y-110508750D01*
X163627000Y-110508750D01*
X163627000Y-111873000D01*
X164841250Y-111873000D01*
X165000000Y-111714250D01*
X165003072Y-110985000D01*
X164990812Y-110860518D01*
X164954502Y-110740820D01*
X164895537Y-110630506D01*
X164816185Y-110533815D01*
X164719494Y-110454463D01*
X164609180Y-110395498D01*
X164489482Y-110359188D01*
X164365000Y-110346928D01*
X163785750Y-110350000D01*
X163627000Y-110508750D01*
X163373000Y-110508750D01*
X163214250Y-110350000D01*
X162635000Y-110346928D01*
X162510518Y-110359188D01*
X162390820Y-110395498D01*
X162280506Y-110454463D01*
X162183815Y-110533815D01*
X162104463Y-110630506D01*
X162045498Y-110740820D01*
X162030570Y-110790030D01*
X162025792Y-110784208D01*
X161797387Y-110596762D01*
X161536802Y-110457476D01*
X161254051Y-110371705D01*
X160960000Y-110342743D01*
X160665950Y-110371705D01*
X160383199Y-110457476D01*
X160122614Y-110596762D01*
X159894208Y-110784208D01*
X159706762Y-111012613D01*
X159690000Y-111043972D01*
X159673238Y-111012613D01*
X159485792Y-110784208D01*
X159257387Y-110596762D01*
X158996802Y-110457476D01*
X158714051Y-110371705D01*
X158420000Y-110342743D01*
X158125950Y-110371705D01*
X157843199Y-110457476D01*
X157582614Y-110596762D01*
X157354208Y-110784208D01*
X157166762Y-111012613D01*
X157027476Y-111273198D01*
X156941705Y-111555949D01*
X156920000Y-111776320D01*
X155635000Y-111776320D01*
X155635000Y-111641984D01*
X155495309Y-110939710D01*
X155221295Y-110278182D01*
X154823489Y-109682823D01*
X154575665Y-109434999D01*
X163617872Y-109434999D01*
X163685901Y-109441699D01*
X163753930Y-109434999D01*
X163753938Y-109434999D01*
X163957408Y-109414959D01*
X164218482Y-109335763D01*
X164459089Y-109207156D01*
X164669982Y-109034080D01*
X164713355Y-108981230D01*
X166194585Y-107500000D01*
X168861928Y-107500000D01*
X168874188Y-107624482D01*
X168910498Y-107744180D01*
X168969463Y-107854494D01*
X169048815Y-107951185D01*
X169145506Y-108030537D01*
X169255820Y-108089502D01*
X169375518Y-108125812D01*
X169500000Y-108138072D01*
X170714250Y-108135000D01*
X170873000Y-107976250D01*
X170873000Y-106127000D01*
X171127000Y-106127000D01*
X171127000Y-107976250D01*
X171285750Y-108135000D01*
X172500000Y-108138072D01*
X172624482Y-108125812D01*
X172744180Y-108089502D01*
X172854494Y-108030537D01*
X172951185Y-107951185D01*
X173030537Y-107854494D01*
X173089502Y-107744180D01*
X173125812Y-107624482D01*
X173138072Y-107500000D01*
X173135000Y-106285750D01*
X172976250Y-106127000D01*
X171127000Y-106127000D01*
X170873000Y-106127000D01*
X169023750Y-106127000D01*
X168865000Y-106285750D01*
X168861928Y-107500000D01*
X166194585Y-107500000D01*
X168862767Y-104831818D01*
X168865000Y-105714250D01*
X169023750Y-105873000D01*
X170873000Y-105873000D01*
X170873000Y-104023750D01*
X171127000Y-104023750D01*
X171127000Y-105873000D01*
X172976250Y-105873000D01*
X173135000Y-105714250D01*
X173138072Y-104500000D01*
X173125812Y-104375518D01*
X173089502Y-104255820D01*
X173030537Y-104145506D01*
X172951185Y-104048815D01*
X172854494Y-103969463D01*
X172744180Y-103910498D01*
X172624482Y-103874188D01*
X172500000Y-103861928D01*
X171285750Y-103865000D01*
X171127000Y-104023750D01*
X170873000Y-104023750D01*
X170714250Y-103865000D01*
X169831818Y-103862767D01*
X170664495Y-103030091D01*
X170789721Y-103055000D01*
X171210279Y-103055000D01*
X171622756Y-102972953D01*
X172011302Y-102812012D01*
X172360983Y-102578363D01*
X172658363Y-102280983D01*
X172892012Y-101931302D01*
X173052953Y-101542756D01*
X173135000Y-101130279D01*
X173135000Y-100709721D01*
X173052953Y-100297244D01*
X172892012Y-99908698D01*
X172658363Y-99559017D01*
X172360983Y-99261637D01*
X172011302Y-99027988D01*
X171622756Y-98867047D01*
X171210279Y-98785000D01*
X170789721Y-98785000D01*
X170377244Y-98867047D01*
X169988698Y-99027988D01*
X169639017Y-99261637D01*
X169341637Y-99559017D01*
X169107988Y-99908698D01*
X168947047Y-100297244D01*
X168865000Y-100709721D01*
X168865000Y-100912214D01*
X163112216Y-106664999D01*
X152277781Y-106664999D01*
X152379853Y-106418574D01*
X152435000Y-106141335D01*
X152435000Y-105858665D01*
X152379853Y-105581426D01*
X152271680Y-105320273D01*
X152114637Y-105085241D01*
X151914759Y-104885363D01*
X151679727Y-104728320D01*
X151418574Y-104620147D01*
X151141335Y-104565000D01*
X150858665Y-104565000D01*
X150581426Y-104620147D01*
X150320273Y-104728320D01*
X150085241Y-104885363D01*
X149885363Y-105085241D01*
X149728320Y-105320273D01*
X149620147Y-105581426D01*
X149565000Y-105858665D01*
X149565000Y-106141335D01*
X149620147Y-106418574D01*
X149722219Y-106664999D01*
X147277781Y-106664999D01*
X147379853Y-106418574D01*
X147435000Y-106141335D01*
X147435000Y-105858665D01*
X147379853Y-105581426D01*
X147271680Y-105320273D01*
X147114637Y-105085241D01*
X146914759Y-104885363D01*
X146679727Y-104728320D01*
X146418574Y-104620147D01*
X146141335Y-104565000D01*
X145858665Y-104565000D01*
X145581426Y-104620147D01*
X145320273Y-104728320D01*
X145085241Y-104885363D01*
X144885363Y-105085241D01*
X144728320Y-105320273D01*
X144620147Y-105581426D01*
X144565000Y-105858665D01*
X144565000Y-106141335D01*
X144620147Y-106418574D01*
X144722219Y-106664999D01*
X142277781Y-106664999D01*
X142379853Y-106418574D01*
X142435000Y-106141335D01*
X142435000Y-105858665D01*
X142379853Y-105581426D01*
X142271680Y-105320273D01*
X142114637Y-105085241D01*
X141914759Y-104885363D01*
X141679727Y-104728320D01*
X141418574Y-104620147D01*
X141141335Y-104565000D01*
X140858665Y-104565000D01*
X140581426Y-104620147D01*
X140320273Y-104728320D01*
X140085241Y-104885363D01*
X139885363Y-105085241D01*
X139728320Y-105320273D01*
X139620147Y-105581426D01*
X139565000Y-105858665D01*
X139565000Y-106141335D01*
X139620147Y-106418574D01*
X139722219Y-106664999D01*
X137277781Y-106664999D01*
X137379853Y-106418574D01*
X137435000Y-106141335D01*
X137435000Y-105858665D01*
X137379853Y-105581426D01*
X137271680Y-105320273D01*
X137114637Y-105085241D01*
X136914759Y-104885363D01*
X136679727Y-104728320D01*
X136418574Y-104620147D01*
X136141335Y-104565000D01*
X135858665Y-104565000D01*
X135581426Y-104620147D01*
X135320273Y-104728320D01*
X135085241Y-104885363D01*
X134885363Y-105085241D01*
X134728320Y-105320273D01*
X134620147Y-105581426D01*
X134565000Y-105858665D01*
X134565000Y-106141335D01*
X134620147Y-106418574D01*
X134722219Y-106664999D01*
X132277781Y-106664999D01*
X132379853Y-106418574D01*
X132435000Y-106141335D01*
X132435000Y-105858665D01*
X132379853Y-105581426D01*
X132271680Y-105320273D01*
X132114637Y-105085241D01*
X131914759Y-104885363D01*
X131679727Y-104728320D01*
X131418574Y-104620147D01*
X131141335Y-104565000D01*
X130858665Y-104565000D01*
X130581426Y-104620147D01*
X130320273Y-104728320D01*
X130085241Y-104885363D01*
X129885363Y-105085241D01*
X129728320Y-105320273D01*
X129620147Y-105581426D01*
X129565000Y-105858665D01*
X129565000Y-106141335D01*
X129620147Y-106418574D01*
X129722219Y-106664999D01*
X127277781Y-106664999D01*
X127379853Y-106418574D01*
X127435000Y-106141335D01*
X127435000Y-105858665D01*
X127379853Y-105581426D01*
X127271680Y-105320273D01*
X127114637Y-105085241D01*
X126914759Y-104885363D01*
X126679727Y-104728320D01*
X126418574Y-104620147D01*
X126141335Y-104565000D01*
X125858665Y-104565000D01*
X125581426Y-104620147D01*
X125320273Y-104728320D01*
X125085241Y-104885363D01*
X124885363Y-105085241D01*
X124728320Y-105320273D01*
X124620147Y-105581426D01*
X124565000Y-105858665D01*
X124565000Y-106141335D01*
X124620147Y-106418574D01*
X124722219Y-106664999D01*
X122277781Y-106664999D01*
X122379853Y-106418574D01*
X122435000Y-106141335D01*
X122435000Y-105858665D01*
X122379853Y-105581426D01*
X122271680Y-105320273D01*
X122114637Y-105085241D01*
X121914759Y-104885363D01*
X121679727Y-104728320D01*
X121418574Y-104620147D01*
X121141335Y-104565000D01*
X120858665Y-104565000D01*
X120581426Y-104620147D01*
X120320273Y-104728320D01*
X120085241Y-104885363D01*
X119885363Y-105085241D01*
X119728320Y-105320273D01*
X119620147Y-105581426D01*
X119565000Y-105858665D01*
X119565000Y-106141335D01*
X119620147Y-106418574D01*
X119722219Y-106664999D01*
X117277781Y-106664999D01*
X117379853Y-106418574D01*
X117435000Y-106141335D01*
X117435000Y-105858665D01*
X117379853Y-105581426D01*
X117271680Y-105320273D01*
X117114637Y-105085241D01*
X116914759Y-104885363D01*
X116679727Y-104728320D01*
X116418574Y-104620147D01*
X116141335Y-104565000D01*
X115858665Y-104565000D01*
X115581426Y-104620147D01*
X115320273Y-104728320D01*
X115085241Y-104885363D01*
X114885363Y-105085241D01*
X114728320Y-105320273D01*
X114620147Y-105581426D01*
X114565000Y-105858665D01*
X114565000Y-106141335D01*
X114620147Y-106418574D01*
X114722219Y-106664999D01*
X108018027Y-106664999D01*
X107950000Y-106658299D01*
X107881973Y-106664999D01*
X107881964Y-106664999D01*
X107678494Y-106685039D01*
X107417420Y-106764235D01*
X107176813Y-106892842D01*
X107176811Y-106892843D01*
X107176812Y-106892843D01*
X107018767Y-107022547D01*
X107018765Y-107022549D01*
X106965920Y-107065918D01*
X106922551Y-107118763D01*
X105176315Y-108865000D01*
X104789721Y-108865000D01*
X104377244Y-108947047D01*
X103988698Y-109107988D01*
X103639017Y-109341637D01*
X103341637Y-109639017D01*
X103107988Y-109988698D01*
X102947047Y-110377244D01*
X102865000Y-110789721D01*
X102865000Y-111210279D01*
X102947047Y-111622756D01*
X103107988Y-112011302D01*
X103341637Y-112360983D01*
X103639017Y-112658363D01*
X103988698Y-112892012D01*
X104377244Y-113052953D01*
X104789721Y-113135000D01*
X105210279Y-113135000D01*
X105622756Y-113052953D01*
X106011302Y-112892012D01*
X106360983Y-112658363D01*
X106658363Y-112360983D01*
X106892012Y-112011302D01*
X107052953Y-111622756D01*
X107135000Y-111210279D01*
X107135000Y-110823685D01*
X107561928Y-110396758D01*
X107561928Y-112500000D01*
X107574188Y-112624482D01*
X107610498Y-112744180D01*
X107669463Y-112854494D01*
X107748815Y-112951185D01*
X107845506Y-113030537D01*
X107955820Y-113089502D01*
X108075518Y-113125812D01*
X108200000Y-113138072D01*
X111200000Y-113138072D01*
X111324482Y-113125812D01*
X111444180Y-113089502D01*
X111554494Y-113030537D01*
X111651185Y-112951185D01*
X111730537Y-112854494D01*
X111789502Y-112744180D01*
X111825812Y-112624482D01*
X111838072Y-112500000D01*
X111838072Y-111200000D01*
X141561928Y-111200000D01*
X141561928Y-112800000D01*
X141574188Y-112924482D01*
X141610498Y-113044180D01*
X141669463Y-113154494D01*
X141748815Y-113251185D01*
X141845506Y-113330537D01*
X141955820Y-113389502D01*
X142075518Y-113425812D01*
X142200000Y-113438072D01*
X143800000Y-113438072D01*
X143924482Y-113425812D01*
X144044180Y-113389502D01*
X144154494Y-113330537D01*
X144251185Y-113251185D01*
X144261807Y-113238242D01*
X144513996Y-113357571D01*
X144788184Y-113426300D01*
X145070512Y-113440217D01*
X145350130Y-113398787D01*
X145616292Y-113303603D01*
X145741514Y-113236671D01*
X145813097Y-112992702D01*
X145000000Y-112179605D01*
X144985858Y-112193748D01*
X144806253Y-112014143D01*
X144820395Y-112000000D01*
X145179605Y-112000000D01*
X145992702Y-112813097D01*
X146236671Y-112741514D01*
X146357571Y-112486004D01*
X146426300Y-112211816D01*
X146440217Y-111929488D01*
X146398787Y-111649870D01*
X146303603Y-111383708D01*
X146236671Y-111258486D01*
X145992702Y-111186903D01*
X145179605Y-112000000D01*
X144820395Y-112000000D01*
X144806253Y-111985858D01*
X144985858Y-111806253D01*
X145000000Y-111820395D01*
X145813097Y-111007298D01*
X145741514Y-110763329D01*
X145486004Y-110642429D01*
X145211816Y-110573700D01*
X144929488Y-110559783D01*
X144649870Y-110601213D01*
X144383708Y-110696397D01*
X144261691Y-110761616D01*
X144251185Y-110748815D01*
X144154494Y-110669463D01*
X144044180Y-110610498D01*
X143924482Y-110574188D01*
X143800000Y-110561928D01*
X142200000Y-110561928D01*
X142075518Y-110574188D01*
X141955820Y-110610498D01*
X141845506Y-110669463D01*
X141748815Y-110748815D01*
X141669463Y-110845506D01*
X141610498Y-110955820D01*
X141574188Y-111075518D01*
X141561928Y-111200000D01*
X111838072Y-111200000D01*
X111838072Y-109500000D01*
X111831670Y-109434999D01*
X149424335Y-109434999D01*
X149176511Y-109682823D01*
X148778705Y-110278182D01*
X148504691Y-110939710D01*
X148365000Y-111641984D01*
X148365000Y-112358016D01*
X148504691Y-113060290D01*
X148778705Y-113721818D01*
X149176511Y-114317177D01*
X149682823Y-114823489D01*
X150278182Y-115221295D01*
X150564761Y-115340000D01*
X95435239Y-115340000D01*
X95721818Y-115221295D01*
X96317177Y-114823489D01*
X96823489Y-114317177D01*
X97221295Y-113721818D01*
X97495309Y-113060290D01*
X97635000Y-112358016D01*
X97635000Y-111641984D01*
X97495309Y-110939710D01*
X97433182Y-110789721D01*
X98165000Y-110789721D01*
X98165000Y-111210279D01*
X98247047Y-111622756D01*
X98407988Y-112011302D01*
X98641637Y-112360983D01*
X98939017Y-112658363D01*
X99288698Y-112892012D01*
X99677244Y-113052953D01*
X100089721Y-113135000D01*
X100510279Y-113135000D01*
X100922756Y-113052953D01*
X101311302Y-112892012D01*
X101660983Y-112658363D01*
X101958363Y-112360983D01*
X102192012Y-112011302D01*
X102352953Y-111622756D01*
X102435000Y-111210279D01*
X102435000Y-110789721D01*
X102352953Y-110377244D01*
X102192012Y-109988698D01*
X101958363Y-109639017D01*
X101660983Y-109341637D01*
X101311302Y-109107988D01*
X100922756Y-108947047D01*
X100510279Y-108865000D01*
X100089721Y-108865000D01*
X99677244Y-108947047D01*
X99288698Y-109107988D01*
X98939017Y-109341637D01*
X98641637Y-109639017D01*
X98407988Y-109988698D01*
X98247047Y-110377244D01*
X98165000Y-110789721D01*
X97433182Y-110789721D01*
X97221295Y-110278182D01*
X96823489Y-109682823D01*
X96317177Y-109176511D01*
X95721818Y-108778705D01*
X95060290Y-108504691D01*
X94358016Y-108365000D01*
X93641984Y-108365000D01*
X92939710Y-108504691D01*
X92278182Y-108778705D01*
X91682823Y-109176511D01*
X91176511Y-109682823D01*
X90778705Y-110278182D01*
X90660000Y-110564761D01*
X90660000Y-104000000D01*
X155409428Y-104000000D01*
X155409428Y-106000000D01*
X155421688Y-106124482D01*
X155457998Y-106244180D01*
X155516963Y-106354494D01*
X155596315Y-106451185D01*
X155693006Y-106530537D01*
X155803320Y-106589502D01*
X155923018Y-106625812D01*
X156047500Y-106638072D01*
X157952500Y-106638072D01*
X158076982Y-106625812D01*
X158196680Y-106589502D01*
X158306994Y-106530537D01*
X158403685Y-106451185D01*
X158483037Y-106354494D01*
X158527905Y-106270553D01*
X158653766Y-106373845D01*
X158929552Y-106521255D01*
X159228797Y-106612030D01*
X159540000Y-106642681D01*
X159851204Y-106612030D01*
X160150449Y-106521255D01*
X160426235Y-106373845D01*
X160667963Y-106175463D01*
X160815162Y-105996100D01*
X160970563Y-106181315D01*
X161213077Y-106375969D01*
X161488906Y-106519571D01*
X161707020Y-106590563D01*
X161953000Y-106470594D01*
X161953000Y-105127000D01*
X162207000Y-105127000D01*
X162207000Y-106470594D01*
X162452980Y-106590563D01*
X162671094Y-106519571D01*
X162946923Y-106375969D01*
X163189437Y-106181315D01*
X163389316Y-105943089D01*
X163538879Y-105670446D01*
X163632378Y-105373863D01*
X163505570Y-105127000D01*
X162207000Y-105127000D01*
X161953000Y-105127000D01*
X161933000Y-105127000D01*
X161933000Y-104873000D01*
X161953000Y-104873000D01*
X161953000Y-103529406D01*
X162207000Y-103529406D01*
X162207000Y-104873000D01*
X163505570Y-104873000D01*
X163632378Y-104626137D01*
X163538879Y-104329554D01*
X163389316Y-104056911D01*
X163189437Y-103818685D01*
X162946923Y-103624031D01*
X162671094Y-103480429D01*
X162452980Y-103409437D01*
X162207000Y-103529406D01*
X161953000Y-103529406D01*
X161707020Y-103409437D01*
X161488906Y-103480429D01*
X161213077Y-103624031D01*
X160970563Y-103818685D01*
X160815163Y-104003899D01*
X160667963Y-103824537D01*
X160426234Y-103626155D01*
X160150448Y-103478745D01*
X159851203Y-103387970D01*
X159540000Y-103357319D01*
X159228796Y-103387970D01*
X158929551Y-103478745D01*
X158653765Y-103626155D01*
X158527905Y-103729446D01*
X158483037Y-103645506D01*
X158403685Y-103548815D01*
X158306994Y-103469463D01*
X158196680Y-103410498D01*
X158076982Y-103374188D01*
X157952500Y-103361928D01*
X156047500Y-103361928D01*
X155923018Y-103374188D01*
X155803320Y-103410498D01*
X155693006Y-103469463D01*
X155596315Y-103548815D01*
X155516963Y-103645506D01*
X155457998Y-103755820D01*
X155421688Y-103875518D01*
X155409428Y-104000000D01*
X90660000Y-104000000D01*
X90660000Y-100400000D01*
X91261928Y-100400000D01*
X91261928Y-102600000D01*
X91274188Y-102724482D01*
X91310498Y-102844180D01*
X91369463Y-102954494D01*
X91448815Y-103051185D01*
X91545506Y-103130537D01*
X91655820Y-103189502D01*
X91775518Y-103225812D01*
X91900000Y-103238072D01*
X94100000Y-103238072D01*
X94224482Y-103225812D01*
X94344180Y-103189502D01*
X94454494Y-103130537D01*
X94551185Y-103051185D01*
X94630537Y-102954494D01*
X94689502Y-102844180D01*
X94725812Y-102724482D01*
X94738072Y-102600000D01*
X94738072Y-101896122D01*
X98930825Y-101896122D01*
X98995425Y-102109094D01*
X99145469Y-102414329D01*
X99352178Y-102684427D01*
X99607609Y-102909008D01*
X99901946Y-103079442D01*
X100223877Y-103189179D01*
X100493000Y-103071600D01*
X100493000Y-101627000D01*
X100747000Y-101627000D01*
X100747000Y-103071600D01*
X101016123Y-103189179D01*
X101338054Y-103079442D01*
X101632391Y-102909008D01*
X101887822Y-102684427D01*
X102094531Y-102414329D01*
X102244575Y-102109094D01*
X102309175Y-101896122D01*
X102191125Y-101627000D01*
X100747000Y-101627000D01*
X100493000Y-101627000D01*
X99048875Y-101627000D01*
X98930825Y-101896122D01*
X94738072Y-101896122D01*
X94738072Y-101103878D01*
X98930825Y-101103878D01*
X99048875Y-101373000D01*
X100493000Y-101373000D01*
X100493000Y-99928400D01*
X100747000Y-99928400D01*
X100747000Y-101373000D01*
X102191125Y-101373000D01*
X102197413Y-101358665D01*
X102565000Y-101358665D01*
X102565000Y-101641335D01*
X102620147Y-101918574D01*
X102728320Y-102179727D01*
X102885363Y-102414759D01*
X103085241Y-102614637D01*
X103320273Y-102771680D01*
X103581426Y-102879853D01*
X103858665Y-102935000D01*
X104141335Y-102935000D01*
X104418574Y-102879853D01*
X104679727Y-102771680D01*
X104914759Y-102614637D01*
X105114637Y-102414759D01*
X105271680Y-102179727D01*
X105379853Y-101918574D01*
X105393684Y-101849039D01*
X110228096Y-101849039D01*
X110268754Y-101983087D01*
X110388963Y-102237420D01*
X110556481Y-102463414D01*
X110764869Y-102652385D01*
X111006119Y-102797070D01*
X111270960Y-102891909D01*
X111493000Y-102770624D01*
X111493000Y-101627000D01*
X111747000Y-101627000D01*
X111747000Y-102770624D01*
X111969040Y-102891909D01*
X112233881Y-102797070D01*
X112475131Y-102652385D01*
X112683519Y-102463414D01*
X112851037Y-102237420D01*
X112971246Y-101983087D01*
X113011904Y-101849039D01*
X112889915Y-101627000D01*
X111747000Y-101627000D01*
X111493000Y-101627000D01*
X110350085Y-101627000D01*
X110228096Y-101849039D01*
X105393684Y-101849039D01*
X105435000Y-101641335D01*
X105435000Y-101358665D01*
X105393685Y-101150961D01*
X110228096Y-101150961D01*
X110350085Y-101373000D01*
X111493000Y-101373000D01*
X111493000Y-100229376D01*
X111747000Y-100229376D01*
X111747000Y-101373000D01*
X112889915Y-101373000D01*
X113011904Y-101150961D01*
X112971246Y-101016913D01*
X112851037Y-100762580D01*
X112683519Y-100536586D01*
X112475131Y-100347615D01*
X112233881Y-100202930D01*
X111969040Y-100108091D01*
X111747000Y-100229376D01*
X111493000Y-100229376D01*
X111270960Y-100108091D01*
X111006119Y-100202930D01*
X110764869Y-100347615D01*
X110556481Y-100536586D01*
X110388963Y-100762580D01*
X110268754Y-101016913D01*
X110228096Y-101150961D01*
X105393685Y-101150961D01*
X105379853Y-101081426D01*
X105271680Y-100820273D01*
X105114637Y-100585241D01*
X104914759Y-100385363D01*
X104679727Y-100228320D01*
X104418574Y-100120147D01*
X104141335Y-100065000D01*
X103858665Y-100065000D01*
X103581426Y-100120147D01*
X103320273Y-100228320D01*
X103085241Y-100385363D01*
X102885363Y-100585241D01*
X102728320Y-100820273D01*
X102620147Y-101081426D01*
X102565000Y-101358665D01*
X102197413Y-101358665D01*
X102309175Y-101103878D01*
X102244575Y-100890906D01*
X102094531Y-100585671D01*
X101887822Y-100315573D01*
X101632391Y-100090992D01*
X101338054Y-99920558D01*
X101016123Y-99810821D01*
X100747000Y-99928400D01*
X100493000Y-99928400D01*
X100223877Y-99810821D01*
X99901946Y-99920558D01*
X99607609Y-100090992D01*
X99352178Y-100315573D01*
X99145469Y-100585671D01*
X98995425Y-100890906D01*
X98930825Y-101103878D01*
X94738072Y-101103878D01*
X94738072Y-100400000D01*
X94725812Y-100275518D01*
X94689502Y-100155820D01*
X94630537Y-100045506D01*
X94551185Y-99948815D01*
X94454494Y-99869463D01*
X94344180Y-99810498D01*
X94224482Y-99774188D01*
X94100000Y-99761928D01*
X91900000Y-99761928D01*
X91775518Y-99774188D01*
X91655820Y-99810498D01*
X91545506Y-99869463D01*
X91448815Y-99948815D01*
X91369463Y-100045506D01*
X91310498Y-100155820D01*
X91274188Y-100275518D01*
X91261928Y-100400000D01*
X90660000Y-100400000D01*
X90660000Y-98238665D01*
X114565000Y-98238665D01*
X114565000Y-98521335D01*
X114620147Y-98798574D01*
X114728320Y-99059727D01*
X114885363Y-99294759D01*
X115085241Y-99494637D01*
X115320273Y-99651680D01*
X115581426Y-99759853D01*
X115858665Y-99815000D01*
X116141335Y-99815000D01*
X116418574Y-99759853D01*
X116679727Y-99651680D01*
X116914759Y-99494637D01*
X117114637Y-99294759D01*
X117271680Y-99059727D01*
X117379853Y-98798574D01*
X117435000Y-98521335D01*
X117435000Y-98238665D01*
X119565000Y-98238665D01*
X119565000Y-98521335D01*
X119620147Y-98798574D01*
X119728320Y-99059727D01*
X119885363Y-99294759D01*
X120085241Y-99494637D01*
X120320273Y-99651680D01*
X120581426Y-99759853D01*
X120858665Y-99815000D01*
X121141335Y-99815000D01*
X121418574Y-99759853D01*
X121679727Y-99651680D01*
X121914759Y-99494637D01*
X122114637Y-99294759D01*
X122271680Y-99059727D01*
X122379853Y-98798574D01*
X122435000Y-98521335D01*
X122435000Y-98238665D01*
X124565000Y-98238665D01*
X124565000Y-98521335D01*
X124620147Y-98798574D01*
X124728320Y-99059727D01*
X124885363Y-99294759D01*
X125085241Y-99494637D01*
X125320273Y-99651680D01*
X125581426Y-99759853D01*
X125858665Y-99815000D01*
X126141335Y-99815000D01*
X126418574Y-99759853D01*
X126679727Y-99651680D01*
X126914759Y-99494637D01*
X127114637Y-99294759D01*
X127271680Y-99059727D01*
X127379853Y-98798574D01*
X127435000Y-98521335D01*
X127435000Y-98238665D01*
X129565000Y-98238665D01*
X129565000Y-98521335D01*
X129620147Y-98798574D01*
X129728320Y-99059727D01*
X129885363Y-99294759D01*
X130085241Y-99494637D01*
X130320273Y-99651680D01*
X130581426Y-99759853D01*
X130858665Y-99815000D01*
X131141335Y-99815000D01*
X131418574Y-99759853D01*
X131679727Y-99651680D01*
X131914759Y-99494637D01*
X132114637Y-99294759D01*
X132271680Y-99059727D01*
X132379853Y-98798574D01*
X132435000Y-98521335D01*
X132435000Y-98238665D01*
X134565000Y-98238665D01*
X134565000Y-98521335D01*
X134620147Y-98798574D01*
X134728320Y-99059727D01*
X134885363Y-99294759D01*
X135085241Y-99494637D01*
X135320273Y-99651680D01*
X135581426Y-99759853D01*
X135858665Y-99815000D01*
X136141335Y-99815000D01*
X136418574Y-99759853D01*
X136679727Y-99651680D01*
X136914759Y-99494637D01*
X137114637Y-99294759D01*
X137271680Y-99059727D01*
X137379853Y-98798574D01*
X137435000Y-98521335D01*
X137435000Y-98238665D01*
X139565000Y-98238665D01*
X139565000Y-98521335D01*
X139620147Y-98798574D01*
X139728320Y-99059727D01*
X139885363Y-99294759D01*
X140085241Y-99494637D01*
X140320273Y-99651680D01*
X140581426Y-99759853D01*
X140858665Y-99815000D01*
X141141335Y-99815000D01*
X141418574Y-99759853D01*
X141679727Y-99651680D01*
X141914759Y-99494637D01*
X142114637Y-99294759D01*
X142271680Y-99059727D01*
X142379853Y-98798574D01*
X142435000Y-98521335D01*
X142435000Y-98238665D01*
X144565000Y-98238665D01*
X144565000Y-98521335D01*
X144620147Y-98798574D01*
X144728320Y-99059727D01*
X144885363Y-99294759D01*
X145085241Y-99494637D01*
X145320273Y-99651680D01*
X145581426Y-99759853D01*
X145858665Y-99815000D01*
X146141335Y-99815000D01*
X146418574Y-99759853D01*
X146679727Y-99651680D01*
X146914759Y-99494637D01*
X147114637Y-99294759D01*
X147271680Y-99059727D01*
X147379853Y-98798574D01*
X147435000Y-98521335D01*
X147435000Y-98238665D01*
X149565000Y-98238665D01*
X149565000Y-98521335D01*
X149620147Y-98798574D01*
X149728320Y-99059727D01*
X149885363Y-99294759D01*
X150085241Y-99494637D01*
X150320273Y-99651680D01*
X150581426Y-99759853D01*
X150858665Y-99815000D01*
X151141335Y-99815000D01*
X151418574Y-99759853D01*
X151679727Y-99651680D01*
X151914759Y-99494637D01*
X152114637Y-99294759D01*
X152271680Y-99059727D01*
X152379853Y-98798574D01*
X152435000Y-98521335D01*
X152435000Y-98238665D01*
X152379853Y-97961426D01*
X152271680Y-97700273D01*
X152114637Y-97465241D01*
X151914759Y-97265363D01*
X151679727Y-97108320D01*
X151418574Y-97000147D01*
X151141335Y-96945000D01*
X150858665Y-96945000D01*
X150581426Y-97000147D01*
X150320273Y-97108320D01*
X150085241Y-97265363D01*
X149885363Y-97465241D01*
X149728320Y-97700273D01*
X149620147Y-97961426D01*
X149565000Y-98238665D01*
X147435000Y-98238665D01*
X147379853Y-97961426D01*
X147271680Y-97700273D01*
X147114637Y-97465241D01*
X146914759Y-97265363D01*
X146679727Y-97108320D01*
X146418574Y-97000147D01*
X146141335Y-96945000D01*
X145858665Y-96945000D01*
X145581426Y-97000147D01*
X145320273Y-97108320D01*
X145085241Y-97265363D01*
X144885363Y-97465241D01*
X144728320Y-97700273D01*
X144620147Y-97961426D01*
X144565000Y-98238665D01*
X142435000Y-98238665D01*
X142379853Y-97961426D01*
X142271680Y-97700273D01*
X142114637Y-97465241D01*
X141914759Y-97265363D01*
X141679727Y-97108320D01*
X141418574Y-97000147D01*
X141141335Y-96945000D01*
X140858665Y-96945000D01*
X140581426Y-97000147D01*
X140320273Y-97108320D01*
X140085241Y-97265363D01*
X139885363Y-97465241D01*
X139728320Y-97700273D01*
X139620147Y-97961426D01*
X139565000Y-98238665D01*
X137435000Y-98238665D01*
X137379853Y-97961426D01*
X137271680Y-97700273D01*
X137114637Y-97465241D01*
X136914759Y-97265363D01*
X136679727Y-97108320D01*
X136418574Y-97000147D01*
X136141335Y-96945000D01*
X135858665Y-96945000D01*
X135581426Y-97000147D01*
X135320273Y-97108320D01*
X135085241Y-97265363D01*
X134885363Y-97465241D01*
X134728320Y-97700273D01*
X134620147Y-97961426D01*
X134565000Y-98238665D01*
X132435000Y-98238665D01*
X132379853Y-97961426D01*
X132271680Y-97700273D01*
X132114637Y-97465241D01*
X131914759Y-97265363D01*
X131679727Y-97108320D01*
X131418574Y-97000147D01*
X131141335Y-96945000D01*
X130858665Y-96945000D01*
X130581426Y-97000147D01*
X130320273Y-97108320D01*
X130085241Y-97265363D01*
X129885363Y-97465241D01*
X129728320Y-97700273D01*
X129620147Y-97961426D01*
X129565000Y-98238665D01*
X127435000Y-98238665D01*
X127379853Y-97961426D01*
X127271680Y-97700273D01*
X127114637Y-97465241D01*
X126914759Y-97265363D01*
X126679727Y-97108320D01*
X126418574Y-97000147D01*
X126141335Y-96945000D01*
X125858665Y-96945000D01*
X125581426Y-97000147D01*
X125320273Y-97108320D01*
X125085241Y-97265363D01*
X124885363Y-97465241D01*
X124728320Y-97700273D01*
X124620147Y-97961426D01*
X124565000Y-98238665D01*
X122435000Y-98238665D01*
X122379853Y-97961426D01*
X122271680Y-97700273D01*
X122114637Y-97465241D01*
X121914759Y-97265363D01*
X121679727Y-97108320D01*
X121418574Y-97000147D01*
X121141335Y-96945000D01*
X120858665Y-96945000D01*
X120581426Y-97000147D01*
X120320273Y-97108320D01*
X120085241Y-97265363D01*
X119885363Y-97465241D01*
X119728320Y-97700273D01*
X119620147Y-97961426D01*
X119565000Y-98238665D01*
X117435000Y-98238665D01*
X117379853Y-97961426D01*
X117271680Y-97700273D01*
X117114637Y-97465241D01*
X116914759Y-97265363D01*
X116679727Y-97108320D01*
X116418574Y-97000147D01*
X116141335Y-96945000D01*
X115858665Y-96945000D01*
X115581426Y-97000147D01*
X115320273Y-97108320D01*
X115085241Y-97265363D01*
X114885363Y-97465241D01*
X114728320Y-97700273D01*
X114620147Y-97961426D01*
X114565000Y-98238665D01*
X90660000Y-98238665D01*
X90660000Y-97123505D01*
X92506809Y-97123505D01*
X92513263Y-97169633D01*
X92608898Y-97401367D01*
X92747905Y-97609991D01*
X92924941Y-97787488D01*
X93133203Y-97927036D01*
X93364688Y-98023273D01*
X93610500Y-98072500D01*
X93873000Y-98072500D01*
X93873000Y-96927000D01*
X94127000Y-96927000D01*
X94127000Y-98072500D01*
X94389500Y-98072500D01*
X94635312Y-98023273D01*
X94866797Y-97927036D01*
X95075059Y-97787488D01*
X95252095Y-97609991D01*
X95391102Y-97401367D01*
X95486737Y-97169633D01*
X95493191Y-97123505D01*
X95368985Y-96927000D01*
X94127000Y-96927000D01*
X93873000Y-96927000D01*
X92631015Y-96927000D01*
X92506809Y-97123505D01*
X90660000Y-97123505D01*
X90660000Y-91700000D01*
X92458843Y-91700000D01*
X92483412Y-91949454D01*
X92556175Y-92189321D01*
X92674336Y-92410384D01*
X92788417Y-92549392D01*
X92747905Y-92590009D01*
X92608898Y-92798633D01*
X92513263Y-93030367D01*
X92506809Y-93076495D01*
X92631015Y-93273000D01*
X93873000Y-93273000D01*
X93873000Y-93253000D01*
X94127000Y-93253000D01*
X94127000Y-93273000D01*
X94147000Y-93273000D01*
X94147000Y-93527000D01*
X94127000Y-93527000D01*
X94127000Y-93547000D01*
X93873000Y-93547000D01*
X93873000Y-93527000D01*
X92631015Y-93527000D01*
X92506809Y-93723505D01*
X92513263Y-93769633D01*
X92608898Y-94001367D01*
X92747905Y-94209991D01*
X92788417Y-94250608D01*
X92674336Y-94389616D01*
X92556175Y-94610679D01*
X92483412Y-94850546D01*
X92458843Y-95100000D01*
X92483412Y-95349454D01*
X92556175Y-95589321D01*
X92674336Y-95810384D01*
X92788417Y-95949392D01*
X92747905Y-95990009D01*
X92608898Y-96198633D01*
X92513263Y-96430367D01*
X92506809Y-96476495D01*
X92631015Y-96673000D01*
X93873000Y-96673000D01*
X93873000Y-96653000D01*
X94127000Y-96653000D01*
X94127000Y-96673000D01*
X95368985Y-96673000D01*
X95493191Y-96476495D01*
X95486737Y-96430367D01*
X95391102Y-96198633D01*
X95252095Y-95990009D01*
X95211583Y-95949392D01*
X95325664Y-95810384D01*
X95443825Y-95589321D01*
X95516588Y-95349454D01*
X95541157Y-95100000D01*
X95516588Y-94850546D01*
X95471824Y-94702978D01*
X95736014Y-94438788D01*
X95765011Y-94414991D01*
X95859984Y-94299266D01*
X95930556Y-94167237D01*
X95974013Y-94023976D01*
X95985010Y-93912323D01*
X95985010Y-93912315D01*
X95988686Y-93874990D01*
X95985010Y-93837665D01*
X95985010Y-93165098D01*
X108275000Y-93165098D01*
X108275000Y-93634902D01*
X108366654Y-94095679D01*
X108546440Y-94529721D01*
X108807450Y-94920349D01*
X109139651Y-95252550D01*
X109530279Y-95513560D01*
X109964321Y-95693346D01*
X110425098Y-95785000D01*
X110894902Y-95785000D01*
X111355679Y-95693346D01*
X111789721Y-95513560D01*
X111810014Y-95500000D01*
X155409428Y-95500000D01*
X155409428Y-97500000D01*
X155421688Y-97624482D01*
X155457998Y-97744180D01*
X155516963Y-97854494D01*
X155596315Y-97951185D01*
X155693006Y-98030537D01*
X155803320Y-98089502D01*
X155923018Y-98125812D01*
X156047500Y-98138072D01*
X157952500Y-98138072D01*
X158076982Y-98125812D01*
X158196680Y-98089502D01*
X158306994Y-98030537D01*
X158403685Y-97951185D01*
X158483037Y-97854494D01*
X158527905Y-97770553D01*
X158653766Y-97873845D01*
X158929552Y-98021255D01*
X159228797Y-98112030D01*
X159540000Y-98142681D01*
X159851204Y-98112030D01*
X160150449Y-98021255D01*
X160426235Y-97873845D01*
X160667963Y-97675463D01*
X160815162Y-97496100D01*
X160970563Y-97681315D01*
X161213077Y-97875969D01*
X161488906Y-98019571D01*
X161707020Y-98090563D01*
X161953000Y-97970594D01*
X161953000Y-96627000D01*
X162207000Y-96627000D01*
X162207000Y-97970594D01*
X162452980Y-98090563D01*
X162671094Y-98019571D01*
X162946923Y-97875969D01*
X163189437Y-97681315D01*
X163389316Y-97443089D01*
X163538879Y-97170446D01*
X163632378Y-96873863D01*
X163505570Y-96627000D01*
X162207000Y-96627000D01*
X161953000Y-96627000D01*
X161933000Y-96627000D01*
X161933000Y-96373000D01*
X161953000Y-96373000D01*
X161953000Y-95029406D01*
X162207000Y-95029406D01*
X162207000Y-96373000D01*
X163505570Y-96373000D01*
X163632378Y-96126137D01*
X163538879Y-95829554D01*
X163389316Y-95556911D01*
X163189437Y-95318685D01*
X162946923Y-95124031D01*
X162671094Y-94980429D01*
X162452980Y-94909437D01*
X162207000Y-95029406D01*
X161953000Y-95029406D01*
X161707020Y-94909437D01*
X161488906Y-94980429D01*
X161213077Y-95124031D01*
X160970563Y-95318685D01*
X160815163Y-95503899D01*
X160667963Y-95324537D01*
X160426234Y-95126155D01*
X160150448Y-94978745D01*
X159851203Y-94887970D01*
X159540000Y-94857319D01*
X159228796Y-94887970D01*
X158929551Y-94978745D01*
X158653765Y-95126155D01*
X158527905Y-95229446D01*
X158483037Y-95145506D01*
X158403685Y-95048815D01*
X158306994Y-94969463D01*
X158196680Y-94910498D01*
X158076982Y-94874188D01*
X157952500Y-94861928D01*
X156047500Y-94861928D01*
X155923018Y-94874188D01*
X155803320Y-94910498D01*
X155693006Y-94969463D01*
X155596315Y-95048815D01*
X155516963Y-95145506D01*
X155457998Y-95255820D01*
X155421688Y-95375518D01*
X155409428Y-95500000D01*
X111810014Y-95500000D01*
X112180349Y-95252550D01*
X112512550Y-94920349D01*
X112773560Y-94529721D01*
X112897459Y-94230600D01*
X168787228Y-94230600D01*
X168787228Y-97230600D01*
X168799488Y-97355082D01*
X168835798Y-97474780D01*
X168894763Y-97585094D01*
X168974115Y-97681785D01*
X169070806Y-97761137D01*
X169181120Y-97820102D01*
X169300818Y-97856412D01*
X169425300Y-97868672D01*
X172425300Y-97868672D01*
X172549782Y-97856412D01*
X172669480Y-97820102D01*
X172779794Y-97761137D01*
X172876485Y-97681785D01*
X172955837Y-97585094D01*
X173014802Y-97474780D01*
X173051112Y-97355082D01*
X173063372Y-97230600D01*
X173063372Y-94230600D01*
X173051112Y-94106118D01*
X173014802Y-93986420D01*
X172955837Y-93876106D01*
X172876485Y-93779415D01*
X172779794Y-93700063D01*
X172669480Y-93641098D01*
X172549782Y-93604788D01*
X172425300Y-93592528D01*
X169425300Y-93592528D01*
X169300818Y-93604788D01*
X169181120Y-93641098D01*
X169070806Y-93700063D01*
X168974115Y-93779415D01*
X168894763Y-93876106D01*
X168835798Y-93986420D01*
X168799488Y-94106118D01*
X168787228Y-94230600D01*
X112897459Y-94230600D01*
X112953346Y-94095679D01*
X113045000Y-93634902D01*
X113045000Y-93165098D01*
X112953346Y-92704321D01*
X112773560Y-92270279D01*
X112512550Y-91879651D01*
X112382899Y-91750000D01*
X115836928Y-91750000D01*
X115849188Y-91874482D01*
X115885498Y-91994180D01*
X115944463Y-92104494D01*
X116023815Y-92201185D01*
X116120506Y-92280537D01*
X116230820Y-92339502D01*
X116350518Y-92375812D01*
X116475000Y-92388072D01*
X116714250Y-92385000D01*
X116873000Y-92226250D01*
X116873000Y-91127000D01*
X115998750Y-91127000D01*
X115840000Y-91285750D01*
X115836928Y-91750000D01*
X112382899Y-91750000D01*
X112180349Y-91547450D01*
X111789721Y-91286440D01*
X111355679Y-91106654D01*
X110894902Y-91015000D01*
X110425098Y-91015000D01*
X109964321Y-91106654D01*
X109530279Y-91286440D01*
X109139651Y-91547450D01*
X108807450Y-91879651D01*
X108546440Y-92270279D01*
X108366654Y-92704321D01*
X108275000Y-93165098D01*
X95985010Y-93165098D01*
X95985010Y-90250000D01*
X115836928Y-90250000D01*
X115840000Y-90714250D01*
X115998750Y-90873000D01*
X116873000Y-90873000D01*
X116873000Y-89773750D01*
X116714250Y-89615000D01*
X116475000Y-89611928D01*
X116350518Y-89624188D01*
X116230820Y-89660498D01*
X116120506Y-89719463D01*
X116023815Y-89798815D01*
X115944463Y-89895506D01*
X115885498Y-90005820D01*
X115849188Y-90125518D01*
X115836928Y-90250000D01*
X95985010Y-90250000D01*
X95985010Y-86382335D01*
X95988686Y-86345010D01*
X95985010Y-86307685D01*
X95985010Y-86307677D01*
X95974013Y-86196024D01*
X95930556Y-86052763D01*
X95859984Y-85920734D01*
X95765011Y-85805009D01*
X95736013Y-85781211D01*
X95677210Y-85722408D01*
X104043000Y-85722408D01*
X104043000Y-85997592D01*
X104096686Y-86267490D01*
X104201995Y-86521727D01*
X104354880Y-86750535D01*
X104549465Y-86945120D01*
X104778273Y-87098005D01*
X105032510Y-87203314D01*
X105302408Y-87257000D01*
X105577592Y-87257000D01*
X105847490Y-87203314D01*
X106101727Y-87098005D01*
X106330535Y-86945120D01*
X106525120Y-86750535D01*
X106583920Y-86662535D01*
X106592188Y-86746482D01*
X106628498Y-86866180D01*
X106687463Y-86976494D01*
X106766815Y-87073185D01*
X106863506Y-87152537D01*
X106973820Y-87211502D01*
X107093518Y-87247812D01*
X107218000Y-87260072D01*
X107694250Y-87257000D01*
X107853000Y-87098250D01*
X107853000Y-85987000D01*
X107833000Y-85987000D01*
X107833000Y-85733000D01*
X107853000Y-85733000D01*
X107853000Y-84621750D01*
X108107000Y-84621750D01*
X108107000Y-85733000D01*
X108127000Y-85733000D01*
X108127000Y-85987000D01*
X108107000Y-85987000D01*
X108107000Y-87098250D01*
X108265750Y-87257000D01*
X108742000Y-87260072D01*
X108866482Y-87247812D01*
X108986180Y-87211502D01*
X109096494Y-87152537D01*
X109193185Y-87073185D01*
X109272537Y-86976494D01*
X109331502Y-86866180D01*
X109367812Y-86746482D01*
X109376080Y-86662535D01*
X109434880Y-86750535D01*
X109629465Y-86945120D01*
X109858273Y-87098005D01*
X110112510Y-87203314D01*
X110382408Y-87257000D01*
X110657592Y-87257000D01*
X110927490Y-87203314D01*
X111181727Y-87098005D01*
X111410535Y-86945120D01*
X111605120Y-86750535D01*
X111758005Y-86521727D01*
X111790000Y-86444485D01*
X111821995Y-86521727D01*
X111974880Y-86750535D01*
X112169465Y-86945120D01*
X112398273Y-87098005D01*
X112652510Y-87203314D01*
X112922408Y-87257000D01*
X113197592Y-87257000D01*
X113467490Y-87203314D01*
X113721727Y-87098005D01*
X113950535Y-86945120D01*
X114145120Y-86750535D01*
X114298005Y-86521727D01*
X114330000Y-86444485D01*
X114361995Y-86521727D01*
X114514880Y-86750535D01*
X114709465Y-86945120D01*
X114938273Y-87098005D01*
X115192510Y-87203314D01*
X115462408Y-87257000D01*
X115737592Y-87257000D01*
X115891570Y-87226372D01*
X117510000Y-88844802D01*
X117510000Y-89612121D01*
X117285750Y-89615000D01*
X117127000Y-89773750D01*
X117127000Y-90546892D01*
X117126785Y-90547601D01*
X117110000Y-90718022D01*
X117110000Y-91281979D01*
X117126785Y-91452400D01*
X117127000Y-91453109D01*
X117127000Y-92226250D01*
X117285750Y-92385000D01*
X117525000Y-92388072D01*
X117649482Y-92375812D01*
X117769180Y-92339502D01*
X117833902Y-92304907D01*
X118042601Y-92368215D01*
X118270000Y-92390612D01*
X118497400Y-92368215D01*
X118716060Y-92301885D01*
X118905001Y-92200894D01*
X119093941Y-92301885D01*
X119312601Y-92368215D01*
X119540000Y-92390612D01*
X119767400Y-92368215D01*
X119986060Y-92301885D01*
X120187579Y-92194171D01*
X120364212Y-92049212D01*
X120509171Y-91872579D01*
X120574690Y-91750000D01*
X123836928Y-91750000D01*
X123849188Y-91874482D01*
X123885498Y-91994180D01*
X123944463Y-92104494D01*
X124023815Y-92201185D01*
X124120506Y-92280537D01*
X124230820Y-92339502D01*
X124350518Y-92375812D01*
X124475000Y-92388072D01*
X124714250Y-92385000D01*
X124873000Y-92226250D01*
X124873000Y-91127000D01*
X123998750Y-91127000D01*
X123840000Y-91285750D01*
X123836928Y-91750000D01*
X120574690Y-91750000D01*
X120616885Y-91671059D01*
X120683215Y-91452399D01*
X120700000Y-91281978D01*
X120700000Y-90718021D01*
X120683215Y-90547600D01*
X120616885Y-90328940D01*
X120509171Y-90127421D01*
X120364212Y-89950788D01*
X120187578Y-89805829D01*
X119986059Y-89698115D01*
X119767399Y-89631785D01*
X119540000Y-89609388D01*
X119312600Y-89631785D01*
X119093940Y-89698115D01*
X119030000Y-89732292D01*
X119030000Y-88567322D01*
X119033676Y-88529999D01*
X119030000Y-88492676D01*
X119030000Y-88492667D01*
X119019003Y-88381014D01*
X118975546Y-88237753D01*
X118904974Y-88105724D01*
X118810001Y-87989999D01*
X118781004Y-87966202D01*
X118071802Y-87257000D01*
X118277592Y-87257000D01*
X118431570Y-87226372D01*
X120066230Y-88861032D01*
X120090029Y-88890031D01*
X120205754Y-88985004D01*
X120337783Y-89055576D01*
X120481044Y-89099033D01*
X120592697Y-89110030D01*
X120592706Y-89110030D01*
X120630029Y-89113706D01*
X120667352Y-89110030D01*
X123895231Y-89110030D01*
X124404110Y-89618910D01*
X124350518Y-89624188D01*
X124230820Y-89660498D01*
X124120506Y-89719463D01*
X124023815Y-89798815D01*
X123944463Y-89895506D01*
X123885498Y-90005820D01*
X123849188Y-90125518D01*
X123836928Y-90250000D01*
X123840000Y-90714250D01*
X123998750Y-90873000D01*
X124873000Y-90873000D01*
X124873000Y-90853000D01*
X125110000Y-90853000D01*
X125110000Y-91281979D01*
X125126785Y-91452400D01*
X125127000Y-91453109D01*
X125127000Y-92226250D01*
X125285750Y-92385000D01*
X125525000Y-92388072D01*
X125649482Y-92375812D01*
X125769180Y-92339502D01*
X125833902Y-92304907D01*
X126042601Y-92368215D01*
X126270000Y-92390612D01*
X126497400Y-92368215D01*
X126716060Y-92301885D01*
X126905001Y-92200894D01*
X127093941Y-92301885D01*
X127312601Y-92368215D01*
X127540000Y-92390612D01*
X127767400Y-92368215D01*
X127986060Y-92301885D01*
X128187579Y-92194171D01*
X128364212Y-92049212D01*
X128509171Y-91872579D01*
X128574690Y-91750000D01*
X131836928Y-91750000D01*
X131849188Y-91874482D01*
X131885498Y-91994180D01*
X131944463Y-92104494D01*
X132023815Y-92201185D01*
X132120506Y-92280537D01*
X132230820Y-92339502D01*
X132350518Y-92375812D01*
X132475000Y-92388072D01*
X132714250Y-92385000D01*
X132873000Y-92226250D01*
X132873000Y-91127000D01*
X131998750Y-91127000D01*
X131840000Y-91285750D01*
X131836928Y-91750000D01*
X128574690Y-91750000D01*
X128616885Y-91671059D01*
X128683215Y-91452399D01*
X128700000Y-91281978D01*
X128700000Y-90718021D01*
X128683215Y-90547600D01*
X128616885Y-90328940D01*
X128509171Y-90127421D01*
X128364212Y-89950788D01*
X128187578Y-89805829D01*
X127986059Y-89698115D01*
X127767399Y-89631785D01*
X127540000Y-89609388D01*
X127312600Y-89631785D01*
X127093940Y-89698115D01*
X126904999Y-89799106D01*
X126716059Y-89698115D01*
X126596717Y-89661913D01*
X125594823Y-88660020D01*
X131855219Y-88660020D01*
X132872998Y-89677800D01*
X132872998Y-89773748D01*
X132714250Y-89615000D01*
X132475000Y-89611928D01*
X132350518Y-89624188D01*
X132230820Y-89660498D01*
X132120506Y-89719463D01*
X132023815Y-89798815D01*
X131944463Y-89895506D01*
X131885498Y-90005820D01*
X131849188Y-90125518D01*
X131836928Y-90250000D01*
X131840000Y-90714250D01*
X131998750Y-90873000D01*
X132873000Y-90873000D01*
X132873000Y-90853000D01*
X133110000Y-90853000D01*
X133110000Y-91281979D01*
X133126785Y-91452400D01*
X133127000Y-91453109D01*
X133127000Y-92226250D01*
X133285750Y-92385000D01*
X133525000Y-92388072D01*
X133649482Y-92375812D01*
X133769180Y-92339502D01*
X133833902Y-92304907D01*
X134042601Y-92368215D01*
X134270000Y-92390612D01*
X134497400Y-92368215D01*
X134716060Y-92301885D01*
X134905001Y-92200894D01*
X135093941Y-92301885D01*
X135312601Y-92368215D01*
X135540000Y-92390612D01*
X135767400Y-92368215D01*
X135986060Y-92301885D01*
X136187579Y-92194171D01*
X136364212Y-92049212D01*
X136509171Y-91872579D01*
X136574690Y-91750000D01*
X139566928Y-91750000D01*
X139579188Y-91874482D01*
X139615498Y-91994180D01*
X139674463Y-92104494D01*
X139753815Y-92201185D01*
X139850506Y-92280537D01*
X139960820Y-92339502D01*
X140080518Y-92375812D01*
X140205000Y-92388072D01*
X140444250Y-92385000D01*
X140603000Y-92226250D01*
X140603000Y-91127000D01*
X139728750Y-91127000D01*
X139570000Y-91285750D01*
X139566928Y-91750000D01*
X136574690Y-91750000D01*
X136616885Y-91671059D01*
X136683215Y-91452399D01*
X136700000Y-91281978D01*
X136700000Y-90718021D01*
X136683215Y-90547600D01*
X136616885Y-90328940D01*
X136574691Y-90250000D01*
X139566928Y-90250000D01*
X139570000Y-90714250D01*
X139728750Y-90873000D01*
X140603000Y-90873000D01*
X140603000Y-89773750D01*
X140444250Y-89615000D01*
X140205000Y-89611928D01*
X140080518Y-89624188D01*
X139960820Y-89660498D01*
X139850506Y-89719463D01*
X139753815Y-89798815D01*
X139674463Y-89895506D01*
X139615498Y-90005820D01*
X139579188Y-90125518D01*
X139566928Y-90250000D01*
X136574691Y-90250000D01*
X136509171Y-90127421D01*
X136364212Y-89950788D01*
X136187578Y-89805829D01*
X135986059Y-89698115D01*
X135767399Y-89631785D01*
X135540000Y-89609388D01*
X135312600Y-89631785D01*
X135093940Y-89698115D01*
X134989548Y-89753913D01*
X134975546Y-89707753D01*
X134904974Y-89575724D01*
X134810001Y-89459999D01*
X134781004Y-89436202D01*
X133554810Y-88210009D01*
X140135208Y-88210009D01*
X141240000Y-89314802D01*
X141240000Y-89612121D01*
X141015750Y-89615000D01*
X140857000Y-89773750D01*
X140857000Y-90546892D01*
X140856785Y-90547601D01*
X140840000Y-90718022D01*
X140840000Y-91281979D01*
X140856785Y-91452400D01*
X140857000Y-91453109D01*
X140857000Y-92226250D01*
X141015750Y-92385000D01*
X141255000Y-92388072D01*
X141379482Y-92375812D01*
X141499180Y-92339502D01*
X141563902Y-92304907D01*
X141772601Y-92368215D01*
X142000000Y-92390612D01*
X142227400Y-92368215D01*
X142446060Y-92301885D01*
X142635001Y-92200894D01*
X142823941Y-92301885D01*
X143042601Y-92368215D01*
X143270000Y-92390612D01*
X143497400Y-92368215D01*
X143716060Y-92301885D01*
X143917579Y-92194171D01*
X144094212Y-92049212D01*
X144239171Y-91872579D01*
X144304690Y-91750000D01*
X147336928Y-91750000D01*
X147349188Y-91874482D01*
X147385498Y-91994180D01*
X147444463Y-92104494D01*
X147523815Y-92201185D01*
X147620506Y-92280537D01*
X147730820Y-92339502D01*
X147850518Y-92375812D01*
X147975000Y-92388072D01*
X148214250Y-92385000D01*
X148373000Y-92226250D01*
X148373000Y-91127000D01*
X147498750Y-91127000D01*
X147340000Y-91285750D01*
X147336928Y-91750000D01*
X144304690Y-91750000D01*
X144346885Y-91671059D01*
X144413215Y-91452399D01*
X144430000Y-91281978D01*
X144430000Y-90718021D01*
X144413215Y-90547600D01*
X144346885Y-90328940D01*
X144239171Y-90127421D01*
X144094212Y-89950788D01*
X143917578Y-89805829D01*
X143716059Y-89698115D01*
X143497399Y-89631785D01*
X143270000Y-89609388D01*
X143042600Y-89631785D01*
X142823940Y-89698115D01*
X142760000Y-89732292D01*
X142760000Y-89037322D01*
X142763676Y-88999999D01*
X142760000Y-88962676D01*
X142760000Y-88962667D01*
X142749003Y-88851014D01*
X142705546Y-88707753D01*
X142634974Y-88575724D01*
X142540001Y-88459999D01*
X142511004Y-88436202D01*
X141834802Y-87760000D01*
X145915199Y-87760000D01*
X147795941Y-89640744D01*
X147730820Y-89660498D01*
X147620506Y-89719463D01*
X147523815Y-89798815D01*
X147444463Y-89895506D01*
X147385498Y-90005820D01*
X147349188Y-90125518D01*
X147336928Y-90250000D01*
X147340000Y-90714250D01*
X147498750Y-90873000D01*
X148373000Y-90873000D01*
X148373000Y-90853000D01*
X148610000Y-90853000D01*
X148610000Y-91281979D01*
X148626785Y-91452400D01*
X148627000Y-91453109D01*
X148627000Y-92226250D01*
X148785750Y-92385000D01*
X149025000Y-92388072D01*
X149149482Y-92375812D01*
X149269180Y-92339502D01*
X149333902Y-92304907D01*
X149542601Y-92368215D01*
X149770000Y-92390612D01*
X149997400Y-92368215D01*
X150216060Y-92301885D01*
X150405001Y-92200894D01*
X150593941Y-92301885D01*
X150812601Y-92368215D01*
X151040000Y-92390612D01*
X151267400Y-92368215D01*
X151486060Y-92301885D01*
X151687579Y-92194171D01*
X151864212Y-92049212D01*
X152009171Y-91872579D01*
X152116885Y-91671059D01*
X152183215Y-91452399D01*
X152200000Y-91281978D01*
X152200000Y-90718021D01*
X152183215Y-90547600D01*
X152150673Y-90440321D01*
X168790300Y-90440321D01*
X168790300Y-90860879D01*
X168872347Y-91273356D01*
X169033288Y-91661902D01*
X169266937Y-92011583D01*
X169564317Y-92308963D01*
X169913998Y-92542612D01*
X170302544Y-92703553D01*
X170715021Y-92785600D01*
X171135579Y-92785600D01*
X171548056Y-92703553D01*
X171936602Y-92542612D01*
X172286283Y-92308963D01*
X172583663Y-92011583D01*
X172817312Y-91661902D01*
X172978253Y-91273356D01*
X173060300Y-90860879D01*
X173060300Y-90440321D01*
X172978253Y-90027844D01*
X172817312Y-89639298D01*
X172583663Y-89289617D01*
X172286283Y-88992237D01*
X171936602Y-88758588D01*
X171548056Y-88597647D01*
X171135579Y-88515600D01*
X170715021Y-88515600D01*
X170302544Y-88597647D01*
X169913998Y-88758588D01*
X169564317Y-88992237D01*
X169266937Y-89289617D01*
X169033288Y-89639298D01*
X168872347Y-90027844D01*
X168790300Y-90440321D01*
X152150673Y-90440321D01*
X152116885Y-90328940D01*
X152009171Y-90127421D01*
X151864212Y-89950788D01*
X151687578Y-89805829D01*
X151486059Y-89698115D01*
X151267399Y-89631785D01*
X151040000Y-89609388D01*
X150812600Y-89631785D01*
X150593940Y-89698115D01*
X150404999Y-89799106D01*
X150216059Y-89698115D01*
X149997399Y-89631785D01*
X149929944Y-89625141D01*
X147304802Y-87000000D01*
X155409428Y-87000000D01*
X155409428Y-89000000D01*
X155421688Y-89124482D01*
X155457998Y-89244180D01*
X155516963Y-89354494D01*
X155596315Y-89451185D01*
X155693006Y-89530537D01*
X155803320Y-89589502D01*
X155923018Y-89625812D01*
X156047500Y-89638072D01*
X157952500Y-89638072D01*
X158076982Y-89625812D01*
X158196680Y-89589502D01*
X158306994Y-89530537D01*
X158403685Y-89451185D01*
X158483037Y-89354494D01*
X158527905Y-89270553D01*
X158653766Y-89373845D01*
X158929552Y-89521255D01*
X159228797Y-89612030D01*
X159540000Y-89642681D01*
X159851204Y-89612030D01*
X160150449Y-89521255D01*
X160426235Y-89373845D01*
X160667963Y-89175463D01*
X160815162Y-88996100D01*
X160970563Y-89181315D01*
X161213077Y-89375969D01*
X161488906Y-89519571D01*
X161707020Y-89590563D01*
X161953000Y-89470594D01*
X161953000Y-88127000D01*
X162207000Y-88127000D01*
X162207000Y-89470594D01*
X162452980Y-89590563D01*
X162671094Y-89519571D01*
X162946923Y-89375969D01*
X163189437Y-89181315D01*
X163389316Y-88943089D01*
X163538879Y-88670446D01*
X163632378Y-88373863D01*
X163505570Y-88127000D01*
X162207000Y-88127000D01*
X161953000Y-88127000D01*
X161933000Y-88127000D01*
X161933000Y-87873000D01*
X161953000Y-87873000D01*
X161953000Y-86529406D01*
X162207000Y-86529406D01*
X162207000Y-87873000D01*
X163505570Y-87873000D01*
X163632378Y-87626137D01*
X163538879Y-87329554D01*
X163389316Y-87056911D01*
X163189437Y-86818685D01*
X162946923Y-86624031D01*
X162671094Y-86480429D01*
X162452980Y-86409437D01*
X162207000Y-86529406D01*
X161953000Y-86529406D01*
X161707020Y-86409437D01*
X161488906Y-86480429D01*
X161213077Y-86624031D01*
X160970563Y-86818685D01*
X160815163Y-87003899D01*
X160667963Y-86824537D01*
X160426234Y-86626155D01*
X160150448Y-86478745D01*
X159851203Y-86387970D01*
X159540000Y-86357319D01*
X159228796Y-86387970D01*
X158929551Y-86478745D01*
X158653765Y-86626155D01*
X158527905Y-86729446D01*
X158483037Y-86645506D01*
X158403685Y-86548815D01*
X158306994Y-86469463D01*
X158196680Y-86410498D01*
X158076982Y-86374188D01*
X157952500Y-86361928D01*
X156047500Y-86361928D01*
X155923018Y-86374188D01*
X155803320Y-86410498D01*
X155693006Y-86469463D01*
X155596315Y-86548815D01*
X155516963Y-86645506D01*
X155457998Y-86755820D01*
X155421688Y-86875518D01*
X155409428Y-87000000D01*
X147304802Y-87000000D01*
X146793804Y-86489003D01*
X146770001Y-86459999D01*
X146654276Y-86365026D01*
X146522247Y-86294454D01*
X146378986Y-86250997D01*
X146267333Y-86240000D01*
X146267322Y-86240000D01*
X146230000Y-86236324D01*
X146192678Y-86240000D01*
X142348782Y-86240000D01*
X142397000Y-85997592D01*
X142397000Y-85722408D01*
X142343314Y-85452510D01*
X142305128Y-85360321D01*
X168790300Y-85360321D01*
X168790300Y-85780879D01*
X168872347Y-86193356D01*
X169033288Y-86581902D01*
X169266937Y-86931583D01*
X169564317Y-87228963D01*
X169913998Y-87462612D01*
X170302544Y-87623553D01*
X170715021Y-87705600D01*
X171135579Y-87705600D01*
X171548056Y-87623553D01*
X171936602Y-87462612D01*
X172286283Y-87228963D01*
X172583663Y-86931583D01*
X172817312Y-86581902D01*
X172978253Y-86193356D01*
X173060300Y-85780879D01*
X173060300Y-85360321D01*
X172978253Y-84947844D01*
X172817312Y-84559298D01*
X172583663Y-84209617D01*
X172286283Y-83912237D01*
X171936602Y-83678588D01*
X171548056Y-83517647D01*
X171135579Y-83435600D01*
X170715021Y-83435600D01*
X170302544Y-83517647D01*
X169913998Y-83678588D01*
X169564317Y-83912237D01*
X169266937Y-84209617D01*
X169033288Y-84559298D01*
X168872347Y-84947844D01*
X168790300Y-85360321D01*
X142305128Y-85360321D01*
X142238005Y-85198273D01*
X142085120Y-84969465D01*
X141890535Y-84774880D01*
X141661727Y-84621995D01*
X141407490Y-84516686D01*
X141137592Y-84463000D01*
X140862408Y-84463000D01*
X140592510Y-84516686D01*
X140338273Y-84621995D01*
X140109465Y-84774880D01*
X139914880Y-84969465D01*
X139761995Y-85198273D01*
X139730000Y-85275515D01*
X139698005Y-85198273D01*
X139545120Y-84969465D01*
X139350535Y-84774880D01*
X139121727Y-84621995D01*
X138867490Y-84516686D01*
X138597592Y-84463000D01*
X138322408Y-84463000D01*
X138052510Y-84516686D01*
X137798273Y-84621995D01*
X137569465Y-84774880D01*
X137374880Y-84969465D01*
X137221995Y-85198273D01*
X137190000Y-85275515D01*
X137158005Y-85198273D01*
X137005120Y-84969465D01*
X136810535Y-84774880D01*
X136581727Y-84621995D01*
X136327490Y-84516686D01*
X136057592Y-84463000D01*
X135782408Y-84463000D01*
X135512510Y-84516686D01*
X135258273Y-84621995D01*
X135029465Y-84774880D01*
X134834880Y-84969465D01*
X134681995Y-85198273D01*
X134650000Y-85275515D01*
X134618005Y-85198273D01*
X134465120Y-84969465D01*
X134270535Y-84774880D01*
X134041727Y-84621995D01*
X133787490Y-84516686D01*
X133517592Y-84463000D01*
X133242408Y-84463000D01*
X132972510Y-84516686D01*
X132718273Y-84621995D01*
X132489465Y-84774880D01*
X132294880Y-84969465D01*
X132141995Y-85198273D01*
X132110000Y-85275515D01*
X132078005Y-85198273D01*
X131925120Y-84969465D01*
X131730535Y-84774880D01*
X131501727Y-84621995D01*
X131247490Y-84516686D01*
X130977592Y-84463000D01*
X130702408Y-84463000D01*
X130432510Y-84516686D01*
X130178273Y-84621995D01*
X129949465Y-84774880D01*
X129754880Y-84969465D01*
X129601995Y-85198273D01*
X129570000Y-85275515D01*
X129538005Y-85198273D01*
X129385120Y-84969465D01*
X129190535Y-84774880D01*
X128961727Y-84621995D01*
X128707490Y-84516686D01*
X128437592Y-84463000D01*
X128162408Y-84463000D01*
X127892510Y-84516686D01*
X127638273Y-84621995D01*
X127409465Y-84774880D01*
X127214880Y-84969465D01*
X127156080Y-85057465D01*
X127147812Y-84973518D01*
X127111502Y-84853820D01*
X127052537Y-84743506D01*
X126973185Y-84646815D01*
X126876494Y-84567463D01*
X126766180Y-84508498D01*
X126646482Y-84472188D01*
X126522000Y-84459928D01*
X126045750Y-84463000D01*
X125887000Y-84621750D01*
X125887000Y-85733000D01*
X125907000Y-85733000D01*
X125907000Y-85987000D01*
X125887000Y-85987000D01*
X125887000Y-86007000D01*
X125633000Y-86007000D01*
X125633000Y-85987000D01*
X125613000Y-85987000D01*
X125613000Y-85733000D01*
X125633000Y-85733000D01*
X125633000Y-84621750D01*
X125474250Y-84463000D01*
X124998000Y-84459928D01*
X124873518Y-84472188D01*
X124753820Y-84508498D01*
X124643506Y-84567463D01*
X124546815Y-84646815D01*
X124467463Y-84743506D01*
X124408498Y-84853820D01*
X124372188Y-84973518D01*
X124363920Y-85057465D01*
X124305120Y-84969465D01*
X124110535Y-84774880D01*
X123881727Y-84621995D01*
X123627490Y-84516686D01*
X123357592Y-84463000D01*
X123082408Y-84463000D01*
X122812510Y-84516686D01*
X122558273Y-84621995D01*
X122329465Y-84774880D01*
X122134880Y-84969465D01*
X121981995Y-85198273D01*
X121950000Y-85275515D01*
X121918005Y-85198273D01*
X121765120Y-84969465D01*
X121570535Y-84774880D01*
X121341727Y-84621995D01*
X121087490Y-84516686D01*
X120817592Y-84463000D01*
X120542408Y-84463000D01*
X120272510Y-84516686D01*
X120018273Y-84621995D01*
X119789465Y-84774880D01*
X119594880Y-84969465D01*
X119441995Y-85198273D01*
X119410000Y-85275515D01*
X119378005Y-85198273D01*
X119225120Y-84969465D01*
X119030535Y-84774880D01*
X118801727Y-84621995D01*
X118547490Y-84516686D01*
X118277592Y-84463000D01*
X118002408Y-84463000D01*
X117732510Y-84516686D01*
X117478273Y-84621995D01*
X117249465Y-84774880D01*
X117054880Y-84969465D01*
X116901995Y-85198273D01*
X116870000Y-85275515D01*
X116838005Y-85198273D01*
X116685120Y-84969465D01*
X116490535Y-84774880D01*
X116261727Y-84621995D01*
X116007490Y-84516686D01*
X115737592Y-84463000D01*
X115462408Y-84463000D01*
X115192510Y-84516686D01*
X114938273Y-84621995D01*
X114709465Y-84774880D01*
X114514880Y-84969465D01*
X114361995Y-85198273D01*
X114330000Y-85275515D01*
X114298005Y-85198273D01*
X114145120Y-84969465D01*
X113950535Y-84774880D01*
X113721727Y-84621995D01*
X113467490Y-84516686D01*
X113197592Y-84463000D01*
X112922408Y-84463000D01*
X112652510Y-84516686D01*
X112398273Y-84621995D01*
X112169465Y-84774880D01*
X111974880Y-84969465D01*
X111821995Y-85198273D01*
X111790000Y-85275515D01*
X111758005Y-85198273D01*
X111605120Y-84969465D01*
X111410535Y-84774880D01*
X111181727Y-84621995D01*
X110927490Y-84516686D01*
X110657592Y-84463000D01*
X110382408Y-84463000D01*
X110112510Y-84516686D01*
X109858273Y-84621995D01*
X109629465Y-84774880D01*
X109434880Y-84969465D01*
X109376080Y-85057465D01*
X109367812Y-84973518D01*
X109331502Y-84853820D01*
X109272537Y-84743506D01*
X109193185Y-84646815D01*
X109096494Y-84567463D01*
X108986180Y-84508498D01*
X108866482Y-84472188D01*
X108742000Y-84459928D01*
X108265750Y-84463000D01*
X108107000Y-84621750D01*
X107853000Y-84621750D01*
X107694250Y-84463000D01*
X107218000Y-84459928D01*
X107093518Y-84472188D01*
X106973820Y-84508498D01*
X106863506Y-84567463D01*
X106766815Y-84646815D01*
X106687463Y-84743506D01*
X106628498Y-84853820D01*
X106592188Y-84973518D01*
X106583920Y-85057465D01*
X106525120Y-84969465D01*
X106330535Y-84774880D01*
X106101727Y-84621995D01*
X105847490Y-84516686D01*
X105577592Y-84463000D01*
X105302408Y-84463000D01*
X105032510Y-84516686D01*
X104778273Y-84621995D01*
X104549465Y-84774880D01*
X104354880Y-84969465D01*
X104201995Y-85198273D01*
X104096686Y-85452510D01*
X104043000Y-85722408D01*
X95677210Y-85722408D01*
X95398688Y-85443886D01*
X95435000Y-85261335D01*
X95435000Y-84978665D01*
X95379853Y-84701426D01*
X95271680Y-84440273D01*
X95114637Y-84205241D01*
X94914759Y-84005363D01*
X94679727Y-83848320D01*
X94418574Y-83740147D01*
X94141335Y-83685000D01*
X93858665Y-83685000D01*
X93581426Y-83740147D01*
X93320273Y-83848320D01*
X93085241Y-84005363D01*
X92885363Y-84205241D01*
X92728320Y-84440273D01*
X92620147Y-84701426D01*
X92565000Y-84978665D01*
X92565000Y-85261335D01*
X92620147Y-85538574D01*
X92728320Y-85799727D01*
X92885363Y-86034759D01*
X93085241Y-86234637D01*
X93320273Y-86391680D01*
X93581426Y-86499853D01*
X93858665Y-86555000D01*
X94141335Y-86555000D01*
X94323886Y-86518688D01*
X94465011Y-86659813D01*
X94465011Y-88724428D01*
X93100000Y-88724428D01*
X92975518Y-88736688D01*
X92855820Y-88772998D01*
X92745506Y-88831963D01*
X92648815Y-88911315D01*
X92569463Y-89008006D01*
X92510498Y-89118320D01*
X92474188Y-89238018D01*
X92461928Y-89362500D01*
X92461928Y-90637500D01*
X92474188Y-90761982D01*
X92510498Y-90881680D01*
X92569463Y-90991994D01*
X92632202Y-91068442D01*
X92556175Y-91210679D01*
X92483412Y-91450546D01*
X92458843Y-91700000D01*
X90660000Y-91700000D01*
X90660000Y-77358665D01*
X92565000Y-77358665D01*
X92565000Y-77641335D01*
X92620147Y-77918574D01*
X92728320Y-78179727D01*
X92885363Y-78414759D01*
X93085241Y-78614637D01*
X93320273Y-78771680D01*
X93581426Y-78879853D01*
X93858665Y-78935000D01*
X94141335Y-78935000D01*
X94418574Y-78879853D01*
X94679727Y-78771680D01*
X94914759Y-78614637D01*
X95029396Y-78500000D01*
X155369428Y-78500000D01*
X155369428Y-80500000D01*
X155381688Y-80624482D01*
X155417998Y-80744180D01*
X155476963Y-80854494D01*
X155556315Y-80951185D01*
X155653006Y-81030537D01*
X155763320Y-81089502D01*
X155883018Y-81125812D01*
X156007500Y-81138072D01*
X157912500Y-81138072D01*
X158036982Y-81125812D01*
X158156680Y-81089502D01*
X158266994Y-81030537D01*
X158363685Y-80951185D01*
X158443037Y-80854494D01*
X158487905Y-80770553D01*
X158613766Y-80873845D01*
X158889552Y-81021255D01*
X159188797Y-81112030D01*
X159500000Y-81142681D01*
X159811204Y-81112030D01*
X160110449Y-81021255D01*
X160386235Y-80873845D01*
X160627963Y-80675463D01*
X160775162Y-80496100D01*
X160930563Y-80681315D01*
X161173077Y-80875969D01*
X161448906Y-81019571D01*
X161667020Y-81090563D01*
X161913000Y-80970594D01*
X161913000Y-79627000D01*
X162167000Y-79627000D01*
X162167000Y-80970594D01*
X162412980Y-81090563D01*
X162631094Y-81019571D01*
X162906923Y-80875969D01*
X163149437Y-80681315D01*
X163349316Y-80443089D01*
X163438605Y-80280321D01*
X168790300Y-80280321D01*
X168790300Y-80700879D01*
X168872347Y-81113356D01*
X169033288Y-81501902D01*
X169266937Y-81851583D01*
X169564317Y-82148963D01*
X169913998Y-82382612D01*
X170302544Y-82543553D01*
X170715021Y-82625600D01*
X171135579Y-82625600D01*
X171548056Y-82543553D01*
X171936602Y-82382612D01*
X172286283Y-82148963D01*
X172583663Y-81851583D01*
X172817312Y-81501902D01*
X172978253Y-81113356D01*
X173060300Y-80700879D01*
X173060300Y-80280321D01*
X172978253Y-79867844D01*
X172817312Y-79479298D01*
X172583663Y-79129617D01*
X172286283Y-78832237D01*
X171936602Y-78598588D01*
X171548056Y-78437647D01*
X171135579Y-78355600D01*
X170715021Y-78355600D01*
X170302544Y-78437647D01*
X169913998Y-78598588D01*
X169564317Y-78832237D01*
X169266937Y-79129617D01*
X169033288Y-79479298D01*
X168872347Y-79867844D01*
X168790300Y-80280321D01*
X163438605Y-80280321D01*
X163498879Y-80170446D01*
X163592378Y-79873863D01*
X163465570Y-79627000D01*
X162167000Y-79627000D01*
X161913000Y-79627000D01*
X161893000Y-79627000D01*
X161893000Y-79373000D01*
X161913000Y-79373000D01*
X161913000Y-78029406D01*
X162167000Y-78029406D01*
X162167000Y-79373000D01*
X163465570Y-79373000D01*
X163592378Y-79126137D01*
X163498879Y-78829554D01*
X163349316Y-78556911D01*
X163149437Y-78318685D01*
X162906923Y-78124031D01*
X162631094Y-77980429D01*
X162412980Y-77909437D01*
X162167000Y-78029406D01*
X161913000Y-78029406D01*
X161667020Y-77909437D01*
X161448906Y-77980429D01*
X161173077Y-78124031D01*
X160930563Y-78318685D01*
X160775163Y-78503899D01*
X160627963Y-78324537D01*
X160386234Y-78126155D01*
X160110448Y-77978745D01*
X159811203Y-77887970D01*
X159500000Y-77857319D01*
X159188796Y-77887970D01*
X158889551Y-77978745D01*
X158613765Y-78126155D01*
X158487905Y-78229446D01*
X158443037Y-78145506D01*
X158363685Y-78048815D01*
X158266994Y-77969463D01*
X158156680Y-77910498D01*
X158036982Y-77874188D01*
X157912500Y-77861928D01*
X156007500Y-77861928D01*
X155883018Y-77874188D01*
X155763320Y-77910498D01*
X155653006Y-77969463D01*
X155556315Y-78048815D01*
X155476963Y-78145506D01*
X155417998Y-78255820D01*
X155381688Y-78375518D01*
X155369428Y-78500000D01*
X95029396Y-78500000D01*
X95114637Y-78414759D01*
X95271680Y-78179727D01*
X95379853Y-77918574D01*
X95435000Y-77641335D01*
X95435000Y-77358665D01*
X95379853Y-77081426D01*
X95271680Y-76820273D01*
X95114637Y-76585241D01*
X94914759Y-76385363D01*
X94679727Y-76228320D01*
X94418574Y-76120147D01*
X94141335Y-76065000D01*
X93858665Y-76065000D01*
X93581426Y-76120147D01*
X93320273Y-76228320D01*
X93085241Y-76385363D01*
X92885363Y-76585241D01*
X92728320Y-76820273D01*
X92620147Y-77081426D01*
X92565000Y-77358665D01*
X90660000Y-77358665D01*
X90660000Y-75200321D01*
X168790300Y-75200321D01*
X168790300Y-75620879D01*
X168872347Y-76033356D01*
X169033288Y-76421902D01*
X169266937Y-76771583D01*
X169564317Y-77068963D01*
X169913998Y-77302612D01*
X170302544Y-77463553D01*
X170715021Y-77545600D01*
X171135579Y-77545600D01*
X171548056Y-77463553D01*
X171936602Y-77302612D01*
X172286283Y-77068963D01*
X172583663Y-76771583D01*
X172817312Y-76421902D01*
X172978253Y-76033356D01*
X173060300Y-75620879D01*
X173060300Y-75200321D01*
X172978253Y-74787844D01*
X172817312Y-74399298D01*
X172583663Y-74049617D01*
X172286283Y-73752237D01*
X171936602Y-73518588D01*
X171548056Y-73357647D01*
X171135579Y-73275600D01*
X170715021Y-73275600D01*
X170302544Y-73357647D01*
X169913998Y-73518588D01*
X169564317Y-73752237D01*
X169266937Y-74049617D01*
X169033288Y-74399298D01*
X168872347Y-74787844D01*
X168790300Y-75200321D01*
X90660000Y-75200321D01*
X90660000Y-70570512D01*
X92559783Y-70570512D01*
X92601213Y-70850130D01*
X92696397Y-71116292D01*
X92761616Y-71238309D01*
X92748815Y-71248815D01*
X92669463Y-71345506D01*
X92610498Y-71455820D01*
X92574188Y-71575518D01*
X92561928Y-71700000D01*
X92561928Y-73300000D01*
X92574188Y-73424482D01*
X92610498Y-73544180D01*
X92669463Y-73654494D01*
X92748815Y-73751185D01*
X92845506Y-73830537D01*
X92955820Y-73889502D01*
X93075518Y-73925812D01*
X93200000Y-73938072D01*
X94800000Y-73938072D01*
X94924482Y-73925812D01*
X95044180Y-73889502D01*
X95154494Y-73830537D01*
X95251185Y-73751185D01*
X95330537Y-73654494D01*
X95389502Y-73544180D01*
X95425812Y-73424482D01*
X95438072Y-73300000D01*
X95438072Y-71700000D01*
X95425812Y-71575518D01*
X95389502Y-71455820D01*
X95330537Y-71345506D01*
X95251185Y-71248815D01*
X95238242Y-71238193D01*
X95357571Y-70986004D01*
X95426300Y-70711816D01*
X95440217Y-70429488D01*
X95398787Y-70149870D01*
X95345191Y-70000000D01*
X155369428Y-70000000D01*
X155369428Y-72000000D01*
X155381688Y-72124482D01*
X155417998Y-72244180D01*
X155476963Y-72354494D01*
X155556315Y-72451185D01*
X155653006Y-72530537D01*
X155763320Y-72589502D01*
X155883018Y-72625812D01*
X156007500Y-72638072D01*
X157912500Y-72638072D01*
X158036982Y-72625812D01*
X158156680Y-72589502D01*
X158266994Y-72530537D01*
X158363685Y-72451185D01*
X158443037Y-72354494D01*
X158487905Y-72270553D01*
X158613766Y-72373845D01*
X158889552Y-72521255D01*
X159188797Y-72612030D01*
X159500000Y-72642681D01*
X159811204Y-72612030D01*
X160110449Y-72521255D01*
X160386235Y-72373845D01*
X160627963Y-72175463D01*
X160775162Y-71996100D01*
X160930563Y-72181315D01*
X161173077Y-72375969D01*
X161448906Y-72519571D01*
X161667020Y-72590563D01*
X161913000Y-72470594D01*
X161913000Y-71127000D01*
X162167000Y-71127000D01*
X162167000Y-72470594D01*
X162412980Y-72590563D01*
X162631094Y-72519571D01*
X162906923Y-72375969D01*
X163149437Y-72181315D01*
X163349316Y-71943089D01*
X163498879Y-71670446D01*
X163592378Y-71373863D01*
X163465570Y-71127000D01*
X162167000Y-71127000D01*
X161913000Y-71127000D01*
X161893000Y-71127000D01*
X161893000Y-70873000D01*
X161913000Y-70873000D01*
X161913000Y-69529406D01*
X162167000Y-69529406D01*
X162167000Y-70873000D01*
X163465570Y-70873000D01*
X163592378Y-70626137D01*
X163498879Y-70329554D01*
X163384101Y-70120321D01*
X168790300Y-70120321D01*
X168790300Y-70540879D01*
X168872347Y-70953356D01*
X169033288Y-71341902D01*
X169266937Y-71691583D01*
X169564317Y-71988963D01*
X169913998Y-72222612D01*
X170302544Y-72383553D01*
X170715021Y-72465600D01*
X171135579Y-72465600D01*
X171548056Y-72383553D01*
X171936602Y-72222612D01*
X172286283Y-71988963D01*
X172583663Y-71691583D01*
X172817312Y-71341902D01*
X172978253Y-70953356D01*
X173060300Y-70540879D01*
X173060300Y-70120321D01*
X172978253Y-69707844D01*
X172817312Y-69319298D01*
X172583663Y-68969617D01*
X172286283Y-68672237D01*
X171936602Y-68438588D01*
X171548056Y-68277647D01*
X171135579Y-68195600D01*
X170715021Y-68195600D01*
X170302544Y-68277647D01*
X169913998Y-68438588D01*
X169564317Y-68672237D01*
X169266937Y-68969617D01*
X169033288Y-69319298D01*
X168872347Y-69707844D01*
X168790300Y-70120321D01*
X163384101Y-70120321D01*
X163349316Y-70056911D01*
X163149437Y-69818685D01*
X162906923Y-69624031D01*
X162631094Y-69480429D01*
X162412980Y-69409437D01*
X162167000Y-69529406D01*
X161913000Y-69529406D01*
X161667020Y-69409437D01*
X161448906Y-69480429D01*
X161173077Y-69624031D01*
X160930563Y-69818685D01*
X160775163Y-70003899D01*
X160627963Y-69824537D01*
X160386234Y-69626155D01*
X160110448Y-69478745D01*
X159811203Y-69387970D01*
X159500000Y-69357319D01*
X159188796Y-69387970D01*
X158889551Y-69478745D01*
X158613765Y-69626155D01*
X158487905Y-69729446D01*
X158443037Y-69645506D01*
X158363685Y-69548815D01*
X158266994Y-69469463D01*
X158156680Y-69410498D01*
X158036982Y-69374188D01*
X157912500Y-69361928D01*
X156007500Y-69361928D01*
X155883018Y-69374188D01*
X155763320Y-69410498D01*
X155653006Y-69469463D01*
X155556315Y-69548815D01*
X155476963Y-69645506D01*
X155417998Y-69755820D01*
X155381688Y-69875518D01*
X155369428Y-70000000D01*
X95345191Y-70000000D01*
X95303603Y-69883708D01*
X95236671Y-69758486D01*
X94992702Y-69686903D01*
X94179605Y-70500000D01*
X94193748Y-70514143D01*
X94014143Y-70693748D01*
X94000000Y-70679605D01*
X93985858Y-70693748D01*
X93806253Y-70514143D01*
X93820395Y-70500000D01*
X93007298Y-69686903D01*
X92763329Y-69758486D01*
X92642429Y-70013996D01*
X92573700Y-70288184D01*
X92559783Y-70570512D01*
X90660000Y-70570512D01*
X90660000Y-69507298D01*
X93186903Y-69507298D01*
X94000000Y-70320395D01*
X94813097Y-69507298D01*
X94741514Y-69263329D01*
X94486004Y-69142429D01*
X94211816Y-69073700D01*
X93929488Y-69059783D01*
X93649870Y-69101213D01*
X93383708Y-69196397D01*
X93258486Y-69263329D01*
X93186903Y-69507298D01*
X90660000Y-69507298D01*
X90660000Y-65435239D01*
X90778705Y-65721818D01*
X91176511Y-66317177D01*
X91682823Y-66823489D01*
X92278182Y-67221295D01*
X92939710Y-67495309D01*
X93641984Y-67635000D01*
X94358016Y-67635000D01*
X95060290Y-67495309D01*
X95721818Y-67221295D01*
X96317177Y-66823489D01*
X96823489Y-66317177D01*
X97221295Y-65721818D01*
X97495309Y-65060290D01*
X97635000Y-64358016D01*
X97635000Y-63641984D01*
X97495309Y-62939710D01*
X97463290Y-62862408D01*
X104043000Y-62862408D01*
X104043000Y-63137592D01*
X104096686Y-63407490D01*
X104201995Y-63661727D01*
X104354880Y-63890535D01*
X104549465Y-64085120D01*
X104778273Y-64238005D01*
X105032510Y-64343314D01*
X105302408Y-64397000D01*
X105577592Y-64397000D01*
X105847490Y-64343314D01*
X106101727Y-64238005D01*
X106330535Y-64085120D01*
X106525120Y-63890535D01*
X106583920Y-63802535D01*
X106592188Y-63886482D01*
X106628498Y-64006180D01*
X106687463Y-64116494D01*
X106766815Y-64213185D01*
X106863506Y-64292537D01*
X106973820Y-64351502D01*
X107093518Y-64387812D01*
X107218000Y-64400072D01*
X107694250Y-64397000D01*
X107853000Y-64238250D01*
X107853000Y-63127000D01*
X107833000Y-63127000D01*
X107833000Y-62873000D01*
X107853000Y-62873000D01*
X107853000Y-61761750D01*
X108107000Y-61761750D01*
X108107000Y-62873000D01*
X108127000Y-62873000D01*
X108127000Y-63127000D01*
X108107000Y-63127000D01*
X108107000Y-64238250D01*
X108265750Y-64397000D01*
X108742000Y-64400072D01*
X108866482Y-64387812D01*
X108986180Y-64351502D01*
X109096494Y-64292537D01*
X109193185Y-64213185D01*
X109272537Y-64116494D01*
X109331502Y-64006180D01*
X109367812Y-63886482D01*
X109376080Y-63802535D01*
X109434880Y-63890535D01*
X109629465Y-64085120D01*
X109858273Y-64238005D01*
X110112510Y-64343314D01*
X110382408Y-64397000D01*
X110657592Y-64397000D01*
X110927490Y-64343314D01*
X111181727Y-64238005D01*
X111410535Y-64085120D01*
X111605120Y-63890535D01*
X111758005Y-63661727D01*
X111790000Y-63584485D01*
X111821995Y-63661727D01*
X111974880Y-63890535D01*
X112169465Y-64085120D01*
X112398273Y-64238005D01*
X112652510Y-64343314D01*
X112922408Y-64397000D01*
X113197592Y-64397000D01*
X113467490Y-64343314D01*
X113721727Y-64238005D01*
X113950535Y-64085120D01*
X114145120Y-63890535D01*
X114298005Y-63661727D01*
X114330000Y-63584485D01*
X114361995Y-63661727D01*
X114514880Y-63890535D01*
X114709465Y-64085120D01*
X114938273Y-64238005D01*
X115192510Y-64343314D01*
X115462408Y-64397000D01*
X115737592Y-64397000D01*
X116007490Y-64343314D01*
X116261727Y-64238005D01*
X116490535Y-64085120D01*
X116685120Y-63890535D01*
X116743920Y-63802535D01*
X116752188Y-63886482D01*
X116788498Y-64006180D01*
X116847463Y-64116494D01*
X116926815Y-64213185D01*
X117023506Y-64292537D01*
X117133820Y-64351502D01*
X117253518Y-64387812D01*
X117378000Y-64400072D01*
X117854250Y-64397000D01*
X118013000Y-64238250D01*
X118013000Y-63127000D01*
X117993000Y-63127000D01*
X117993000Y-62873000D01*
X118013000Y-62873000D01*
X118013000Y-61761750D01*
X118267000Y-61761750D01*
X118267000Y-62873000D01*
X118287000Y-62873000D01*
X118287000Y-63127000D01*
X118267000Y-63127000D01*
X118267000Y-64238250D01*
X118425750Y-64397000D01*
X118902000Y-64400072D01*
X119026482Y-64387812D01*
X119146180Y-64351502D01*
X119256494Y-64292537D01*
X119353185Y-64213185D01*
X119432537Y-64116494D01*
X119491502Y-64006180D01*
X119527812Y-63886482D01*
X119536080Y-63802535D01*
X119594880Y-63890535D01*
X119789465Y-64085120D01*
X120018273Y-64238005D01*
X120272510Y-64343314D01*
X120542408Y-64397000D01*
X120817592Y-64397000D01*
X121087490Y-64343314D01*
X121341727Y-64238005D01*
X121570535Y-64085120D01*
X121765120Y-63890535D01*
X121918005Y-63661727D01*
X121950000Y-63584485D01*
X121981995Y-63661727D01*
X122134880Y-63890535D01*
X122329465Y-64085120D01*
X122558273Y-64238005D01*
X122812510Y-64343314D01*
X123082408Y-64397000D01*
X123357592Y-64397000D01*
X123627490Y-64343314D01*
X123881727Y-64238005D01*
X124110535Y-64085120D01*
X124305120Y-63890535D01*
X124458005Y-63661727D01*
X124490000Y-63584485D01*
X124521995Y-63661727D01*
X124674880Y-63890535D01*
X124869465Y-64085120D01*
X125098273Y-64238005D01*
X125352510Y-64343314D01*
X125622408Y-64397000D01*
X125897592Y-64397000D01*
X126167490Y-64343314D01*
X126421727Y-64238005D01*
X126650535Y-64085120D01*
X126845120Y-63890535D01*
X126998005Y-63661727D01*
X127030000Y-63584485D01*
X127061995Y-63661727D01*
X127214880Y-63890535D01*
X127409465Y-64085120D01*
X127638273Y-64238005D01*
X127892510Y-64343314D01*
X128162408Y-64397000D01*
X128437592Y-64397000D01*
X128707490Y-64343314D01*
X128961727Y-64238005D01*
X129190535Y-64085120D01*
X129385120Y-63890535D01*
X129538005Y-63661727D01*
X129570000Y-63584485D01*
X129601995Y-63661727D01*
X129754880Y-63890535D01*
X129949465Y-64085120D01*
X130178273Y-64238005D01*
X130432510Y-64343314D01*
X130702408Y-64397000D01*
X130977592Y-64397000D01*
X131247490Y-64343314D01*
X131501727Y-64238005D01*
X131730535Y-64085120D01*
X131925120Y-63890535D01*
X132078005Y-63661727D01*
X132110000Y-63584485D01*
X132141995Y-63661727D01*
X132294880Y-63890535D01*
X132489465Y-64085120D01*
X132718273Y-64238005D01*
X132972510Y-64343314D01*
X133242408Y-64397000D01*
X133517592Y-64397000D01*
X133787490Y-64343314D01*
X134041727Y-64238005D01*
X134270535Y-64085120D01*
X134465120Y-63890535D01*
X134618005Y-63661727D01*
X134650000Y-63584485D01*
X134681995Y-63661727D01*
X134834880Y-63890535D01*
X135029465Y-64085120D01*
X135258273Y-64238005D01*
X135512510Y-64343314D01*
X135782408Y-64397000D01*
X136057592Y-64397000D01*
X136327490Y-64343314D01*
X136581727Y-64238005D01*
X136810535Y-64085120D01*
X137005120Y-63890535D01*
X137158005Y-63661727D01*
X137190000Y-63584485D01*
X137221995Y-63661727D01*
X137374880Y-63890535D01*
X137569465Y-64085120D01*
X137798273Y-64238005D01*
X138052510Y-64343314D01*
X138322408Y-64397000D01*
X138597592Y-64397000D01*
X138867490Y-64343314D01*
X139121727Y-64238005D01*
X139350535Y-64085120D01*
X139545120Y-63890535D01*
X139698005Y-63661727D01*
X139730000Y-63584485D01*
X139761995Y-63661727D01*
X139914880Y-63890535D01*
X140109465Y-64085120D01*
X140338273Y-64238005D01*
X140592510Y-64343314D01*
X140862408Y-64397000D01*
X141137592Y-64397000D01*
X141407490Y-64343314D01*
X141661727Y-64238005D01*
X141890535Y-64085120D01*
X142085120Y-63890535D01*
X142238005Y-63661727D01*
X142343314Y-63407490D01*
X142397000Y-63137592D01*
X142397000Y-62862408D01*
X142343314Y-62592510D01*
X142238005Y-62338273D01*
X142085120Y-62109465D01*
X141890535Y-61914880D01*
X141661727Y-61761995D01*
X141407490Y-61656686D01*
X141137592Y-61603000D01*
X140862408Y-61603000D01*
X140592510Y-61656686D01*
X140338273Y-61761995D01*
X140109465Y-61914880D01*
X139914880Y-62109465D01*
X139761995Y-62338273D01*
X139730000Y-62415515D01*
X139698005Y-62338273D01*
X139545120Y-62109465D01*
X139350535Y-61914880D01*
X139121727Y-61761995D01*
X138867490Y-61656686D01*
X138597592Y-61603000D01*
X138322408Y-61603000D01*
X138052510Y-61656686D01*
X137798273Y-61761995D01*
X137569465Y-61914880D01*
X137374880Y-62109465D01*
X137221995Y-62338273D01*
X137190000Y-62415515D01*
X137158005Y-62338273D01*
X137005120Y-62109465D01*
X136810535Y-61914880D01*
X136581727Y-61761995D01*
X136327490Y-61656686D01*
X136057592Y-61603000D01*
X135782408Y-61603000D01*
X135512510Y-61656686D01*
X135258273Y-61761995D01*
X135029465Y-61914880D01*
X134834880Y-62109465D01*
X134681995Y-62338273D01*
X134650000Y-62415515D01*
X134618005Y-62338273D01*
X134465120Y-62109465D01*
X134270535Y-61914880D01*
X134041727Y-61761995D01*
X133787490Y-61656686D01*
X133517592Y-61603000D01*
X133242408Y-61603000D01*
X132972510Y-61656686D01*
X132718273Y-61761995D01*
X132489465Y-61914880D01*
X132294880Y-62109465D01*
X132141995Y-62338273D01*
X132110000Y-62415515D01*
X132078005Y-62338273D01*
X131925120Y-62109465D01*
X131730535Y-61914880D01*
X131501727Y-61761995D01*
X131247490Y-61656686D01*
X130977592Y-61603000D01*
X130702408Y-61603000D01*
X130432510Y-61656686D01*
X130178273Y-61761995D01*
X129949465Y-61914880D01*
X129754880Y-62109465D01*
X129601995Y-62338273D01*
X129570000Y-62415515D01*
X129538005Y-62338273D01*
X129385120Y-62109465D01*
X129190535Y-61914880D01*
X128961727Y-61761995D01*
X128707490Y-61656686D01*
X128437592Y-61603000D01*
X128162408Y-61603000D01*
X127892510Y-61656686D01*
X127638273Y-61761995D01*
X127409465Y-61914880D01*
X127214880Y-62109465D01*
X127061995Y-62338273D01*
X127030000Y-62415515D01*
X126998005Y-62338273D01*
X126845120Y-62109465D01*
X126650535Y-61914880D01*
X126421727Y-61761995D01*
X126167490Y-61656686D01*
X125897592Y-61603000D01*
X125622408Y-61603000D01*
X125352510Y-61656686D01*
X125098273Y-61761995D01*
X124869465Y-61914880D01*
X124674880Y-62109465D01*
X124521995Y-62338273D01*
X124490000Y-62415515D01*
X124458005Y-62338273D01*
X124305120Y-62109465D01*
X124110535Y-61914880D01*
X123881727Y-61761995D01*
X123627490Y-61656686D01*
X123357592Y-61603000D01*
X123082408Y-61603000D01*
X122812510Y-61656686D01*
X122558273Y-61761995D01*
X122329465Y-61914880D01*
X122134880Y-62109465D01*
X121981995Y-62338273D01*
X121950000Y-62415515D01*
X121918005Y-62338273D01*
X121765120Y-62109465D01*
X121570535Y-61914880D01*
X121341727Y-61761995D01*
X121087490Y-61656686D01*
X120817592Y-61603000D01*
X120542408Y-61603000D01*
X120272510Y-61656686D01*
X120018273Y-61761995D01*
X119789465Y-61914880D01*
X119594880Y-62109465D01*
X119536080Y-62197465D01*
X119527812Y-62113518D01*
X119491502Y-61993820D01*
X119432537Y-61883506D01*
X119353185Y-61786815D01*
X119256494Y-61707463D01*
X119146180Y-61648498D01*
X119026482Y-61612188D01*
X118902000Y-61599928D01*
X118425750Y-61603000D01*
X118267000Y-61761750D01*
X118013000Y-61761750D01*
X117854250Y-61603000D01*
X117378000Y-61599928D01*
X117253518Y-61612188D01*
X117133820Y-61648498D01*
X117023506Y-61707463D01*
X116926815Y-61786815D01*
X116847463Y-61883506D01*
X116788498Y-61993820D01*
X116752188Y-62113518D01*
X116743920Y-62197465D01*
X116685120Y-62109465D01*
X116490535Y-61914880D01*
X116261727Y-61761995D01*
X116007490Y-61656686D01*
X115737592Y-61603000D01*
X115462408Y-61603000D01*
X115192510Y-61656686D01*
X114938273Y-61761995D01*
X114709465Y-61914880D01*
X114514880Y-62109465D01*
X114361995Y-62338273D01*
X114330000Y-62415515D01*
X114298005Y-62338273D01*
X114145120Y-62109465D01*
X113950535Y-61914880D01*
X113721727Y-61761995D01*
X113467490Y-61656686D01*
X113197592Y-61603000D01*
X112922408Y-61603000D01*
X112652510Y-61656686D01*
X112398273Y-61761995D01*
X112169465Y-61914880D01*
X111974880Y-62109465D01*
X111821995Y-62338273D01*
X111790000Y-62415515D01*
X111758005Y-62338273D01*
X111605120Y-62109465D01*
X111410535Y-61914880D01*
X111181727Y-61761995D01*
X110927490Y-61656686D01*
X110657592Y-61603000D01*
X110382408Y-61603000D01*
X110112510Y-61656686D01*
X109858273Y-61761995D01*
X109629465Y-61914880D01*
X109434880Y-62109465D01*
X109376080Y-62197465D01*
X109367812Y-62113518D01*
X109331502Y-61993820D01*
X109272537Y-61883506D01*
X109193185Y-61786815D01*
X109096494Y-61707463D01*
X108986180Y-61648498D01*
X108866482Y-61612188D01*
X108742000Y-61599928D01*
X108265750Y-61603000D01*
X108107000Y-61761750D01*
X107853000Y-61761750D01*
X107694250Y-61603000D01*
X107218000Y-61599928D01*
X107093518Y-61612188D01*
X106973820Y-61648498D01*
X106863506Y-61707463D01*
X106766815Y-61786815D01*
X106687463Y-61883506D01*
X106628498Y-61993820D01*
X106592188Y-62113518D01*
X106583920Y-62197465D01*
X106525120Y-62109465D01*
X106330535Y-61914880D01*
X106101727Y-61761995D01*
X105847490Y-61656686D01*
X105577592Y-61603000D01*
X105302408Y-61603000D01*
X105032510Y-61656686D01*
X104778273Y-61761995D01*
X104549465Y-61914880D01*
X104354880Y-62109465D01*
X104201995Y-62338273D01*
X104096686Y-62592510D01*
X104043000Y-62862408D01*
X97463290Y-62862408D01*
X97221295Y-62278182D01*
X96823489Y-61682823D01*
X96317177Y-61176511D01*
X95721818Y-60778705D01*
X95435239Y-60660000D01*
X150564761Y-60660000D01*
X150278182Y-60778705D01*
%TA.AperFunction,Conductor*%
D32*
G36*
X150278182Y-60778705D02*
G01*
X149682823Y-61176511D01*
X149176511Y-61682823D01*
X148778705Y-62278182D01*
X148504691Y-62939710D01*
X148365000Y-63641984D01*
X148365000Y-64358016D01*
X148504691Y-65060290D01*
X148778705Y-65721818D01*
X149176511Y-66317177D01*
X149682823Y-66823489D01*
X150278182Y-67221295D01*
X150939710Y-67495309D01*
X151641984Y-67635000D01*
X152358016Y-67635000D01*
X153060290Y-67495309D01*
X153721818Y-67221295D01*
X154317177Y-66823489D01*
X154823489Y-66317177D01*
X155221295Y-65721818D01*
X155495309Y-65060290D01*
X155635000Y-64358016D01*
X155635000Y-63641984D01*
X155495309Y-62939710D01*
X155221295Y-62278182D01*
X154823489Y-61682823D01*
X154317177Y-61176511D01*
X153721818Y-60778705D01*
X153435239Y-60660000D01*
X170967722Y-60660000D01*
X171648126Y-60726714D01*
X172271572Y-60914943D01*
X172846579Y-61220681D01*
X173351247Y-61632279D01*
X173766362Y-62134067D01*
X174076105Y-62706924D01*
X174268682Y-63329039D01*
X174340000Y-64007584D01*
X174340001Y-111967711D01*
X174273286Y-112648126D01*
X174085057Y-113271570D01*
X173779323Y-113846573D01*
X173367721Y-114351248D01*
X172865933Y-114766362D01*
X172293077Y-115076104D01*
X171670961Y-115268682D01*
X170992417Y-115340000D01*
X153435239Y-115340000D01*
X153721818Y-115221295D01*
X154317177Y-114823489D01*
X154823489Y-114317177D01*
X155221295Y-113721818D01*
X155495309Y-113060290D01*
X155635000Y-112358016D01*
X155635000Y-111776320D01*
X156920000Y-111776320D01*
X156920000Y-112223679D01*
X156941705Y-112444050D01*
X157027476Y-112726801D01*
X157166762Y-112987386D01*
X157354208Y-113215792D01*
X157582613Y-113403238D01*
X157843198Y-113542524D01*
X158125949Y-113628295D01*
X158420000Y-113657257D01*
X158714050Y-113628295D01*
X158996801Y-113542524D01*
X159257386Y-113403238D01*
X159485792Y-113215792D01*
X159673238Y-112987387D01*
X159690000Y-112956027D01*
X159706762Y-112987386D01*
X159894208Y-113215792D01*
X160122613Y-113403238D01*
X160383198Y-113542524D01*
X160665949Y-113628295D01*
X160960000Y-113657257D01*
X161254050Y-113628295D01*
X161536801Y-113542524D01*
X161797386Y-113403238D01*
X162025792Y-113215792D01*
X162030570Y-113209970D01*
X162045498Y-113259180D01*
X162104463Y-113369494D01*
X162183815Y-113466185D01*
X162280506Y-113545537D01*
X162390820Y-113604502D01*
X162510518Y-113640812D01*
X162635000Y-113653072D01*
X163214250Y-113650000D01*
X163373000Y-113491250D01*
X163373000Y-112127000D01*
X163627000Y-112127000D01*
X163627000Y-113491250D01*
X163785750Y-113650000D01*
X164365000Y-113653072D01*
X164489482Y-113640812D01*
X164609180Y-113604502D01*
X164719494Y-113545537D01*
X164816185Y-113466185D01*
X164895537Y-113369494D01*
X164954502Y-113259180D01*
X164990812Y-113139482D01*
X165003072Y-113015000D01*
X165000000Y-112285750D01*
X164841250Y-112127000D01*
X163627000Y-112127000D01*
X163373000Y-112127000D01*
X163353000Y-112127000D01*
X163353000Y-111873000D01*
X163373000Y-111873000D01*
X163373000Y-110508750D01*
X163627000Y-110508750D01*
X163627000Y-111873000D01*
X164841250Y-111873000D01*
X165000000Y-111714250D01*
X165003072Y-110985000D01*
X164990812Y-110860518D01*
X164954502Y-110740820D01*
X164895537Y-110630506D01*
X164816185Y-110533815D01*
X164719494Y-110454463D01*
X164609180Y-110395498D01*
X164489482Y-110359188D01*
X164365000Y-110346928D01*
X163785750Y-110350000D01*
X163627000Y-110508750D01*
X163373000Y-110508750D01*
X163214250Y-110350000D01*
X162635000Y-110346928D01*
X162510518Y-110359188D01*
X162390820Y-110395498D01*
X162280506Y-110454463D01*
X162183815Y-110533815D01*
X162104463Y-110630506D01*
X162045498Y-110740820D01*
X162030570Y-110790030D01*
X162025792Y-110784208D01*
X161797387Y-110596762D01*
X161536802Y-110457476D01*
X161254051Y-110371705D01*
X160960000Y-110342743D01*
X160665950Y-110371705D01*
X160383199Y-110457476D01*
X160122614Y-110596762D01*
X159894208Y-110784208D01*
X159706762Y-111012613D01*
X159690000Y-111043972D01*
X159673238Y-111012613D01*
X159485792Y-110784208D01*
X159257387Y-110596762D01*
X158996802Y-110457476D01*
X158714051Y-110371705D01*
X158420000Y-110342743D01*
X158125950Y-110371705D01*
X157843199Y-110457476D01*
X157582614Y-110596762D01*
X157354208Y-110784208D01*
X157166762Y-111012613D01*
X157027476Y-111273198D01*
X156941705Y-111555949D01*
X156920000Y-111776320D01*
X155635000Y-111776320D01*
X155635000Y-111641984D01*
X155495309Y-110939710D01*
X155221295Y-110278182D01*
X154823489Y-109682823D01*
X154575665Y-109434999D01*
X163617872Y-109434999D01*
X163685901Y-109441699D01*
X163753930Y-109434999D01*
X163753938Y-109434999D01*
X163957408Y-109414959D01*
X164218482Y-109335763D01*
X164459089Y-109207156D01*
X164669982Y-109034080D01*
X164713355Y-108981230D01*
X166194585Y-107500000D01*
X168861928Y-107500000D01*
X168874188Y-107624482D01*
X168910498Y-107744180D01*
X168969463Y-107854494D01*
X169048815Y-107951185D01*
X169145506Y-108030537D01*
X169255820Y-108089502D01*
X169375518Y-108125812D01*
X169500000Y-108138072D01*
X170714250Y-108135000D01*
X170873000Y-107976250D01*
X170873000Y-106127000D01*
X171127000Y-106127000D01*
X171127000Y-107976250D01*
X171285750Y-108135000D01*
X172500000Y-108138072D01*
X172624482Y-108125812D01*
X172744180Y-108089502D01*
X172854494Y-108030537D01*
X172951185Y-107951185D01*
X173030537Y-107854494D01*
X173089502Y-107744180D01*
X173125812Y-107624482D01*
X173138072Y-107500000D01*
X173135000Y-106285750D01*
X172976250Y-106127000D01*
X171127000Y-106127000D01*
X170873000Y-106127000D01*
X169023750Y-106127000D01*
X168865000Y-106285750D01*
X168861928Y-107500000D01*
X166194585Y-107500000D01*
X168862767Y-104831818D01*
X168865000Y-105714250D01*
X169023750Y-105873000D01*
X170873000Y-105873000D01*
X170873000Y-104023750D01*
X171127000Y-104023750D01*
X171127000Y-105873000D01*
X172976250Y-105873000D01*
X173135000Y-105714250D01*
X173138072Y-104500000D01*
X173125812Y-104375518D01*
X173089502Y-104255820D01*
X173030537Y-104145506D01*
X172951185Y-104048815D01*
X172854494Y-103969463D01*
X172744180Y-103910498D01*
X172624482Y-103874188D01*
X172500000Y-103861928D01*
X171285750Y-103865000D01*
X171127000Y-104023750D01*
X170873000Y-104023750D01*
X170714250Y-103865000D01*
X169831818Y-103862767D01*
X170664495Y-103030091D01*
X170789721Y-103055000D01*
X171210279Y-103055000D01*
X171622756Y-102972953D01*
X172011302Y-102812012D01*
X172360983Y-102578363D01*
X172658363Y-102280983D01*
X172892012Y-101931302D01*
X173052953Y-101542756D01*
X173135000Y-101130279D01*
X173135000Y-100709721D01*
X173052953Y-100297244D01*
X172892012Y-99908698D01*
X172658363Y-99559017D01*
X172360983Y-99261637D01*
X172011302Y-99027988D01*
X171622756Y-98867047D01*
X171210279Y-98785000D01*
X170789721Y-98785000D01*
X170377244Y-98867047D01*
X169988698Y-99027988D01*
X169639017Y-99261637D01*
X169341637Y-99559017D01*
X169107988Y-99908698D01*
X168947047Y-100297244D01*
X168865000Y-100709721D01*
X168865000Y-100912214D01*
X163112216Y-106664999D01*
X152277781Y-106664999D01*
X152379853Y-106418574D01*
X152435000Y-106141335D01*
X152435000Y-105858665D01*
X152379853Y-105581426D01*
X152271680Y-105320273D01*
X152114637Y-105085241D01*
X151914759Y-104885363D01*
X151679727Y-104728320D01*
X151418574Y-104620147D01*
X151141335Y-104565000D01*
X150858665Y-104565000D01*
X150581426Y-104620147D01*
X150320273Y-104728320D01*
X150085241Y-104885363D01*
X149885363Y-105085241D01*
X149728320Y-105320273D01*
X149620147Y-105581426D01*
X149565000Y-105858665D01*
X149565000Y-106141335D01*
X149620147Y-106418574D01*
X149722219Y-106664999D01*
X147277781Y-106664999D01*
X147379853Y-106418574D01*
X147435000Y-106141335D01*
X147435000Y-105858665D01*
X147379853Y-105581426D01*
X147271680Y-105320273D01*
X147114637Y-105085241D01*
X146914759Y-104885363D01*
X146679727Y-104728320D01*
X146418574Y-104620147D01*
X146141335Y-104565000D01*
X145858665Y-104565000D01*
X145581426Y-104620147D01*
X145320273Y-104728320D01*
X145085241Y-104885363D01*
X144885363Y-105085241D01*
X144728320Y-105320273D01*
X144620147Y-105581426D01*
X144565000Y-105858665D01*
X144565000Y-106141335D01*
X144620147Y-106418574D01*
X144722219Y-106664999D01*
X142277781Y-106664999D01*
X142379853Y-106418574D01*
X142435000Y-106141335D01*
X142435000Y-105858665D01*
X142379853Y-105581426D01*
X142271680Y-105320273D01*
X142114637Y-105085241D01*
X141914759Y-104885363D01*
X141679727Y-104728320D01*
X141418574Y-104620147D01*
X141141335Y-104565000D01*
X140858665Y-104565000D01*
X140581426Y-104620147D01*
X140320273Y-104728320D01*
X140085241Y-104885363D01*
X139885363Y-105085241D01*
X139728320Y-105320273D01*
X139620147Y-105581426D01*
X139565000Y-105858665D01*
X139565000Y-106141335D01*
X139620147Y-106418574D01*
X139722219Y-106664999D01*
X137277781Y-106664999D01*
X137379853Y-106418574D01*
X137435000Y-106141335D01*
X137435000Y-105858665D01*
X137379853Y-105581426D01*
X137271680Y-105320273D01*
X137114637Y-105085241D01*
X136914759Y-104885363D01*
X136679727Y-104728320D01*
X136418574Y-104620147D01*
X136141335Y-104565000D01*
X135858665Y-104565000D01*
X135581426Y-104620147D01*
X135320273Y-104728320D01*
X135085241Y-104885363D01*
X134885363Y-105085241D01*
X134728320Y-105320273D01*
X134620147Y-105581426D01*
X134565000Y-105858665D01*
X134565000Y-106141335D01*
X134620147Y-106418574D01*
X134722219Y-106664999D01*
X132277781Y-106664999D01*
X132379853Y-106418574D01*
X132435000Y-106141335D01*
X132435000Y-105858665D01*
X132379853Y-105581426D01*
X132271680Y-105320273D01*
X132114637Y-105085241D01*
X131914759Y-104885363D01*
X131679727Y-104728320D01*
X131418574Y-104620147D01*
X131141335Y-104565000D01*
X130858665Y-104565000D01*
X130581426Y-104620147D01*
X130320273Y-104728320D01*
X130085241Y-104885363D01*
X129885363Y-105085241D01*
X129728320Y-105320273D01*
X129620147Y-105581426D01*
X129565000Y-105858665D01*
X129565000Y-106141335D01*
X129620147Y-106418574D01*
X129722219Y-106664999D01*
X127277781Y-106664999D01*
X127379853Y-106418574D01*
X127435000Y-106141335D01*
X127435000Y-105858665D01*
X127379853Y-105581426D01*
X127271680Y-105320273D01*
X127114637Y-105085241D01*
X126914759Y-104885363D01*
X126679727Y-104728320D01*
X126418574Y-104620147D01*
X126141335Y-104565000D01*
X125858665Y-104565000D01*
X125581426Y-104620147D01*
X125320273Y-104728320D01*
X125085241Y-104885363D01*
X124885363Y-105085241D01*
X124728320Y-105320273D01*
X124620147Y-105581426D01*
X124565000Y-105858665D01*
X124565000Y-106141335D01*
X124620147Y-106418574D01*
X124722219Y-106664999D01*
X122277781Y-106664999D01*
X122379853Y-106418574D01*
X122435000Y-106141335D01*
X122435000Y-105858665D01*
X122379853Y-105581426D01*
X122271680Y-105320273D01*
X122114637Y-105085241D01*
X121914759Y-104885363D01*
X121679727Y-104728320D01*
X121418574Y-104620147D01*
X121141335Y-104565000D01*
X120858665Y-104565000D01*
X120581426Y-104620147D01*
X120320273Y-104728320D01*
X120085241Y-104885363D01*
X119885363Y-105085241D01*
X119728320Y-105320273D01*
X119620147Y-105581426D01*
X119565000Y-105858665D01*
X119565000Y-106141335D01*
X119620147Y-106418574D01*
X119722219Y-106664999D01*
X117277781Y-106664999D01*
X117379853Y-106418574D01*
X117435000Y-106141335D01*
X117435000Y-105858665D01*
X117379853Y-105581426D01*
X117271680Y-105320273D01*
X117114637Y-105085241D01*
X116914759Y-104885363D01*
X116679727Y-104728320D01*
X116418574Y-104620147D01*
X116141335Y-104565000D01*
X115858665Y-104565000D01*
X115581426Y-104620147D01*
X115320273Y-104728320D01*
X115085241Y-104885363D01*
X114885363Y-105085241D01*
X114728320Y-105320273D01*
X114620147Y-105581426D01*
X114565000Y-105858665D01*
X114565000Y-106141335D01*
X114620147Y-106418574D01*
X114722219Y-106664999D01*
X108018027Y-106664999D01*
X107950000Y-106658299D01*
X107881973Y-106664999D01*
X107881964Y-106664999D01*
X107678494Y-106685039D01*
X107417420Y-106764235D01*
X107176813Y-106892842D01*
X107176811Y-106892843D01*
X107176812Y-106892843D01*
X107018767Y-107022547D01*
X107018765Y-107022549D01*
X106965920Y-107065918D01*
X106922551Y-107118763D01*
X105176315Y-108865000D01*
X104789721Y-108865000D01*
X104377244Y-108947047D01*
X103988698Y-109107988D01*
X103639017Y-109341637D01*
X103341637Y-109639017D01*
X103107988Y-109988698D01*
X102947047Y-110377244D01*
X102865000Y-110789721D01*
X102865000Y-111210279D01*
X102947047Y-111622756D01*
X103107988Y-112011302D01*
X103341637Y-112360983D01*
X103639017Y-112658363D01*
X103988698Y-112892012D01*
X104377244Y-113052953D01*
X104789721Y-113135000D01*
X105210279Y-113135000D01*
X105622756Y-113052953D01*
X106011302Y-112892012D01*
X106360983Y-112658363D01*
X106658363Y-112360983D01*
X106892012Y-112011302D01*
X107052953Y-111622756D01*
X107135000Y-111210279D01*
X107135000Y-110823685D01*
X107561928Y-110396758D01*
X107561928Y-112500000D01*
X107574188Y-112624482D01*
X107610498Y-112744180D01*
X107669463Y-112854494D01*
X107748815Y-112951185D01*
X107845506Y-113030537D01*
X107955820Y-113089502D01*
X108075518Y-113125812D01*
X108200000Y-113138072D01*
X111200000Y-113138072D01*
X111324482Y-113125812D01*
X111444180Y-113089502D01*
X111554494Y-113030537D01*
X111651185Y-112951185D01*
X111730537Y-112854494D01*
X111789502Y-112744180D01*
X111825812Y-112624482D01*
X111838072Y-112500000D01*
X111838072Y-111200000D01*
X141561928Y-111200000D01*
X141561928Y-112800000D01*
X141574188Y-112924482D01*
X141610498Y-113044180D01*
X141669463Y-113154494D01*
X141748815Y-113251185D01*
X141845506Y-113330537D01*
X141955820Y-113389502D01*
X142075518Y-113425812D01*
X142200000Y-113438072D01*
X143800000Y-113438072D01*
X143924482Y-113425812D01*
X144044180Y-113389502D01*
X144154494Y-113330537D01*
X144251185Y-113251185D01*
X144261807Y-113238242D01*
X144513996Y-113357571D01*
X144788184Y-113426300D01*
X145070512Y-113440217D01*
X145350130Y-113398787D01*
X145616292Y-113303603D01*
X145741514Y-113236671D01*
X145813097Y-112992702D01*
X145000000Y-112179605D01*
X144985858Y-112193748D01*
X144806253Y-112014143D01*
X144820395Y-112000000D01*
X145179605Y-112000000D01*
X145992702Y-112813097D01*
X146236671Y-112741514D01*
X146357571Y-112486004D01*
X146426300Y-112211816D01*
X146440217Y-111929488D01*
X146398787Y-111649870D01*
X146303603Y-111383708D01*
X146236671Y-111258486D01*
X145992702Y-111186903D01*
X145179605Y-112000000D01*
X144820395Y-112000000D01*
X144806253Y-111985858D01*
X144985858Y-111806253D01*
X145000000Y-111820395D01*
X145813097Y-111007298D01*
X145741514Y-110763329D01*
X145486004Y-110642429D01*
X145211816Y-110573700D01*
X144929488Y-110559783D01*
X144649870Y-110601213D01*
X144383708Y-110696397D01*
X144261691Y-110761616D01*
X144251185Y-110748815D01*
X144154494Y-110669463D01*
X144044180Y-110610498D01*
X143924482Y-110574188D01*
X143800000Y-110561928D01*
X142200000Y-110561928D01*
X142075518Y-110574188D01*
X141955820Y-110610498D01*
X141845506Y-110669463D01*
X141748815Y-110748815D01*
X141669463Y-110845506D01*
X141610498Y-110955820D01*
X141574188Y-111075518D01*
X141561928Y-111200000D01*
X111838072Y-111200000D01*
X111838072Y-109500000D01*
X111831670Y-109434999D01*
X149424335Y-109434999D01*
X149176511Y-109682823D01*
X148778705Y-110278182D01*
X148504691Y-110939710D01*
X148365000Y-111641984D01*
X148365000Y-112358016D01*
X148504691Y-113060290D01*
X148778705Y-113721818D01*
X149176511Y-114317177D01*
X149682823Y-114823489D01*
X150278182Y-115221295D01*
X150564761Y-115340000D01*
X95435239Y-115340000D01*
X95721818Y-115221295D01*
X96317177Y-114823489D01*
X96823489Y-114317177D01*
X97221295Y-113721818D01*
X97495309Y-113060290D01*
X97635000Y-112358016D01*
X97635000Y-111641984D01*
X97495309Y-110939710D01*
X97433182Y-110789721D01*
X98165000Y-110789721D01*
X98165000Y-111210279D01*
X98247047Y-111622756D01*
X98407988Y-112011302D01*
X98641637Y-112360983D01*
X98939017Y-112658363D01*
X99288698Y-112892012D01*
X99677244Y-113052953D01*
X100089721Y-113135000D01*
X100510279Y-113135000D01*
X100922756Y-113052953D01*
X101311302Y-112892012D01*
X101660983Y-112658363D01*
X101958363Y-112360983D01*
X102192012Y-112011302D01*
X102352953Y-111622756D01*
X102435000Y-111210279D01*
X102435000Y-110789721D01*
X102352953Y-110377244D01*
X102192012Y-109988698D01*
X101958363Y-109639017D01*
X101660983Y-109341637D01*
X101311302Y-109107988D01*
X100922756Y-108947047D01*
X100510279Y-108865000D01*
X100089721Y-108865000D01*
X99677244Y-108947047D01*
X99288698Y-109107988D01*
X98939017Y-109341637D01*
X98641637Y-109639017D01*
X98407988Y-109988698D01*
X98247047Y-110377244D01*
X98165000Y-110789721D01*
X97433182Y-110789721D01*
X97221295Y-110278182D01*
X96823489Y-109682823D01*
X96317177Y-109176511D01*
X95721818Y-108778705D01*
X95060290Y-108504691D01*
X94358016Y-108365000D01*
X93641984Y-108365000D01*
X92939710Y-108504691D01*
X92278182Y-108778705D01*
X91682823Y-109176511D01*
X91176511Y-109682823D01*
X90778705Y-110278182D01*
X90660000Y-110564761D01*
X90660000Y-104000000D01*
X155409428Y-104000000D01*
X155409428Y-106000000D01*
X155421688Y-106124482D01*
X155457998Y-106244180D01*
X155516963Y-106354494D01*
X155596315Y-106451185D01*
X155693006Y-106530537D01*
X155803320Y-106589502D01*
X155923018Y-106625812D01*
X156047500Y-106638072D01*
X157952500Y-106638072D01*
X158076982Y-106625812D01*
X158196680Y-106589502D01*
X158306994Y-106530537D01*
X158403685Y-106451185D01*
X158483037Y-106354494D01*
X158527905Y-106270553D01*
X158653766Y-106373845D01*
X158929552Y-106521255D01*
X159228797Y-106612030D01*
X159540000Y-106642681D01*
X159851204Y-106612030D01*
X160150449Y-106521255D01*
X160426235Y-106373845D01*
X160667963Y-106175463D01*
X160815162Y-105996100D01*
X160970563Y-106181315D01*
X161213077Y-106375969D01*
X161488906Y-106519571D01*
X161707020Y-106590563D01*
X161953000Y-106470594D01*
X161953000Y-105127000D01*
X162207000Y-105127000D01*
X162207000Y-106470594D01*
X162452980Y-106590563D01*
X162671094Y-106519571D01*
X162946923Y-106375969D01*
X163189437Y-106181315D01*
X163389316Y-105943089D01*
X163538879Y-105670446D01*
X163632378Y-105373863D01*
X163505570Y-105127000D01*
X162207000Y-105127000D01*
X161953000Y-105127000D01*
X161933000Y-105127000D01*
X161933000Y-104873000D01*
X161953000Y-104873000D01*
X161953000Y-103529406D01*
X162207000Y-103529406D01*
X162207000Y-104873000D01*
X163505570Y-104873000D01*
X163632378Y-104626137D01*
X163538879Y-104329554D01*
X163389316Y-104056911D01*
X163189437Y-103818685D01*
X162946923Y-103624031D01*
X162671094Y-103480429D01*
X162452980Y-103409437D01*
X162207000Y-103529406D01*
X161953000Y-103529406D01*
X161707020Y-103409437D01*
X161488906Y-103480429D01*
X161213077Y-103624031D01*
X160970563Y-103818685D01*
X160815163Y-104003899D01*
X160667963Y-103824537D01*
X160426234Y-103626155D01*
X160150448Y-103478745D01*
X159851203Y-103387970D01*
X159540000Y-103357319D01*
X159228796Y-103387970D01*
X158929551Y-103478745D01*
X158653765Y-103626155D01*
X158527905Y-103729446D01*
X158483037Y-103645506D01*
X158403685Y-103548815D01*
X158306994Y-103469463D01*
X158196680Y-103410498D01*
X158076982Y-103374188D01*
X157952500Y-103361928D01*
X156047500Y-103361928D01*
X155923018Y-103374188D01*
X155803320Y-103410498D01*
X155693006Y-103469463D01*
X155596315Y-103548815D01*
X155516963Y-103645506D01*
X155457998Y-103755820D01*
X155421688Y-103875518D01*
X155409428Y-104000000D01*
X90660000Y-104000000D01*
X90660000Y-100400000D01*
X91261928Y-100400000D01*
X91261928Y-102600000D01*
X91274188Y-102724482D01*
X91310498Y-102844180D01*
X91369463Y-102954494D01*
X91448815Y-103051185D01*
X91545506Y-103130537D01*
X91655820Y-103189502D01*
X91775518Y-103225812D01*
X91900000Y-103238072D01*
X94100000Y-103238072D01*
X94224482Y-103225812D01*
X94344180Y-103189502D01*
X94454494Y-103130537D01*
X94551185Y-103051185D01*
X94630537Y-102954494D01*
X94689502Y-102844180D01*
X94725812Y-102724482D01*
X94738072Y-102600000D01*
X94738072Y-101896122D01*
X98930825Y-101896122D01*
X98995425Y-102109094D01*
X99145469Y-102414329D01*
X99352178Y-102684427D01*
X99607609Y-102909008D01*
X99901946Y-103079442D01*
X100223877Y-103189179D01*
X100493000Y-103071600D01*
X100493000Y-101627000D01*
X100747000Y-101627000D01*
X100747000Y-103071600D01*
X101016123Y-103189179D01*
X101338054Y-103079442D01*
X101632391Y-102909008D01*
X101887822Y-102684427D01*
X102094531Y-102414329D01*
X102244575Y-102109094D01*
X102309175Y-101896122D01*
X102191125Y-101627000D01*
X100747000Y-101627000D01*
X100493000Y-101627000D01*
X99048875Y-101627000D01*
X98930825Y-101896122D01*
X94738072Y-101896122D01*
X94738072Y-101103878D01*
X98930825Y-101103878D01*
X99048875Y-101373000D01*
X100493000Y-101373000D01*
X100493000Y-99928400D01*
X100747000Y-99928400D01*
X100747000Y-101373000D01*
X102191125Y-101373000D01*
X102197413Y-101358665D01*
X102565000Y-101358665D01*
X102565000Y-101641335D01*
X102620147Y-101918574D01*
X102728320Y-102179727D01*
X102885363Y-102414759D01*
X103085241Y-102614637D01*
X103320273Y-102771680D01*
X103581426Y-102879853D01*
X103858665Y-102935000D01*
X104141335Y-102935000D01*
X104418574Y-102879853D01*
X104679727Y-102771680D01*
X104914759Y-102614637D01*
X105114637Y-102414759D01*
X105271680Y-102179727D01*
X105379853Y-101918574D01*
X105393684Y-101849039D01*
X110228096Y-101849039D01*
X110268754Y-101983087D01*
X110388963Y-102237420D01*
X110556481Y-102463414D01*
X110764869Y-102652385D01*
X111006119Y-102797070D01*
X111270960Y-102891909D01*
X111493000Y-102770624D01*
X111493000Y-101627000D01*
X111747000Y-101627000D01*
X111747000Y-102770624D01*
X111969040Y-102891909D01*
X112233881Y-102797070D01*
X112475131Y-102652385D01*
X112683519Y-102463414D01*
X112851037Y-102237420D01*
X112971246Y-101983087D01*
X113011904Y-101849039D01*
X112889915Y-101627000D01*
X111747000Y-101627000D01*
X111493000Y-101627000D01*
X110350085Y-101627000D01*
X110228096Y-101849039D01*
X105393684Y-101849039D01*
X105435000Y-101641335D01*
X105435000Y-101358665D01*
X105393685Y-101150961D01*
X110228096Y-101150961D01*
X110350085Y-101373000D01*
X111493000Y-101373000D01*
X111493000Y-100229376D01*
X111747000Y-100229376D01*
X111747000Y-101373000D01*
X112889915Y-101373000D01*
X113011904Y-101150961D01*
X112971246Y-101016913D01*
X112851037Y-100762580D01*
X112683519Y-100536586D01*
X112475131Y-100347615D01*
X112233881Y-100202930D01*
X111969040Y-100108091D01*
X111747000Y-100229376D01*
X111493000Y-100229376D01*
X111270960Y-100108091D01*
X111006119Y-100202930D01*
X110764869Y-100347615D01*
X110556481Y-100536586D01*
X110388963Y-100762580D01*
X110268754Y-101016913D01*
X110228096Y-101150961D01*
X105393685Y-101150961D01*
X105379853Y-101081426D01*
X105271680Y-100820273D01*
X105114637Y-100585241D01*
X104914759Y-100385363D01*
X104679727Y-100228320D01*
X104418574Y-100120147D01*
X104141335Y-100065000D01*
X103858665Y-100065000D01*
X103581426Y-100120147D01*
X103320273Y-100228320D01*
X103085241Y-100385363D01*
X102885363Y-100585241D01*
X102728320Y-100820273D01*
X102620147Y-101081426D01*
X102565000Y-101358665D01*
X102197413Y-101358665D01*
X102309175Y-101103878D01*
X102244575Y-100890906D01*
X102094531Y-100585671D01*
X101887822Y-100315573D01*
X101632391Y-100090992D01*
X101338054Y-99920558D01*
X101016123Y-99810821D01*
X100747000Y-99928400D01*
X100493000Y-99928400D01*
X100223877Y-99810821D01*
X99901946Y-99920558D01*
X99607609Y-100090992D01*
X99352178Y-100315573D01*
X99145469Y-100585671D01*
X98995425Y-100890906D01*
X98930825Y-101103878D01*
X94738072Y-101103878D01*
X94738072Y-100400000D01*
X94725812Y-100275518D01*
X94689502Y-100155820D01*
X94630537Y-100045506D01*
X94551185Y-99948815D01*
X94454494Y-99869463D01*
X94344180Y-99810498D01*
X94224482Y-99774188D01*
X94100000Y-99761928D01*
X91900000Y-99761928D01*
X91775518Y-99774188D01*
X91655820Y-99810498D01*
X91545506Y-99869463D01*
X91448815Y-99948815D01*
X91369463Y-100045506D01*
X91310498Y-100155820D01*
X91274188Y-100275518D01*
X91261928Y-100400000D01*
X90660000Y-100400000D01*
X90660000Y-98238665D01*
X114565000Y-98238665D01*
X114565000Y-98521335D01*
X114620147Y-98798574D01*
X114728320Y-99059727D01*
X114885363Y-99294759D01*
X115085241Y-99494637D01*
X115320273Y-99651680D01*
X115581426Y-99759853D01*
X115858665Y-99815000D01*
X116141335Y-99815000D01*
X116418574Y-99759853D01*
X116679727Y-99651680D01*
X116914759Y-99494637D01*
X117114637Y-99294759D01*
X117271680Y-99059727D01*
X117379853Y-98798574D01*
X117435000Y-98521335D01*
X117435000Y-98238665D01*
X119565000Y-98238665D01*
X119565000Y-98521335D01*
X119620147Y-98798574D01*
X119728320Y-99059727D01*
X119885363Y-99294759D01*
X120085241Y-99494637D01*
X120320273Y-99651680D01*
X120581426Y-99759853D01*
X120858665Y-99815000D01*
X121141335Y-99815000D01*
X121418574Y-99759853D01*
X121679727Y-99651680D01*
X121914759Y-99494637D01*
X122114637Y-99294759D01*
X122271680Y-99059727D01*
X122379853Y-98798574D01*
X122435000Y-98521335D01*
X122435000Y-98238665D01*
X124565000Y-98238665D01*
X124565000Y-98521335D01*
X124620147Y-98798574D01*
X124728320Y-99059727D01*
X124885363Y-99294759D01*
X125085241Y-99494637D01*
X125320273Y-99651680D01*
X125581426Y-99759853D01*
X125858665Y-99815000D01*
X126141335Y-99815000D01*
X126418574Y-99759853D01*
X126679727Y-99651680D01*
X126914759Y-99494637D01*
X127114637Y-99294759D01*
X127271680Y-99059727D01*
X127379853Y-98798574D01*
X127435000Y-98521335D01*
X127435000Y-98238665D01*
X129565000Y-98238665D01*
X129565000Y-98521335D01*
X129620147Y-98798574D01*
X129728320Y-99059727D01*
X129885363Y-99294759D01*
X130085241Y-99494637D01*
X130320273Y-99651680D01*
X130581426Y-99759853D01*
X130858665Y-99815000D01*
X131141335Y-99815000D01*
X131418574Y-99759853D01*
X131679727Y-99651680D01*
X131914759Y-99494637D01*
X132114637Y-99294759D01*
X132271680Y-99059727D01*
X132379853Y-98798574D01*
X132435000Y-98521335D01*
X132435000Y-98238665D01*
X134565000Y-98238665D01*
X134565000Y-98521335D01*
X134620147Y-98798574D01*
X134728320Y-99059727D01*
X134885363Y-99294759D01*
X135085241Y-99494637D01*
X135320273Y-99651680D01*
X135581426Y-99759853D01*
X135858665Y-99815000D01*
X136141335Y-99815000D01*
X136418574Y-99759853D01*
X136679727Y-99651680D01*
X136914759Y-99494637D01*
X137114637Y-99294759D01*
X137271680Y-99059727D01*
X137379853Y-98798574D01*
X137435000Y-98521335D01*
X137435000Y-98238665D01*
X139565000Y-98238665D01*
X139565000Y-98521335D01*
X139620147Y-98798574D01*
X139728320Y-99059727D01*
X139885363Y-99294759D01*
X140085241Y-99494637D01*
X140320273Y-99651680D01*
X140581426Y-99759853D01*
X140858665Y-99815000D01*
X141141335Y-99815000D01*
X141418574Y-99759853D01*
X141679727Y-99651680D01*
X141914759Y-99494637D01*
X142114637Y-99294759D01*
X142271680Y-99059727D01*
X142379853Y-98798574D01*
X142435000Y-98521335D01*
X142435000Y-98238665D01*
X144565000Y-98238665D01*
X144565000Y-98521335D01*
X144620147Y-98798574D01*
X144728320Y-99059727D01*
X144885363Y-99294759D01*
X145085241Y-99494637D01*
X145320273Y-99651680D01*
X145581426Y-99759853D01*
X145858665Y-99815000D01*
X146141335Y-99815000D01*
X146418574Y-99759853D01*
X146679727Y-99651680D01*
X146914759Y-99494637D01*
X147114637Y-99294759D01*
X147271680Y-99059727D01*
X147379853Y-98798574D01*
X147435000Y-98521335D01*
X147435000Y-98238665D01*
X149565000Y-98238665D01*
X149565000Y-98521335D01*
X149620147Y-98798574D01*
X149728320Y-99059727D01*
X149885363Y-99294759D01*
X150085241Y-99494637D01*
X150320273Y-99651680D01*
X150581426Y-99759853D01*
X150858665Y-99815000D01*
X151141335Y-99815000D01*
X151418574Y-99759853D01*
X151679727Y-99651680D01*
X151914759Y-99494637D01*
X152114637Y-99294759D01*
X152271680Y-99059727D01*
X152379853Y-98798574D01*
X152435000Y-98521335D01*
X152435000Y-98238665D01*
X152379853Y-97961426D01*
X152271680Y-97700273D01*
X152114637Y-97465241D01*
X151914759Y-97265363D01*
X151679727Y-97108320D01*
X151418574Y-97000147D01*
X151141335Y-96945000D01*
X150858665Y-96945000D01*
X150581426Y-97000147D01*
X150320273Y-97108320D01*
X150085241Y-97265363D01*
X149885363Y-97465241D01*
X149728320Y-97700273D01*
X149620147Y-97961426D01*
X149565000Y-98238665D01*
X147435000Y-98238665D01*
X147379853Y-97961426D01*
X147271680Y-97700273D01*
X147114637Y-97465241D01*
X146914759Y-97265363D01*
X146679727Y-97108320D01*
X146418574Y-97000147D01*
X146141335Y-96945000D01*
X145858665Y-96945000D01*
X145581426Y-97000147D01*
X145320273Y-97108320D01*
X145085241Y-97265363D01*
X144885363Y-97465241D01*
X144728320Y-97700273D01*
X144620147Y-97961426D01*
X144565000Y-98238665D01*
X142435000Y-98238665D01*
X142379853Y-97961426D01*
X142271680Y-97700273D01*
X142114637Y-97465241D01*
X141914759Y-97265363D01*
X141679727Y-97108320D01*
X141418574Y-97000147D01*
X141141335Y-96945000D01*
X140858665Y-96945000D01*
X140581426Y-97000147D01*
X140320273Y-97108320D01*
X140085241Y-97265363D01*
X139885363Y-97465241D01*
X139728320Y-97700273D01*
X139620147Y-97961426D01*
X139565000Y-98238665D01*
X137435000Y-98238665D01*
X137379853Y-97961426D01*
X137271680Y-97700273D01*
X137114637Y-97465241D01*
X136914759Y-97265363D01*
X136679727Y-97108320D01*
X136418574Y-97000147D01*
X136141335Y-96945000D01*
X135858665Y-96945000D01*
X135581426Y-97000147D01*
X135320273Y-97108320D01*
X135085241Y-97265363D01*
X134885363Y-97465241D01*
X134728320Y-97700273D01*
X134620147Y-97961426D01*
X134565000Y-98238665D01*
X132435000Y-98238665D01*
X132379853Y-97961426D01*
X132271680Y-97700273D01*
X132114637Y-97465241D01*
X131914759Y-97265363D01*
X131679727Y-97108320D01*
X131418574Y-97000147D01*
X131141335Y-96945000D01*
X130858665Y-96945000D01*
X130581426Y-97000147D01*
X130320273Y-97108320D01*
X130085241Y-97265363D01*
X129885363Y-97465241D01*
X129728320Y-97700273D01*
X129620147Y-97961426D01*
X129565000Y-98238665D01*
X127435000Y-98238665D01*
X127379853Y-97961426D01*
X127271680Y-97700273D01*
X127114637Y-97465241D01*
X126914759Y-97265363D01*
X126679727Y-97108320D01*
X126418574Y-97000147D01*
X126141335Y-96945000D01*
X125858665Y-96945000D01*
X125581426Y-97000147D01*
X125320273Y-97108320D01*
X125085241Y-97265363D01*
X124885363Y-97465241D01*
X124728320Y-97700273D01*
X124620147Y-97961426D01*
X124565000Y-98238665D01*
X122435000Y-98238665D01*
X122379853Y-97961426D01*
X122271680Y-97700273D01*
X122114637Y-97465241D01*
X121914759Y-97265363D01*
X121679727Y-97108320D01*
X121418574Y-97000147D01*
X121141335Y-96945000D01*
X120858665Y-96945000D01*
X120581426Y-97000147D01*
X120320273Y-97108320D01*
X120085241Y-97265363D01*
X119885363Y-97465241D01*
X119728320Y-97700273D01*
X119620147Y-97961426D01*
X119565000Y-98238665D01*
X117435000Y-98238665D01*
X117379853Y-97961426D01*
X117271680Y-97700273D01*
X117114637Y-97465241D01*
X116914759Y-97265363D01*
X116679727Y-97108320D01*
X116418574Y-97000147D01*
X116141335Y-96945000D01*
X115858665Y-96945000D01*
X115581426Y-97000147D01*
X115320273Y-97108320D01*
X115085241Y-97265363D01*
X114885363Y-97465241D01*
X114728320Y-97700273D01*
X114620147Y-97961426D01*
X114565000Y-98238665D01*
X90660000Y-98238665D01*
X90660000Y-97123505D01*
X92506809Y-97123505D01*
X92513263Y-97169633D01*
X92608898Y-97401367D01*
X92747905Y-97609991D01*
X92924941Y-97787488D01*
X93133203Y-97927036D01*
X93364688Y-98023273D01*
X93610500Y-98072500D01*
X93873000Y-98072500D01*
X93873000Y-96927000D01*
X94127000Y-96927000D01*
X94127000Y-98072500D01*
X94389500Y-98072500D01*
X94635312Y-98023273D01*
X94866797Y-97927036D01*
X95075059Y-97787488D01*
X95252095Y-97609991D01*
X95391102Y-97401367D01*
X95486737Y-97169633D01*
X95493191Y-97123505D01*
X95368985Y-96927000D01*
X94127000Y-96927000D01*
X93873000Y-96927000D01*
X92631015Y-96927000D01*
X92506809Y-97123505D01*
X90660000Y-97123505D01*
X90660000Y-91700000D01*
X92458843Y-91700000D01*
X92483412Y-91949454D01*
X92556175Y-92189321D01*
X92674336Y-92410384D01*
X92788417Y-92549392D01*
X92747905Y-92590009D01*
X92608898Y-92798633D01*
X92513263Y-93030367D01*
X92506809Y-93076495D01*
X92631015Y-93273000D01*
X93873000Y-93273000D01*
X93873000Y-93253000D01*
X94127000Y-93253000D01*
X94127000Y-93273000D01*
X94147000Y-93273000D01*
X94147000Y-93527000D01*
X94127000Y-93527000D01*
X94127000Y-93547000D01*
X93873000Y-93547000D01*
X93873000Y-93527000D01*
X92631015Y-93527000D01*
X92506809Y-93723505D01*
X92513263Y-93769633D01*
X92608898Y-94001367D01*
X92747905Y-94209991D01*
X92788417Y-94250608D01*
X92674336Y-94389616D01*
X92556175Y-94610679D01*
X92483412Y-94850546D01*
X92458843Y-95100000D01*
X92483412Y-95349454D01*
X92556175Y-95589321D01*
X92674336Y-95810384D01*
X92788417Y-95949392D01*
X92747905Y-95990009D01*
X92608898Y-96198633D01*
X92513263Y-96430367D01*
X92506809Y-96476495D01*
X92631015Y-96673000D01*
X93873000Y-96673000D01*
X93873000Y-96653000D01*
X94127000Y-96653000D01*
X94127000Y-96673000D01*
X95368985Y-96673000D01*
X95493191Y-96476495D01*
X95486737Y-96430367D01*
X95391102Y-96198633D01*
X95252095Y-95990009D01*
X95211583Y-95949392D01*
X95325664Y-95810384D01*
X95443825Y-95589321D01*
X95516588Y-95349454D01*
X95541157Y-95100000D01*
X95516588Y-94850546D01*
X95471824Y-94702978D01*
X95736014Y-94438788D01*
X95765011Y-94414991D01*
X95859984Y-94299266D01*
X95930556Y-94167237D01*
X95974013Y-94023976D01*
X95985010Y-93912323D01*
X95985010Y-93912315D01*
X95988686Y-93874990D01*
X95985010Y-93837665D01*
X95985010Y-93165098D01*
X108275000Y-93165098D01*
X108275000Y-93634902D01*
X108366654Y-94095679D01*
X108546440Y-94529721D01*
X108807450Y-94920349D01*
X109139651Y-95252550D01*
X109530279Y-95513560D01*
X109964321Y-95693346D01*
X110425098Y-95785000D01*
X110894902Y-95785000D01*
X111355679Y-95693346D01*
X111789721Y-95513560D01*
X111810014Y-95500000D01*
X155409428Y-95500000D01*
X155409428Y-97500000D01*
X155421688Y-97624482D01*
X155457998Y-97744180D01*
X155516963Y-97854494D01*
X155596315Y-97951185D01*
X155693006Y-98030537D01*
X155803320Y-98089502D01*
X155923018Y-98125812D01*
X156047500Y-98138072D01*
X157952500Y-98138072D01*
X158076982Y-98125812D01*
X158196680Y-98089502D01*
X158306994Y-98030537D01*
X158403685Y-97951185D01*
X158483037Y-97854494D01*
X158527905Y-97770553D01*
X158653766Y-97873845D01*
X158929552Y-98021255D01*
X159228797Y-98112030D01*
X159540000Y-98142681D01*
X159851204Y-98112030D01*
X160150449Y-98021255D01*
X160426235Y-97873845D01*
X160667963Y-97675463D01*
X160815162Y-97496100D01*
X160970563Y-97681315D01*
X161213077Y-97875969D01*
X161488906Y-98019571D01*
X161707020Y-98090563D01*
X161953000Y-97970594D01*
X161953000Y-96627000D01*
X162207000Y-96627000D01*
X162207000Y-97970594D01*
X162452980Y-98090563D01*
X162671094Y-98019571D01*
X162946923Y-97875969D01*
X163189437Y-97681315D01*
X163389316Y-97443089D01*
X163538879Y-97170446D01*
X163632378Y-96873863D01*
X163505570Y-96627000D01*
X162207000Y-96627000D01*
X161953000Y-96627000D01*
X161933000Y-96627000D01*
X161933000Y-96373000D01*
X161953000Y-96373000D01*
X161953000Y-95029406D01*
X162207000Y-95029406D01*
X162207000Y-96373000D01*
X163505570Y-96373000D01*
X163632378Y-96126137D01*
X163538879Y-95829554D01*
X163389316Y-95556911D01*
X163189437Y-95318685D01*
X162946923Y-95124031D01*
X162671094Y-94980429D01*
X162452980Y-94909437D01*
X162207000Y-95029406D01*
X161953000Y-95029406D01*
X161707020Y-94909437D01*
X161488906Y-94980429D01*
X161213077Y-95124031D01*
X160970563Y-95318685D01*
X160815163Y-95503899D01*
X160667963Y-95324537D01*
X160426234Y-95126155D01*
X160150448Y-94978745D01*
X159851203Y-94887970D01*
X159540000Y-94857319D01*
X159228796Y-94887970D01*
X158929551Y-94978745D01*
X158653765Y-95126155D01*
X158527905Y-95229446D01*
X158483037Y-95145506D01*
X158403685Y-95048815D01*
X158306994Y-94969463D01*
X158196680Y-94910498D01*
X158076982Y-94874188D01*
X157952500Y-94861928D01*
X156047500Y-94861928D01*
X155923018Y-94874188D01*
X155803320Y-94910498D01*
X155693006Y-94969463D01*
X155596315Y-95048815D01*
X155516963Y-95145506D01*
X155457998Y-95255820D01*
X155421688Y-95375518D01*
X155409428Y-95500000D01*
X111810014Y-95500000D01*
X112180349Y-95252550D01*
X112512550Y-94920349D01*
X112773560Y-94529721D01*
X112897459Y-94230600D01*
X168787228Y-94230600D01*
X168787228Y-97230600D01*
X168799488Y-97355082D01*
X168835798Y-97474780D01*
X168894763Y-97585094D01*
X168974115Y-97681785D01*
X169070806Y-97761137D01*
X169181120Y-97820102D01*
X169300818Y-97856412D01*
X169425300Y-97868672D01*
X172425300Y-97868672D01*
X172549782Y-97856412D01*
X172669480Y-97820102D01*
X172779794Y-97761137D01*
X172876485Y-97681785D01*
X172955837Y-97585094D01*
X173014802Y-97474780D01*
X173051112Y-97355082D01*
X173063372Y-97230600D01*
X173063372Y-94230600D01*
X173051112Y-94106118D01*
X173014802Y-93986420D01*
X172955837Y-93876106D01*
X172876485Y-93779415D01*
X172779794Y-93700063D01*
X172669480Y-93641098D01*
X172549782Y-93604788D01*
X172425300Y-93592528D01*
X169425300Y-93592528D01*
X169300818Y-93604788D01*
X169181120Y-93641098D01*
X169070806Y-93700063D01*
X168974115Y-93779415D01*
X168894763Y-93876106D01*
X168835798Y-93986420D01*
X168799488Y-94106118D01*
X168787228Y-94230600D01*
X112897459Y-94230600D01*
X112953346Y-94095679D01*
X113045000Y-93634902D01*
X113045000Y-93165098D01*
X112953346Y-92704321D01*
X112773560Y-92270279D01*
X112512550Y-91879651D01*
X112382899Y-91750000D01*
X115836928Y-91750000D01*
X115849188Y-91874482D01*
X115885498Y-91994180D01*
X115944463Y-92104494D01*
X116023815Y-92201185D01*
X116120506Y-92280537D01*
X116230820Y-92339502D01*
X116350518Y-92375812D01*
X116475000Y-92388072D01*
X116714250Y-92385000D01*
X116873000Y-92226250D01*
X116873000Y-91127000D01*
X115998750Y-91127000D01*
X115840000Y-91285750D01*
X115836928Y-91750000D01*
X112382899Y-91750000D01*
X112180349Y-91547450D01*
X111789721Y-91286440D01*
X111355679Y-91106654D01*
X110894902Y-91015000D01*
X110425098Y-91015000D01*
X109964321Y-91106654D01*
X109530279Y-91286440D01*
X109139651Y-91547450D01*
X108807450Y-91879651D01*
X108546440Y-92270279D01*
X108366654Y-92704321D01*
X108275000Y-93165098D01*
X95985010Y-93165098D01*
X95985010Y-90250000D01*
X115836928Y-90250000D01*
X115840000Y-90714250D01*
X115998750Y-90873000D01*
X116873000Y-90873000D01*
X116873000Y-89773750D01*
X116714250Y-89615000D01*
X116475000Y-89611928D01*
X116350518Y-89624188D01*
X116230820Y-89660498D01*
X116120506Y-89719463D01*
X116023815Y-89798815D01*
X115944463Y-89895506D01*
X115885498Y-90005820D01*
X115849188Y-90125518D01*
X115836928Y-90250000D01*
X95985010Y-90250000D01*
X95985010Y-86382335D01*
X95988686Y-86345010D01*
X95985010Y-86307685D01*
X95985010Y-86307677D01*
X95974013Y-86196024D01*
X95930556Y-86052763D01*
X95859984Y-85920734D01*
X95765011Y-85805009D01*
X95736013Y-85781211D01*
X95677210Y-85722408D01*
X104043000Y-85722408D01*
X104043000Y-85997592D01*
X104096686Y-86267490D01*
X104201995Y-86521727D01*
X104354880Y-86750535D01*
X104549465Y-86945120D01*
X104778273Y-87098005D01*
X105032510Y-87203314D01*
X105302408Y-87257000D01*
X105577592Y-87257000D01*
X105847490Y-87203314D01*
X106101727Y-87098005D01*
X106330535Y-86945120D01*
X106525120Y-86750535D01*
X106583920Y-86662535D01*
X106592188Y-86746482D01*
X106628498Y-86866180D01*
X106687463Y-86976494D01*
X106766815Y-87073185D01*
X106863506Y-87152537D01*
X106973820Y-87211502D01*
X107093518Y-87247812D01*
X107218000Y-87260072D01*
X107694250Y-87257000D01*
X107853000Y-87098250D01*
X107853000Y-85987000D01*
X107833000Y-85987000D01*
X107833000Y-85733000D01*
X107853000Y-85733000D01*
X107853000Y-84621750D01*
X108107000Y-84621750D01*
X108107000Y-85733000D01*
X108127000Y-85733000D01*
X108127000Y-85987000D01*
X108107000Y-85987000D01*
X108107000Y-87098250D01*
X108265750Y-87257000D01*
X108742000Y-87260072D01*
X108866482Y-87247812D01*
X108986180Y-87211502D01*
X109096494Y-87152537D01*
X109193185Y-87073185D01*
X109272537Y-86976494D01*
X109331502Y-86866180D01*
X109367812Y-86746482D01*
X109376080Y-86662535D01*
X109434880Y-86750535D01*
X109629465Y-86945120D01*
X109858273Y-87098005D01*
X110112510Y-87203314D01*
X110382408Y-87257000D01*
X110657592Y-87257000D01*
X110927490Y-87203314D01*
X111181727Y-87098005D01*
X111410535Y-86945120D01*
X111605120Y-86750535D01*
X111758005Y-86521727D01*
X111790000Y-86444485D01*
X111821995Y-86521727D01*
X111974880Y-86750535D01*
X112169465Y-86945120D01*
X112398273Y-87098005D01*
X112652510Y-87203314D01*
X112922408Y-87257000D01*
X113197592Y-87257000D01*
X113467490Y-87203314D01*
X113721727Y-87098005D01*
X113950535Y-86945120D01*
X114145120Y-86750535D01*
X114298005Y-86521727D01*
X114330000Y-86444485D01*
X114361995Y-86521727D01*
X114514880Y-86750535D01*
X114709465Y-86945120D01*
X114938273Y-87098005D01*
X115192510Y-87203314D01*
X115462408Y-87257000D01*
X115737592Y-87257000D01*
X115891570Y-87226372D01*
X117510000Y-88844802D01*
X117510000Y-89612121D01*
X117285750Y-89615000D01*
X117127000Y-89773750D01*
X117127000Y-90546892D01*
X117126785Y-90547601D01*
X117110000Y-90718022D01*
X117110000Y-91281979D01*
X117126785Y-91452400D01*
X117127000Y-91453109D01*
X117127000Y-92226250D01*
X117285750Y-92385000D01*
X117525000Y-92388072D01*
X117649482Y-92375812D01*
X117769180Y-92339502D01*
X117833902Y-92304907D01*
X118042601Y-92368215D01*
X118270000Y-92390612D01*
X118497400Y-92368215D01*
X118716060Y-92301885D01*
X118905001Y-92200894D01*
X119093941Y-92301885D01*
X119312601Y-92368215D01*
X119540000Y-92390612D01*
X119767400Y-92368215D01*
X119986060Y-92301885D01*
X120187579Y-92194171D01*
X120364212Y-92049212D01*
X120509171Y-91872579D01*
X120574690Y-91750000D01*
X123836928Y-91750000D01*
X123849188Y-91874482D01*
X123885498Y-91994180D01*
X123944463Y-92104494D01*
X124023815Y-92201185D01*
X124120506Y-92280537D01*
X124230820Y-92339502D01*
X124350518Y-92375812D01*
X124475000Y-92388072D01*
X124714250Y-92385000D01*
X124873000Y-92226250D01*
X124873000Y-91127000D01*
X123998750Y-91127000D01*
X123840000Y-91285750D01*
X123836928Y-91750000D01*
X120574690Y-91750000D01*
X120616885Y-91671059D01*
X120683215Y-91452399D01*
X120700000Y-91281978D01*
X120700000Y-90718021D01*
X120683215Y-90547600D01*
X120616885Y-90328940D01*
X120509171Y-90127421D01*
X120364212Y-89950788D01*
X120187578Y-89805829D01*
X119986059Y-89698115D01*
X119767399Y-89631785D01*
X119540000Y-89609388D01*
X119312600Y-89631785D01*
X119093940Y-89698115D01*
X119030000Y-89732292D01*
X119030000Y-88567322D01*
X119033676Y-88529999D01*
X119030000Y-88492676D01*
X119030000Y-88492667D01*
X119019003Y-88381014D01*
X118975546Y-88237753D01*
X118904974Y-88105724D01*
X118810001Y-87989999D01*
X118781004Y-87966202D01*
X118071802Y-87257000D01*
X118277592Y-87257000D01*
X118431570Y-87226372D01*
X120066230Y-88861032D01*
X120090029Y-88890031D01*
X120205754Y-88985004D01*
X120337783Y-89055576D01*
X120481044Y-89099033D01*
X120592697Y-89110030D01*
X120592706Y-89110030D01*
X120630029Y-89113706D01*
X120667352Y-89110030D01*
X123895231Y-89110030D01*
X124404110Y-89618910D01*
X124350518Y-89624188D01*
X124230820Y-89660498D01*
X124120506Y-89719463D01*
X124023815Y-89798815D01*
X123944463Y-89895506D01*
X123885498Y-90005820D01*
X123849188Y-90125518D01*
X123836928Y-90250000D01*
X123840000Y-90714250D01*
X123998750Y-90873000D01*
X124873000Y-90873000D01*
X124873000Y-90853000D01*
X125110000Y-90853000D01*
X125110000Y-91281979D01*
X125126785Y-91452400D01*
X125127000Y-91453109D01*
X125127000Y-92226250D01*
X125285750Y-92385000D01*
X125525000Y-92388072D01*
X125649482Y-92375812D01*
X125769180Y-92339502D01*
X125833902Y-92304907D01*
X126042601Y-92368215D01*
X126270000Y-92390612D01*
X126497400Y-92368215D01*
X126716060Y-92301885D01*
X126905001Y-92200894D01*
X127093941Y-92301885D01*
X127312601Y-92368215D01*
X127540000Y-92390612D01*
X127767400Y-92368215D01*
X127986060Y-92301885D01*
X128187579Y-92194171D01*
X128364212Y-92049212D01*
X128509171Y-91872579D01*
X128574690Y-91750000D01*
X131836928Y-91750000D01*
X131849188Y-91874482D01*
X131885498Y-91994180D01*
X131944463Y-92104494D01*
X132023815Y-92201185D01*
X132120506Y-92280537D01*
X132230820Y-92339502D01*
X132350518Y-92375812D01*
X132475000Y-92388072D01*
X132714250Y-92385000D01*
X132873000Y-92226250D01*
X132873000Y-91127000D01*
X131998750Y-91127000D01*
X131840000Y-91285750D01*
X131836928Y-91750000D01*
X128574690Y-91750000D01*
X128616885Y-91671059D01*
X128683215Y-91452399D01*
X128700000Y-91281978D01*
X128700000Y-90718021D01*
X128683215Y-90547600D01*
X128616885Y-90328940D01*
X128509171Y-90127421D01*
X128364212Y-89950788D01*
X128187578Y-89805829D01*
X127986059Y-89698115D01*
X127767399Y-89631785D01*
X127540000Y-89609388D01*
X127312600Y-89631785D01*
X127093940Y-89698115D01*
X126904999Y-89799106D01*
X126716059Y-89698115D01*
X126596717Y-89661913D01*
X125594823Y-88660020D01*
X131855219Y-88660020D01*
X132872998Y-89677800D01*
X132872998Y-89773748D01*
X132714250Y-89615000D01*
X132475000Y-89611928D01*
X132350518Y-89624188D01*
X132230820Y-89660498D01*
X132120506Y-89719463D01*
X132023815Y-89798815D01*
X131944463Y-89895506D01*
X131885498Y-90005820D01*
X131849188Y-90125518D01*
X131836928Y-90250000D01*
X131840000Y-90714250D01*
X131998750Y-90873000D01*
X132873000Y-90873000D01*
X132873000Y-90853000D01*
X133110000Y-90853000D01*
X133110000Y-91281979D01*
X133126785Y-91452400D01*
X133127000Y-91453109D01*
X133127000Y-92226250D01*
X133285750Y-92385000D01*
X133525000Y-92388072D01*
X133649482Y-92375812D01*
X133769180Y-92339502D01*
X133833902Y-92304907D01*
X134042601Y-92368215D01*
X134270000Y-92390612D01*
X134497400Y-92368215D01*
X134716060Y-92301885D01*
X134905001Y-92200894D01*
X135093941Y-92301885D01*
X135312601Y-92368215D01*
X135540000Y-92390612D01*
X135767400Y-92368215D01*
X135986060Y-92301885D01*
X136187579Y-92194171D01*
X136364212Y-92049212D01*
X136509171Y-91872579D01*
X136574690Y-91750000D01*
X139566928Y-91750000D01*
X139579188Y-91874482D01*
X139615498Y-91994180D01*
X139674463Y-92104494D01*
X139753815Y-92201185D01*
X139850506Y-92280537D01*
X139960820Y-92339502D01*
X140080518Y-92375812D01*
X140205000Y-92388072D01*
X140444250Y-92385000D01*
X140603000Y-92226250D01*
X140603000Y-91127000D01*
X139728750Y-91127000D01*
X139570000Y-91285750D01*
X139566928Y-91750000D01*
X136574690Y-91750000D01*
X136616885Y-91671059D01*
X136683215Y-91452399D01*
X136700000Y-91281978D01*
X136700000Y-90718021D01*
X136683215Y-90547600D01*
X136616885Y-90328940D01*
X136574691Y-90250000D01*
X139566928Y-90250000D01*
X139570000Y-90714250D01*
X139728750Y-90873000D01*
X140603000Y-90873000D01*
X140603000Y-89773750D01*
X140444250Y-89615000D01*
X140205000Y-89611928D01*
X140080518Y-89624188D01*
X139960820Y-89660498D01*
X139850506Y-89719463D01*
X139753815Y-89798815D01*
X139674463Y-89895506D01*
X139615498Y-90005820D01*
X139579188Y-90125518D01*
X139566928Y-90250000D01*
X136574691Y-90250000D01*
X136509171Y-90127421D01*
X136364212Y-89950788D01*
X136187578Y-89805829D01*
X135986059Y-89698115D01*
X135767399Y-89631785D01*
X135540000Y-89609388D01*
X135312600Y-89631785D01*
X135093940Y-89698115D01*
X134989548Y-89753913D01*
X134975546Y-89707753D01*
X134904974Y-89575724D01*
X134810001Y-89459999D01*
X134781004Y-89436202D01*
X133554810Y-88210009D01*
X140135208Y-88210009D01*
X141240000Y-89314802D01*
X141240000Y-89612121D01*
X141015750Y-89615000D01*
X140857000Y-89773750D01*
X140857000Y-90546892D01*
X140856785Y-90547601D01*
X140840000Y-90718022D01*
X140840000Y-91281979D01*
X140856785Y-91452400D01*
X140857000Y-91453109D01*
X140857000Y-92226250D01*
X141015750Y-92385000D01*
X141255000Y-92388072D01*
X141379482Y-92375812D01*
X141499180Y-92339502D01*
X141563902Y-92304907D01*
X141772601Y-92368215D01*
X142000000Y-92390612D01*
X142227400Y-92368215D01*
X142446060Y-92301885D01*
X142635001Y-92200894D01*
X142823941Y-92301885D01*
X143042601Y-92368215D01*
X143270000Y-92390612D01*
X143497400Y-92368215D01*
X143716060Y-92301885D01*
X143917579Y-92194171D01*
X144094212Y-92049212D01*
X144239171Y-91872579D01*
X144304690Y-91750000D01*
X147336928Y-91750000D01*
X147349188Y-91874482D01*
X147385498Y-91994180D01*
X147444463Y-92104494D01*
X147523815Y-92201185D01*
X147620506Y-92280537D01*
X147730820Y-92339502D01*
X147850518Y-92375812D01*
X147975000Y-92388072D01*
X148214250Y-92385000D01*
X148373000Y-92226250D01*
X148373000Y-91127000D01*
X147498750Y-91127000D01*
X147340000Y-91285750D01*
X147336928Y-91750000D01*
X144304690Y-91750000D01*
X144346885Y-91671059D01*
X144413215Y-91452399D01*
X144430000Y-91281978D01*
X144430000Y-90718021D01*
X144413215Y-90547600D01*
X144346885Y-90328940D01*
X144239171Y-90127421D01*
X144094212Y-89950788D01*
X143917578Y-89805829D01*
X143716059Y-89698115D01*
X143497399Y-89631785D01*
X143270000Y-89609388D01*
X143042600Y-89631785D01*
X142823940Y-89698115D01*
X142760000Y-89732292D01*
X142760000Y-89037322D01*
X142763676Y-88999999D01*
X142760000Y-88962676D01*
X142760000Y-88962667D01*
X142749003Y-88851014D01*
X142705546Y-88707753D01*
X142634974Y-88575724D01*
X142540001Y-88459999D01*
X142511004Y-88436202D01*
X141834802Y-87760000D01*
X145915199Y-87760000D01*
X147795941Y-89640744D01*
X147730820Y-89660498D01*
X147620506Y-89719463D01*
X147523815Y-89798815D01*
X147444463Y-89895506D01*
X147385498Y-90005820D01*
X147349188Y-90125518D01*
X147336928Y-90250000D01*
X147340000Y-90714250D01*
X147498750Y-90873000D01*
X148373000Y-90873000D01*
X148373000Y-90853000D01*
X148610000Y-90853000D01*
X148610000Y-91281979D01*
X148626785Y-91452400D01*
X148627000Y-91453109D01*
X148627000Y-92226250D01*
X148785750Y-92385000D01*
X149025000Y-92388072D01*
X149149482Y-92375812D01*
X149269180Y-92339502D01*
X149333902Y-92304907D01*
X149542601Y-92368215D01*
X149770000Y-92390612D01*
X149997400Y-92368215D01*
X150216060Y-92301885D01*
X150405001Y-92200894D01*
X150593941Y-92301885D01*
X150812601Y-92368215D01*
X151040000Y-92390612D01*
X151267400Y-92368215D01*
X151486060Y-92301885D01*
X151687579Y-92194171D01*
X151864212Y-92049212D01*
X152009171Y-91872579D01*
X152116885Y-91671059D01*
X152183215Y-91452399D01*
X152200000Y-91281978D01*
X152200000Y-90718021D01*
X152183215Y-90547600D01*
X152150673Y-90440321D01*
X168790300Y-90440321D01*
X168790300Y-90860879D01*
X168872347Y-91273356D01*
X169033288Y-91661902D01*
X169266937Y-92011583D01*
X169564317Y-92308963D01*
X169913998Y-92542612D01*
X170302544Y-92703553D01*
X170715021Y-92785600D01*
X171135579Y-92785600D01*
X171548056Y-92703553D01*
X171936602Y-92542612D01*
X172286283Y-92308963D01*
X172583663Y-92011583D01*
X172817312Y-91661902D01*
X172978253Y-91273356D01*
X173060300Y-90860879D01*
X173060300Y-90440321D01*
X172978253Y-90027844D01*
X172817312Y-89639298D01*
X172583663Y-89289617D01*
X172286283Y-88992237D01*
X171936602Y-88758588D01*
X171548056Y-88597647D01*
X171135579Y-88515600D01*
X170715021Y-88515600D01*
X170302544Y-88597647D01*
X169913998Y-88758588D01*
X169564317Y-88992237D01*
X169266937Y-89289617D01*
X169033288Y-89639298D01*
X168872347Y-90027844D01*
X168790300Y-90440321D01*
X152150673Y-90440321D01*
X152116885Y-90328940D01*
X152009171Y-90127421D01*
X151864212Y-89950788D01*
X151687578Y-89805829D01*
X151486059Y-89698115D01*
X151267399Y-89631785D01*
X151040000Y-89609388D01*
X150812600Y-89631785D01*
X150593940Y-89698115D01*
X150404999Y-89799106D01*
X150216059Y-89698115D01*
X149997399Y-89631785D01*
X149929944Y-89625141D01*
X147304802Y-87000000D01*
X155409428Y-87000000D01*
X155409428Y-89000000D01*
X155421688Y-89124482D01*
X155457998Y-89244180D01*
X155516963Y-89354494D01*
X155596315Y-89451185D01*
X155693006Y-89530537D01*
X155803320Y-89589502D01*
X155923018Y-89625812D01*
X156047500Y-89638072D01*
X157952500Y-89638072D01*
X158076982Y-89625812D01*
X158196680Y-89589502D01*
X158306994Y-89530537D01*
X158403685Y-89451185D01*
X158483037Y-89354494D01*
X158527905Y-89270553D01*
X158653766Y-89373845D01*
X158929552Y-89521255D01*
X159228797Y-89612030D01*
X159540000Y-89642681D01*
X159851204Y-89612030D01*
X160150449Y-89521255D01*
X160426235Y-89373845D01*
X160667963Y-89175463D01*
X160815162Y-88996100D01*
X160970563Y-89181315D01*
X161213077Y-89375969D01*
X161488906Y-89519571D01*
X161707020Y-89590563D01*
X161953000Y-89470594D01*
X161953000Y-88127000D01*
X162207000Y-88127000D01*
X162207000Y-89470594D01*
X162452980Y-89590563D01*
X162671094Y-89519571D01*
X162946923Y-89375969D01*
X163189437Y-89181315D01*
X163389316Y-88943089D01*
X163538879Y-88670446D01*
X163632378Y-88373863D01*
X163505570Y-88127000D01*
X162207000Y-88127000D01*
X161953000Y-88127000D01*
X161933000Y-88127000D01*
X161933000Y-87873000D01*
X161953000Y-87873000D01*
X161953000Y-86529406D01*
X162207000Y-86529406D01*
X162207000Y-87873000D01*
X163505570Y-87873000D01*
X163632378Y-87626137D01*
X163538879Y-87329554D01*
X163389316Y-87056911D01*
X163189437Y-86818685D01*
X162946923Y-86624031D01*
X162671094Y-86480429D01*
X162452980Y-86409437D01*
X162207000Y-86529406D01*
X161953000Y-86529406D01*
X161707020Y-86409437D01*
X161488906Y-86480429D01*
X161213077Y-86624031D01*
X160970563Y-86818685D01*
X160815163Y-87003899D01*
X160667963Y-86824537D01*
X160426234Y-86626155D01*
X160150448Y-86478745D01*
X159851203Y-86387970D01*
X159540000Y-86357319D01*
X159228796Y-86387970D01*
X158929551Y-86478745D01*
X158653765Y-86626155D01*
X158527905Y-86729446D01*
X158483037Y-86645506D01*
X158403685Y-86548815D01*
X158306994Y-86469463D01*
X158196680Y-86410498D01*
X158076982Y-86374188D01*
X157952500Y-86361928D01*
X156047500Y-86361928D01*
X155923018Y-86374188D01*
X155803320Y-86410498D01*
X155693006Y-86469463D01*
X155596315Y-86548815D01*
X155516963Y-86645506D01*
X155457998Y-86755820D01*
X155421688Y-86875518D01*
X155409428Y-87000000D01*
X147304802Y-87000000D01*
X146793804Y-86489003D01*
X146770001Y-86459999D01*
X146654276Y-86365026D01*
X146522247Y-86294454D01*
X146378986Y-86250997D01*
X146267333Y-86240000D01*
X146267322Y-86240000D01*
X146230000Y-86236324D01*
X146192678Y-86240000D01*
X142348782Y-86240000D01*
X142397000Y-85997592D01*
X142397000Y-85722408D01*
X142343314Y-85452510D01*
X142305128Y-85360321D01*
X168790300Y-85360321D01*
X168790300Y-85780879D01*
X168872347Y-86193356D01*
X169033288Y-86581902D01*
X169266937Y-86931583D01*
X169564317Y-87228963D01*
X169913998Y-87462612D01*
X170302544Y-87623553D01*
X170715021Y-87705600D01*
X171135579Y-87705600D01*
X171548056Y-87623553D01*
X171936602Y-87462612D01*
X172286283Y-87228963D01*
X172583663Y-86931583D01*
X172817312Y-86581902D01*
X172978253Y-86193356D01*
X173060300Y-85780879D01*
X173060300Y-85360321D01*
X172978253Y-84947844D01*
X172817312Y-84559298D01*
X172583663Y-84209617D01*
X172286283Y-83912237D01*
X171936602Y-83678588D01*
X171548056Y-83517647D01*
X171135579Y-83435600D01*
X170715021Y-83435600D01*
X170302544Y-83517647D01*
X169913998Y-83678588D01*
X169564317Y-83912237D01*
X169266937Y-84209617D01*
X169033288Y-84559298D01*
X168872347Y-84947844D01*
X168790300Y-85360321D01*
X142305128Y-85360321D01*
X142238005Y-85198273D01*
X142085120Y-84969465D01*
X141890535Y-84774880D01*
X141661727Y-84621995D01*
X141407490Y-84516686D01*
X141137592Y-84463000D01*
X140862408Y-84463000D01*
X140592510Y-84516686D01*
X140338273Y-84621995D01*
X140109465Y-84774880D01*
X139914880Y-84969465D01*
X139761995Y-85198273D01*
X139730000Y-85275515D01*
X139698005Y-85198273D01*
X139545120Y-84969465D01*
X139350535Y-84774880D01*
X139121727Y-84621995D01*
X138867490Y-84516686D01*
X138597592Y-84463000D01*
X138322408Y-84463000D01*
X138052510Y-84516686D01*
X137798273Y-84621995D01*
X137569465Y-84774880D01*
X137374880Y-84969465D01*
X137221995Y-85198273D01*
X137190000Y-85275515D01*
X137158005Y-85198273D01*
X137005120Y-84969465D01*
X136810535Y-84774880D01*
X136581727Y-84621995D01*
X136327490Y-84516686D01*
X136057592Y-84463000D01*
X135782408Y-84463000D01*
X135512510Y-84516686D01*
X135258273Y-84621995D01*
X135029465Y-84774880D01*
X134834880Y-84969465D01*
X134681995Y-85198273D01*
X134650000Y-85275515D01*
X134618005Y-85198273D01*
X134465120Y-84969465D01*
X134270535Y-84774880D01*
X134041727Y-84621995D01*
X133787490Y-84516686D01*
X133517592Y-84463000D01*
X133242408Y-84463000D01*
X132972510Y-84516686D01*
X132718273Y-84621995D01*
X132489465Y-84774880D01*
X132294880Y-84969465D01*
X132141995Y-85198273D01*
X132110000Y-85275515D01*
X132078005Y-85198273D01*
X131925120Y-84969465D01*
X131730535Y-84774880D01*
X131501727Y-84621995D01*
X131247490Y-84516686D01*
X130977592Y-84463000D01*
X130702408Y-84463000D01*
X130432510Y-84516686D01*
X130178273Y-84621995D01*
X129949465Y-84774880D01*
X129754880Y-84969465D01*
X129601995Y-85198273D01*
X129570000Y-85275515D01*
X129538005Y-85198273D01*
X129385120Y-84969465D01*
X129190535Y-84774880D01*
X128961727Y-84621995D01*
X128707490Y-84516686D01*
X128437592Y-84463000D01*
X128162408Y-84463000D01*
X127892510Y-84516686D01*
X127638273Y-84621995D01*
X127409465Y-84774880D01*
X127214880Y-84969465D01*
X127156080Y-85057465D01*
X127147812Y-84973518D01*
X127111502Y-84853820D01*
X127052537Y-84743506D01*
X126973185Y-84646815D01*
X126876494Y-84567463D01*
X126766180Y-84508498D01*
X126646482Y-84472188D01*
X126522000Y-84459928D01*
X126045750Y-84463000D01*
X125887000Y-84621750D01*
X125887000Y-85733000D01*
X125907000Y-85733000D01*
X125907000Y-85987000D01*
X125887000Y-85987000D01*
X125887000Y-86007000D01*
X125633000Y-86007000D01*
X125633000Y-85987000D01*
X125613000Y-85987000D01*
X125613000Y-85733000D01*
X125633000Y-85733000D01*
X125633000Y-84621750D01*
X125474250Y-84463000D01*
X124998000Y-84459928D01*
X124873518Y-84472188D01*
X124753820Y-84508498D01*
X124643506Y-84567463D01*
X124546815Y-84646815D01*
X124467463Y-84743506D01*
X124408498Y-84853820D01*
X124372188Y-84973518D01*
X124363920Y-85057465D01*
X124305120Y-84969465D01*
X124110535Y-84774880D01*
X123881727Y-84621995D01*
X123627490Y-84516686D01*
X123357592Y-84463000D01*
X123082408Y-84463000D01*
X122812510Y-84516686D01*
X122558273Y-84621995D01*
X122329465Y-84774880D01*
X122134880Y-84969465D01*
X121981995Y-85198273D01*
X121950000Y-85275515D01*
X121918005Y-85198273D01*
X121765120Y-84969465D01*
X121570535Y-84774880D01*
X121341727Y-84621995D01*
X121087490Y-84516686D01*
X120817592Y-84463000D01*
X120542408Y-84463000D01*
X120272510Y-84516686D01*
X120018273Y-84621995D01*
X119789465Y-84774880D01*
X119594880Y-84969465D01*
X119441995Y-85198273D01*
X119410000Y-85275515D01*
X119378005Y-85198273D01*
X119225120Y-84969465D01*
X119030535Y-84774880D01*
X118801727Y-84621995D01*
X118547490Y-84516686D01*
X118277592Y-84463000D01*
X118002408Y-84463000D01*
X117732510Y-84516686D01*
X117478273Y-84621995D01*
X117249465Y-84774880D01*
X117054880Y-84969465D01*
X116901995Y-85198273D01*
X116870000Y-85275515D01*
X116838005Y-85198273D01*
X116685120Y-84969465D01*
X116490535Y-84774880D01*
X116261727Y-84621995D01*
X116007490Y-84516686D01*
X115737592Y-84463000D01*
X115462408Y-84463000D01*
X115192510Y-84516686D01*
X114938273Y-84621995D01*
X114709465Y-84774880D01*
X114514880Y-84969465D01*
X114361995Y-85198273D01*
X114330000Y-85275515D01*
X114298005Y-85198273D01*
X114145120Y-84969465D01*
X113950535Y-84774880D01*
X113721727Y-84621995D01*
X113467490Y-84516686D01*
X113197592Y-84463000D01*
X112922408Y-84463000D01*
X112652510Y-84516686D01*
X112398273Y-84621995D01*
X112169465Y-84774880D01*
X111974880Y-84969465D01*
X111821995Y-85198273D01*
X111790000Y-85275515D01*
X111758005Y-85198273D01*
X111605120Y-84969465D01*
X111410535Y-84774880D01*
X111181727Y-84621995D01*
X110927490Y-84516686D01*
X110657592Y-84463000D01*
X110382408Y-84463000D01*
X110112510Y-84516686D01*
X109858273Y-84621995D01*
X109629465Y-84774880D01*
X109434880Y-84969465D01*
X109376080Y-85057465D01*
X109367812Y-84973518D01*
X109331502Y-84853820D01*
X109272537Y-84743506D01*
X109193185Y-84646815D01*
X109096494Y-84567463D01*
X108986180Y-84508498D01*
X108866482Y-84472188D01*
X108742000Y-84459928D01*
X108265750Y-84463000D01*
X108107000Y-84621750D01*
X107853000Y-84621750D01*
X107694250Y-84463000D01*
X107218000Y-84459928D01*
X107093518Y-84472188D01*
X106973820Y-84508498D01*
X106863506Y-84567463D01*
X106766815Y-84646815D01*
X106687463Y-84743506D01*
X106628498Y-84853820D01*
X106592188Y-84973518D01*
X106583920Y-85057465D01*
X106525120Y-84969465D01*
X106330535Y-84774880D01*
X106101727Y-84621995D01*
X105847490Y-84516686D01*
X105577592Y-84463000D01*
X105302408Y-84463000D01*
X105032510Y-84516686D01*
X104778273Y-84621995D01*
X104549465Y-84774880D01*
X104354880Y-84969465D01*
X104201995Y-85198273D01*
X104096686Y-85452510D01*
X104043000Y-85722408D01*
X95677210Y-85722408D01*
X95398688Y-85443886D01*
X95435000Y-85261335D01*
X95435000Y-84978665D01*
X95379853Y-84701426D01*
X95271680Y-84440273D01*
X95114637Y-84205241D01*
X94914759Y-84005363D01*
X94679727Y-83848320D01*
X94418574Y-83740147D01*
X94141335Y-83685000D01*
X93858665Y-83685000D01*
X93581426Y-83740147D01*
X93320273Y-83848320D01*
X93085241Y-84005363D01*
X92885363Y-84205241D01*
X92728320Y-84440273D01*
X92620147Y-84701426D01*
X92565000Y-84978665D01*
X92565000Y-85261335D01*
X92620147Y-85538574D01*
X92728320Y-85799727D01*
X92885363Y-86034759D01*
X93085241Y-86234637D01*
X93320273Y-86391680D01*
X93581426Y-86499853D01*
X93858665Y-86555000D01*
X94141335Y-86555000D01*
X94323886Y-86518688D01*
X94465011Y-86659813D01*
X94465011Y-88724428D01*
X93100000Y-88724428D01*
X92975518Y-88736688D01*
X92855820Y-88772998D01*
X92745506Y-88831963D01*
X92648815Y-88911315D01*
X92569463Y-89008006D01*
X92510498Y-89118320D01*
X92474188Y-89238018D01*
X92461928Y-89362500D01*
X92461928Y-90637500D01*
X92474188Y-90761982D01*
X92510498Y-90881680D01*
X92569463Y-90991994D01*
X92632202Y-91068442D01*
X92556175Y-91210679D01*
X92483412Y-91450546D01*
X92458843Y-91700000D01*
X90660000Y-91700000D01*
X90660000Y-77358665D01*
X92565000Y-77358665D01*
X92565000Y-77641335D01*
X92620147Y-77918574D01*
X92728320Y-78179727D01*
X92885363Y-78414759D01*
X93085241Y-78614637D01*
X93320273Y-78771680D01*
X93581426Y-78879853D01*
X93858665Y-78935000D01*
X94141335Y-78935000D01*
X94418574Y-78879853D01*
X94679727Y-78771680D01*
X94914759Y-78614637D01*
X95029396Y-78500000D01*
X155369428Y-78500000D01*
X155369428Y-80500000D01*
X155381688Y-80624482D01*
X155417998Y-80744180D01*
X155476963Y-80854494D01*
X155556315Y-80951185D01*
X155653006Y-81030537D01*
X155763320Y-81089502D01*
X155883018Y-81125812D01*
X156007500Y-81138072D01*
X157912500Y-81138072D01*
X158036982Y-81125812D01*
X158156680Y-81089502D01*
X158266994Y-81030537D01*
X158363685Y-80951185D01*
X158443037Y-80854494D01*
X158487905Y-80770553D01*
X158613766Y-80873845D01*
X158889552Y-81021255D01*
X159188797Y-81112030D01*
X159500000Y-81142681D01*
X159811204Y-81112030D01*
X160110449Y-81021255D01*
X160386235Y-80873845D01*
X160627963Y-80675463D01*
X160775162Y-80496100D01*
X160930563Y-80681315D01*
X161173077Y-80875969D01*
X161448906Y-81019571D01*
X161667020Y-81090563D01*
X161913000Y-80970594D01*
X161913000Y-79627000D01*
X162167000Y-79627000D01*
X162167000Y-80970594D01*
X162412980Y-81090563D01*
X162631094Y-81019571D01*
X162906923Y-80875969D01*
X163149437Y-80681315D01*
X163349316Y-80443089D01*
X163438605Y-80280321D01*
X168790300Y-80280321D01*
X168790300Y-80700879D01*
X168872347Y-81113356D01*
X169033288Y-81501902D01*
X169266937Y-81851583D01*
X169564317Y-82148963D01*
X169913998Y-82382612D01*
X170302544Y-82543553D01*
X170715021Y-82625600D01*
X171135579Y-82625600D01*
X171548056Y-82543553D01*
X171936602Y-82382612D01*
X172286283Y-82148963D01*
X172583663Y-81851583D01*
X172817312Y-81501902D01*
X172978253Y-81113356D01*
X173060300Y-80700879D01*
X173060300Y-80280321D01*
X172978253Y-79867844D01*
X172817312Y-79479298D01*
X172583663Y-79129617D01*
X172286283Y-78832237D01*
X171936602Y-78598588D01*
X171548056Y-78437647D01*
X171135579Y-78355600D01*
X170715021Y-78355600D01*
X170302544Y-78437647D01*
X169913998Y-78598588D01*
X169564317Y-78832237D01*
X169266937Y-79129617D01*
X169033288Y-79479298D01*
X168872347Y-79867844D01*
X168790300Y-80280321D01*
X163438605Y-80280321D01*
X163498879Y-80170446D01*
X163592378Y-79873863D01*
X163465570Y-79627000D01*
X162167000Y-79627000D01*
X161913000Y-79627000D01*
X161893000Y-79627000D01*
X161893000Y-79373000D01*
X161913000Y-79373000D01*
X161913000Y-78029406D01*
X162167000Y-78029406D01*
X162167000Y-79373000D01*
X163465570Y-79373000D01*
X163592378Y-79126137D01*
X163498879Y-78829554D01*
X163349316Y-78556911D01*
X163149437Y-78318685D01*
X162906923Y-78124031D01*
X162631094Y-77980429D01*
X162412980Y-77909437D01*
X162167000Y-78029406D01*
X161913000Y-78029406D01*
X161667020Y-77909437D01*
X161448906Y-77980429D01*
X161173077Y-78124031D01*
X160930563Y-78318685D01*
X160775163Y-78503899D01*
X160627963Y-78324537D01*
X160386234Y-78126155D01*
X160110448Y-77978745D01*
X159811203Y-77887970D01*
X159500000Y-77857319D01*
X159188796Y-77887970D01*
X158889551Y-77978745D01*
X158613765Y-78126155D01*
X158487905Y-78229446D01*
X158443037Y-78145506D01*
X158363685Y-78048815D01*
X158266994Y-77969463D01*
X158156680Y-77910498D01*
X158036982Y-77874188D01*
X157912500Y-77861928D01*
X156007500Y-77861928D01*
X155883018Y-77874188D01*
X155763320Y-77910498D01*
X155653006Y-77969463D01*
X155556315Y-78048815D01*
X155476963Y-78145506D01*
X155417998Y-78255820D01*
X155381688Y-78375518D01*
X155369428Y-78500000D01*
X95029396Y-78500000D01*
X95114637Y-78414759D01*
X95271680Y-78179727D01*
X95379853Y-77918574D01*
X95435000Y-77641335D01*
X95435000Y-77358665D01*
X95379853Y-77081426D01*
X95271680Y-76820273D01*
X95114637Y-76585241D01*
X94914759Y-76385363D01*
X94679727Y-76228320D01*
X94418574Y-76120147D01*
X94141335Y-76065000D01*
X93858665Y-76065000D01*
X93581426Y-76120147D01*
X93320273Y-76228320D01*
X93085241Y-76385363D01*
X92885363Y-76585241D01*
X92728320Y-76820273D01*
X92620147Y-77081426D01*
X92565000Y-77358665D01*
X90660000Y-77358665D01*
X90660000Y-75200321D01*
X168790300Y-75200321D01*
X168790300Y-75620879D01*
X168872347Y-76033356D01*
X169033288Y-76421902D01*
X169266937Y-76771583D01*
X169564317Y-77068963D01*
X169913998Y-77302612D01*
X170302544Y-77463553D01*
X170715021Y-77545600D01*
X171135579Y-77545600D01*
X171548056Y-77463553D01*
X171936602Y-77302612D01*
X172286283Y-77068963D01*
X172583663Y-76771583D01*
X172817312Y-76421902D01*
X172978253Y-76033356D01*
X173060300Y-75620879D01*
X173060300Y-75200321D01*
X172978253Y-74787844D01*
X172817312Y-74399298D01*
X172583663Y-74049617D01*
X172286283Y-73752237D01*
X171936602Y-73518588D01*
X171548056Y-73357647D01*
X171135579Y-73275600D01*
X170715021Y-73275600D01*
X170302544Y-73357647D01*
X169913998Y-73518588D01*
X169564317Y-73752237D01*
X169266937Y-74049617D01*
X169033288Y-74399298D01*
X168872347Y-74787844D01*
X168790300Y-75200321D01*
X90660000Y-75200321D01*
X90660000Y-70570512D01*
X92559783Y-70570512D01*
X92601213Y-70850130D01*
X92696397Y-71116292D01*
X92761616Y-71238309D01*
X92748815Y-71248815D01*
X92669463Y-71345506D01*
X92610498Y-71455820D01*
X92574188Y-71575518D01*
X92561928Y-71700000D01*
X92561928Y-73300000D01*
X92574188Y-73424482D01*
X92610498Y-73544180D01*
X92669463Y-73654494D01*
X92748815Y-73751185D01*
X92845506Y-73830537D01*
X92955820Y-73889502D01*
X93075518Y-73925812D01*
X93200000Y-73938072D01*
X94800000Y-73938072D01*
X94924482Y-73925812D01*
X95044180Y-73889502D01*
X95154494Y-73830537D01*
X95251185Y-73751185D01*
X95330537Y-73654494D01*
X95389502Y-73544180D01*
X95425812Y-73424482D01*
X95438072Y-73300000D01*
X95438072Y-71700000D01*
X95425812Y-71575518D01*
X95389502Y-71455820D01*
X95330537Y-71345506D01*
X95251185Y-71248815D01*
X95238242Y-71238193D01*
X95357571Y-70986004D01*
X95426300Y-70711816D01*
X95440217Y-70429488D01*
X95398787Y-70149870D01*
X95345191Y-70000000D01*
X155369428Y-70000000D01*
X155369428Y-72000000D01*
X155381688Y-72124482D01*
X155417998Y-72244180D01*
X155476963Y-72354494D01*
X155556315Y-72451185D01*
X155653006Y-72530537D01*
X155763320Y-72589502D01*
X155883018Y-72625812D01*
X156007500Y-72638072D01*
X157912500Y-72638072D01*
X158036982Y-72625812D01*
X158156680Y-72589502D01*
X158266994Y-72530537D01*
X158363685Y-72451185D01*
X158443037Y-72354494D01*
X158487905Y-72270553D01*
X158613766Y-72373845D01*
X158889552Y-72521255D01*
X159188797Y-72612030D01*
X159500000Y-72642681D01*
X159811204Y-72612030D01*
X160110449Y-72521255D01*
X160386235Y-72373845D01*
X160627963Y-72175463D01*
X160775162Y-71996100D01*
X160930563Y-72181315D01*
X161173077Y-72375969D01*
X161448906Y-72519571D01*
X161667020Y-72590563D01*
X161913000Y-72470594D01*
X161913000Y-71127000D01*
X162167000Y-71127000D01*
X162167000Y-72470594D01*
X162412980Y-72590563D01*
X162631094Y-72519571D01*
X162906923Y-72375969D01*
X163149437Y-72181315D01*
X163349316Y-71943089D01*
X163498879Y-71670446D01*
X163592378Y-71373863D01*
X163465570Y-71127000D01*
X162167000Y-71127000D01*
X161913000Y-71127000D01*
X161893000Y-71127000D01*
X161893000Y-70873000D01*
X161913000Y-70873000D01*
X161913000Y-69529406D01*
X162167000Y-69529406D01*
X162167000Y-70873000D01*
X163465570Y-70873000D01*
X163592378Y-70626137D01*
X163498879Y-70329554D01*
X163384101Y-70120321D01*
X168790300Y-70120321D01*
X168790300Y-70540879D01*
X168872347Y-70953356D01*
X169033288Y-71341902D01*
X169266937Y-71691583D01*
X169564317Y-71988963D01*
X169913998Y-72222612D01*
X170302544Y-72383553D01*
X170715021Y-72465600D01*
X171135579Y-72465600D01*
X171548056Y-72383553D01*
X171936602Y-72222612D01*
X172286283Y-71988963D01*
X172583663Y-71691583D01*
X172817312Y-71341902D01*
X172978253Y-70953356D01*
X173060300Y-70540879D01*
X173060300Y-70120321D01*
X172978253Y-69707844D01*
X172817312Y-69319298D01*
X172583663Y-68969617D01*
X172286283Y-68672237D01*
X171936602Y-68438588D01*
X171548056Y-68277647D01*
X171135579Y-68195600D01*
X170715021Y-68195600D01*
X170302544Y-68277647D01*
X169913998Y-68438588D01*
X169564317Y-68672237D01*
X169266937Y-68969617D01*
X169033288Y-69319298D01*
X168872347Y-69707844D01*
X168790300Y-70120321D01*
X163384101Y-70120321D01*
X163349316Y-70056911D01*
X163149437Y-69818685D01*
X162906923Y-69624031D01*
X162631094Y-69480429D01*
X162412980Y-69409437D01*
X162167000Y-69529406D01*
X161913000Y-69529406D01*
X161667020Y-69409437D01*
X161448906Y-69480429D01*
X161173077Y-69624031D01*
X160930563Y-69818685D01*
X160775163Y-70003899D01*
X160627963Y-69824537D01*
X160386234Y-69626155D01*
X160110448Y-69478745D01*
X159811203Y-69387970D01*
X159500000Y-69357319D01*
X159188796Y-69387970D01*
X158889551Y-69478745D01*
X158613765Y-69626155D01*
X158487905Y-69729446D01*
X158443037Y-69645506D01*
X158363685Y-69548815D01*
X158266994Y-69469463D01*
X158156680Y-69410498D01*
X158036982Y-69374188D01*
X157912500Y-69361928D01*
X156007500Y-69361928D01*
X155883018Y-69374188D01*
X155763320Y-69410498D01*
X155653006Y-69469463D01*
X155556315Y-69548815D01*
X155476963Y-69645506D01*
X155417998Y-69755820D01*
X155381688Y-69875518D01*
X155369428Y-70000000D01*
X95345191Y-70000000D01*
X95303603Y-69883708D01*
X95236671Y-69758486D01*
X94992702Y-69686903D01*
X94179605Y-70500000D01*
X94193748Y-70514143D01*
X94014143Y-70693748D01*
X94000000Y-70679605D01*
X93985858Y-70693748D01*
X93806253Y-70514143D01*
X93820395Y-70500000D01*
X93007298Y-69686903D01*
X92763329Y-69758486D01*
X92642429Y-70013996D01*
X92573700Y-70288184D01*
X92559783Y-70570512D01*
X90660000Y-70570512D01*
X90660000Y-69507298D01*
X93186903Y-69507298D01*
X94000000Y-70320395D01*
X94813097Y-69507298D01*
X94741514Y-69263329D01*
X94486004Y-69142429D01*
X94211816Y-69073700D01*
X93929488Y-69059783D01*
X93649870Y-69101213D01*
X93383708Y-69196397D01*
X93258486Y-69263329D01*
X93186903Y-69507298D01*
X90660000Y-69507298D01*
X90660000Y-65435239D01*
X90778705Y-65721818D01*
X91176511Y-66317177D01*
X91682823Y-66823489D01*
X92278182Y-67221295D01*
X92939710Y-67495309D01*
X93641984Y-67635000D01*
X94358016Y-67635000D01*
X95060290Y-67495309D01*
X95721818Y-67221295D01*
X96317177Y-66823489D01*
X96823489Y-66317177D01*
X97221295Y-65721818D01*
X97495309Y-65060290D01*
X97635000Y-64358016D01*
X97635000Y-63641984D01*
X97495309Y-62939710D01*
X97463290Y-62862408D01*
X104043000Y-62862408D01*
X104043000Y-63137592D01*
X104096686Y-63407490D01*
X104201995Y-63661727D01*
X104354880Y-63890535D01*
X104549465Y-64085120D01*
X104778273Y-64238005D01*
X105032510Y-64343314D01*
X105302408Y-64397000D01*
X105577592Y-64397000D01*
X105847490Y-64343314D01*
X106101727Y-64238005D01*
X106330535Y-64085120D01*
X106525120Y-63890535D01*
X106583920Y-63802535D01*
X106592188Y-63886482D01*
X106628498Y-64006180D01*
X106687463Y-64116494D01*
X106766815Y-64213185D01*
X106863506Y-64292537D01*
X106973820Y-64351502D01*
X107093518Y-64387812D01*
X107218000Y-64400072D01*
X107694250Y-64397000D01*
X107853000Y-64238250D01*
X107853000Y-63127000D01*
X107833000Y-63127000D01*
X107833000Y-62873000D01*
X107853000Y-62873000D01*
X107853000Y-61761750D01*
X108107000Y-61761750D01*
X108107000Y-62873000D01*
X108127000Y-62873000D01*
X108127000Y-63127000D01*
X108107000Y-63127000D01*
X108107000Y-64238250D01*
X108265750Y-64397000D01*
X108742000Y-64400072D01*
X108866482Y-64387812D01*
X108986180Y-64351502D01*
X109096494Y-64292537D01*
X109193185Y-64213185D01*
X109272537Y-64116494D01*
X109331502Y-64006180D01*
X109367812Y-63886482D01*
X109376080Y-63802535D01*
X109434880Y-63890535D01*
X109629465Y-64085120D01*
X109858273Y-64238005D01*
X110112510Y-64343314D01*
X110382408Y-64397000D01*
X110657592Y-64397000D01*
X110927490Y-64343314D01*
X111181727Y-64238005D01*
X111410535Y-64085120D01*
X111605120Y-63890535D01*
X111758005Y-63661727D01*
X111790000Y-63584485D01*
X111821995Y-63661727D01*
X111974880Y-63890535D01*
X112169465Y-64085120D01*
X112398273Y-64238005D01*
X112652510Y-64343314D01*
X112922408Y-64397000D01*
X113197592Y-64397000D01*
X113467490Y-64343314D01*
X113721727Y-64238005D01*
X113950535Y-64085120D01*
X114145120Y-63890535D01*
X114298005Y-63661727D01*
X114330000Y-63584485D01*
X114361995Y-63661727D01*
X114514880Y-63890535D01*
X114709465Y-64085120D01*
X114938273Y-64238005D01*
X115192510Y-64343314D01*
X115462408Y-64397000D01*
X115737592Y-64397000D01*
X116007490Y-64343314D01*
X116261727Y-64238005D01*
X116490535Y-64085120D01*
X116685120Y-63890535D01*
X116743920Y-63802535D01*
X116752188Y-63886482D01*
X116788498Y-64006180D01*
X116847463Y-64116494D01*
X116926815Y-64213185D01*
X117023506Y-64292537D01*
X117133820Y-64351502D01*
X117253518Y-64387812D01*
X117378000Y-64400072D01*
X117854250Y-64397000D01*
X118013000Y-64238250D01*
X118013000Y-63127000D01*
X117993000Y-63127000D01*
X117993000Y-62873000D01*
X118013000Y-62873000D01*
X118013000Y-61761750D01*
X118267000Y-61761750D01*
X118267000Y-62873000D01*
X118287000Y-62873000D01*
X118287000Y-63127000D01*
X118267000Y-63127000D01*
X118267000Y-64238250D01*
X118425750Y-64397000D01*
X118902000Y-64400072D01*
X119026482Y-64387812D01*
X119146180Y-64351502D01*
X119256494Y-64292537D01*
X119353185Y-64213185D01*
X119432537Y-64116494D01*
X119491502Y-64006180D01*
X119527812Y-63886482D01*
X119536080Y-63802535D01*
X119594880Y-63890535D01*
X119789465Y-64085120D01*
X120018273Y-64238005D01*
X120272510Y-64343314D01*
X120542408Y-64397000D01*
X120817592Y-64397000D01*
X121087490Y-64343314D01*
X121341727Y-64238005D01*
X121570535Y-64085120D01*
X121765120Y-63890535D01*
X121918005Y-63661727D01*
X121950000Y-63584485D01*
X121981995Y-63661727D01*
X122134880Y-63890535D01*
X122329465Y-64085120D01*
X122558273Y-64238005D01*
X122812510Y-64343314D01*
X123082408Y-64397000D01*
X123357592Y-64397000D01*
X123627490Y-64343314D01*
X123881727Y-64238005D01*
X124110535Y-64085120D01*
X124305120Y-63890535D01*
X124458005Y-63661727D01*
X124490000Y-63584485D01*
X124521995Y-63661727D01*
X124674880Y-63890535D01*
X124869465Y-64085120D01*
X125098273Y-64238005D01*
X125352510Y-64343314D01*
X125622408Y-64397000D01*
X125897592Y-64397000D01*
X126167490Y-64343314D01*
X126421727Y-64238005D01*
X126650535Y-64085120D01*
X126845120Y-63890535D01*
X126998005Y-63661727D01*
X127030000Y-63584485D01*
X127061995Y-63661727D01*
X127214880Y-63890535D01*
X127409465Y-64085120D01*
X127638273Y-64238005D01*
X127892510Y-64343314D01*
X128162408Y-64397000D01*
X128437592Y-64397000D01*
X128707490Y-64343314D01*
X128961727Y-64238005D01*
X129190535Y-64085120D01*
X129385120Y-63890535D01*
X129538005Y-63661727D01*
X129570000Y-63584485D01*
X129601995Y-63661727D01*
X129754880Y-63890535D01*
X129949465Y-64085120D01*
X130178273Y-64238005D01*
X130432510Y-64343314D01*
X130702408Y-64397000D01*
X130977592Y-64397000D01*
X131247490Y-64343314D01*
X131501727Y-64238005D01*
X131730535Y-64085120D01*
X131925120Y-63890535D01*
X132078005Y-63661727D01*
X132110000Y-63584485D01*
X132141995Y-63661727D01*
X132294880Y-63890535D01*
X132489465Y-64085120D01*
X132718273Y-64238005D01*
X132972510Y-64343314D01*
X133242408Y-64397000D01*
X133517592Y-64397000D01*
X133787490Y-64343314D01*
X134041727Y-64238005D01*
X134270535Y-64085120D01*
X134465120Y-63890535D01*
X134618005Y-63661727D01*
X134650000Y-63584485D01*
X134681995Y-63661727D01*
X134834880Y-63890535D01*
X135029465Y-64085120D01*
X135258273Y-64238005D01*
X135512510Y-64343314D01*
X135782408Y-64397000D01*
X136057592Y-64397000D01*
X136327490Y-64343314D01*
X136581727Y-64238005D01*
X136810535Y-64085120D01*
X137005120Y-63890535D01*
X137158005Y-63661727D01*
X137190000Y-63584485D01*
X137221995Y-63661727D01*
X137374880Y-63890535D01*
X137569465Y-64085120D01*
X137798273Y-64238005D01*
X138052510Y-64343314D01*
X138322408Y-64397000D01*
X138597592Y-64397000D01*
X138867490Y-64343314D01*
X139121727Y-64238005D01*
X139350535Y-64085120D01*
X139545120Y-63890535D01*
X139698005Y-63661727D01*
X139730000Y-63584485D01*
X139761995Y-63661727D01*
X139914880Y-63890535D01*
X140109465Y-64085120D01*
X140338273Y-64238005D01*
X140592510Y-64343314D01*
X140862408Y-64397000D01*
X141137592Y-64397000D01*
X141407490Y-64343314D01*
X141661727Y-64238005D01*
X141890535Y-64085120D01*
X142085120Y-63890535D01*
X142238005Y-63661727D01*
X142343314Y-63407490D01*
X142397000Y-63137592D01*
X142397000Y-62862408D01*
X142343314Y-62592510D01*
X142238005Y-62338273D01*
X142085120Y-62109465D01*
X141890535Y-61914880D01*
X141661727Y-61761995D01*
X141407490Y-61656686D01*
X141137592Y-61603000D01*
X140862408Y-61603000D01*
X140592510Y-61656686D01*
X140338273Y-61761995D01*
X140109465Y-61914880D01*
X139914880Y-62109465D01*
X139761995Y-62338273D01*
X139730000Y-62415515D01*
X139698005Y-62338273D01*
X139545120Y-62109465D01*
X139350535Y-61914880D01*
X139121727Y-61761995D01*
X138867490Y-61656686D01*
X138597592Y-61603000D01*
X138322408Y-61603000D01*
X138052510Y-61656686D01*
X137798273Y-61761995D01*
X137569465Y-61914880D01*
X137374880Y-62109465D01*
X137221995Y-62338273D01*
X137190000Y-62415515D01*
X137158005Y-62338273D01*
X137005120Y-62109465D01*
X136810535Y-61914880D01*
X136581727Y-61761995D01*
X136327490Y-61656686D01*
X136057592Y-61603000D01*
X135782408Y-61603000D01*
X135512510Y-61656686D01*
X135258273Y-61761995D01*
X135029465Y-61914880D01*
X134834880Y-62109465D01*
X134681995Y-62338273D01*
X134650000Y-62415515D01*
X134618005Y-62338273D01*
X134465120Y-62109465D01*
X134270535Y-61914880D01*
X134041727Y-61761995D01*
X133787490Y-61656686D01*
X133517592Y-61603000D01*
X133242408Y-61603000D01*
X132972510Y-61656686D01*
X132718273Y-61761995D01*
X132489465Y-61914880D01*
X132294880Y-62109465D01*
X132141995Y-62338273D01*
X132110000Y-62415515D01*
X132078005Y-62338273D01*
X131925120Y-62109465D01*
X131730535Y-61914880D01*
X131501727Y-61761995D01*
X131247490Y-61656686D01*
X130977592Y-61603000D01*
X130702408Y-61603000D01*
X130432510Y-61656686D01*
X130178273Y-61761995D01*
X129949465Y-61914880D01*
X129754880Y-62109465D01*
X129601995Y-62338273D01*
X129570000Y-62415515D01*
X129538005Y-62338273D01*
X129385120Y-62109465D01*
X129190535Y-61914880D01*
X128961727Y-61761995D01*
X128707490Y-61656686D01*
X128437592Y-61603000D01*
X128162408Y-61603000D01*
X127892510Y-61656686D01*
X127638273Y-61761995D01*
X127409465Y-61914880D01*
X127214880Y-62109465D01*
X127061995Y-62338273D01*
X127030000Y-62415515D01*
X126998005Y-62338273D01*
X126845120Y-62109465D01*
X126650535Y-61914880D01*
X126421727Y-61761995D01*
X126167490Y-61656686D01*
X125897592Y-61603000D01*
X125622408Y-61603000D01*
X125352510Y-61656686D01*
X125098273Y-61761995D01*
X124869465Y-61914880D01*
X124674880Y-62109465D01*
X124521995Y-62338273D01*
X124490000Y-62415515D01*
X124458005Y-62338273D01*
X124305120Y-62109465D01*
X124110535Y-61914880D01*
X123881727Y-61761995D01*
X123627490Y-61656686D01*
X123357592Y-61603000D01*
X123082408Y-61603000D01*
X122812510Y-61656686D01*
X122558273Y-61761995D01*
X122329465Y-61914880D01*
X122134880Y-62109465D01*
X121981995Y-62338273D01*
X121950000Y-62415515D01*
X121918005Y-62338273D01*
X121765120Y-62109465D01*
X121570535Y-61914880D01*
X121341727Y-61761995D01*
X121087490Y-61656686D01*
X120817592Y-61603000D01*
X120542408Y-61603000D01*
X120272510Y-61656686D01*
X120018273Y-61761995D01*
X119789465Y-61914880D01*
X119594880Y-62109465D01*
X119536080Y-62197465D01*
X119527812Y-62113518D01*
X119491502Y-61993820D01*
X119432537Y-61883506D01*
X119353185Y-61786815D01*
X119256494Y-61707463D01*
X119146180Y-61648498D01*
X119026482Y-61612188D01*
X118902000Y-61599928D01*
X118425750Y-61603000D01*
X118267000Y-61761750D01*
X118013000Y-61761750D01*
X117854250Y-61603000D01*
X117378000Y-61599928D01*
X117253518Y-61612188D01*
X117133820Y-61648498D01*
X117023506Y-61707463D01*
X116926815Y-61786815D01*
X116847463Y-61883506D01*
X116788498Y-61993820D01*
X116752188Y-62113518D01*
X116743920Y-62197465D01*
X116685120Y-62109465D01*
X116490535Y-61914880D01*
X116261727Y-61761995D01*
X116007490Y-61656686D01*
X115737592Y-61603000D01*
X115462408Y-61603000D01*
X115192510Y-61656686D01*
X114938273Y-61761995D01*
X114709465Y-61914880D01*
X114514880Y-62109465D01*
X114361995Y-62338273D01*
X114330000Y-62415515D01*
X114298005Y-62338273D01*
X114145120Y-62109465D01*
X113950535Y-61914880D01*
X113721727Y-61761995D01*
X113467490Y-61656686D01*
X113197592Y-61603000D01*
X112922408Y-61603000D01*
X112652510Y-61656686D01*
X112398273Y-61761995D01*
X112169465Y-61914880D01*
X111974880Y-62109465D01*
X111821995Y-62338273D01*
X111790000Y-62415515D01*
X111758005Y-62338273D01*
X111605120Y-62109465D01*
X111410535Y-61914880D01*
X111181727Y-61761995D01*
X110927490Y-61656686D01*
X110657592Y-61603000D01*
X110382408Y-61603000D01*
X110112510Y-61656686D01*
X109858273Y-61761995D01*
X109629465Y-61914880D01*
X109434880Y-62109465D01*
X109376080Y-62197465D01*
X109367812Y-62113518D01*
X109331502Y-61993820D01*
X109272537Y-61883506D01*
X109193185Y-61786815D01*
X109096494Y-61707463D01*
X108986180Y-61648498D01*
X108866482Y-61612188D01*
X108742000Y-61599928D01*
X108265750Y-61603000D01*
X108107000Y-61761750D01*
X107853000Y-61761750D01*
X107694250Y-61603000D01*
X107218000Y-61599928D01*
X107093518Y-61612188D01*
X106973820Y-61648498D01*
X106863506Y-61707463D01*
X106766815Y-61786815D01*
X106687463Y-61883506D01*
X106628498Y-61993820D01*
X106592188Y-62113518D01*
X106583920Y-62197465D01*
X106525120Y-62109465D01*
X106330535Y-61914880D01*
X106101727Y-61761995D01*
X105847490Y-61656686D01*
X105577592Y-61603000D01*
X105302408Y-61603000D01*
X105032510Y-61656686D01*
X104778273Y-61761995D01*
X104549465Y-61914880D01*
X104354880Y-62109465D01*
X104201995Y-62338273D01*
X104096686Y-62592510D01*
X104043000Y-62862408D01*
X97463290Y-62862408D01*
X97221295Y-62278182D01*
X96823489Y-61682823D01*
X96317177Y-61176511D01*
X95721818Y-60778705D01*
X95435239Y-60660000D01*
X150564761Y-60660000D01*
X150278182Y-60778705D01*
G37*
%TD.AperFunction*%
%TD*%
M02*
